<svg width="422" height="282" viewBox="0 0 422 282" fill="none" xmlns="http://www.w3.org/2000/svg">
<rect x="127" y="173" width="98" height="98" rx="9" stroke="#2488B3" stroke-width="2"/>
<line x1="149" y1="164" x2="149" y2="173" stroke="#2488B3" stroke-width="2" stroke-linecap="round"/>
<line x1="162" y1="164" x2="162" y2="173" stroke="#2488B3" stroke-width="2" stroke-linecap="round"/>
<line x1="174" y1="164" x2="174" y2="173" stroke="#2488B3" stroke-width="2" stroke-linecap="round"/>
<line x1="187" y1="164" x2="187" y2="173" stroke="#2488B3" stroke-width="2" stroke-linecap="round"/>
<line x1="201" y1="164" x2="201" y2="173" stroke="#2488B3" stroke-width="2" stroke-linecap="round"/>
<line x1="149" y1="272" x2="149" y2="281" stroke="#2488B3" stroke-width="2" stroke-linecap="round"/>
<line x1="162" y1="272" x2="162" y2="281" stroke="#2488B3" stroke-width="2" stroke-linecap="round"/>
<line x1="174" y1="272" x2="174" y2="281" stroke="#2488B3" stroke-width="2" stroke-linecap="round"/>
<line x1="187" y1="272" x2="187" y2="281" stroke="#2488B3" stroke-width="2" stroke-linecap="round"/>
<line x1="201" y1="272" x2="201" y2="281" stroke="#2488B3" stroke-width="2" stroke-linecap="round"/>
<line x1="234.009" y1="195.01" x2="225.01" y2="195.096" stroke="#2488B3" stroke-width="2" stroke-linecap="round"/>
<line x1="234.134" y1="208.009" x2="225.134" y2="208.095" stroke="#2488B3" stroke-width="2" stroke-linecap="round"/>
<line x1="234.249" y1="220.008" x2="225.249" y2="220.095" stroke="#2488B3" stroke-width="2" stroke-linecap="round"/>
<line x1="234.374" y1="233.008" x2="225.374" y2="233.094" stroke="#2488B3" stroke-width="2" stroke-linecap="round"/>
<line x1="234.508" y1="247.007" x2="225.508" y2="247.094" stroke="#2488B3" stroke-width="2" stroke-linecap="round"/>
<line x1="126.009" y1="194.01" x2="117.01" y2="194.096" stroke="#2488B3" stroke-width="2" stroke-linecap="round"/>
<line x1="126.134" y1="207.009" x2="117.134" y2="207.095" stroke="#2488B3" stroke-width="2" stroke-linecap="round"/>
<line x1="126.249" y1="219.008" x2="117.249" y2="219.095" stroke="#2488B3" stroke-width="2" stroke-linecap="round"/>
<line x1="126.374" y1="232.008" x2="117.374" y2="232.094" stroke="#2488B3" stroke-width="2" stroke-linecap="round"/>
<line x1="126.508" y1="246.007" x2="117.508" y2="246.094" stroke="#2488B3" stroke-width="2" stroke-linecap="round"/>
<path d="M152.126 243H148.895L158.241 217.545H161.423L170.77 243H167.538L159.932 221.572H159.733L152.126 243ZM153.32 233.057H166.345V235.791H153.32V233.057ZM174.735 243V217.545H183.336C185.333 217.545 186.965 217.906 188.233 218.627C189.509 219.339 190.453 220.305 191.066 221.523C191.68 222.741 191.986 224.1 191.986 225.599C191.986 227.099 191.68 228.462 191.066 229.689C190.462 230.915 189.525 231.893 188.257 232.622C186.99 233.343 185.366 233.703 183.385 233.703H177.221V230.969H183.286C184.653 230.969 185.751 230.733 186.58 230.26C187.408 229.788 188.009 229.15 188.382 228.346C188.763 227.534 188.953 226.619 188.953 225.599C188.953 224.58 188.763 223.669 188.382 222.865C188.009 222.061 187.404 221.432 186.567 220.976C185.73 220.512 184.62 220.28 183.236 220.28H177.817V243H174.735ZM200.034 217.545V243H196.952V217.545H200.034Z" fill="#2488B3"/>
<path d="M153.761 214V199.455H158.676C159.813 199.455 160.745 199.649 161.474 200.037C162.204 200.42 162.743 200.948 163.094 201.621C163.444 202.293 163.619 203.058 163.619 203.915C163.619 204.772 163.444 205.532 163.094 206.195C162.743 206.857 162.206 207.378 161.482 207.757C160.757 208.131 159.831 208.318 158.705 208.318H154.727V206.727H158.648C159.424 206.727 160.049 206.614 160.523 206.386C161.001 206.159 161.347 205.837 161.56 205.42C161.777 204.999 161.886 204.497 161.886 203.915C161.886 203.332 161.777 202.823 161.56 202.388C161.342 201.952 160.994 201.616 160.516 201.379C160.037 201.138 159.405 201.017 158.619 201.017H155.523V214H153.761ZM160.608 207.466L164.188 214H162.142L158.619 207.466H160.608ZM170.784 214.227C169.733 214.227 168.826 213.995 168.064 213.531C167.306 213.062 166.721 212.409 166.309 211.571C165.902 210.728 165.699 209.748 165.699 208.631C165.699 207.513 165.902 206.528 166.309 205.676C166.721 204.819 167.294 204.152 168.028 203.673C168.767 203.19 169.628 202.949 170.613 202.949C171.181 202.949 171.743 203.044 172.297 203.233C172.85 203.422 173.355 203.73 173.809 204.156C174.264 204.578 174.626 205.136 174.896 205.832C175.166 206.528 175.301 207.385 175.301 208.403V209.114H166.892V207.665H173.596C173.596 207.049 173.473 206.5 173.227 206.017C172.985 205.534 172.64 205.153 172.19 204.874C171.745 204.594 171.219 204.455 170.613 204.455C169.946 204.455 169.368 204.62 168.88 204.952C168.397 205.278 168.026 205.705 167.765 206.23C167.505 206.756 167.375 207.319 167.375 207.92V208.886C167.375 209.71 167.517 210.409 167.801 210.982C168.09 211.55 168.49 211.983 169.001 212.281C169.512 212.575 170.107 212.722 170.784 212.722C171.224 212.722 171.622 212.66 171.977 212.537C172.337 212.409 172.647 212.22 172.907 211.969C173.168 211.713 173.369 211.396 173.511 211.017L175.13 211.472C174.96 212.021 174.673 212.504 174.271 212.92C173.868 213.332 173.371 213.654 172.779 213.886C172.188 214.114 171.522 214.227 170.784 214.227ZM185.578 205.534L184.072 205.96C183.977 205.709 183.838 205.465 183.653 205.229C183.473 204.987 183.227 204.788 182.914 204.632C182.602 204.476 182.202 204.398 181.714 204.398C181.047 204.398 180.49 204.552 180.045 204.859C179.605 205.162 179.385 205.548 179.385 206.017C179.385 206.434 179.536 206.763 179.839 207.004C180.142 207.246 180.616 207.447 181.26 207.608L182.879 208.006C183.854 208.242 184.581 208.605 185.059 209.092C185.538 209.575 185.777 210.198 185.777 210.96C185.777 211.585 185.597 212.144 185.237 212.636C184.882 213.129 184.385 213.517 183.745 213.801C183.106 214.085 182.363 214.227 181.515 214.227C180.403 214.227 179.482 213.986 178.752 213.503C178.023 213.02 177.562 212.314 177.368 211.386L178.958 210.989C179.11 211.576 179.396 212.016 179.818 212.31C180.244 212.603 180.8 212.75 181.487 212.75C182.268 212.75 182.888 212.584 183.348 212.253C183.812 211.917 184.044 211.514 184.044 211.045C184.044 210.667 183.911 210.349 183.646 210.094C183.381 209.833 182.974 209.639 182.424 209.511L180.606 209.085C179.607 208.848 178.873 208.482 178.404 207.984C177.94 207.482 177.708 206.855 177.708 206.102C177.708 205.487 177.881 204.942 178.227 204.469C178.577 203.995 179.053 203.624 179.654 203.354C180.261 203.084 180.947 202.949 181.714 202.949C182.794 202.949 183.641 203.186 184.257 203.659C184.877 204.133 185.317 204.758 185.578 205.534ZM193.044 203.091V204.511H187.391V203.091H193.044ZM189.038 200.477H190.714V210.875C190.714 211.348 190.783 211.704 190.92 211.94C191.063 212.172 191.242 212.329 191.46 212.409C191.683 212.485 191.917 212.523 192.163 212.523C192.348 212.523 192.5 212.513 192.618 212.494C192.736 212.471 192.831 212.452 192.902 212.438L193.243 213.943C193.129 213.986 192.971 214.028 192.767 214.071C192.563 214.118 192.305 214.142 191.993 214.142C191.519 214.142 191.055 214.04 190.601 213.837C190.151 213.633 189.777 213.323 189.479 212.906C189.185 212.49 189.038 211.964 189.038 211.33V200.477Z" fill="#2488B3"/>
<path fill-rule="evenodd" clip-rule="evenodd" d="M328 172H322C316.477 172 312 176.477 312 182V262C312 267.523 316.477 272 322 272H402C407.523 272 412 267.523 412 262V182C412 176.477 407.523 172 402 172H344V174H402C406.418 174 410 177.582 410 182V262C410 266.418 406.418 270 402 270H322C317.582 270 314 266.418 314 262V182C314 177.582 317.582 174 322 174H328V172Z" fill="#2488B3"/>
<line x1="312" y1="194" x2="410" y2="194" stroke="#2488B3" stroke-width="2"/>
<circle cx="377" cy="184" r="5" fill="#2488B3"/>
<circle cx="390" cy="184" r="5" fill="#2488B3"/>
<circle cx="364" cy="184" r="5" fill="#2488B3"/>
<circle cx="395" cy="262" r="5" fill="#2488B3"/>
<rect x="327.5" y="209.5" width="13" height="12" rx="3.5" fill="#D9D9D9" stroke="#2488B3"/>
<rect x="350.5" y="209.5" width="13" height="12" rx="3.5" fill="#D9D9D9" stroke="#2488B3"/>
<rect x="371.5" y="209.5" width="27" height="12" rx="3.5" fill="#D9D9D9" stroke="#2488B3"/>
<line x1="329" y1="234.5" x2="399" y2="234.5" stroke="#2488B3"/>
<line x1="329" y1="250.5" x2="399" y2="250.5" stroke="#2488B3"/>
<line x1="329" y1="242.5" x2="385" y2="242.5" stroke="#2488B3"/>
<path d="M334.48 178.091H335.801V185.314C335.801 186.06 335.625 186.725 335.274 187.311C334.926 187.894 334.434 188.354 333.798 188.691C333.163 189.025 332.417 189.192 331.561 189.192C330.705 189.192 329.96 189.025 329.324 188.691C328.688 188.354 328.195 187.894 327.843 187.311C327.495 186.725 327.321 186.06 327.321 185.314V178.091H328.642V185.207C328.642 185.74 328.759 186.214 328.994 186.63C329.228 187.042 329.562 187.366 329.995 187.604C330.432 187.839 330.954 187.956 331.561 187.956C332.168 187.956 332.69 187.839 333.127 187.604C333.564 187.366 333.898 187.042 334.129 186.63C334.363 186.214 334.48 185.74 334.48 185.207V178.091ZM339.76 178.091V189H338.439V178.091H339.76Z" fill="#2488B3"/>
<path d="M258.646 221.146C258.451 221.342 258.451 221.658 258.646 221.854L261.828 225.036C262.024 225.231 262.34 225.231 262.536 225.036C262.731 224.84 262.731 224.524 262.536 224.328L259.707 221.5L262.536 218.672C262.731 218.476 262.731 218.16 262.536 217.964C262.34 217.769 262.024 217.769 261.828 217.964L258.646 221.146ZM299.354 221.854C299.549 221.658 299.549 221.342 299.354 221.146L296.172 217.964C295.976 217.769 295.66 217.769 295.464 217.964C295.269 218.16 295.269 218.476 295.464 218.672L298.293 221.5L295.464 224.328C295.269 224.524 295.269 224.84 295.464 225.036C295.66 225.231 295.976 225.231 296.172 225.036L299.354 221.854ZM259 222H299V221H259V222Z" fill="#2488B3"/>
<path d="M117.989 179.5C118.265 179.506 118.494 179.287 118.5 179.011L118.596 174.512C118.602 174.236 118.382 174.007 118.106 174.001C117.83 173.995 117.602 174.214 117.596 174.49L117.511 178.489L113.512 178.404C113.236 178.398 113.007 178.618 113.001 178.894C112.995 179.17 113.214 179.398 113.49 179.404L117.989 179.5ZM69.3779 127.752C69.1018 127.746 68.8732 127.965 68.8673 128.241L68.7716 132.74C68.7657 133.016 68.9847 133.245 69.2608 133.25C69.5369 133.256 69.7655 133.037 69.7713 132.761L69.8565 128.762L73.8556 128.847C74.1316 128.853 74.3602 128.634 74.3661 128.358C74.372 128.082 74.1529 127.853 73.8768 127.847L69.3779 127.752ZM118.361 178.654L69.7282 127.906L69.0062 128.598L117.639 179.346L118.361 178.654Z" fill="#2488B3"/>
<path d="M24.554 216.419V215.759C25.147 215.759 25.5607 215.634 25.7951 215.386C26.033 215.137 26.152 214.722 26.152 214.139V212.435C26.152 211.945 26.1982 211.52 26.2905 211.162C26.3864 210.803 26.5408 210.506 26.7539 210.272C26.967 210.038 27.2511 209.864 27.6062 209.75C27.9613 209.636 28.3999 209.58 28.9219 209.58V210.624C28.5099 210.624 28.185 210.687 27.9471 210.815C27.7127 210.943 27.5458 211.142 27.4464 211.412C27.3505 211.678 27.3026 212.019 27.3026 212.435V214.565C27.3026 214.842 27.2653 215.094 27.1907 215.322C27.1197 215.549 26.9865 215.744 26.7912 215.908C26.5959 216.071 26.3171 216.197 25.9549 216.286C25.5962 216.375 25.1293 216.419 24.554 216.419ZM28.9219 223.216C28.3999 223.216 27.9613 223.159 27.6062 223.045C27.2511 222.932 26.967 222.758 26.7539 222.523C26.5408 222.289 26.3864 221.993 26.2905 221.634C26.1982 221.275 26.152 220.851 26.152 220.361V218.656C26.152 218.074 26.033 217.658 25.7951 217.41C25.5607 217.161 25.147 217.037 24.554 217.037V216.376C25.1293 216.376 25.5962 216.421 25.9549 216.51C26.3171 216.598 26.5959 216.724 26.7912 216.888C26.9865 217.051 27.1197 217.246 27.1907 217.474C27.2653 217.701 27.3026 217.953 27.3026 218.23V220.361C27.3026 220.776 27.3505 221.117 27.4464 221.384C27.5458 221.65 27.7127 221.847 27.9471 221.975C28.185 222.106 28.5099 222.172 28.9219 222.172V223.216ZM24.554 217.037V215.759H25.8111V217.037H24.554ZM31.5013 221.085C31.2385 221.085 31.0131 220.991 30.8248 220.803C30.6366 220.615 30.5425 220.389 30.5425 220.126C30.5425 219.864 30.6366 219.638 30.8248 219.45C31.0131 219.262 31.2385 219.168 31.5013 219.168C31.7641 219.168 31.9896 219.262 32.1778 219.45C32.366 219.638 32.4601 219.864 32.4601 220.126C32.4601 220.3 32.4157 220.46 32.327 220.606C32.2417 220.751 32.1263 220.869 31.9807 220.957C31.8387 221.043 31.6789 221.085 31.5013 221.085ZM35.6322 221.085C35.3694 221.085 35.1439 220.991 34.9557 220.803C34.7675 220.615 34.6734 220.389 34.6734 220.126C34.6734 219.864 34.7675 219.638 34.9557 219.45C35.1439 219.262 35.3694 219.168 35.6322 219.168C35.895 219.168 36.1205 219.262 36.3087 219.45C36.4969 219.638 36.591 219.864 36.591 220.126C36.591 220.3 36.5466 220.46 36.4578 220.606C36.3726 220.751 36.2572 220.869 36.1116 220.957C35.9695 221.043 35.8097 221.085 35.6322 221.085ZM39.7631 221.085C39.5003 221.085 39.2748 220.991 39.0866 220.803C38.8983 220.615 38.8042 220.389 38.8042 220.126C38.8042 219.864 38.8983 219.638 39.0866 219.45C39.2748 219.262 39.5003 219.168 39.7631 219.168C40.0258 219.168 40.2513 219.262 40.4395 219.45C40.6278 219.638 40.7219 219.864 40.7219 220.126C40.7219 220.3 40.6775 220.46 40.5887 220.606C40.5035 220.751 40.3881 220.869 40.2425 220.957C40.1004 221.043 39.9406 221.085 39.7631 221.085ZM46.7064 216.376V217.037C46.1134 217.037 45.6979 217.161 45.46 217.41C45.2256 217.658 45.1084 218.074 45.1084 218.656V220.361C45.1084 220.851 45.0605 221.275 44.9646 221.634C44.8722 221.993 44.7195 222.289 44.5065 222.523C44.2934 222.758 44.0093 222.932 43.6542 223.045C43.2991 223.159 42.8605 223.216 42.3385 223.216V222.172C42.7504 222.172 43.0736 222.106 43.308 221.975C43.5459 221.847 43.7128 221.65 43.8087 221.384C43.9081 221.117 43.9578 220.776 43.9578 220.361V218.23C43.9578 217.953 43.9933 217.701 44.0644 217.474C44.1389 217.246 44.2739 217.051 44.4692 216.888C44.6645 216.724 44.9415 216.598 45.3002 216.51C45.6624 216.421 46.1311 216.376 46.7064 216.376ZM42.3385 209.58C42.8605 209.58 43.2991 209.636 43.6542 209.75C44.0093 209.864 44.2934 210.038 44.5065 210.272C44.7195 210.506 44.8722 210.803 44.9646 211.162C45.0605 211.52 45.1084 211.945 45.1084 212.435V214.139C45.1084 214.722 45.2256 215.137 45.46 215.386C45.6979 215.634 46.1134 215.759 46.7064 215.759V216.419C46.1311 216.419 45.6624 216.375 45.3002 216.286C44.9415 216.197 44.6645 216.071 44.4692 215.908C44.2739 215.744 44.1389 215.549 44.0644 215.322C43.9933 215.094 43.9578 214.842 43.9578 214.565V212.435C43.9578 212.019 43.9081 211.678 43.8087 211.412C43.7128 211.142 43.5459 210.943 43.308 210.815C43.0736 210.687 42.7504 210.624 42.3385 210.624V209.58ZM46.7064 215.759V217.037H45.4493V215.759H46.7064Z" fill="#F5F5F5"/>
<rect x="0.5" y="31.5" width="65" height="62" rx="4.5" stroke="#2488B3"/>
<path d="M29.0668 87.0852C28.804 87.0852 28.5785 86.9911 28.3903 86.8029C28.2021 86.6147 28.108 86.3892 28.108 86.1264C28.108 85.8636 28.2021 85.6381 28.3903 85.4499C28.5785 85.2617 28.804 85.1676 29.0668 85.1676C29.3295 85.1676 29.555 85.2617 29.7433 85.4499C29.9315 85.6381 30.0256 85.8636 30.0256 86.1264C30.0256 86.3004 29.9812 86.4602 29.8924 86.6058C29.8072 86.7514 29.6918 86.8686 29.5462 86.9574C29.4041 87.0426 29.2443 87.0852 29.0668 87.0852ZM35.6053 87.1705C34.8382 87.1705 34.1777 86.9893 33.6238 86.6271C33.0698 86.2649 32.6436 85.766 32.3453 85.1303C32.0471 84.4947 31.8979 83.7685 31.8979 82.9517C31.8979 82.1207 32.0506 81.3874 32.356 80.7518C32.665 80.1126 33.0946 79.6136 33.6451 79.255C34.199 78.8928 34.8453 78.7116 35.584 78.7116C36.1593 78.7116 36.6777 78.8182 37.1394 79.0312C37.601 79.2443 37.9792 79.5426 38.274 79.9261C38.5687 80.3097 38.7516 80.7571 38.8226 81.2685H37.5655C37.4696 80.8956 37.2566 80.5653 36.9263 80.2777C36.5996 79.9865 36.1593 79.8409 35.6053 79.8409C35.1152 79.8409 34.6855 79.9687 34.3162 80.2244C33.9505 80.4766 33.6646 80.8335 33.4586 81.2951C33.2562 81.7532 33.155 82.2912 33.155 82.9091C33.155 83.5412 33.2544 84.0916 33.4533 84.5604C33.6557 85.0291 33.9398 85.3931 34.3056 85.6523C34.6749 85.9116 35.1081 86.0412 35.6053 86.0412C35.932 86.0412 36.2285 85.9844 36.4949 85.8707C36.7612 85.7571 36.9867 85.5938 37.1713 85.3807C37.356 85.1676 37.4874 84.9119 37.5655 84.6136H38.8226C38.7516 85.0966 38.5758 85.5316 38.2953 85.9187C38.0183 86.3022 37.6507 86.6076 37.1926 86.8349C36.7381 87.0586 36.209 87.1705 35.6053 87.1705ZM46.4558 80.6506L45.3265 80.9702C45.2555 80.782 45.1507 80.5991 45.0123 80.4215C44.8773 80.2404 44.6926 80.0913 44.4583 79.9741C44.2239 79.8569 43.9238 79.7983 43.5581 79.7983C43.0574 79.7983 42.6401 79.9137 42.3063 80.1445C41.976 80.3718 41.8109 80.6612 41.8109 81.0128C41.8109 81.3253 41.9245 81.5721 42.1518 81.7532C42.3791 81.9343 42.7342 82.0852 43.2172 82.206L44.4316 82.5043C45.1632 82.6818 45.7083 82.9535 46.0669 83.3192C46.4256 83.6815 46.6049 84.1484 46.6049 84.7202C46.6049 85.1889 46.47 85.608 46.2001 85.9773C45.9338 86.3466 45.5609 86.6378 45.0815 86.8509C44.6021 87.0639 44.0446 87.1705 43.4089 87.1705C42.5744 87.1705 41.8837 86.9893 41.3368 86.6271C40.79 86.2649 40.4437 85.7358 40.2981 85.0398L41.4913 84.7415C41.6049 85.1818 41.8198 85.5121 42.1358 85.7322C42.4554 85.9524 42.8727 86.0625 43.3876 86.0625C43.9735 86.0625 44.4387 85.9382 44.7832 85.6896C45.1312 85.4375 45.3052 85.1357 45.3052 84.7841C45.3052 84.5 45.2058 84.2621 45.0069 84.0703C44.8081 83.875 44.5027 83.7294 44.0907 83.6335L42.7271 83.3139C41.9778 83.1364 41.4274 82.8612 41.0758 82.4883C40.7278 82.1119 40.5538 81.6413 40.5538 81.0767C40.5538 80.6151 40.6834 80.2067 40.9426 79.8516C41.2054 79.4964 41.5623 79.2177 42.0133 79.0153C42.4679 78.8129 42.9828 78.7116 43.5581 78.7116C44.3677 78.7116 45.0034 78.8892 45.465 79.2443C45.9302 79.5994 46.2605 80.0682 46.4558 80.6506ZM55.1876 78.8182L52.162 87H50.8836L47.858 78.8182H49.2217L51.4802 85.3381H51.5654L53.824 78.8182H55.1876Z" fill="#2488B3"/>
<rect x="42.5" y="0.5" width="65" height="62" rx="4.5" stroke="#2488B3"/>
<path d="M71.0668 51.0852C70.804 51.0852 70.5785 50.9911 70.3903 50.8029C70.2021 50.6147 70.108 50.3892 70.108 50.1264C70.108 49.8636 70.2021 49.6381 70.3903 49.4499C70.5785 49.2617 70.804 49.1676 71.0668 49.1676C71.3295 49.1676 71.555 49.2617 71.7433 49.4499C71.9315 49.6381 72.0256 49.8636 72.0256 50.1264C72.0256 50.3004 71.9812 50.4602 71.8924 50.6058C71.8072 50.7514 71.6918 50.8686 71.5462 50.9574C71.4041 51.0426 71.2443 51.0852 71.0668 51.0852ZM77.6053 51.1705C76.8382 51.1705 76.1777 50.9893 75.6238 50.6271C75.0698 50.2649 74.6436 49.766 74.3453 49.1303C74.0471 48.4947 73.8979 47.7685 73.8979 46.9517C73.8979 46.1207 74.0506 45.3874 74.356 44.7518C74.665 44.1126 75.0946 43.6136 75.6451 43.255C76.199 42.8928 76.8453 42.7116 77.584 42.7116C78.1593 42.7116 78.6777 42.8182 79.1394 43.0312C79.601 43.2443 79.9792 43.5426 80.274 43.9261C80.5687 44.3097 80.7516 44.7571 80.8226 45.2685H79.5655C79.4696 44.8956 79.2566 44.5653 78.9263 44.2777C78.5996 43.9865 78.1593 43.8409 77.6053 43.8409C77.1152 43.8409 76.6855 43.9687 76.3162 44.2244C75.9505 44.4766 75.6646 44.8335 75.4586 45.2951C75.2562 45.7532 75.155 46.2912 75.155 46.9091C75.155 47.5412 75.2544 48.0916 75.4533 48.5604C75.6557 49.0291 75.9398 49.3931 76.3056 49.6523C76.6749 49.9116 77.1081 50.0412 77.6053 50.0412C77.932 50.0412 78.2285 49.9844 78.4949 49.8707C78.7612 49.7571 78.9867 49.5938 79.1713 49.3807C79.356 49.1676 79.4874 48.9119 79.5655 48.6136H80.8226C80.7516 49.0966 80.5758 49.5316 80.2953 49.9187C80.0183 50.3022 79.6507 50.6076 79.1926 50.8349C78.7381 51.0586 78.209 51.1705 77.6053 51.1705ZM88.4558 44.6506L87.3265 44.9702C87.2555 44.782 87.1507 44.5991 87.0123 44.4215C86.8773 44.2404 86.6926 44.0913 86.4583 43.9741C86.2239 43.8569 85.9238 43.7983 85.5581 43.7983C85.0574 43.7983 84.6401 43.9137 84.3063 44.1445C83.976 44.3718 83.8109 44.6612 83.8109 45.0128C83.8109 45.3253 83.9245 45.5721 84.1518 45.7532C84.3791 45.9343 84.7342 46.0852 85.2172 46.206L86.4316 46.5043C87.1632 46.6818 87.7083 46.9535 88.0669 47.3192C88.4256 47.6815 88.6049 48.1484 88.6049 48.7202C88.6049 49.1889 88.47 49.608 88.2001 49.9773C87.9338 50.3466 87.5609 50.6378 87.0815 50.8509C86.6021 51.0639 86.0446 51.1705 85.4089 51.1705C84.5744 51.1705 83.8837 50.9893 83.3368 50.6271C82.79 50.2649 82.4437 49.7358 82.2981 49.0398L83.4913 48.7415C83.6049 49.1818 83.8198 49.5121 84.1358 49.7322C84.4554 49.9524 84.8727 50.0625 85.3876 50.0625C85.9735 50.0625 86.4387 49.9382 86.7832 49.6896C87.1312 49.4375 87.3052 49.1357 87.3052 48.7841C87.3052 48.5 87.2058 48.2621 87.0069 48.0703C86.8081 47.875 86.5027 47.7294 86.0907 47.6335L84.7271 47.3139C83.9778 47.1364 83.4274 46.8612 83.0758 46.4883C82.7278 46.1119 82.5538 45.6413 82.5538 45.0767C82.5538 44.6151 82.6834 44.2067 82.9426 43.8516C83.2054 43.4964 83.5623 43.2177 84.0133 43.0153C84.4679 42.8129 84.9828 42.7116 85.5581 42.7116C86.3677 42.7116 87.0034 42.8892 87.465 43.2443C87.9302 43.5994 88.2605 44.0682 88.4558 44.6506ZM97.1876 42.8182L94.162 51H92.8836L89.858 42.8182H91.2217L93.4802 49.3381H93.5654L95.824 42.8182H97.1876Z" fill="#2488B3"/>
<rect x="85.5" y="55.5" width="65" height="62" rx="4.5" stroke="#2488B3"/>
<rect x="298" y="108.5" width="39" height="23" rx="4.5" stroke="#2488B3"/>
<rect x="304" y="100.5" width="11" height="13" rx="4.5" fill="#2488B3" stroke="#2488B3"/>
<rect x="319" y="100.5" width="11" height="13" rx="4.5" fill="#2488B3" stroke="#2488B3"/>
<path d="M118.067 108.085C117.804 108.085 117.578 107.991 117.39 107.803C117.202 107.615 117.108 107.389 117.108 107.126C117.108 106.864 117.202 106.638 117.39 106.45C117.578 106.262 117.804 106.168 118.067 106.168C118.33 106.168 118.555 106.262 118.743 106.45C118.931 106.638 119.026 106.864 119.026 107.126C119.026 107.3 118.981 107.46 118.892 107.606C118.807 107.751 118.692 107.869 118.546 107.957C118.404 108.043 118.244 108.085 118.067 108.085ZM124.605 108.17C123.838 108.17 123.178 107.989 122.624 107.627C122.07 107.265 121.644 106.766 121.345 106.13C121.047 105.495 120.898 104.768 120.898 103.952C120.898 103.121 121.051 102.387 121.356 101.752C121.665 101.113 122.095 100.614 122.645 100.255C123.199 99.8928 123.845 99.7116 124.584 99.7116C125.159 99.7116 125.678 99.8182 126.139 100.031C126.601 100.244 126.979 100.543 127.274 100.926C127.569 101.31 127.752 101.757 127.823 102.268H126.566C126.47 101.896 126.257 101.565 125.926 101.278C125.6 100.987 125.159 100.841 124.605 100.841C124.115 100.841 123.686 100.969 123.316 101.224C122.95 101.477 122.665 101.833 122.459 102.295C122.256 102.753 122.155 103.291 122.155 103.909C122.155 104.541 122.254 105.092 122.453 105.56C122.656 106.029 122.94 106.393 123.306 106.652C123.675 106.912 124.108 107.041 124.605 107.041C124.932 107.041 125.229 106.984 125.495 106.871C125.761 106.757 125.987 106.594 126.171 106.381C126.356 106.168 126.487 105.912 126.566 105.614H127.823C127.752 106.097 127.576 106.532 127.295 106.919C127.018 107.302 126.651 107.608 126.193 107.835C125.738 108.059 125.209 108.17 124.605 108.17ZM135.456 101.651L134.327 101.97C134.256 101.782 134.151 101.599 134.012 101.422C133.877 101.24 133.693 101.091 133.458 100.974C133.224 100.857 132.924 100.798 132.558 100.798C132.057 100.798 131.64 100.914 131.306 101.145C130.976 101.372 130.811 101.661 130.811 102.013C130.811 102.325 130.925 102.572 131.152 102.753C131.379 102.934 131.734 103.085 132.217 103.206L133.432 103.504C134.163 103.682 134.708 103.953 135.067 104.319C135.426 104.681 135.605 105.148 135.605 105.72C135.605 106.189 135.47 106.608 135.2 106.977C134.934 107.347 134.561 107.638 134.081 107.851C133.602 108.064 133.045 108.17 132.409 108.17C131.574 108.17 130.884 107.989 130.337 107.627C129.79 107.265 129.444 106.736 129.298 106.04L130.491 105.741C130.605 106.182 130.82 106.512 131.136 106.732C131.455 106.952 131.873 107.062 132.388 107.062C132.974 107.062 133.439 106.938 133.783 106.69C134.131 106.437 134.305 106.136 134.305 105.784C134.305 105.5 134.206 105.262 134.007 105.07C133.808 104.875 133.503 104.729 133.091 104.634L131.727 104.314C130.978 104.136 130.427 103.861 130.076 103.488C129.728 103.112 129.554 102.641 129.554 102.077C129.554 101.615 129.683 101.207 129.943 100.852C130.205 100.496 130.562 100.218 131.013 100.015C131.468 99.8129 131.983 99.7116 132.558 99.7116C133.368 99.7116 134.003 99.8892 134.465 100.244C134.93 100.599 135.26 101.068 135.456 101.651ZM144.188 99.8182L141.162 108H139.884L136.858 99.8182H138.222L140.48 106.338H140.565L142.824 99.8182H144.188Z" fill="#2488B3"/>
<path d="M136.724 28.2628V27.0909H144.906V28.2628H141.476V38H140.155V28.2628H136.724ZM146.775 38V29.8182H148.032V38H146.775ZM147.414 28.4545C147.169 28.4545 146.957 28.3711 146.78 28.2042C146.606 28.0373 146.519 27.8366 146.519 27.6023C146.519 27.3679 146.606 27.1673 146.78 27.0004C146.957 26.8335 147.169 26.75 147.414 26.75C147.659 26.75 147.868 26.8335 148.042 27.0004C148.22 27.1673 148.309 27.3679 148.309 27.6023C148.309 27.8366 148.22 28.0373 148.042 28.2042C147.868 28.3711 147.659 28.4545 147.414 28.4545ZM150.334 38V29.8182H151.549V31.0966H151.655C151.826 30.6598 152.101 30.3207 152.481 30.0792C152.861 29.8342 153.317 29.7116 153.85 29.7116C154.39 29.7116 154.839 29.8342 155.197 30.0792C155.56 30.3207 155.842 30.6598 156.044 31.0966H156.13C156.339 30.674 156.653 30.3384 157.072 30.0898C157.491 29.8377 157.994 29.7116 158.58 29.7116C159.311 29.7116 159.91 29.9407 160.375 30.3988C160.84 30.8533 161.073 31.5618 161.073 32.5241V38H159.816V32.5241C159.816 31.9205 159.651 31.489 159.32 31.2298C158.99 30.9705 158.601 30.8409 158.154 30.8409C157.578 30.8409 157.133 31.0149 156.817 31.3629C156.501 31.7074 156.343 32.1442 156.343 32.6733V38H155.064V32.3963C155.064 31.9311 154.913 31.5565 154.612 31.2724C154.31 30.9847 153.921 30.8409 153.445 30.8409C153.118 30.8409 152.813 30.9279 152.529 31.1019C152.248 31.2759 152.021 31.5174 151.847 31.8263C151.676 32.1317 151.591 32.4851 151.591 32.8864V38H150.334ZM166.802 38.1705C166.013 38.1705 165.333 37.9964 164.762 37.6484C164.193 37.2969 163.755 36.8068 163.446 36.1783C163.14 35.5462 162.988 34.8111 162.988 33.973C162.988 33.1349 163.14 32.3963 163.446 31.7571C163.755 31.1143 164.184 30.6136 164.735 30.255C165.289 29.8928 165.935 29.7116 166.674 29.7116C167.1 29.7116 167.521 29.7827 167.936 29.9247C168.352 30.0668 168.73 30.2976 169.071 30.6172C169.412 30.9332 169.683 31.3523 169.886 31.8743C170.088 32.3963 170.189 33.0391 170.189 33.8026V34.3352H163.883V33.2486H168.911C168.911 32.7869 168.819 32.375 168.634 32.0128C168.453 31.6506 168.194 31.3647 167.856 31.1552C167.523 30.9457 167.128 30.8409 166.674 30.8409C166.173 30.8409 165.74 30.9652 165.374 31.2138C165.012 31.4588 164.733 31.7784 164.538 32.1726C164.343 32.5668 164.245 32.9893 164.245 33.4403V34.1648C164.245 34.7827 164.351 35.3065 164.564 35.7362C164.781 36.1623 165.081 36.4872 165.465 36.7109C165.848 36.9311 166.294 37.0412 166.802 37.0412C167.132 37.0412 167.43 36.995 167.697 36.9027C167.966 36.8068 168.199 36.6648 168.394 36.4766C168.59 36.2848 168.741 36.0469 168.847 35.7628L170.062 36.1037C169.934 36.5156 169.719 36.8778 169.417 37.1903C169.115 37.4993 168.742 37.7408 168.298 37.9148C167.855 38.0852 167.356 38.1705 166.802 38.1705ZM177.897 31.6506L176.768 31.9702C176.697 31.782 176.592 31.5991 176.454 31.4215C176.319 31.2404 176.134 31.0913 175.9 30.9741C175.665 30.8569 175.365 30.7983 174.999 30.7983C174.499 30.7983 174.081 30.9137 173.748 31.1445C173.417 31.3718 173.252 31.6612 173.252 32.0128C173.252 32.3253 173.366 32.5721 173.593 32.7532C173.82 32.9343 174.176 33.0852 174.659 33.206L175.873 33.5043C176.605 33.6818 177.15 33.9535 177.508 34.3192C177.867 34.6815 178.046 35.1484 178.046 35.7202C178.046 36.1889 177.911 36.608 177.642 36.9773C177.375 37.3466 177.002 37.6378 176.523 37.8509C176.044 38.0639 175.486 38.1705 174.85 38.1705C174.016 38.1705 173.325 37.9893 172.778 37.6271C172.231 37.2649 171.885 36.7358 171.74 36.0398L172.933 35.7415C173.046 36.1818 173.261 36.5121 173.577 36.7322C173.897 36.9524 174.314 37.0625 174.829 37.0625C175.415 37.0625 175.88 36.9382 176.225 36.6896C176.573 36.4375 176.747 36.1357 176.747 35.7841C176.747 35.5 176.647 35.2621 176.448 35.0703C176.249 34.875 175.944 34.7294 175.532 34.6335L174.169 34.3139C173.419 34.1364 172.869 33.8612 172.517 33.4883C172.169 33.1119 171.995 32.6413 171.995 32.0767C171.995 31.6151 172.125 31.2067 172.384 30.8516C172.647 30.4964 173.004 30.2177 173.455 30.0153C173.909 29.8129 174.424 29.7116 174.999 29.7116C175.809 29.7116 176.445 29.8892 176.906 30.2443C177.372 30.5994 177.702 31.0682 177.897 31.6506ZM183.369 38.1705C182.581 38.1705 181.901 37.9964 181.329 37.6484C180.761 37.2969 180.322 36.8068 180.013 36.1783C179.708 35.5462 179.555 34.8111 179.555 33.973C179.555 33.1349 179.708 32.3963 180.013 31.7571C180.322 31.1143 180.752 30.6136 181.302 30.255C181.856 29.8928 182.503 29.7116 183.241 29.7116C183.667 29.7116 184.088 29.7827 184.504 29.9247C184.919 30.0668 185.297 30.2976 185.638 30.6172C185.979 30.9332 186.251 31.3523 186.453 31.8743C186.656 32.3963 186.757 33.0391 186.757 33.8026V34.3352H180.45V33.2486H185.478C185.478 32.7869 185.386 32.375 185.201 32.0128C185.02 31.6506 184.761 31.3647 184.424 31.1552C184.09 30.9457 183.696 30.8409 183.241 30.8409C182.741 30.8409 182.307 30.9652 181.941 31.2138C181.579 31.4588 181.301 31.7784 181.105 32.1726C180.91 32.5668 180.812 32.9893 180.812 33.4403V34.1648C180.812 34.7827 180.919 35.3065 181.132 35.7362C181.348 36.1623 181.649 36.4872 182.032 36.7109C182.416 36.9311 182.861 37.0412 183.369 37.0412C183.699 37.0412 183.998 36.995 184.264 36.9027C184.534 36.8068 184.766 36.6648 184.962 36.4766C185.157 36.2848 185.308 36.0469 185.415 35.7628L186.629 36.1037C186.501 36.5156 186.286 36.8778 185.984 37.1903C185.683 37.4993 185.31 37.7408 184.866 37.9148C184.422 38.0852 183.923 38.1705 183.369 38.1705ZM188.669 38V29.8182H189.884V31.054H189.969C190.118 30.6491 190.388 30.3207 190.778 30.0685C191.169 29.8164 191.609 29.6903 192.1 29.6903C192.192 29.6903 192.307 29.6921 192.446 29.6957C192.584 29.6992 192.689 29.7045 192.76 29.7116V30.9901C192.717 30.9794 192.62 30.9634 192.467 30.9421C192.318 30.9173 192.16 30.9048 191.993 30.9048C191.595 30.9048 191.24 30.9883 190.928 31.1552C190.619 31.3185 190.374 31.5458 190.193 31.837C190.015 32.1246 189.926 32.4531 189.926 32.8224V38H188.669ZM194.25 38V29.8182H195.507V38H194.25ZM194.889 28.4545C194.644 28.4545 194.433 28.3711 194.256 28.2042C194.081 28.0373 193.994 27.8366 193.994 27.6023C193.994 27.3679 194.081 27.1673 194.256 27.0004C194.433 26.8335 194.644 26.75 194.889 26.75C195.134 26.75 195.344 26.8335 195.518 27.0004C195.695 27.1673 195.784 27.3679 195.784 27.6023C195.784 27.8366 195.695 28.0373 195.518 28.2042C195.344 28.3711 195.134 28.4545 194.889 28.4545ZM201.24 38.1705C200.452 38.1705 199.772 37.9964 199.2 37.6484C198.632 37.2969 198.193 36.8068 197.884 36.1783C197.579 35.5462 197.426 34.8111 197.426 33.973C197.426 33.1349 197.579 32.3963 197.884 31.7571C198.193 31.1143 198.623 30.6136 199.173 30.255C199.727 29.8928 200.374 29.7116 201.112 29.7116C201.538 29.7116 201.959 29.7827 202.375 29.9247C202.79 30.0668 203.168 30.2976 203.509 30.6172C203.85 30.9332 204.122 31.3523 204.324 31.8743C204.527 32.3963 204.628 33.0391 204.628 33.8026V34.3352H198.321V33.2486H203.35C203.35 32.7869 203.257 32.375 203.073 32.0128C202.891 31.6506 202.632 31.3647 202.295 31.1552C201.961 30.9457 201.567 30.8409 201.112 30.8409C200.612 30.8409 200.178 30.9652 199.813 31.2138C199.45 31.4588 199.172 31.7784 198.976 32.1726C198.781 32.5668 198.683 32.9893 198.683 33.4403V34.1648C198.683 34.7827 198.79 35.3065 199.003 35.7362C199.22 36.1623 199.52 36.4872 199.903 36.7109C200.287 36.9311 200.732 37.0412 201.24 37.0412C201.57 37.0412 201.869 36.995 202.135 36.9027C202.405 36.8068 202.638 36.6648 202.833 36.4766C203.028 36.2848 203.179 36.0469 203.286 35.7628L204.5 36.1037C204.372 36.5156 204.157 36.8778 203.856 37.1903C203.554 37.4993 203.181 37.7408 202.737 37.9148C202.293 38.0852 201.794 38.1705 201.24 38.1705ZM212.336 31.6506L211.206 31.9702C211.135 31.782 211.031 31.5991 210.892 31.4215C210.757 31.2404 210.573 31.0913 210.338 30.9741C210.104 30.8569 209.804 30.7983 209.438 30.7983C208.937 30.7983 208.52 30.9137 208.186 31.1445C207.856 31.3718 207.691 31.6612 207.691 32.0128C207.691 32.3253 207.804 32.5721 208.032 32.7532C208.259 32.9343 208.614 33.0852 209.097 33.206L210.312 33.5043C211.043 33.6818 211.588 33.9535 211.947 34.3192C212.305 34.6815 212.485 35.1484 212.485 35.7202C212.485 36.1889 212.35 36.608 212.08 36.9773C211.814 37.3466 211.441 37.6378 210.961 37.8509C210.482 38.0639 209.924 38.1705 209.289 38.1705C208.454 38.1705 207.764 37.9893 207.217 37.6271C206.67 37.2649 206.324 36.7358 206.178 36.0398L207.371 35.7415C207.485 36.1818 207.7 36.5121 208.016 36.7322C208.335 36.9524 208.753 37.0625 209.267 37.0625C209.853 37.0625 210.319 36.9382 210.663 36.6896C211.011 36.4375 211.185 36.1357 211.185 35.7841C211.185 35.5 211.086 35.2621 210.887 35.0703C210.688 34.875 210.383 34.7294 209.971 34.6335L208.607 34.3139C207.858 34.1364 207.307 33.8612 206.956 33.4883C206.608 33.1119 206.434 32.6413 206.434 32.0767C206.434 31.6151 206.563 31.2067 206.823 30.8516C207.085 30.4964 207.442 30.2177 207.893 30.0153C208.348 29.8129 208.863 29.7116 209.438 29.7116C210.248 29.7116 210.883 29.8892 211.345 30.2443C211.81 30.5994 212.14 31.0682 212.336 31.6506ZM221.685 38.1705C221.004 38.1705 220.402 37.9982 219.88 37.6538C219.358 37.3058 218.949 36.8157 218.654 36.1836C218.36 35.5479 218.212 34.7969 218.212 33.9304C218.212 33.071 218.36 32.3253 218.654 31.6932C218.949 31.0611 219.359 30.5728 219.885 30.2283C220.411 29.8839 221.018 29.7116 221.707 29.7116C222.239 29.7116 222.66 29.8004 222.969 29.978C223.282 30.152 223.52 30.3509 223.683 30.5746C223.85 30.7947 223.979 30.9759 224.072 31.1179H224.178V27.0909H225.435V38H224.221V36.7429H224.072C223.979 36.892 223.848 37.0803 223.678 37.3075C223.507 37.5312 223.264 37.7319 222.948 37.9094C222.632 38.0835 222.211 38.1705 221.685 38.1705ZM221.856 37.0412C222.36 37.0412 222.786 36.9098 223.134 36.647C223.482 36.3807 223.747 36.0131 223.928 35.5444C224.109 35.0721 224.2 34.527 224.2 33.9091C224.2 33.2983 224.111 32.7638 223.933 32.3058C223.756 31.8441 223.493 31.4854 223.145 31.2298C222.797 30.9705 222.367 30.8409 221.856 30.8409C221.323 30.8409 220.879 30.9776 220.524 31.2511C220.173 31.521 219.908 31.8885 219.73 32.3537C219.556 32.8153 219.469 33.3338 219.469 33.9091C219.469 34.4915 219.558 35.0206 219.736 35.4964C219.917 35.9687 220.183 36.3452 220.535 36.6257C220.89 36.9027 221.33 37.0412 221.856 37.0412ZM230.32 38.1918C229.801 38.1918 229.331 38.0941 228.908 37.8988C228.486 37.6999 228.15 37.4141 227.902 37.0412C227.653 36.6648 227.529 36.2102 227.529 35.6776C227.529 35.2088 227.621 34.8288 227.806 34.5376C227.99 34.2429 228.237 34.0121 228.546 33.8452C228.855 33.6783 229.196 33.554 229.569 33.4723C229.945 33.3871 230.324 33.3196 230.703 33.2699C231.201 33.206 231.604 33.158 231.913 33.1261C232.225 33.0906 232.452 33.032 232.594 32.9503C232.74 32.8686 232.813 32.7266 232.813 32.5241V32.4815C232.813 31.956 232.669 31.5476 232.381 31.2564C232.097 30.9652 231.666 30.8196 231.087 30.8196C230.487 30.8196 230.016 30.951 229.675 31.2138C229.335 31.4766 229.095 31.7571 228.956 32.0554L227.763 31.6293C227.976 31.1321 228.26 30.745 228.615 30.468C228.974 30.1875 229.365 29.9922 229.787 29.8821C230.213 29.7685 230.632 29.7116 231.044 29.7116C231.307 29.7116 231.609 29.7436 231.95 29.8075C232.294 29.8679 232.626 29.994 232.946 30.1857C233.269 30.3775 233.537 30.6669 233.75 31.054C233.963 31.4411 234.07 31.9595 234.07 32.6094V38H232.813V36.892H232.749C232.664 37.0696 232.522 37.2596 232.323 37.462C232.124 37.6644 231.859 37.8366 231.529 37.9787C231.199 38.1207 230.796 38.1918 230.32 38.1918ZM230.512 37.0625C231.009 37.0625 231.428 36.9648 231.769 36.7695C232.113 36.5742 232.373 36.3221 232.547 36.0131C232.724 35.7042 232.813 35.3793 232.813 35.0384V33.8878C232.76 33.9517 232.642 34.0103 232.461 34.0636C232.284 34.1133 232.078 34.1577 231.843 34.1967C231.613 34.2322 231.387 34.2642 231.167 34.2926C230.95 34.3175 230.775 34.3388 230.64 34.3565C230.313 34.3991 230.007 34.4684 229.723 34.5643C229.443 34.6566 229.216 34.7969 229.042 34.9851C228.871 35.1697 228.786 35.4219 228.786 35.7415C228.786 36.1783 228.947 36.5085 229.271 36.7322C229.597 36.9524 230.011 37.0625 230.512 37.0625ZM239.923 29.8182V30.8835H235.683V29.8182H239.923ZM236.918 27.858H238.176V35.6562C238.176 36.0114 238.227 36.2777 238.33 36.4553C238.437 36.6293 238.571 36.7464 238.735 36.8068C238.902 36.8636 239.078 36.892 239.262 36.892C239.401 36.892 239.514 36.8849 239.603 36.8707C239.692 36.853 239.763 36.8388 239.816 36.8281L240.072 37.9574C239.987 37.9893 239.868 38.0213 239.715 38.0533C239.562 38.0888 239.369 38.1065 239.134 38.1065C238.779 38.1065 238.431 38.0302 238.09 37.8775C237.753 37.7248 237.472 37.4922 237.249 37.1797C237.028 36.8672 236.918 36.473 236.918 35.9972V27.858ZM244.221 38.1918C243.703 38.1918 243.232 38.0941 242.81 37.8988C242.387 37.6999 242.052 37.4141 241.803 37.0412C241.554 36.6648 241.43 36.2102 241.43 35.6776C241.43 35.2088 241.522 34.8288 241.707 34.5376C241.892 34.2429 242.139 34.0121 242.448 33.8452C242.756 33.6783 243.097 33.554 243.47 33.4723C243.847 33.3871 244.225 33.3196 244.605 33.2699C245.102 33.206 245.505 33.158 245.814 33.1261C246.127 33.0906 246.354 33.032 246.496 32.9503C246.641 32.8686 246.714 32.7266 246.714 32.5241V32.4815C246.714 31.956 246.57 31.5476 246.283 31.2564C245.999 30.9652 245.567 30.8196 244.988 30.8196C244.388 30.8196 243.918 30.951 243.577 31.2138C243.236 31.4766 242.996 31.7571 242.858 32.0554L241.665 31.6293C241.878 31.1321 242.162 30.745 242.517 30.468C242.875 30.1875 243.266 29.9922 243.689 29.8821C244.115 29.7685 244.534 29.7116 244.946 29.7116C245.209 29.7116 245.51 29.7436 245.851 29.8075C246.196 29.8679 246.528 29.994 246.847 30.1857C247.171 30.3775 247.439 30.6669 247.652 31.054C247.865 31.4411 247.971 31.9595 247.971 32.6094V38H246.714V36.892H246.65C246.565 37.0696 246.423 37.2596 246.224 37.462C246.025 37.6644 245.761 37.8366 245.43 37.9787C245.1 38.1207 244.697 38.1918 244.221 38.1918ZM244.413 37.0625C244.91 37.0625 245.329 36.9648 245.67 36.7695C246.015 36.5742 246.274 36.3221 246.448 36.0131C246.625 35.7042 246.714 35.3793 246.714 35.0384V33.8878C246.661 33.9517 246.544 34.0103 246.363 34.0636C246.185 34.1133 245.979 34.1577 245.745 34.1967C245.514 34.2322 245.288 34.2642 245.068 34.2926C244.852 34.3175 244.676 34.3388 244.541 34.3565C244.214 34.3991 243.909 34.4684 243.625 34.5643C243.344 34.6566 243.117 34.7969 242.943 34.9851C242.772 35.1697 242.687 35.4219 242.687 35.7415C242.687 36.1783 242.849 36.5085 243.172 36.7322C243.499 36.9524 243.912 37.0625 244.413 37.0625Z" fill="#2488B3"/>
<path d="M327.688 53H324.321V42.0909H327.837C328.895 42.0909 329.8 42.3093 330.553 42.7461C331.306 43.1793 331.883 43.8026 332.284 44.6158C332.686 45.4254 332.886 46.3949 332.886 47.5241C332.886 48.6605 332.684 49.6388 332.279 50.4592C331.874 51.2759 331.285 51.9045 330.511 52.3448C329.737 52.7816 328.795 53 327.688 53ZM325.642 51.8281H327.602C328.504 51.8281 329.252 51.6541 329.845 51.3061C330.438 50.9581 330.88 50.4627 331.171 49.82C331.462 49.1772 331.608 48.4119 331.608 47.5241C331.608 46.6435 331.464 45.8853 331.176 45.2496C330.889 44.6104 330.459 44.1204 329.887 43.7795C329.316 43.435 328.604 43.2628 327.751 43.2628H325.642V51.8281ZM335.102 53V42.0909H341.686V43.2628H336.423V46.9489H341.345V48.1207H336.423V51.8281H341.771V53H335.102ZM344.067 53V42.0909H347.753C348.605 42.0909 349.305 42.2365 349.852 42.5277C350.399 42.8153 350.804 43.2113 351.066 43.7156C351.329 44.2198 351.461 44.7933 351.461 45.4361C351.461 46.0788 351.329 46.6488 351.066 47.146C350.804 47.6431 350.401 48.0337 349.857 48.3178C349.314 48.5984 348.62 48.7386 347.775 48.7386H344.792V47.5455H347.732C348.314 47.5455 348.783 47.4602 349.138 47.2898C349.497 47.1193 349.756 46.8778 349.916 46.5653C350.079 46.2493 350.161 45.8729 350.161 45.4361C350.161 44.9993 350.079 44.6175 349.916 44.2908C349.752 43.9641 349.491 43.712 349.133 43.5344C348.774 43.3533 348.3 43.2628 347.711 43.2628H345.388V53H344.067ZM349.202 48.0994L351.887 53H350.353L347.711 48.0994H349.202ZM357.71 53V44.8182H358.925V46.0966H359.031C359.202 45.6598 359.477 45.3207 359.857 45.0792C360.237 44.8342 360.693 44.7116 361.226 44.7116C361.766 44.7116 362.215 44.8342 362.573 45.0792C362.936 45.3207 363.218 45.6598 363.42 46.0966H363.506C363.715 45.674 364.029 45.3384 364.448 45.0898C364.867 44.8377 365.37 44.7116 365.956 44.7116C366.687 44.7116 367.286 44.9407 367.751 45.3988C368.216 45.8533 368.449 46.5618 368.449 47.5241V53H367.192V47.5241C367.192 46.9205 367.027 46.489 366.696 46.2298C366.366 45.9705 365.977 45.8409 365.53 45.8409C364.954 45.8409 364.509 46.0149 364.193 46.3629C363.877 46.7074 363.719 47.1442 363.719 47.6733V53H362.44V47.3963C362.44 46.9311 362.289 46.5565 361.987 46.2724C361.686 45.9847 361.297 45.8409 360.821 45.8409C360.494 45.8409 360.189 45.9279 359.905 46.1019C359.624 46.2759 359.397 46.5174 359.223 46.8263C359.052 47.1317 358.967 47.4851 358.967 47.8864V53H357.71ZM374.071 53.1705C373.332 53.1705 372.684 52.9947 372.127 52.6431C371.573 52.2915 371.14 51.7997 370.827 51.1676C370.518 50.5355 370.364 49.7969 370.364 48.9517C370.364 48.0994 370.518 47.3555 370.827 46.7198C371.14 46.0842 371.573 45.5906 372.127 45.239C372.684 44.8874 373.332 44.7116 374.071 44.7116C374.81 44.7116 375.456 44.8874 376.01 45.239C376.568 45.5906 377.001 46.0842 377.31 46.7198C377.622 47.3555 377.778 48.0994 377.778 48.9517C377.778 49.7969 377.622 50.5355 377.31 51.1676C377.001 51.7997 376.568 52.2915 376.01 52.6431C375.456 52.9947 374.81 53.1705 374.071 53.1705ZM374.071 52.0412C374.632 52.0412 375.094 51.8974 375.456 51.6097C375.818 51.3221 376.086 50.9439 376.26 50.4751C376.434 50.0064 376.521 49.4986 376.521 48.9517C376.521 48.4048 376.434 47.8952 376.26 47.4229C376.086 46.9506 375.818 46.5689 375.456 46.2777C375.094 45.9865 374.632 45.8409 374.071 45.8409C373.51 45.8409 373.048 45.9865 372.686 46.2777C372.324 46.5689 372.056 46.9506 371.882 47.4229C371.708 47.8952 371.621 48.4048 371.621 48.9517C371.621 49.4986 371.708 50.0064 371.882 50.4751C372.056 50.9439 372.324 51.3221 372.686 51.6097C373.048 51.8974 373.51 52.0412 374.071 52.0412ZM382.787 53.1705C382.105 53.1705 381.503 52.9982 380.981 52.6538C380.459 52.3058 380.051 51.8157 379.756 51.1836C379.461 50.5479 379.314 49.7969 379.314 48.9304C379.314 48.071 379.461 47.3253 379.756 46.6932C380.051 46.0611 380.461 45.5728 380.987 45.2283C381.512 44.8839 382.119 44.7116 382.808 44.7116C383.341 44.7116 383.762 44.8004 384.071 44.978C384.383 45.152 384.621 45.3509 384.784 45.5746C384.951 45.7947 385.081 45.9759 385.173 46.1179H385.28V42.0909H386.537V53H385.322V51.7429H385.173C385.081 51.892 384.95 52.0803 384.779 52.3075C384.609 52.5312 384.365 52.7319 384.049 52.9094C383.733 53.0835 383.313 53.1705 382.787 53.1705ZM382.957 52.0412C383.462 52.0412 383.888 51.9098 384.236 51.647C384.584 51.3807 384.848 51.0131 385.029 50.5444C385.211 50.0721 385.301 49.527 385.301 48.9091C385.301 48.2983 385.212 47.7638 385.035 47.3058C384.857 46.8441 384.594 46.4854 384.246 46.2298C383.898 45.9705 383.469 45.8409 382.957 45.8409C382.425 45.8409 381.981 45.9776 381.626 46.2511C381.274 46.521 381.01 46.8885 380.832 47.3537C380.658 47.8153 380.571 48.3338 380.571 48.9091C380.571 49.4915 380.66 50.0206 380.837 50.4964C381.018 50.9687 381.285 51.3452 381.636 51.6257C381.991 51.9027 382.432 52.0412 382.957 52.0412ZM392.444 53.1705C391.656 53.1705 390.976 52.9964 390.404 52.6484C389.836 52.2969 389.397 51.8068 389.088 51.1783C388.783 50.5462 388.63 49.8111 388.63 48.973C388.63 48.1349 388.783 47.3963 389.088 46.7571C389.397 46.1143 389.827 45.6136 390.377 45.255C390.931 44.8928 391.578 44.7116 392.316 44.7116C392.743 44.7116 393.163 44.7827 393.579 44.9247C393.994 45.0668 394.373 45.2976 394.713 45.6172C395.054 45.9332 395.326 46.3523 395.528 46.8743C395.731 47.3963 395.832 48.0391 395.832 48.8026V49.3352H389.525V48.2486H394.554C394.554 47.7869 394.461 47.375 394.277 47.0128C394.096 46.6506 393.836 46.3647 393.499 46.1552C393.165 45.9457 392.771 45.8409 392.316 45.8409C391.816 45.8409 391.382 45.9652 391.017 46.2138C390.654 46.4588 390.376 46.7784 390.18 47.1726C389.985 47.5668 389.887 47.9893 389.887 48.4403V49.1648C389.887 49.7827 389.994 50.3065 390.207 50.7362C390.424 51.1623 390.724 51.4872 391.107 51.7109C391.491 51.9311 391.936 52.0412 392.444 52.0412C392.775 52.0412 393.073 51.995 393.339 51.9027C393.609 51.8068 393.842 51.6648 394.037 51.4766C394.232 51.2848 394.383 51.0469 394.49 50.7628L395.704 51.1037C395.576 51.5156 395.362 51.8778 395.06 52.1903C394.758 52.4993 394.385 52.7408 393.941 52.9148C393.497 53.0852 392.998 53.1705 392.444 53.1705ZM399.001 42.0909V53H397.744V42.0909H399.001ZM407.099 46.6506L405.97 46.9702C405.899 46.782 405.794 46.5991 405.656 46.4215C405.521 46.2404 405.336 46.0913 405.102 45.9741C404.867 45.8569 404.567 45.7983 404.202 45.7983C403.701 45.7983 403.284 45.9137 402.95 46.1445C402.62 46.3718 402.454 46.6612 402.454 47.0128C402.454 47.3253 402.568 47.5721 402.795 47.7532C403.023 47.9343 403.378 48.0852 403.861 48.206L405.075 48.5043C405.807 48.6818 406.352 48.9535 406.71 49.3192C407.069 49.6815 407.248 50.1484 407.248 50.7202C407.248 51.1889 407.114 51.608 406.844 51.9773C406.577 52.3466 406.204 52.6378 405.725 52.8509C405.246 53.0639 404.688 53.1705 404.052 53.1705C403.218 53.1705 402.527 52.9893 401.98 52.6271C401.434 52.2649 401.087 51.7358 400.942 51.0398L402.135 50.7415C402.248 51.1818 402.463 51.5121 402.779 51.7322C403.099 51.9524 403.516 52.0625 404.031 52.0625C404.617 52.0625 405.082 51.9382 405.427 51.6896C405.775 51.4375 405.949 51.1357 405.949 50.7841C405.949 50.5 405.849 50.2621 405.65 50.0703C405.452 49.875 405.146 49.7294 404.734 49.6335L403.371 49.3139C402.621 49.1364 402.071 48.8612 401.719 48.4883C401.371 48.1119 401.197 47.6413 401.197 47.0767C401.197 46.6151 401.327 46.2067 401.586 45.8516C401.849 45.4964 402.206 45.2177 402.657 45.0153C403.111 44.8129 403.626 44.7116 404.202 44.7116C405.011 44.7116 405.647 44.8892 406.109 45.2443C406.574 45.5994 406.904 46.0682 407.099 46.6506Z" fill="#2488B3"/>
<rect width="46.1233" height="33.9019" transform="matrix(0.94752 0.319697 -0.451221 0.892412 247.297 72)" fill="#398DEF"/>
<line y1="-0.5" x2="31.9981" y2="-0.5" transform="matrix(0.951743 0.306896 -0.435085 0.900389 240.816 98.1869)" stroke="#F5F5F5"/>
<line y1="-0.5" x2="31.9981" y2="-0.5" transform="matrix(0.951743 0.306896 -0.435085 0.900389 244.021 91.6402)" stroke="#F5F5F5"/>
<line y1="-0.5" x2="31.9981" y2="-0.5" transform="matrix(0.951743 0.306896 -0.435085 0.900389 246.426 85.0934)" stroke="#F5F5F5"/>
<line y1="-0.5" x2="31.9981" y2="-0.5" transform="matrix(0.951743 0.306896 -0.435085 0.900389 250.433 79.2014)" stroke="#F5F5F5"/>
<line y1="-0.5" x2="27.2227" y2="-0.5" transform="matrix(-0.500469 0.865754 -0.932989 -0.359904 256.043 77.8921)" stroke="#F5F5F5"/>
<line y1="-0.5" x2="27.2227" y2="-0.5" transform="matrix(-0.500469 0.865754 -0.932989 -0.359904 264.057 81.1654)" stroke="#F5F5F5"/>
<line y1="-0.5" x2="27.2227" y2="-0.5" transform="matrix(-0.500469 0.865754 -0.932989 -0.359904 272.872 83.1294)" stroke="#F5F5F5"/>
<line y1="-0.5" x2="27.2227" y2="-0.5" transform="matrix(-0.500469 0.865754 -0.932989 -0.359904 280.085 86.4028)" stroke="#F5F5F5"/>
<path d="M308.847 111.254V104.223H310.04V111.254H308.847ZM305.928 108.335V107.142H312.959V108.335H305.928Z" fill="#F5F5F5"/>
<path d="M327.338 106.737V107.909H322.565V106.737H327.338Z" fill="#F5F5F5"/>
<circle cx="377.866" cy="136.5" r="6.5" fill="#2488B3"/>
<circle cx="406.866" cy="136.5" r="6.5" fill="#2488B3"/>
<line x1="379.366" y1="140.5" x2="404.366" y2="140.5" stroke="#2488B3"/>
<path d="M411.566 139.839C412.513 140.077 415.256 140.196 417.527 139.126C420.498 137.726 420.365 132.587 420.365 130.21V128C420.365 127.448 419.918 127 419.365 127H415.256" stroke="#2488B3"/>
<path d="M415.566 127H400.366" stroke="#2488B3"/>
<rect x="396.866" y="125.5" width="3" height="3" rx="0.5" stroke="#2488B3"/>
<path d="M391.366 123.5H394.366C395.747 123.5 396.866 124.619 396.866 126V128C396.866 129.381 395.747 130.5 394.366 130.5H391.366C391.09 130.5 390.866 130.276 390.866 130V124C390.866 123.724 391.09 123.5 391.366 123.5Z" stroke="#2488B3"/>
<path d="M390.866 125H386.866" stroke="#2488B3" stroke-linecap="round"/>
<path d="M390.366 129H386.866" stroke="#2488B3" stroke-linecap="round"/>
<path d="M392.366 126.778L393.652 125V126.778L395.366 127.667L392.795 129L393.652 127.667L392.366 126.778Z" fill="#2488B3" stroke="#2488B3" stroke-width="0.2"/>
<path d="M373.866 140.5H361.366L363.366 139C362.2 139 360.166 138.2 361.366 135C362.566 131.8 369.366 125.5 376.866 123.5L395.366 113.5H409.866H419.866" stroke="#2488B3"/>
<path d="M419.835 113C420.227 113.431 419.672 113.897 419.345 114.077C420.161 114.436 421.695 115.477 421.304 116.769C420.912 118.062 419.182 119.462 418.366 120" stroke="#2488B3" stroke-linecap="round"/>
<path d="M287.5 154L361.5 139M287.5 154L296.5 136M287.5 154L260 126M287.5 154L262.75 167.25L238 180.5" stroke="#2488B3" stroke-width="0.5" stroke-dasharray="1 2 3 4"/>
</svg>
