<svg width="87" height="66" viewBox="0 0 87 66" fill="none" xmlns="http://www.w3.org/2000/svg">
<path d="M6.50217 25.3289C4.97152 24.758 3.7457 24.093 2.82473 23.3338C1.11477 21.9574 0.250157 20.4945 0.23088 18.9452C0.196701 16.198 1.73377 14.145 4.8421 12.7861C6.49994 12.0666 8.11658 11.699 9.69202 11.6835C11.2675 11.6679 13.2039 11.8832 15.5013 12.3293C17.7987 12.7754 19.3965 12.994 20.2949 12.9852C21.1933 12.9763 22.1096 12.8305 23.0436 12.5478C23.9905 12.252 24.6786 12.089 25.108 12.0587C24.832 13.9495 24.0868 15.2786 22.8723 16.0458C21.8994 17.3966 21.0905 18.8435 20.4456 20.3863C19.8136 21.9161 19.2106 23.693 18.6368 25.7169L18.3003 26.9313C20.0486 25.104 21.7759 23.1663 23.4823 21.1181C25.2017 19.0698 26.5886 17.5001 27.6428 16.4089C28.697 15.3177 29.656 14.4293 30.52 13.7436C32.506 12.1875 34.5015 11.3996 36.5066 11.3798C37.0925 11.374 37.8165 11.471 38.6784 11.6708C39.5532 11.8575 40.2785 12.0652 40.8543 12.2939C41.4431 12.5225 41.9551 12.856 42.3903 13.2944C42.8253 13.7199 43.046 14.193 43.0525 14.7138C43.059 15.2345 42.6184 15.929 41.7307 16.7972C40.8558 17.6522 40.1777 18.0951 39.6963 18.1259L39.5349 17.7174C38.9107 15.6922 37.9151 14.6863 36.5479 14.6998C34.7512 14.7176 33.1832 15.3385 31.8442 16.5627C30.6596 17.6422 29.6453 18.7981 28.8012 20.0304C27.1387 22.4688 25.6702 24.2803 24.3958 25.4648L28.5773 33.4317C28.817 33.859 29.1435 34.4613 29.5568 35.2385C29.97 36.0027 30.2765 36.5596 30.4761 36.9092C30.6757 37.2458 30.9211 37.608 31.2124 37.9957C31.7027 38.681 32.2007 38.9365 32.7064 38.7623C33.2121 38.588 33.9605 38.0402 34.9517 37.1189C35.956 36.1975 37.5189 34.6521 39.6405 32.4826L39.6677 34.6699C35.2629 39.6225 32.455 42.1047 31.2441 42.1167C30.3587 42.1254 29.4608 41.646 28.5502 40.6784C27.6395 39.6977 26.6299 38.093 25.5214 35.8643L21.5257 27.1338L17.7597 29.007C16.8057 32.9228 15.9471 35.6072 15.1839 37.0601C14.2304 38.9186 13.2567 40.1978 12.2627 40.8977C10.8555 41.8752 9.273 42.3726 7.51528 42.39C6.4346 42.4006 5.4559 42.2345 4.57917 41.8916C3.71546 41.5485 3.04601 41.1189 2.5708 40.6027C1.581 39.5447 1.08011 38.534 1.06812 37.5706C1.05192 36.2686 2.01253 35.5038 3.94995 35.2764C4.43105 35.2195 4.9906 35.188 5.62859 35.1817L5.64292 36.3339C5.66673 38.2479 5.98769 39.4492 6.6058 39.9379C6.89516 40.1694 7.30675 40.2825 7.84058 40.2773C8.37441 40.272 8.89978 40.1106 9.4167 39.7929C9.94648 39.4622 10.3964 38.9955 10.7666 38.3928C11.1497 37.7901 11.4804 37.1553 11.7586 36.4884C12.0496 35.8084 12.3069 35.0311 12.5304 34.1565C12.7538 33.2688 12.9327 32.4793 13.0674 31.7878C13.215 31.0962 13.3682 30.3264 13.527 29.4785C13.6857 28.6305 13.8082 28.0108 13.8945 27.6193L14.2815 25.7599C15.0418 21.9762 16.0711 19.4073 17.3695 18.0533C17.9608 17.4355 18.6639 16.9077 19.4789 16.4699C18.9312 16.4102 17.7111 16.2074 15.8187 15.8615C13.9262 15.5156 12.5438 15.3469 11.6714 15.3555C10.8121 15.364 9.97947 15.4243 9.17351 15.5364C8.36755 15.6486 7.49088 15.833 6.54348 16.0898C5.6091 16.3464 4.82616 16.7382 4.19465 17.2653C3.576 17.7793 3.27097 18.3813 3.27955 19.0713C3.29688 20.4644 4.56197 21.6695 7.07481 22.6864C7.09052 23.9493 6.89964 24.8301 6.50217 25.3289Z" fill="#FFFEFF"/>
<path d="M47.3995 58.0168L47.2883 60.0688C47.3015 61.1364 47.4749 61.9876 47.8083 62.6223C48.1548 63.257 48.7707 63.5699 49.6561 63.5612C50.1639 63.5562 50.65 63.3821 51.1146 63.0389C51.5789 62.6828 51.9503 62.1843 52.2288 61.5435C53.1677 59.555 54.0817 56.6096 54.9707 52.7074L57.1456 40.6933C57.3085 40.1838 58.1452 39.9216 59.6555 39.9067L61.4914 39.8886C61.3341 40.8537 61.1314 42.3532 60.8832 44.387C60.6349 46.4078 60.4143 48.0376 60.2214 49.2766C60.0414 50.5154 59.6895 52.0554 59.1655 53.8966C58.6545 55.7376 58.0121 57.4823 57.2383 59.1307C57.6301 60.2727 58.3777 61.2224 59.4809 61.9798C60.584 62.7241 61.7149 63.0906 62.8737 63.0791C64.0456 63.0676 65.1873 62.7308 66.2989 62.0687C67.4234 61.3935 68.4212 60.4787 69.2923 59.3242C70.1765 58.1696 70.8813 56.7303 71.4068 55.0063C71.9322 53.2823 72.1846 51.587 72.1639 49.9205C72.143 48.2409 71.9883 46.797 71.6998 45.5889C71.4243 44.3806 70.9805 43.2456 70.3683 42.1839C69.7691 41.1221 69.0285 40.2114 68.1466 39.4518C66.2511 37.8168 63.7279 37.0148 60.577 37.0459C58.6891 37.0646 56.8124 37.4607 54.9469 38.2344C53.0944 39.0079 51.5894 39.9798 50.432 41.1502C49.2877 42.3204 48.7224 43.4588 48.7361 44.5655C48.7551 46.0888 49.8373 47.2501 51.9828 48.0492C51.9903 48.6481 51.9395 49.2802 51.8306 49.9453C51.7215 50.5975 51.6161 51.0217 51.5144 51.2181C49.5668 50.6253 48.0977 49.7673 47.1071 48.6442C46.1163 47.5081 45.6136 46.3542 45.599 45.1824C45.5843 43.9976 45.7859 42.9344 46.2039 41.9927C46.6218 41.038 47.294 40.1199 48.2206 39.2383C49.16 38.3436 50.2962 37.5576 51.629 36.8803C54.5795 35.3928 58.4048 34.6259 63.1051 34.5795C64.98 34.561 66.7021 34.8174 68.2713 35.3488C69.8536 35.8801 71.1776 36.5897 72.2434 37.4777C73.3092 38.3657 74.2205 39.3919 74.9773 40.5563C76.4113 42.7819 77.1439 45.151 77.1752 47.6639C77.2063 50.1637 76.8641 52.4849 76.1485 54.6274C75.4458 56.7569 74.4726 58.6025 73.2289 60.1643C71.9982 61.726 70.4967 62.9779 68.7245 63.9199C66.9651 64.8487 65.0828 65.3231 63.0777 65.3429C60.1091 65.3722 57.711 64.1588 55.8834 61.7028C54.886 63.171 53.8045 64.1583 52.6388 64.6646C51.4731 65.1709 50.1416 65.4315 48.6443 65.4462C47.147 65.461 45.904 64.985 44.9153 64.0181C43.9395 63.0381 43.4445 61.9753 43.4303 60.8295C43.4072 58.9807 44.7303 58.0431 47.3995 58.0168Z" fill="#FFFEFF"/>
<path d="M59.1856 20.0335L64.4512 17.6573L59.7239 14.3428L58.3668 19.4594L59.1856 20.0335ZM22.9019 59.5838L17.6364 61.96L22.3637 65.2745L23.7207 60.1579L22.9019 59.5838ZM58.698 19.0847L22.5708 59.9585L23.3896 60.5326L59.5167 19.6588L58.698 19.0847Z" fill="#8F8B8B"/>
</svg>
