<svg width="57" height="57" viewBox="0 0 57 57" fill="none" xmlns="http://www.w3.org/2000/svg">
<path fill-rule="evenodd" clip-rule="evenodd" d="M28.4928 0.168091C12.8989 0.168091 0.253906 13.1995 0.253906 29.2758C0.253906 42.1363 8.34529 53.0471 19.5654 56.8961C20.9766 57.1655 21.4949 56.2644 21.4949 55.4958C21.4949 54.802 21.4689 52.5086 21.4567 50.0764C13.6005 51.8374 11.9428 46.642 11.9428 46.642C10.6581 43.2778 8.80751 42.383 8.80751 42.383C6.24513 40.5763 9.00065 40.6136 9.00065 40.6136C11.836 40.8188 13.3294 43.6137 13.3294 43.6137C15.8479 48.0633 19.9354 46.7767 21.5471 46.033C21.8006 44.1519 22.5321 42.8674 23.3399 42.1406C17.0676 41.4048 10.4738 38.9087 10.4738 27.7554C10.4738 24.5778 11.5771 21.981 13.3837 19.9425C13.0905 19.2091 12.1238 16.2488 13.6573 12.2392C13.6573 12.2392 16.0287 11.4573 21.4246 15.2233C23.6773 14.5782 26.0932 14.2548 28.493 14.2436C30.8927 14.2548 33.3103 14.5782 35.567 15.2233C40.957 11.4573 43.3251 12.2392 43.3251 12.2392C44.8621 16.2488 43.8953 19.2091 43.6022 19.9425C45.4129 21.981 46.5084 24.5776 46.5084 27.7554C46.5084 38.9355 39.9022 41.3967 33.6139 42.1175C34.6267 43.0209 35.529 44.7922 35.529 47.5078C35.529 51.4024 35.4967 54.537 35.4967 55.4958C35.4967 56.2705 36.0049 57.1783 37.4361 56.8925C48.6505 53.0392 56.7317 42.1322 56.7317 29.2758C56.7317 13.1995 44.0884 0.168091 28.4928 0.168091Z" fill="white"/>
</svg>
