<svg width="73" height="66" viewBox="0 0 73 66" fill="none" xmlns="http://www.w3.org/2000/svg">
<path d="M71.331 19.7433L37.7323 1.02566C37.3434 0.831706 36.9221 0.731445 36.496 0.731445C36.0699 0.731445 35.6485 0.831706 35.2596 1.02566L1.66882 19.7433C1.45961 19.8192 1.27733 19.967 1.14808 20.1653C1.01883 20.3637 0.949219 20.6025 0.949219 20.8477C0.949219 21.0928 1.01883 21.3316 1.14808 21.53C1.27733 21.7283 1.45961 21.8761 1.66882 21.9521L6.74852 24.7769H6.47992V56.0521C6.10329 56.292 5.79834 56.6501 5.60302 57.0817L3.40682 62.0273C3.23891 62.4038 3.15997 62.8219 3.17746 63.2419C3.19496 63.6619 3.3083 64.07 3.50678 64.4276C3.70527 64.7852 3.98233 65.0806 4.31181 65.2857C4.64128 65.4909 5.01227 65.5991 5.38972 65.6001H9.83742C10.2166 65.6013 10.5898 65.4943 10.9213 65.2893C11.2529 65.0843 11.5318 64.7882 11.7314 64.429C11.931 64.0699 12.0447 63.6598 12.0617 63.2378C12.0786 62.8158 11.9983 62.396 11.8282 62.0185L9.63992 57.0817C9.4446 56.6501 9.13964 56.292 8.76302 56.0521V25.8769L14.293 28.9745V44.2689C14.293 47.7361 16.663 50.9569 20.9448 53.3417C25.116 55.6649 30.646 56.9409 36.5157 56.9409C42.3854 56.9409 47.9154 55.6649 52.0866 53.3417C56.3763 50.9569 58.7384 47.7273 58.7384 44.2689V28.9745L71.3784 21.9345C71.5876 21.8585 71.7699 21.7107 71.8992 21.5124C72.0284 21.314 72.098 21.0752 72.098 20.8301C72.098 20.5849 72.0284 20.3461 71.8992 20.1477C71.7699 19.9494 71.5876 19.8016 71.3784 19.7257L71.331 19.7433ZM9.83742 63.1361H5.38972L7.60962 58.1905L9.83742 63.1361ZM56.4948 44.2689C56.4948 46.7505 54.5672 49.1881 51.0754 51.1329C47.2123 53.2801 42.0299 54.4769 36.4999 54.4769C30.9699 54.4769 25.7875 53.2801 21.9244 51.1329C18.4326 49.1881 16.505 46.7329 16.505 44.2689V30.1889L35.2596 40.6609C35.6485 40.8548 36.0699 40.9551 36.496 40.9551C36.9221 40.9551 37.3434 40.8548 37.7323 40.6609L56.4948 30.2065V44.2689ZM36.7448 38.4345C36.6611 38.4496 36.5757 38.4496 36.492 38.4345C36.4108 38.4471 36.3284 38.4471 36.2471 38.4345L4.64712 20.8345L36.2471 3.23446C36.3308 3.21934 36.4162 3.21934 36.4999 3.23446C36.5812 3.22181 36.6636 3.22181 36.7448 3.23446L68.3448 20.8345L36.7448 38.4345Z" fill="white"/>
</svg>
