<svg width="256" height="256" viewBox="0 0 256 256" fill="none" xmlns="http://www.w3.org/2000/svg">
<path d="M216 40H136V24C136 21.8783 135.157 19.8434 133.657 18.3431C132.157 16.8429 130.122 16 128 16C125.878 16 123.843 16.8429 122.343 18.3431C120.843 19.8434 120 21.8783 120 24V40H40C35.7565 40 31.6869 41.6857 28.6863 44.6863C25.6857 47.6869 24 51.7565 24 56V176C24 180.243 25.6857 184.313 28.6863 187.314C31.6869 190.314 35.7565 192 40 192H79.4L57.8 219C56.8604 220.174 56.2704 221.588 56.0978 223.082C55.9252 224.575 56.1769 226.087 56.8241 227.444C57.4712 228.801 58.4877 229.948 59.7569 230.754C61.0261 231.56 62.4966 231.992 64 232C65.1941 232.008 66.3741 231.742 67.4491 231.221C68.524 230.701 69.4652 229.941 70.2 229L99.8 192H156.2L185.8 229C186.535 229.941 187.476 230.701 188.551 231.221C189.626 231.742 190.806 232.008 192 232C193.503 231.992 194.974 231.56 196.243 230.754C197.512 229.948 198.529 228.801 199.176 227.444C199.823 226.087 200.075 224.575 199.902 223.082C199.73 221.588 199.14 220.174 198.2 219L176.6 192H216C220.243 192 224.313 190.314 227.314 187.314C230.314 184.313 232 180.243 232 176V56C232 51.7565 230.314 47.6869 227.314 44.6863C224.313 41.6857 220.243 40 216 40V40ZM104 144C104 146.122 103.157 148.157 101.657 149.657C100.157 151.157 98.1217 152 96 152C93.8783 152 91.8434 151.157 90.3431 149.657C88.8429 148.157 88 146.122 88 144V120C88 117.878 88.8429 115.843 90.3431 114.343C91.8434 112.843 93.8783 112 96 112C98.1217 112 100.157 112.843 101.657 114.343C103.157 115.843 104 117.878 104 120V144ZM136 144C136 146.122 135.157 148.157 133.657 149.657C132.157 151.157 130.122 152 128 152C125.878 152 123.843 151.157 122.343 149.657C120.843 148.157 120 146.122 120 144V104C120 101.878 120.843 99.8434 122.343 98.3431C123.843 96.8429 125.878 96 128 96C130.122 96 132.157 96.8429 133.657 98.3431C135.157 99.8434 136 101.878 136 104V144ZM168 144C168 146.122 167.157 148.157 165.657 149.657C164.157 151.157 162.122 152 160 152C157.878 152 155.843 151.157 154.343 149.657C152.843 148.157 152 146.122 152 144V88C152 85.8783 152.843 83.8434 154.343 82.3431C155.843 80.8429 157.878 80 160 80C162.122 80 164.157 80.8429 165.657 82.3431C167.157 83.8434 168 85.8783 168 88V144Z" fill="#FFD233"/>
</svg>
