<svg width="442" height="321" viewBox="0 0 442 321" fill="none" xmlns="http://www.w3.org/2000/svg">
<rect x="139" y="143" width="170" height="141" rx="9" stroke="#2488B3" stroke-width="2"/>
<path d="M149.321 163V152.091H153.007C153.863 152.091 154.563 152.245 155.106 152.554C155.653 152.86 156.058 153.273 156.32 153.795C156.583 154.317 156.714 154.9 156.714 155.543C156.714 156.185 156.583 156.77 156.32 157.295C156.061 157.821 155.66 158.24 155.116 158.552C154.573 158.861 153.877 159.016 153.028 159.016H150.386V157.844H152.986C153.572 157.844 154.042 157.743 154.397 157.54C154.752 157.338 155.01 157.064 155.17 156.72C155.333 156.372 155.415 155.979 155.415 155.543C155.415 155.106 155.333 154.715 155.17 154.371C155.01 154.026 154.751 153.756 154.392 153.561C154.033 153.362 153.558 153.263 152.964 153.263H150.642V163H149.321ZM159.482 166.068C159.269 166.068 159.079 166.05 158.912 166.015C158.745 165.983 158.629 165.951 158.566 165.919L158.885 164.811C159.191 164.889 159.46 164.918 159.695 164.896C159.929 164.875 160.137 164.77 160.318 164.582C160.503 164.397 160.671 164.097 160.824 163.682L161.058 163.043L158.033 154.818H159.396L161.655 161.338H161.74L163.999 154.818H165.362L161.889 164.193C161.733 164.616 161.54 164.966 161.309 165.243C161.078 165.523 160.81 165.731 160.504 165.866C160.203 166.001 159.862 166.068 159.482 166.068ZM170.58 154.818V155.884H166.34V154.818H170.58ZM167.576 152.858H168.833V160.656C168.833 161.011 168.884 161.278 168.987 161.455C169.094 161.629 169.229 161.746 169.392 161.807C169.559 161.864 169.735 161.892 169.919 161.892C170.058 161.892 170.172 161.885 170.26 161.871C170.349 161.853 170.42 161.839 170.473 161.828L170.729 162.957C170.644 162.989 170.525 163.021 170.372 163.053C170.219 163.089 170.026 163.107 169.792 163.107C169.436 163.107 169.088 163.03 168.748 162.877C168.41 162.725 168.13 162.492 167.906 162.18C167.686 161.867 167.576 161.473 167.576 160.997V152.858ZM173.904 158.078V163H172.647V152.091H173.904V156.097H174.01C174.202 155.674 174.49 155.338 174.873 155.09C175.26 154.838 175.775 154.712 176.418 154.712C176.975 154.712 177.464 154.824 177.883 155.047C178.302 155.267 178.627 155.607 178.858 156.065C179.092 156.519 179.209 157.098 179.209 157.801V163H177.952V157.886C177.952 157.237 177.783 156.734 177.446 156.379C177.112 156.02 176.649 155.841 176.056 155.841C175.644 155.841 175.275 155.928 174.948 156.102C174.625 156.276 174.369 156.53 174.181 156.864C173.996 157.197 173.904 157.602 173.904 158.078ZM184.833 163.17C184.094 163.17 183.446 162.995 182.889 162.643C182.335 162.292 181.901 161.8 181.589 161.168C181.28 160.536 181.125 159.797 181.125 158.952C181.125 158.099 181.28 157.355 181.589 156.72C181.901 156.084 182.335 155.591 182.889 155.239C183.446 154.887 184.094 154.712 184.833 154.712C185.571 154.712 186.218 154.887 186.772 155.239C187.329 155.591 187.763 156.084 188.071 156.72C188.384 157.355 188.54 158.099 188.54 158.952C188.54 159.797 188.384 160.536 188.071 161.168C187.763 161.8 187.329 162.292 186.772 162.643C186.218 162.995 185.571 163.17 184.833 163.17ZM184.833 162.041C185.394 162.041 185.856 161.897 186.218 161.61C186.58 161.322 186.848 160.944 187.022 160.475C187.196 160.006 187.283 159.499 187.283 158.952C187.283 158.405 187.196 157.895 187.022 157.423C186.848 156.951 186.58 156.569 186.218 156.278C185.856 155.987 185.394 155.841 184.833 155.841C184.272 155.841 183.81 155.987 183.448 156.278C183.086 156.569 182.818 156.951 182.644 157.423C182.47 157.895 182.383 158.405 182.383 158.952C182.383 159.499 182.47 160.006 182.644 160.475C182.818 160.944 183.086 161.322 183.448 161.61C183.81 161.897 184.272 162.041 184.833 162.041ZM191.716 158.078V163H190.459V154.818H191.674V156.097H191.78C191.972 155.681 192.263 155.347 192.654 155.095C193.044 154.839 193.549 154.712 194.167 154.712C194.721 154.712 195.205 154.825 195.621 155.053C196.036 155.276 196.359 155.617 196.59 156.075C196.821 156.53 196.936 157.105 196.936 157.801V163H195.679V157.886C195.679 157.244 195.512 156.743 195.179 156.384C194.845 156.022 194.387 155.841 193.804 155.841C193.403 155.841 193.044 155.928 192.728 156.102C192.416 156.276 192.169 156.53 191.988 156.864C191.807 157.197 191.716 157.602 191.716 158.078ZM203.623 163V152.091H207.309C208.165 152.091 208.864 152.245 209.408 152.554C209.954 152.86 210.359 153.273 210.622 153.795C210.885 154.317 211.016 154.9 211.016 155.543C211.016 156.185 210.885 156.77 210.622 157.295C210.363 157.821 209.962 158.24 209.418 158.552C208.875 158.861 208.179 159.016 207.33 159.016H204.688V157.844H207.288C207.873 157.844 208.344 157.743 208.699 157.54C209.054 157.338 209.312 157.064 209.472 156.72C209.635 156.372 209.717 155.979 209.717 155.543C209.717 155.106 209.635 154.715 209.472 154.371C209.312 154.026 209.052 153.756 208.694 153.561C208.335 153.362 207.859 153.263 207.266 153.263H204.944V163H203.623ZM215.381 163.192C214.863 163.192 214.392 163.094 213.97 162.899C213.547 162.7 213.212 162.414 212.963 162.041C212.715 161.665 212.59 161.21 212.59 160.678C212.59 160.209 212.683 159.829 212.867 159.538C213.052 159.243 213.299 159.012 213.608 158.845C213.917 158.678 214.258 158.554 214.63 158.472C215.007 158.387 215.385 158.32 215.765 158.27C216.262 158.206 216.665 158.158 216.974 158.126C217.287 158.091 217.514 158.032 217.656 157.95C217.802 157.869 217.874 157.727 217.874 157.524V157.482C217.874 156.956 217.731 156.548 217.443 156.256C217.159 155.965 216.727 155.82 216.149 155.82C215.548 155.82 215.078 155.951 214.737 156.214C214.396 156.477 214.156 156.757 214.018 157.055L212.825 156.629C213.038 156.132 213.322 155.745 213.677 155.468C214.036 155.187 214.426 154.992 214.849 154.882C215.275 154.768 215.694 154.712 216.106 154.712C216.369 154.712 216.671 154.744 217.011 154.808C217.356 154.868 217.688 154.994 218.008 155.186C218.331 155.377 218.599 155.667 218.812 156.054C219.025 156.441 219.131 156.96 219.131 157.609V163H217.874V161.892H217.81C217.725 162.07 217.583 162.26 217.384 162.462C217.185 162.664 216.921 162.837 216.591 162.979C216.26 163.121 215.857 163.192 215.381 163.192ZM215.573 162.062C216.07 162.062 216.489 161.965 216.83 161.77C217.175 161.574 217.434 161.322 217.608 161.013C217.786 160.704 217.874 160.379 217.874 160.038V158.888C217.821 158.952 217.704 159.01 217.523 159.064C217.345 159.113 217.139 159.158 216.905 159.197C216.674 159.232 216.449 159.264 216.228 159.293C216.012 159.317 215.836 159.339 215.701 159.357C215.374 159.399 215.069 159.468 214.785 159.564C214.504 159.657 214.277 159.797 214.103 159.985C213.933 160.17 213.847 160.422 213.847 160.741C213.847 161.178 214.009 161.509 214.332 161.732C214.659 161.952 215.073 162.062 215.573 162.062ZM224.75 163.17C223.983 163.17 223.322 162.989 222.768 162.627C222.214 162.265 221.788 161.766 221.49 161.13C221.192 160.495 221.042 159.768 221.042 158.952C221.042 158.121 221.195 157.387 221.501 156.752C221.809 156.113 222.239 155.614 222.79 155.255C223.344 154.893 223.99 154.712 224.729 154.712C225.304 154.712 225.822 154.818 226.284 155.031C226.746 155.244 227.124 155.543 227.419 155.926C227.713 156.31 227.896 156.757 227.967 157.268H226.71C226.614 156.896 226.401 156.565 226.071 156.278C225.744 155.987 225.304 155.841 224.75 155.841C224.26 155.841 223.83 155.969 223.461 156.224C223.095 156.477 222.809 156.833 222.603 157.295C222.401 157.753 222.3 158.291 222.3 158.909C222.3 159.541 222.399 160.092 222.598 160.56C222.8 161.029 223.084 161.393 223.45 161.652C223.819 161.912 224.253 162.041 224.75 162.041C225.077 162.041 225.373 161.984 225.639 161.871C225.906 161.757 226.131 161.594 226.316 161.381C226.501 161.168 226.632 160.912 226.71 160.614H227.967C227.896 161.097 227.72 161.532 227.44 161.919C227.163 162.302 226.795 162.608 226.337 162.835C225.883 163.059 225.354 163.17 224.75 163.17ZM230.977 160.017L230.955 158.462H231.211L234.791 154.818H236.346L232.532 158.675H232.426L230.977 160.017ZM229.805 163V152.091H231.062V163H229.805ZM235.004 163L231.808 158.952L232.703 158.078L236.602 163H235.004ZM240.372 163.192C239.853 163.192 239.383 163.094 238.96 162.899C238.538 162.7 238.202 162.414 237.953 162.041C237.705 161.665 237.581 161.21 237.581 160.678C237.581 160.209 237.673 159.829 237.858 159.538C238.042 159.243 238.289 159.012 238.598 158.845C238.907 158.678 239.248 158.554 239.621 158.472C239.997 158.387 240.375 158.32 240.755 158.27C241.252 158.206 241.655 158.158 241.964 158.126C242.277 158.091 242.504 158.032 242.646 157.95C242.792 157.869 242.865 157.727 242.865 157.524V157.482C242.865 156.956 242.721 156.548 242.433 156.256C242.149 155.965 241.718 155.82 241.139 155.82C240.539 155.82 240.068 155.951 239.727 156.214C239.386 156.477 239.147 156.757 239.008 157.055L237.815 156.629C238.028 156.132 238.312 155.745 238.667 155.468C239.026 155.187 239.416 154.992 239.839 154.882C240.265 154.768 240.684 154.712 241.096 154.712C241.359 154.712 241.661 154.744 242.002 154.808C242.346 154.868 242.678 154.994 242.998 155.186C243.321 155.377 243.589 155.667 243.802 156.054C244.015 156.441 244.122 156.96 244.122 157.609V163H242.865V161.892H242.801C242.715 162.07 242.573 162.26 242.375 162.462C242.176 162.664 241.911 162.837 241.581 162.979C241.251 163.121 240.848 163.192 240.372 163.192ZM240.563 162.062C241.061 162.062 241.48 161.965 241.821 161.77C242.165 161.574 242.424 161.322 242.598 161.013C242.776 160.704 242.865 160.379 242.865 160.038V158.888C242.811 158.952 242.694 159.01 242.513 159.064C242.335 159.113 242.13 159.158 241.895 159.197C241.664 159.232 241.439 159.264 241.219 159.293C241.002 159.317 240.826 159.339 240.691 159.357C240.365 159.399 240.059 159.468 239.775 159.564C239.495 159.657 239.267 159.797 239.093 159.985C238.923 160.17 238.838 160.422 238.838 160.741C238.838 161.178 238.999 161.509 239.322 161.732C239.649 161.952 240.063 162.062 240.563 162.062ZM249.719 166.239C249.112 166.239 248.589 166.161 248.153 166.004C247.716 165.852 247.352 165.649 247.061 165.397C246.773 165.148 246.544 164.882 246.374 164.598L247.375 163.895C247.489 164.044 247.632 164.214 247.806 164.406C247.98 164.602 248.218 164.77 248.52 164.912C248.826 165.058 249.225 165.131 249.719 165.131C250.379 165.131 250.924 164.971 251.354 164.651C251.784 164.332 251.999 163.831 251.999 163.149V161.487H251.892C251.8 161.636 251.668 161.821 251.498 162.041C251.331 162.258 251.089 162.451 250.773 162.622C250.461 162.789 250.038 162.872 249.506 162.872C248.845 162.872 248.252 162.716 247.727 162.403C247.205 162.091 246.791 161.636 246.485 161.04C246.184 160.443 246.033 159.719 246.033 158.866C246.033 158.028 246.18 157.299 246.475 156.677C246.77 156.052 247.18 155.569 247.705 155.228C248.231 154.884 248.838 154.712 249.527 154.712C250.06 154.712 250.482 154.8 250.795 154.978C251.111 155.152 251.352 155.351 251.519 155.575C251.69 155.795 251.821 155.976 251.913 156.118H252.041V154.818H253.256V163.234C253.256 163.938 253.096 164.509 252.776 164.95C252.46 165.393 252.034 165.718 251.498 165.924C250.965 166.134 250.372 166.239 249.719 166.239ZM249.676 161.743C250.18 161.743 250.607 161.627 250.955 161.397C251.303 161.166 251.567 160.834 251.748 160.401C251.929 159.967 252.02 159.449 252.02 158.845C252.02 158.256 251.931 157.735 251.754 157.284C251.576 156.833 251.313 156.48 250.965 156.224C250.617 155.969 250.188 155.841 249.676 155.841C249.143 155.841 248.7 155.976 248.344 156.246C247.993 156.516 247.728 156.878 247.551 157.332C247.377 157.787 247.29 158.291 247.29 158.845C247.29 159.413 247.379 159.916 247.556 160.353C247.737 160.786 248.004 161.127 248.355 161.375C248.71 161.62 249.151 161.743 249.676 161.743ZM258.987 163.17C258.199 163.17 257.519 162.996 256.947 162.648C256.379 162.297 255.94 161.807 255.631 161.178C255.326 160.546 255.173 159.811 255.173 158.973C255.173 158.135 255.326 157.396 255.631 156.757C255.94 156.114 256.37 155.614 256.92 155.255C257.474 154.893 258.121 154.712 258.859 154.712C259.286 154.712 259.706 154.783 260.122 154.925C260.537 155.067 260.915 155.298 261.256 155.617C261.597 155.933 261.869 156.352 262.071 156.874C262.274 157.396 262.375 158.039 262.375 158.803V159.335H256.068V158.249H261.097C261.097 157.787 261.004 157.375 260.82 157.013C260.638 156.651 260.379 156.365 260.042 156.155C259.708 155.946 259.314 155.841 258.859 155.841C258.359 155.841 257.925 155.965 257.56 156.214C257.197 156.459 256.919 156.778 256.723 157.173C256.528 157.567 256.43 157.989 256.43 158.44V159.165C256.43 159.783 256.537 160.306 256.75 160.736C256.967 161.162 257.267 161.487 257.65 161.711C258.034 161.931 258.479 162.041 258.987 162.041C259.317 162.041 259.616 161.995 259.882 161.903C260.152 161.807 260.385 161.665 260.58 161.477C260.775 161.285 260.926 161.047 261.033 160.763L262.247 161.104C262.119 161.516 261.904 161.878 261.603 162.19C261.301 162.499 260.928 162.741 260.484 162.915C260.04 163.085 259.541 163.17 258.987 163.17Z" fill="#2488B3"/>
<path d="M45.4107 47.4298L19.4107 66.3927C19.1526 66.581 19 66.8812 19 67.2007V90.7993C19 91.1188 19.1526 91.419 19.4107 91.6073L45.4107 110.57C45.7618 110.826 46.2382 110.826 46.5893 110.57L72.5893 91.6073C72.8474 91.419 73 91.1188 73 90.7993V67.2007C73 66.8812 72.8474 66.581 72.5893 66.3927L46.5893 47.4298C46.2382 47.1737 45.7618 47.1737 45.4107 47.4298Z" fill="#2488B3" stroke="#2488B3"/>
<path d="M22.6395 126.818C22.5756 126.278 22.3163 125.859 21.8618 125.561C21.4072 125.263 20.8497 125.114 20.1892 125.114C19.7062 125.114 19.2836 125.192 18.9214 125.348C18.5628 125.504 18.2822 125.719 18.0798 125.993C17.8809 126.266 17.7815 126.577 17.7815 126.925C17.7815 127.216 17.8508 127.466 17.9893 127.676C18.1313 127.882 18.3124 128.054 18.5326 128.192C18.7528 128.327 18.9836 128.439 19.2251 128.528C19.4665 128.613 19.6885 128.683 19.8909 128.736L20.9988 129.034C21.2829 129.109 21.599 129.212 21.947 129.343C22.2986 129.474 22.6341 129.654 22.9537 129.881C23.2769 130.105 23.5432 130.392 23.7528 130.744C23.9623 131.096 24.067 131.527 24.067 132.038C24.067 132.628 23.9126 133.161 23.6036 133.636C23.2982 134.112 22.8508 134.49 22.2613 134.771C21.6753 135.051 20.9633 135.192 20.1253 135.192C19.344 135.192 18.6675 135.066 18.0958 134.814C17.5276 134.561 17.0802 134.21 16.7535 133.759C16.4303 133.308 16.2474 132.784 16.2048 132.188H17.5684C17.604 132.599 17.7425 132.94 17.9839 133.21C18.229 133.477 18.5379 133.675 18.9108 133.807C19.2872 133.935 19.692 133.999 20.1253 133.999C20.6295 133.999 21.0823 133.917 21.4836 133.754C21.8849 133.587 22.2027 133.356 22.4371 133.061C22.6714 132.763 22.7886 132.415 22.7886 132.017C22.7886 131.655 22.6874 131.36 22.485 131.133C22.2826 130.906 22.0162 130.721 21.686 130.579C21.3557 130.437 20.9988 130.312 20.6153 130.206L19.273 129.822C18.4207 129.577 17.746 129.228 17.2488 128.773C16.7517 128.319 16.5031 127.724 16.5031 126.989C16.5031 126.378 16.6682 125.845 16.9985 125.391C17.3323 124.933 17.7797 124.577 18.3408 124.325C18.9055 124.07 19.5358 123.942 20.2318 123.942C20.9349 123.942 21.5599 124.068 22.1068 124.32C22.6537 124.569 23.0869 124.909 23.4065 125.343C23.7297 125.776 23.9001 126.268 23.9179 126.818H22.6395ZM26.8782 138.068C26.6651 138.068 26.4751 138.05 26.3082 138.015C26.1413 137.983 26.0259 137.951 25.962 137.919L26.2816 136.811C26.587 136.889 26.8569 136.918 27.0913 136.896C27.3256 136.875 27.5334 136.77 27.7145 136.582C27.8991 136.397 28.0678 136.097 28.2205 135.682L28.4549 135.043L25.4293 126.818H26.793L29.0515 133.338H29.1367L31.3952 126.818H32.7589L29.2859 136.193C29.1296 136.616 28.9361 136.966 28.7053 137.243C28.4744 137.523 28.2063 137.731 27.9009 137.866C27.5991 138.001 27.2582 138.068 26.8782 138.068ZM35.6752 130.078V135H34.4181V126.818H35.6326V128.097H35.7392C35.9309 127.681 36.2221 127.347 36.6127 127.095C37.0034 126.839 37.5076 126.712 38.1255 126.712C38.6795 126.712 39.1642 126.825 39.5797 127.053C39.9952 127.276 40.3184 127.617 40.5492 128.075C40.78 128.53 40.8954 129.105 40.8954 129.801V135H39.6383V129.886C39.6383 129.244 39.4714 128.743 39.1376 128.384C38.8038 128.022 38.3457 127.841 37.7633 127.841C37.362 127.841 37.0034 127.928 36.6873 128.102C36.3748 128.276 36.128 128.53 35.9469 128.864C35.7658 129.197 35.6752 129.602 35.6752 130.078ZM46.7508 126.818V127.884H42.5107V126.818H46.7508ZM43.7465 124.858H45.0036V132.656C45.0036 133.011 45.0551 133.278 45.1581 133.455C45.2646 133.629 45.3996 133.746 45.5629 133.807C45.7298 133.864 45.9056 133.892 46.0903 133.892C46.2288 133.892 46.3424 133.885 46.4312 133.871C46.52 133.853 46.591 133.839 46.6443 133.828L46.8999 134.957C46.8147 134.989 46.6958 135.021 46.5431 135.053C46.3904 135.089 46.1968 135.107 45.9624 135.107C45.6073 135.107 45.2593 135.03 44.9184 134.877C44.5811 134.725 44.3005 134.492 44.0768 134.18C43.8566 133.867 43.7465 133.473 43.7465 132.997V124.858ZM50.0747 130.078V135H48.8176V124.091H50.0747V128.097H50.1812C50.373 127.674 50.6606 127.338 51.0441 127.09C51.4312 126.838 51.9461 126.712 52.5889 126.712C53.1464 126.712 53.6347 126.824 54.0537 127.047C54.4727 127.267 54.7977 127.607 55.0285 128.065C55.2629 128.519 55.3801 129.098 55.3801 129.801V135H54.123V129.886C54.123 129.237 53.9543 128.734 53.6169 128.379C53.2831 128.02 52.8197 127.841 52.2267 127.841C51.8147 127.841 51.4454 127.928 51.1187 128.102C50.7955 128.276 50.5399 128.53 50.3517 128.864C50.167 129.197 50.0747 129.602 50.0747 130.078ZM61.1103 135.17C60.3219 135.17 59.6419 134.996 59.0701 134.648C58.502 134.297 58.0634 133.807 57.7544 133.178C57.449 132.546 57.2963 131.811 57.2963 130.973C57.2963 130.135 57.449 129.396 57.7544 128.757C58.0634 128.114 58.4931 127.614 59.0435 127.255C59.5975 126.893 60.2438 126.712 60.9824 126.712C61.4086 126.712 61.8294 126.783 62.2449 126.925C62.6603 127.067 63.0385 127.298 63.3794 127.617C63.7203 127.933 63.992 128.352 64.1944 128.874C64.3968 129.396 64.498 130.039 64.498 130.803V131.335H58.1912V130.249H63.2196C63.2196 129.787 63.1273 129.375 62.9426 129.013C62.7615 128.651 62.5023 128.365 62.165 128.155C61.8311 127.946 61.437 127.841 60.9824 127.841C60.4817 127.841 60.0485 127.965 59.6827 128.214C59.3205 128.459 59.0417 128.778 58.8464 129.173C58.6511 129.567 58.5534 129.989 58.5534 130.44V131.165C58.5534 131.783 58.66 132.306 58.873 132.736C59.0897 133.162 59.3897 133.487 59.7733 133.711C60.1568 133.931 60.6025 134.041 61.1103 134.041C61.4405 134.041 61.7388 133.995 62.0051 133.903C62.275 133.807 62.5076 133.665 62.7029 133.477C62.8983 133.285 63.0492 133.047 63.1557 132.763L64.3702 133.104C64.2424 133.516 64.0275 133.878 63.7257 134.19C63.4238 134.499 63.051 134.741 62.6071 134.915C62.1632 135.085 61.6642 135.17 61.1103 135.17ZM69.9686 126.818V127.884H65.7285V126.818H69.9686ZM66.9643 124.858H68.2214V132.656C68.2214 133.011 68.2729 133.278 68.3759 133.455C68.4824 133.629 68.6174 133.746 68.7807 133.807C68.9476 133.864 69.1234 133.892 69.3081 133.892C69.4466 133.892 69.5602 133.885 69.649 133.871C69.7377 133.853 69.8088 133.839 69.862 133.828L70.1177 134.957C70.0325 134.989 69.9135 135.021 69.7608 135.053C69.6081 135.089 69.4146 135.107 69.1802 135.107C68.8251 135.107 68.4771 135.03 68.1362 134.877C67.7988 134.725 67.5183 134.492 67.2946 134.18C67.0744 133.867 66.9643 133.473 66.9643 132.997V124.858ZM71.8596 135V126.818H73.1167V135H71.8596ZM72.4988 125.455C72.2537 125.455 72.0424 125.371 71.8649 125.204C71.6909 125.037 71.6039 124.837 71.6039 124.602C71.6039 124.368 71.6909 124.167 71.8649 124C72.0424 123.833 72.2537 123.75 72.4988 123.75C72.7438 123.75 72.9533 123.833 73.1273 124C73.3049 124.167 73.3936 124.368 73.3936 124.602C73.3936 124.837 73.3049 125.037 73.1273 125.204C72.9533 125.371 72.7438 125.455 72.4988 125.455ZM78.743 135.17C77.9759 135.17 77.3154 134.989 76.7615 134.627C76.2075 134.265 75.7813 133.766 75.483 133.13C75.1847 132.495 75.0356 131.768 75.0356 130.952C75.0356 130.121 75.1883 129.387 75.4937 128.752C75.8026 128.113 76.2323 127.614 76.7828 127.255C77.3367 126.893 77.983 126.712 78.7217 126.712C79.297 126.712 79.8154 126.818 80.2771 127.031C80.7387 127.244 81.1169 127.543 81.4117 127.926C81.7064 128.31 81.8893 128.757 81.9603 129.268H80.7032C80.6073 128.896 80.3943 128.565 80.064 128.278C79.7373 127.987 79.297 127.841 78.743 127.841C78.2529 127.841 77.8232 127.969 77.4539 128.224C77.0882 128.477 76.8023 128.833 76.5963 129.295C76.3939 129.753 76.2927 130.291 76.2927 130.909C76.2927 131.541 76.3921 132.092 76.591 132.56C76.7934 133.029 77.0775 133.393 77.4433 133.652C77.8126 133.912 78.2458 134.041 78.743 134.041C79.0697 134.041 79.3662 133.984 79.6325 133.871C79.8989 133.757 80.1244 133.594 80.309 133.381C80.4937 133.168 80.6251 132.912 80.7032 132.614H81.9603C81.8893 133.097 81.7135 133.532 81.433 133.919C81.156 134.302 80.7884 134.608 80.3303 134.835C79.8758 135.059 79.3467 135.17 78.743 135.17ZM1.61497 153V142.091H8.15616V143.263H2.93599V146.949H7.6661V148.121H2.93599V153H1.61497ZM13.078 153.17C12.2897 153.17 11.6096 152.996 11.0379 152.648C10.4697 152.297 10.0312 151.807 9.72221 151.178C9.41681 150.546 9.26412 149.811 9.26412 148.973C9.26412 148.135 9.41681 147.396 9.72221 146.757C10.0312 146.114 10.4608 145.614 11.0113 145.255C11.5653 144.893 12.2116 144.712 12.9502 144.712C13.3763 144.712 13.7971 144.783 14.2126 144.925C14.6281 145.067 15.0063 145.298 15.3472 145.617C15.6881 145.933 15.9598 146.352 16.1622 146.874C16.3646 147.396 16.4658 148.039 16.4658 148.803V149.335H10.159V148.249H15.1874C15.1874 147.787 15.0951 147.375 14.9104 147.013C14.7293 146.651 14.4701 146.365 14.1327 146.155C13.7989 145.946 13.4047 145.841 12.9502 145.841C12.4495 145.841 12.0162 145.965 11.6505 146.214C11.2883 146.459 11.0095 146.778 10.8142 147.173C10.6189 147.567 10.5212 147.989 10.5212 148.44V149.165C10.5212 149.783 10.6278 150.306 10.8408 150.736C11.0574 151.162 11.3575 151.487 11.741 151.711C12.1246 151.931 12.5702 152.041 13.078 152.041C13.4083 152.041 13.7066 151.995 13.9729 151.903C14.2428 151.807 14.4754 151.665 14.6707 151.477C14.866 151.285 15.017 151.047 15.1235 150.763L16.338 151.104C16.2101 151.516 15.9953 151.878 15.6934 152.19C15.3916 152.499 15.0187 152.741 14.5748 152.915C14.1309 153.085 13.632 153.17 13.078 153.17ZM21.8085 153.17C21.0202 153.17 20.3401 152.996 19.7684 152.648C19.2002 152.297 18.7616 151.807 18.4527 151.178C18.1473 150.546 17.9946 149.811 17.9946 148.973C17.9946 148.135 18.1473 147.396 18.4527 146.757C18.7616 146.114 19.1913 145.614 19.7417 145.255C20.2957 144.893 20.942 144.712 21.6807 144.712C22.1068 144.712 22.5276 144.783 22.9431 144.925C23.3586 145.067 23.7368 145.298 24.0777 145.617C24.4186 145.933 24.6903 146.352 24.8927 146.874C25.0951 147.396 25.1963 148.039 25.1963 148.803V149.335H18.8895V148.249H23.9179C23.9179 147.787 23.8256 147.375 23.6409 147.013C23.4598 146.651 23.2006 146.365 22.8632 146.155C22.5294 145.946 22.1352 145.841 21.6807 145.841C21.18 145.841 20.7467 145.965 20.3809 146.214C20.0187 146.459 19.74 146.778 19.5447 147.173C19.3493 147.567 19.2517 147.989 19.2517 148.44V149.165C19.2517 149.783 19.3582 150.306 19.5713 150.736C19.7879 151.162 20.088 151.487 20.4715 151.711C20.855 151.931 21.3007 152.041 21.8085 152.041C22.1388 152.041 22.4371 151.995 22.7034 151.903C22.9733 151.807 23.2059 151.665 23.4012 151.477C23.5965 151.285 23.7474 151.047 23.854 150.763L25.0684 151.104C24.9406 151.516 24.7258 151.878 24.4239 152.19C24.1221 152.499 23.7492 152.741 23.3053 152.915C22.8614 153.085 22.3625 153.17 21.8085 153.17ZM30.1981 153.17C29.5162 153.17 28.9143 152.998 28.3923 152.654C27.8703 152.306 27.4619 151.816 27.1672 151.184C26.8724 150.548 26.7251 149.797 26.7251 148.93C26.7251 148.071 26.8724 147.325 27.1672 146.693C27.4619 146.061 27.8721 145.573 28.3976 145.228C28.9232 144.884 29.5305 144.712 30.2194 144.712C30.752 144.712 31.1729 144.8 31.4818 144.978C31.7943 145.152 32.0322 145.351 32.1956 145.575C32.3625 145.795 32.4921 145.976 32.5844 146.118H32.691V142.091H33.9481V153H32.7336V151.743H32.5844C32.4921 151.892 32.3607 152.08 32.1903 152.308C32.0198 152.531 31.7765 152.732 31.4605 152.909C31.1444 153.083 30.7236 153.17 30.1981 153.17ZM30.3685 152.041C30.8728 152.041 31.2989 151.91 31.6469 151.647C31.9949 151.381 32.2595 151.013 32.4406 150.544C32.6217 150.072 32.7123 149.527 32.7123 148.909C32.7123 148.298 32.6235 147.764 32.4459 147.306C32.2684 146.844 32.0056 146.485 31.6576 146.23C31.3096 145.971 30.8799 145.841 30.3685 145.841C29.8358 145.841 29.392 145.978 29.0368 146.251C28.6853 146.521 28.4207 146.888 28.2432 147.354C28.0692 147.815 27.9822 148.334 27.9822 148.909C27.9822 149.491 28.0709 150.021 28.2485 150.496C28.4296 150.969 28.6959 151.345 29.0475 151.626C29.4026 151.903 29.843 152.041 30.3685 152.041ZM39.8554 153.17C39.067 153.17 38.387 152.996 37.8153 152.648C37.2471 152.297 36.8085 151.807 36.4996 151.178C36.1942 150.546 36.0415 149.811 36.0415 148.973C36.0415 148.135 36.1942 147.396 36.4996 146.757C36.8085 146.114 37.2382 145.614 37.7886 145.255C38.3426 144.893 38.9889 144.712 39.7275 144.712C40.1537 144.712 40.5745 144.783 40.99 144.925C41.4055 145.067 41.7836 145.298 42.1246 145.617C42.4655 145.933 42.7371 146.352 42.9395 146.874C43.142 147.396 43.2432 148.039 43.2432 148.803V149.335H36.9363V148.249H41.9648C41.9648 147.787 41.8724 147.375 41.6878 147.013C41.5067 146.651 41.2474 146.365 40.9101 146.155C40.5763 145.946 40.1821 145.841 39.7275 145.841C39.2268 145.841 38.7936 145.965 38.4278 146.214C38.0656 146.459 37.7868 146.778 37.5915 147.173C37.3962 147.567 37.2986 147.989 37.2986 148.44V149.165C37.2986 149.783 37.4051 150.306 37.6182 150.736C37.8348 151.162 38.1349 151.487 38.5184 151.711C38.9019 151.931 39.3476 152.041 39.8554 152.041C40.1856 152.041 40.4839 151.995 40.7503 151.903C41.0202 151.807 41.2528 151.665 41.4481 151.477C41.6434 151.285 41.7943 151.047 41.9008 150.763L43.1153 151.104C42.9875 151.516 42.7726 151.878 42.4708 152.19C42.1689 152.499 41.7961 152.741 41.3522 152.915C40.9083 153.085 40.4094 153.17 39.8554 153.17ZM45.1555 153V144.818H46.3699V146.054H46.4552C46.6043 145.649 46.8742 145.321 47.2648 145.069C47.6555 144.816 48.0958 144.69 48.5858 144.69C48.6782 144.69 48.7936 144.692 48.9321 144.696C49.0706 144.699 49.1753 144.705 49.2464 144.712V145.99C49.2037 145.979 49.1061 145.963 48.9534 145.942C48.8042 145.917 48.6462 145.905 48.4793 145.905C48.0816 145.905 47.7265 145.988 47.414 146.155C47.105 146.319 46.86 146.546 46.6789 146.837C46.5013 147.125 46.4126 147.453 46.4126 147.822V153H45.1555ZM55.1257 142.091H56.7024L60.4098 151.146H60.5376L64.245 142.091H65.8217V153H64.5859V144.712H64.4794L61.0703 153H59.8771L56.468 144.712H56.3615V153H55.1257V142.091ZM71.6238 153.17C70.8852 153.17 70.2371 152.995 69.6796 152.643C69.1256 152.292 68.6924 151.8 68.3799 151.168C68.0709 150.536 67.9165 149.797 67.9165 148.952C67.9165 148.099 68.0709 147.355 68.3799 146.72C68.6924 146.084 69.1256 145.591 69.6796 145.239C70.2371 144.887 70.8852 144.712 71.6238 144.712C72.3625 144.712 73.0088 144.887 73.5628 145.239C74.1203 145.591 74.5535 146.084 74.8625 146.72C75.175 147.355 75.3312 148.099 75.3312 148.952C75.3312 149.797 75.175 150.536 74.8625 151.168C74.5535 151.8 74.1203 152.292 73.5628 152.643C73.0088 152.995 72.3625 153.17 71.6238 153.17ZM71.6238 152.041C72.1849 152.041 72.6466 151.897 73.0088 151.61C73.371 151.322 73.6391 150.944 73.8131 150.475C73.9871 150.006 74.0741 149.499 74.0741 148.952C74.0741 148.405 73.9871 147.895 73.8131 147.423C73.6391 146.951 73.371 146.569 73.0088 146.278C72.6466 145.987 72.1849 145.841 71.6238 145.841C71.0628 145.841 70.6011 145.987 70.2389 146.278C69.8767 146.569 69.6086 146.951 69.4346 147.423C69.2606 147.895 69.1736 148.405 69.1736 148.952C69.1736 149.499 69.2606 150.006 69.4346 150.475C69.6086 150.944 69.8767 151.322 70.2389 151.61C70.6011 151.897 71.0628 152.041 71.6238 152.041ZM80.3397 153.17C79.6578 153.17 79.0559 152.998 78.5339 152.654C78.0119 152.306 77.6035 151.816 77.3088 151.184C77.014 150.548 76.8667 149.797 76.8667 148.93C76.8667 148.071 77.014 147.325 77.3088 146.693C77.6035 146.061 78.0137 145.573 78.5392 145.228C79.0648 144.884 79.6721 144.712 80.361 144.712C80.8936 144.712 81.3145 144.8 81.6234 144.978C81.9359 145.152 82.1738 145.351 82.3372 145.575C82.5041 145.795 82.6337 145.976 82.726 146.118H82.8326V142.091H84.0897V153H82.8752V151.743H82.726C82.6337 151.892 82.5023 152.08 82.3319 152.308C82.1614 152.531 81.9181 152.732 81.6021 152.909C81.286 153.083 80.8652 153.17 80.3397 153.17ZM80.5101 152.041C81.0144 152.041 81.4405 151.91 81.7885 151.647C82.1365 151.381 82.4011 151.013 82.5822 150.544C82.7633 150.072 82.8539 149.527 82.8539 148.909C82.8539 148.298 82.7651 147.764 82.5875 147.306C82.41 146.844 82.1472 146.485 81.7992 146.23C81.4512 145.971 81.0215 145.841 80.5101 145.841C79.9775 145.841 79.5336 145.978 79.1784 146.251C78.8269 146.521 78.5623 146.888 78.3848 147.354C78.2108 147.815 78.1238 148.334 78.1238 148.909C78.1238 149.491 78.2125 150.021 78.3901 150.496C78.5712 150.969 78.8375 151.345 79.1891 151.626C79.5442 151.903 79.9846 152.041 80.5101 152.041ZM89.997 153.17C89.2086 153.17 88.5286 152.996 87.9569 152.648C87.3887 152.297 86.9501 151.807 86.6412 151.178C86.3358 150.546 86.1831 149.811 86.1831 148.973C86.1831 148.135 86.3358 147.396 86.6412 146.757C86.9501 146.114 87.3798 145.614 87.9302 145.255C88.4842 144.893 89.1305 144.712 89.8691 144.712C90.2953 144.712 90.7161 144.783 91.1316 144.925C91.5471 145.067 91.9252 145.298 92.2662 145.617C92.6071 145.933 92.8787 146.352 93.0811 146.874C93.2836 147.396 93.3848 148.039 93.3848 148.803V149.335H87.0779V148.249H92.1064C92.1064 147.787 92.014 147.375 91.8294 147.013C91.6483 146.651 91.389 146.365 91.0517 146.155C90.7179 145.946 90.3237 145.841 89.8691 145.841C89.3684 145.841 88.9352 145.965 88.5694 146.214C88.2072 146.459 87.9284 146.778 87.7331 147.173C87.5378 147.567 87.4402 147.989 87.4402 148.44V149.165C87.4402 149.783 87.5467 150.306 87.7598 150.736C87.9764 151.162 88.2765 151.487 88.66 151.711C89.0435 151.931 89.4892 152.041 89.997 152.041C90.3272 152.041 90.6255 151.995 90.8919 151.903C91.1618 151.807 91.3944 151.665 91.5897 151.477C91.785 151.285 91.9359 151.047 92.0424 150.763L93.2569 151.104C93.1291 151.516 92.9142 151.878 92.6124 152.19C92.3105 152.499 91.9377 152.741 91.4938 152.915C91.0499 153.085 90.551 153.17 89.997 153.17ZM96.5542 142.091V153H95.2971V142.091H96.5542Z" fill="#2488B3"/>
<path d="M349.752 134.545C349.752 135.696 349.544 136.69 349.129 137.528C348.713 138.366 348.143 139.013 347.419 139.467C346.695 139.922 345.867 140.149 344.937 140.149C344.006 140.149 343.179 139.922 342.455 139.467C341.73 139.013 341.16 138.366 340.745 137.528C340.329 136.69 340.121 135.696 340.121 134.545C340.121 133.395 340.329 132.401 340.745 131.562C341.16 130.724 341.73 130.078 342.455 129.624C343.179 129.169 344.006 128.942 344.937 128.942C345.867 128.942 346.695 129.169 347.419 129.624C348.143 130.078 348.713 130.724 349.129 131.562C349.544 132.401 349.752 133.395 349.752 134.545ZM348.474 134.545C348.474 133.601 348.316 132.804 348 132.154C347.687 131.504 347.263 131.012 346.727 130.678C346.194 130.344 345.597 130.178 344.937 130.178C344.276 130.178 343.678 130.344 343.142 130.678C342.609 131.012 342.185 131.504 341.869 132.154C341.556 132.804 341.4 133.601 341.4 134.545C341.4 135.49 341.556 136.287 341.869 136.937C342.185 137.587 342.609 138.079 343.142 138.413C343.678 138.746 344.276 138.913 344.937 138.913C345.597 138.913 346.194 138.746 346.727 138.413C347.263 138.079 347.687 137.587 348 136.937C348.316 136.287 348.474 135.49 348.474 134.545ZM351.803 143.068V131.818H353.017V133.118H353.167C353.259 132.976 353.387 132.795 353.55 132.575C353.717 132.351 353.955 132.152 354.264 131.978C354.576 131.8 354.999 131.712 355.532 131.712C356.221 131.712 356.828 131.884 357.353 132.228C357.879 132.573 358.289 133.061 358.584 133.693C358.879 134.325 359.026 135.071 359.026 135.93C359.026 136.797 358.879 137.548 358.584 138.184C358.289 138.816 357.881 139.306 357.359 139.654C356.837 139.998 356.235 140.17 355.553 140.17C355.027 140.17 354.607 140.083 354.29 139.909C353.974 139.732 353.731 139.531 353.561 139.308C353.39 139.08 353.259 138.892 353.167 138.743H353.06V143.068H351.803ZM353.039 135.909C353.039 136.527 353.129 137.072 353.31 137.544C353.491 138.013 353.756 138.381 354.104 138.647C354.452 138.91 354.878 139.041 355.382 139.041C355.908 139.041 356.347 138.903 356.698 138.626C357.053 138.345 357.32 137.969 357.497 137.496C357.678 137.021 357.769 136.491 357.769 135.909C357.769 135.334 357.68 134.815 357.502 134.354C357.328 133.888 357.064 133.521 356.709 133.251C356.357 132.978 355.915 132.841 355.382 132.841C354.871 132.841 354.441 132.971 354.093 133.23C353.745 133.485 353.483 133.844 353.305 134.306C353.127 134.764 353.039 135.298 353.039 135.909ZM364.374 140.17C363.586 140.17 362.906 139.996 362.334 139.648C361.766 139.297 361.327 138.807 361.018 138.178C360.713 137.546 360.56 136.811 360.56 135.973C360.56 135.135 360.713 134.396 361.018 133.757C361.327 133.114 361.757 132.614 362.307 132.255C362.861 131.893 363.507 131.712 364.246 131.712C364.672 131.712 365.093 131.783 365.509 131.925C365.924 132.067 366.302 132.298 366.643 132.617C366.984 132.933 367.256 133.352 367.458 133.874C367.661 134.396 367.762 135.039 367.762 135.803V136.335H361.455V135.249H366.483C366.483 134.787 366.391 134.375 366.206 134.013C366.025 133.651 365.766 133.365 365.429 133.155C365.095 132.946 364.701 132.841 364.246 132.841C363.745 132.841 363.312 132.965 362.946 133.214C362.584 133.459 362.305 133.778 362.11 134.173C361.915 134.567 361.817 134.989 361.817 135.44V136.165C361.817 136.783 361.924 137.306 362.137 137.736C362.353 138.162 362.653 138.487 363.037 138.711C363.42 138.931 363.866 139.041 364.374 139.041C364.704 139.041 365.002 138.995 365.269 138.903C365.539 138.807 365.771 138.665 365.967 138.477C366.162 138.285 366.313 138.047 366.419 137.763L367.634 138.104C367.506 138.516 367.291 138.878 366.989 139.19C366.688 139.499 366.315 139.741 365.871 139.915C365.427 140.085 364.928 140.17 364.374 140.17ZM370.931 135.078V140H369.674V131.818H370.888V133.097H370.995C371.187 132.681 371.478 132.347 371.869 132.095C372.259 131.839 372.763 131.712 373.381 131.712C373.935 131.712 374.42 131.825 374.836 132.053C375.251 132.276 375.574 132.617 375.805 133.075C376.036 133.53 376.151 134.105 376.151 134.801V140H374.894V134.886C374.894 134.244 374.727 133.743 374.393 133.384C374.06 133.022 373.602 132.841 373.019 132.841C372.618 132.841 372.259 132.928 371.943 133.102C371.631 133.276 371.384 133.53 371.203 133.864C371.022 134.197 370.931 134.602 370.931 135.078ZM388.804 131.818C388.74 131.278 388.48 130.859 388.026 130.561C387.571 130.263 387.014 130.114 386.353 130.114C385.87 130.114 385.448 130.192 385.085 130.348C384.727 130.504 384.446 130.719 384.244 130.993C384.045 131.266 383.946 131.577 383.946 131.925C383.946 132.216 384.015 132.466 384.153 132.676C384.295 132.882 384.476 133.054 384.697 133.192C384.917 133.327 385.148 133.439 385.389 133.528C385.631 133.613 385.853 133.683 386.055 133.736L387.163 134.034C387.447 134.109 387.763 134.212 388.111 134.343C388.463 134.474 388.798 134.654 389.118 134.881C389.441 135.105 389.707 135.392 389.917 135.744C390.126 136.096 390.231 136.527 390.231 137.038C390.231 137.628 390.077 138.161 389.768 138.636C389.462 139.112 389.015 139.49 388.425 139.771C387.839 140.051 387.127 140.192 386.289 140.192C385.508 140.192 384.832 140.066 384.26 139.814C383.692 139.561 383.244 139.21 382.918 138.759C382.594 138.308 382.411 137.784 382.369 137.188H383.733C383.768 137.599 383.907 137.94 384.148 138.21C384.393 138.477 384.702 138.675 385.075 138.807C385.451 138.935 385.856 138.999 386.289 138.999C386.794 138.999 387.246 138.917 387.648 138.754C388.049 138.587 388.367 138.356 388.601 138.061C388.835 137.763 388.953 137.415 388.953 137.017C388.953 136.655 388.851 136.36 388.649 136.133C388.447 135.906 388.18 135.721 387.85 135.579C387.52 135.437 387.163 135.312 386.779 135.206L385.437 134.822C384.585 134.577 383.91 134.228 383.413 133.773C382.916 133.319 382.667 132.724 382.667 131.989C382.667 131.378 382.832 130.845 383.163 130.391C383.496 129.933 383.944 129.577 384.505 129.325C385.07 129.07 385.7 128.942 386.396 128.942C387.099 128.942 387.724 129.068 388.271 129.32C388.818 129.569 389.251 129.909 389.571 130.343C389.894 130.776 390.064 131.268 390.082 131.818H388.804ZM395.791 131.818V132.884H391.551V131.818H395.791ZM392.787 129.858H394.044V137.656C394.044 138.011 394.095 138.278 394.198 138.455C394.305 138.629 394.44 138.746 394.603 138.807C394.77 138.864 394.946 138.892 395.13 138.892C395.269 138.892 395.382 138.885 395.471 138.871C395.56 138.853 395.631 138.839 395.684 138.828L395.94 139.957C395.855 139.989 395.736 140.021 395.583 140.053C395.43 140.089 395.237 140.107 395.002 140.107C394.647 140.107 394.299 140.03 393.958 139.877C393.621 139.725 393.341 139.492 393.117 139.18C392.897 138.867 392.787 138.473 392.787 137.997V129.858ZM397.682 140V131.818H398.896V133.054H398.982C399.131 132.649 399.401 132.321 399.791 132.069C400.182 131.816 400.622 131.69 401.112 131.69C401.205 131.69 401.32 131.692 401.458 131.696C401.597 131.699 401.702 131.705 401.773 131.712V132.99C401.73 132.979 401.632 132.963 401.48 132.942C401.331 132.917 401.173 132.905 401.006 132.905C400.608 132.905 400.253 132.988 399.94 133.155C399.631 133.319 399.386 133.546 399.205 133.837C399.028 134.125 398.939 134.453 398.939 134.822V140H397.682ZM406.444 140.17C405.656 140.17 404.976 139.996 404.404 139.648C403.836 139.297 403.397 138.807 403.088 138.178C402.783 137.546 402.63 136.811 402.63 135.973C402.63 135.135 402.783 134.396 403.088 133.757C403.397 133.114 403.827 132.614 404.377 132.255C404.931 131.893 405.578 131.712 406.316 131.712C406.743 131.712 407.163 131.783 407.579 131.925C407.994 132.067 408.373 132.298 408.713 132.617C409.054 132.933 409.326 133.352 409.528 133.874C409.731 134.396 409.832 135.039 409.832 135.803V136.335H403.525V135.249H408.554C408.554 134.787 408.461 134.375 408.277 134.013C408.096 133.651 407.836 133.365 407.499 133.155C407.165 132.946 406.771 132.841 406.316 132.841C405.816 132.841 405.382 132.965 405.017 133.214C404.654 133.459 404.376 133.778 404.18 134.173C403.985 134.567 403.887 134.989 403.887 135.44V136.165C403.887 136.783 403.994 137.306 404.207 137.736C404.424 138.162 404.724 138.487 405.107 138.711C405.491 138.931 405.936 139.041 406.444 139.041C406.775 139.041 407.073 138.995 407.339 138.903C407.609 138.807 407.842 138.665 408.037 138.477C408.232 138.285 408.383 138.047 408.49 137.763L409.704 138.104C409.576 138.516 409.362 138.878 409.06 139.19C408.758 139.499 408.385 139.741 407.941 139.915C407.497 140.085 406.998 140.17 406.444 140.17ZM415.175 140.17C414.386 140.17 413.706 139.996 413.135 139.648C412.566 139.297 412.128 138.807 411.819 138.178C411.513 137.546 411.361 136.811 411.361 135.973C411.361 135.135 411.513 134.396 411.819 133.757C412.128 133.114 412.558 132.614 413.108 132.255C413.662 131.893 414.308 131.712 415.047 131.712C415.473 131.712 415.894 131.783 416.309 131.925C416.725 132.067 417.103 132.298 417.444 132.617C417.785 132.933 418.056 133.352 418.259 133.874C418.461 134.396 418.562 135.039 418.562 135.803V136.335H412.256V135.249H417.284C417.284 134.787 417.192 134.375 417.007 134.013C416.826 133.651 416.567 133.365 416.229 133.155C415.896 132.946 415.501 132.841 415.047 132.841C414.546 132.841 414.113 132.965 413.747 133.214C413.385 133.459 413.106 133.778 412.911 134.173C412.716 134.567 412.618 134.989 412.618 135.44V136.165C412.618 136.783 412.724 137.306 412.938 137.736C413.154 138.162 413.454 138.487 413.838 138.711C414.221 138.931 414.667 139.041 415.175 139.041C415.505 139.041 415.803 138.995 416.07 138.903C416.339 138.807 416.572 138.665 416.767 138.477C416.963 138.285 417.114 138.047 417.22 137.763L418.435 138.104C418.307 138.516 418.092 138.878 417.79 139.19C417.488 139.499 417.115 139.741 416.672 139.915C416.228 140.085 415.729 140.17 415.175 140.17ZM424.033 131.818V132.884H419.793V131.818H424.033ZM421.029 129.858H422.286V137.656C422.286 138.011 422.337 138.278 422.44 138.455C422.547 138.629 422.682 138.746 422.845 138.807C423.012 138.864 423.188 138.892 423.373 138.892C423.511 138.892 423.625 138.885 423.713 138.871C423.802 138.853 423.873 138.839 423.926 138.828L424.182 139.957C424.097 139.989 423.978 140.021 423.825 140.053C423.673 140.089 423.479 140.107 423.245 140.107C422.89 140.107 422.542 140.03 422.201 139.877C421.863 139.725 421.583 139.492 421.359 139.18C421.139 138.867 421.029 138.473 421.029 137.997V129.858ZM370.12 158H366.754V147.091H370.269C371.328 147.091 372.233 147.309 372.986 147.746C373.739 148.179 374.316 148.803 374.717 149.616C375.118 150.425 375.319 151.395 375.319 152.524C375.319 153.661 375.117 154.639 374.712 155.459C374.307 156.276 373.717 156.904 372.943 157.345C372.169 157.782 371.228 158 370.12 158ZM368.075 156.828H370.035C370.937 156.828 371.684 156.654 372.277 156.306C372.87 155.958 373.313 155.463 373.604 154.82C373.895 154.177 374.041 153.412 374.041 152.524C374.041 151.643 373.897 150.885 373.609 150.25C373.321 149.61 372.892 149.12 372.32 148.779C371.748 148.435 371.036 148.263 370.184 148.263H368.075V156.828ZM379.772 158.192C379.254 158.192 378.783 158.094 378.361 157.899C377.938 157.7 377.602 157.414 377.354 157.041C377.105 156.665 376.981 156.21 376.981 155.678C376.981 155.209 377.073 154.829 377.258 154.538C377.443 154.243 377.689 154.012 377.998 153.845C378.307 153.678 378.648 153.554 379.021 153.472C379.397 153.387 379.776 153.32 380.156 153.27C380.653 153.206 381.056 153.158 381.365 153.126C381.677 153.091 381.905 153.032 382.047 152.95C382.192 152.869 382.265 152.727 382.265 152.524V152.482C382.265 151.956 382.121 151.548 381.834 151.256C381.549 150.965 381.118 150.82 380.539 150.82C379.939 150.82 379.468 150.951 379.128 151.214C378.787 151.477 378.547 151.757 378.408 152.055L377.215 151.629C377.428 151.132 377.712 150.745 378.068 150.468C378.426 150.187 378.817 149.992 379.239 149.882C379.666 149.768 380.085 149.712 380.497 149.712C380.759 149.712 381.061 149.744 381.402 149.808C381.747 149.868 382.079 149.994 382.398 150.186C382.721 150.377 382.989 150.667 383.203 151.054C383.416 151.441 383.522 151.96 383.522 152.609V158H382.265V156.892H382.201C382.116 157.07 381.974 157.26 381.775 157.462C381.576 157.664 381.312 157.837 380.981 157.979C380.651 158.121 380.248 158.192 379.772 158.192ZM379.964 157.062C380.461 157.062 380.88 156.965 381.221 156.77C381.565 156.574 381.825 156.322 381.999 156.013C382.176 155.704 382.265 155.379 382.265 155.038V153.888C382.212 153.952 382.095 154.01 381.913 154.064C381.736 154.113 381.53 154.158 381.296 154.197C381.065 154.232 380.839 154.264 380.619 154.293C380.402 154.317 380.227 154.339 380.092 154.357C379.765 154.399 379.46 154.468 379.176 154.564C378.895 154.657 378.668 154.797 378.494 154.985C378.323 155.17 378.238 155.422 378.238 155.741C378.238 156.178 378.4 156.509 378.723 156.732C379.049 156.952 379.463 157.062 379.964 157.062ZM389.375 149.818V150.884H385.135V149.818H389.375ZM386.371 147.858H387.628V155.656C387.628 156.011 387.679 156.278 387.782 156.455C387.889 156.629 388.024 156.746 388.187 156.807C388.354 156.864 388.53 156.892 388.714 156.892C388.853 156.892 388.966 156.885 389.055 156.871C389.144 156.853 389.215 156.839 389.268 156.828L389.524 157.957C389.439 157.989 389.32 158.021 389.167 158.053C389.014 158.089 388.821 158.107 388.586 158.107C388.231 158.107 387.883 158.03 387.542 157.877C387.205 157.725 386.925 157.492 386.701 157.18C386.481 156.867 386.371 156.473 386.371 155.997V147.858ZM393.673 158.192C393.155 158.192 392.684 158.094 392.262 157.899C391.839 157.7 391.504 157.414 391.255 157.041C391.007 156.665 390.882 156.21 390.882 155.678C390.882 155.209 390.975 154.829 391.159 154.538C391.344 154.243 391.591 154.012 391.9 153.845C392.209 153.678 392.55 153.554 392.922 153.472C393.299 153.387 393.677 153.32 394.057 153.27C394.554 153.206 394.957 153.158 395.266 153.126C395.579 153.091 395.806 153.032 395.948 152.95C396.094 152.869 396.166 152.727 396.166 152.524V152.482C396.166 151.956 396.023 151.548 395.735 151.256C395.451 150.965 395.019 150.82 394.441 150.82C393.84 150.82 393.37 150.951 393.029 151.214C392.688 151.477 392.448 151.757 392.31 152.055L391.117 151.629C391.33 151.132 391.614 150.745 391.969 150.468C392.328 150.187 392.718 149.992 393.141 149.882C393.567 149.768 393.986 149.712 394.398 149.712C394.661 149.712 394.963 149.744 395.303 149.808C395.648 149.868 395.98 149.994 396.3 150.186C396.623 150.377 396.891 150.667 397.104 151.054C397.317 151.441 397.423 151.96 397.423 152.609V158H396.166V156.892H396.102C396.017 157.07 395.875 157.26 395.676 157.462C395.477 157.664 395.213 157.837 394.883 157.979C394.552 158.121 394.149 158.192 393.673 158.192ZM393.865 157.062C394.362 157.062 394.781 156.965 395.122 156.77C395.467 156.574 395.726 156.322 395.9 156.013C396.078 155.704 396.166 155.379 396.166 155.038V153.888C396.113 153.952 395.996 154.01 395.815 154.064C395.637 154.113 395.431 154.158 395.197 154.197C394.966 154.232 394.741 154.264 394.52 154.293C394.304 154.317 394.128 154.339 393.993 154.357C393.666 154.399 393.361 154.468 393.077 154.564C392.796 154.657 392.569 154.797 392.395 154.985C392.225 155.17 392.139 155.422 392.139 155.741C392.139 156.178 392.301 156.509 392.624 156.732C392.951 156.952 393.365 157.062 393.865 157.062Z" fill="#2488B3"/>
<path d="M171.921 87H168.554V76.0909H172.07C173.128 76.0909 174.034 76.3093 174.787 76.7461C175.54 77.1793 176.117 77.8026 176.518 78.6158C176.919 79.4254 177.12 80.3949 177.12 81.5241C177.12 82.6605 176.917 83.6388 176.513 84.4592C176.108 85.2759 175.518 85.9045 174.744 86.3448C173.97 86.7816 173.029 87 171.921 87ZM169.875 85.8281H171.836C172.738 85.8281 173.485 85.6541 174.078 85.3061C174.671 84.9581 175.113 84.4627 175.405 83.82C175.696 83.1772 175.841 82.4119 175.841 81.5241C175.841 80.6435 175.698 79.8853 175.41 79.2496C175.122 78.6104 174.693 78.1204 174.121 77.7795C173.549 77.435 172.837 77.2628 171.985 77.2628H169.875V85.8281ZM179.165 87V78.8182H180.422V87H179.165ZM179.804 77.4545C179.559 77.4545 179.348 77.3711 179.171 77.2042C178.997 77.0373 178.91 76.8366 178.91 76.6023C178.91 76.3679 178.997 76.1673 179.171 76.0004C179.348 75.8335 179.559 75.75 179.804 75.75C180.049 75.75 180.259 75.8335 180.433 76.0004C180.611 76.1673 180.699 76.3679 180.699 76.6023C180.699 76.8366 180.611 77.0373 180.433 77.2042C180.259 77.3711 180.049 77.4545 179.804 77.4545ZM188.52 80.6506L187.391 80.9702C187.32 80.782 187.215 80.5991 187.077 80.4215C186.942 80.2404 186.757 80.0913 186.523 79.9741C186.288 79.8569 185.988 79.7983 185.623 79.7983C185.122 79.7983 184.705 79.9137 184.371 80.1445C184.04 80.3718 183.875 80.6612 183.875 81.0128C183.875 81.3253 183.989 81.5721 184.216 81.7532C184.444 81.9343 184.799 82.0852 185.282 82.206L186.496 82.5043C187.228 82.6818 187.773 82.9535 188.131 83.3192C188.49 83.6815 188.669 84.1484 188.669 84.7202C188.669 85.1889 188.534 85.608 188.265 85.9773C187.998 86.3466 187.625 86.6378 187.146 86.8509C186.667 87.0639 186.109 87.1705 185.473 87.1705C184.639 87.1705 183.948 86.9893 183.401 86.6271C182.854 86.2649 182.508 85.7358 182.363 85.0398L183.556 84.7415C183.669 85.1818 183.884 85.5121 184.2 85.7322C184.52 85.9524 184.937 86.0625 185.452 86.0625C186.038 86.0625 186.503 85.9382 186.848 85.6896C187.196 85.4375 187.37 85.1357 187.37 84.7841C187.37 84.5 187.27 84.2621 187.071 84.0703C186.873 83.875 186.567 83.7294 186.155 83.6335L184.792 83.3139C184.042 83.1364 183.492 82.8612 183.14 82.4883C182.792 82.1119 182.618 81.6413 182.618 81.0767C182.618 80.6151 182.748 80.2067 183.007 79.8516C183.27 79.4964 183.627 79.2177 184.078 79.0153C184.532 78.8129 185.047 78.7116 185.623 78.7116C186.432 78.7116 187.068 78.8892 187.529 79.2443C187.995 79.5994 188.325 80.0682 188.52 80.6506ZM194.12 78.8182V79.8835H189.88V78.8182H194.12ZM191.116 76.858H192.373V84.6562C192.373 85.0114 192.424 85.2777 192.527 85.4553C192.634 85.6293 192.769 85.7464 192.932 85.8068C193.099 85.8636 193.275 85.892 193.459 85.892C193.598 85.892 193.712 85.8849 193.8 85.8707C193.889 85.853 193.96 85.8388 194.013 85.8281L194.269 86.9574C194.184 86.9893 194.065 87.0213 193.912 87.0533C193.759 87.0888 193.566 87.1065 193.332 87.1065C192.976 87.1065 192.628 87.0302 192.288 86.8775C191.95 86.7248 191.67 86.4922 191.446 86.1797C191.226 85.8672 191.116 85.473 191.116 84.9972V76.858ZM196.011 87V78.8182H197.225V80.054H197.311C197.46 79.6491 197.73 79.3207 198.12 79.0685C198.511 78.8164 198.951 78.6903 199.441 78.6903C199.534 78.6903 199.649 78.6921 199.788 78.6957C199.926 78.6992 200.031 78.7045 200.102 78.7116V79.9901C200.059 79.9794 199.962 79.9634 199.809 79.9421C199.66 79.9173 199.502 79.9048 199.335 79.9048C198.937 79.9048 198.582 79.9883 198.269 80.1552C197.96 80.3185 197.715 80.5458 197.534 80.837C197.357 81.1246 197.268 81.4531 197.268 81.8224V87H196.011ZM201.592 87V78.8182H202.849V87H201.592ZM202.231 77.4545C201.986 77.4545 201.775 77.3711 201.597 77.2042C201.423 77.0373 201.336 76.8366 201.336 76.6023C201.336 76.3679 201.423 76.1673 201.597 76.0004C201.775 75.8335 201.986 75.75 202.231 75.75C202.476 75.75 202.686 75.8335 202.86 76.0004C203.037 76.1673 203.126 76.3679 203.126 76.6023C203.126 76.8366 203.037 77.0373 202.86 77.2042C202.686 77.3711 202.476 77.4545 202.231 77.4545ZM205.322 87V76.0909H206.579V80.1179H206.686C206.778 79.9759 206.906 79.7947 207.069 79.5746C207.236 79.3509 207.474 79.152 207.783 78.978C208.095 78.8004 208.518 78.7116 209.051 78.7116C209.74 78.7116 210.347 78.8839 210.872 79.2283C211.398 79.5728 211.808 80.0611 212.103 80.6932C212.398 81.3253 212.545 82.071 212.545 82.9304C212.545 83.7969 212.398 84.5479 212.103 85.1836C211.808 85.8157 211.4 86.3058 210.878 86.6538C210.356 86.9982 209.754 87.1705 209.072 87.1705C208.546 87.1705 208.126 87.0835 207.81 86.9094C207.494 86.7319 207.25 86.5312 207.08 86.3075C206.909 86.0803 206.778 85.892 206.686 85.7429H206.536V87H205.322ZM206.558 82.9091C206.558 83.527 206.648 84.0721 206.829 84.5444C207.011 85.0131 207.275 85.3807 207.623 85.647C207.971 85.9098 208.397 86.0412 208.902 86.0412C209.427 86.0412 209.866 85.9027 210.217 85.6257C210.572 85.3452 210.839 84.9687 211.016 84.4964C211.197 84.0206 211.288 83.4915 211.288 82.9091C211.288 82.3338 211.199 81.8153 211.022 81.3537C210.848 80.8885 210.583 80.521 210.228 80.2511C209.876 79.9776 209.434 79.8409 208.902 79.8409C208.39 79.8409 207.96 79.9705 207.612 80.2298C207.264 80.4854 207.002 80.8441 206.824 81.3058C206.647 81.7638 206.558 82.2983 206.558 82.9091ZM219.624 83.6548V78.8182H220.881V87H219.624V85.6151H219.539C219.347 86.0305 219.049 86.3839 218.644 86.6751C218.239 86.9627 217.728 87.1065 217.11 87.1065C216.599 87.1065 216.144 86.9947 215.746 86.771C215.349 86.5437 215.036 86.2028 214.809 85.7482C214.582 85.2901 214.468 84.7131 214.468 84.017V78.8182H215.725V83.9318C215.725 84.5284 215.892 85.0043 216.226 85.3594C216.563 85.7145 216.993 85.892 217.515 85.892C217.827 85.892 218.145 85.8121 218.468 85.6523C218.795 85.4925 219.068 85.2475 219.289 84.9173C219.512 84.587 219.624 84.1662 219.624 83.6548ZM226.742 78.8182V79.8835H222.502V78.8182H226.742ZM223.738 76.858H224.995V84.6562C224.995 85.0114 225.046 85.2777 225.149 85.4553C225.256 85.6293 225.391 85.7464 225.554 85.8068C225.721 85.8636 225.897 85.892 226.081 85.892C226.22 85.892 226.334 85.8849 226.422 85.8707C226.511 85.853 226.582 85.8388 226.635 85.8281L226.891 86.9574C226.806 86.9893 226.687 87.0213 226.534 87.0533C226.382 87.0888 226.188 87.1065 225.954 87.1065C225.599 87.1065 225.251 87.0302 224.91 86.8775C224.572 86.7248 224.292 86.4922 224.068 86.1797C223.848 85.8672 223.738 85.473 223.738 84.9972V76.858ZM228.633 87V78.8182H229.89V87H228.633ZM229.272 77.4545C229.027 77.4545 228.816 77.3711 228.638 77.2042C228.464 77.0373 228.377 76.8366 228.377 76.6023C228.377 76.3679 228.464 76.1673 228.638 76.0004C228.816 75.8335 229.027 75.75 229.272 75.75C229.517 75.75 229.727 75.8335 229.901 76.0004C230.078 76.1673 230.167 76.3679 230.167 76.6023C230.167 76.8366 230.078 77.0373 229.901 77.2042C229.727 77.3711 229.517 77.4545 229.272 77.4545ZM235.516 87.1705C234.778 87.1705 234.13 86.9947 233.572 86.6431C233.018 86.2915 232.585 85.7997 232.272 85.1676C231.964 84.5355 231.809 83.7969 231.809 82.9517C231.809 82.0994 231.964 81.3555 232.272 80.7198C232.585 80.0842 233.018 79.5906 233.572 79.239C234.13 78.8874 234.778 78.7116 235.516 78.7116C236.255 78.7116 236.901 78.8874 237.455 79.239C238.013 79.5906 238.446 80.0842 238.755 80.7198C239.068 81.3555 239.224 82.0994 239.224 82.9517C239.224 83.7969 239.068 84.5355 238.755 85.1676C238.446 85.7997 238.013 86.2915 237.455 86.6431C236.901 86.9947 236.255 87.1705 235.516 87.1705ZM235.516 86.0412C236.078 86.0412 236.539 85.8974 236.901 85.6097C237.264 85.3221 237.532 84.9439 237.706 84.4751C237.88 84.0064 237.967 83.4986 237.967 82.9517C237.967 82.4048 237.88 81.8952 237.706 81.4229C237.532 80.9506 237.264 80.5689 236.901 80.2777C236.539 79.9865 236.078 79.8409 235.516 79.8409C234.955 79.8409 234.494 79.9865 234.131 80.2777C233.769 80.5689 233.501 80.9506 233.327 81.4229C233.153 81.8952 233.066 82.4048 233.066 82.9517C233.066 83.4986 233.153 84.0064 233.327 84.4751C233.501 84.9439 233.769 85.3221 234.131 85.6097C234.494 85.8974 234.955 86.0412 235.516 86.0412ZM242.4 82.0781V87H241.143V78.8182H242.357V80.0966H242.464C242.656 79.6811 242.947 79.3473 243.337 79.0952C243.728 78.8395 244.232 78.7116 244.85 78.7116C245.404 78.7116 245.889 78.8253 246.304 79.0526C246.72 79.2763 247.043 79.6172 247.274 80.0753C247.505 80.5298 247.62 81.1051 247.62 81.8011V87H246.363V81.8864C246.363 81.2436 246.196 80.7429 245.862 80.3842C245.528 80.022 245.07 79.8409 244.488 79.8409C244.087 79.8409 243.728 79.9279 243.412 80.1019C243.099 80.2759 242.853 80.5298 242.672 80.8636C242.49 81.1974 242.4 81.6023 242.4 82.0781ZM188.847 96.8182C188.783 96.2784 188.523 95.8594 188.069 95.5611C187.614 95.2628 187.057 95.1136 186.396 95.1136C185.913 95.1136 185.491 95.1918 185.128 95.348C184.77 95.5043 184.489 95.7191 184.287 95.9925C184.088 96.266 183.989 96.5767 183.989 96.9247C183.989 97.2159 184.058 97.4663 184.196 97.6758C184.338 97.8817 184.519 98.054 184.74 98.1925C184.96 98.3274 185.191 98.4393 185.432 98.5281C185.674 98.6133 185.896 98.6825 186.098 98.7358L187.206 99.0341C187.49 99.1087 187.806 99.2116 188.154 99.343C188.506 99.4744 188.841 99.6538 189.161 99.881C189.484 100.105 189.75 100.392 189.96 100.744C190.169 101.096 190.274 101.527 190.274 102.038C190.274 102.628 190.12 103.161 189.811 103.636C189.505 104.112 189.058 104.49 188.468 104.771C187.882 105.051 187.17 105.192 186.332 105.192C185.551 105.192 184.875 105.066 184.303 104.814C183.735 104.561 183.287 104.21 182.96 103.759C182.637 103.308 182.454 102.784 182.412 102.188H183.775C183.811 102.599 183.949 102.94 184.191 103.21C184.436 103.477 184.745 103.675 185.118 103.807C185.494 103.935 185.899 103.999 186.332 103.999C186.837 103.999 187.289 103.917 187.691 103.754C188.092 103.587 188.41 103.356 188.644 103.061C188.878 102.763 188.996 102.415 188.996 102.017C188.996 101.655 188.894 101.36 188.692 101.133C188.49 100.906 188.223 100.721 187.893 100.579C187.563 100.437 187.206 100.312 186.822 100.206L185.48 99.8224C184.628 99.5774 183.953 99.2276 183.456 98.7731C182.959 98.3185 182.71 97.7237 182.71 96.9886C182.71 96.3778 182.875 95.8452 183.206 95.3906C183.539 94.9325 183.987 94.5774 184.548 94.3253C185.112 94.0696 185.743 93.9418 186.439 93.9418C187.142 93.9418 187.767 94.0678 188.314 94.32C188.861 94.5685 189.294 94.9094 189.614 95.3427C189.937 95.7759 190.107 96.2678 190.125 96.8182H188.847ZM193.085 108.068C192.872 108.068 192.682 108.05 192.515 108.015C192.348 107.983 192.233 107.951 192.169 107.919L192.489 106.811C192.794 106.889 193.064 106.918 193.298 106.896C193.533 106.875 193.74 106.77 193.922 106.582C194.106 106.397 194.275 106.097 194.428 105.682L194.662 105.043L191.636 96.8182H193L195.259 103.338H195.344L197.602 96.8182H198.966L195.493 106.193C195.337 106.616 195.143 106.966 194.912 107.243C194.681 107.523 194.413 107.731 194.108 107.866C193.806 108.001 193.465 108.068 193.085 108.068ZM206.421 98.6506L205.291 98.9702C205.22 98.782 205.116 98.5991 204.977 98.4215C204.842 98.2404 204.657 98.0913 204.423 97.9741C204.189 97.8569 203.889 97.7983 203.523 97.7983C203.022 97.7983 202.605 97.9137 202.271 98.1445C201.941 98.3718 201.776 98.6612 201.776 99.0128C201.776 99.3253 201.889 99.5721 202.117 99.7532C202.344 99.9343 202.699 100.085 203.182 100.206L204.396 100.504C205.128 100.682 205.673 100.953 206.032 101.319C206.39 101.681 206.57 102.148 206.57 102.72C206.57 103.189 206.435 103.608 206.165 103.977C205.899 104.347 205.526 104.638 205.046 104.851C204.567 105.064 204.009 105.17 203.374 105.17C202.539 105.17 201.849 104.989 201.302 104.627C200.755 104.265 200.409 103.736 200.263 103.04L201.456 102.741C201.57 103.182 201.785 103.512 202.101 103.732C202.42 103.952 202.838 104.062 203.352 104.062C203.938 104.062 204.404 103.938 204.748 103.69C205.096 103.437 205.27 103.136 205.27 102.784C205.27 102.5 205.171 102.262 204.972 102.07C204.773 101.875 204.468 101.729 204.056 101.634L202.692 101.314C201.943 101.136 201.392 100.861 201.041 100.488C200.693 100.112 200.519 99.6413 200.519 99.0767C200.519 98.6151 200.648 98.2067 200.907 97.8516C201.17 97.4964 201.527 97.2177 201.978 97.0153C202.433 96.8129 202.948 96.7116 203.523 96.7116C204.333 96.7116 204.968 96.8892 205.43 97.2443C205.895 97.5994 206.225 98.0682 206.421 98.6506ZM212.02 96.8182V97.8835H207.78V96.8182H212.02ZM209.016 94.858H210.273V102.656C210.273 103.011 210.325 103.278 210.428 103.455C210.534 103.629 210.669 103.746 210.832 103.807C210.999 103.864 211.175 103.892 211.36 103.892C211.498 103.892 211.612 103.885 211.701 103.871C211.79 103.853 211.861 103.839 211.914 103.828L212.169 104.957C212.084 104.989 211.965 105.021 211.813 105.053C211.66 105.089 211.466 105.107 211.232 105.107C210.877 105.107 210.529 105.03 210.188 104.877C209.851 104.725 209.57 104.492 209.346 104.18C209.126 103.867 209.016 103.473 209.016 102.997V94.858ZM217.254 105.17C216.465 105.17 215.785 104.996 215.214 104.648C214.646 104.297 214.207 103.807 213.898 103.178C213.593 102.546 213.44 101.811 213.44 100.973C213.44 100.135 213.593 99.3963 213.898 98.7571C214.207 98.1143 214.637 97.6136 215.187 97.255C215.741 96.8928 216.387 96.7116 217.126 96.7116C217.552 96.7116 217.973 96.7827 218.388 96.9247C218.804 97.0668 219.182 97.2976 219.523 97.6172C219.864 97.9332 220.136 98.3523 220.338 98.8743C220.54 99.3963 220.642 100.039 220.642 100.803V101.335H214.335V100.249H219.363C219.363 99.7869 219.271 99.375 219.086 99.0128C218.905 98.6506 218.646 98.3647 218.309 98.1552C217.975 97.9457 217.581 97.8409 217.126 97.8409C216.625 97.8409 216.192 97.9652 215.826 98.2138C215.464 98.4588 215.185 98.7784 214.99 99.1726C214.795 99.5668 214.697 99.9893 214.697 100.44V101.165C214.697 101.783 214.804 102.306 215.017 102.736C215.233 103.162 215.533 103.487 215.917 103.711C216.3 103.931 216.746 104.041 217.254 104.041C217.584 104.041 217.882 103.995 218.149 103.903C218.419 103.807 218.651 103.665 218.847 103.477C219.042 103.285 219.193 103.047 219.299 102.763L220.514 103.104C220.386 103.516 220.171 103.878 219.869 104.19C219.567 104.499 219.195 104.741 218.751 104.915C218.307 105.085 217.808 105.17 217.254 105.17ZM222.554 105V96.8182H223.768V98.0966H223.875C224.045 97.6598 224.321 97.3207 224.701 97.0792C225.081 96.8342 225.537 96.7116 226.07 96.7116C226.609 96.7116 227.059 96.8342 227.417 97.0792C227.779 97.3207 228.062 97.6598 228.264 98.0966H228.349C228.559 97.674 228.873 97.3384 229.292 97.0898C229.711 96.8377 230.214 96.7116 230.8 96.7116C231.531 96.7116 232.13 96.9407 232.595 97.3988C233.06 97.8533 233.293 98.5618 233.293 99.5241V105H232.035V99.5241C232.035 98.9205 231.87 98.489 231.54 98.2298C231.21 97.9705 230.821 97.8409 230.373 97.8409C229.798 97.8409 229.353 98.0149 229.036 98.3629C228.72 98.7074 228.562 99.1442 228.562 99.6733V105H227.284V99.3963C227.284 98.9311 227.133 98.5565 226.831 98.2724C226.529 97.9847 226.141 97.8409 225.665 97.8409C225.338 97.8409 225.033 97.9279 224.748 98.1019C224.468 98.2759 224.241 98.5174 224.067 98.8263C223.896 99.1317 223.811 99.4851 223.811 99.8864V105H222.554ZM188.276 123H184.909V112.091H188.425C189.483 112.091 190.389 112.309 191.142 112.746C191.894 113.179 192.472 113.803 192.873 114.616C193.274 115.425 193.475 116.395 193.475 117.524C193.475 118.661 193.272 119.639 192.867 120.459C192.463 121.276 191.873 121.904 191.099 122.345C190.325 122.782 189.384 123 188.276 123ZM186.23 121.828H188.191C189.093 121.828 189.84 121.654 190.433 121.306C191.026 120.958 191.468 120.463 191.76 119.82C192.051 119.177 192.196 118.412 192.196 117.524C192.196 116.643 192.053 115.885 191.765 115.25C191.477 114.61 191.048 114.12 190.476 113.779C189.904 113.435 189.192 113.263 188.34 113.263H186.23V121.828ZM198.951 123.17C198.162 123.17 197.482 122.996 196.91 122.648C196.342 122.297 195.904 121.807 195.595 121.178C195.289 120.546 195.137 119.811 195.137 118.973C195.137 118.135 195.289 117.396 195.595 116.757C195.904 116.114 196.333 115.614 196.884 115.255C197.438 114.893 198.084 114.712 198.823 114.712C199.249 114.712 199.67 114.783 200.085 114.925C200.501 115.067 200.879 115.298 201.22 115.617C201.561 115.933 201.832 116.352 202.035 116.874C202.237 117.396 202.338 118.039 202.338 118.803V119.335H196.032V118.249H201.06C201.06 117.787 200.968 117.375 200.783 117.013C200.602 116.651 200.343 116.365 200.005 116.155C199.671 115.946 199.277 115.841 198.823 115.841C198.322 115.841 197.889 115.965 197.523 116.214C197.161 116.459 196.882 116.778 196.687 117.173C196.491 117.567 196.394 117.989 196.394 118.44V119.165C196.394 119.783 196.5 120.306 196.713 120.736C196.93 121.162 197.23 121.487 197.614 121.711C197.997 121.931 198.443 122.041 198.951 122.041C199.281 122.041 199.579 121.995 199.845 121.903C200.115 121.807 200.348 121.665 200.543 121.477C200.739 121.285 200.89 121.047 200.996 120.763L202.211 121.104C202.083 121.516 201.868 121.878 201.566 122.19C201.264 122.499 200.891 122.741 200.447 122.915C200.004 123.085 199.505 123.17 198.951 123.17ZM210.046 116.651L208.917 116.97C208.846 116.782 208.741 116.599 208.603 116.422C208.468 116.24 208.283 116.091 208.049 115.974C207.814 115.857 207.514 115.798 207.148 115.798C206.648 115.798 206.23 115.914 205.897 116.145C205.566 116.372 205.401 116.661 205.401 117.013C205.401 117.325 205.515 117.572 205.742 117.753C205.969 117.934 206.325 118.085 206.807 118.206L208.022 118.504C208.754 118.682 209.299 118.953 209.657 119.319C210.016 119.681 210.195 120.148 210.195 120.72C210.195 121.189 210.06 121.608 209.79 121.977C209.524 122.347 209.151 122.638 208.672 122.851C208.192 123.064 207.635 123.17 206.999 123.17C206.165 123.17 205.474 122.989 204.927 122.627C204.38 122.265 204.034 121.736 203.888 121.04L205.082 120.741C205.195 121.182 205.41 121.512 205.726 121.732C206.046 121.952 206.463 122.062 206.978 122.062C207.564 122.062 208.029 121.938 208.374 121.69C208.722 121.437 208.896 121.136 208.896 120.784C208.896 120.5 208.796 120.262 208.597 120.07C208.398 119.875 208.093 119.729 207.681 119.634L206.317 119.314C205.568 119.136 205.018 118.861 204.666 118.488C204.318 118.112 204.144 117.641 204.144 117.077C204.144 116.615 204.274 116.207 204.533 115.852C204.796 115.496 205.153 115.218 205.604 115.015C206.058 114.813 206.573 114.712 207.148 114.712C207.958 114.712 208.594 114.889 209.055 115.244C209.521 115.599 209.851 116.068 210.046 116.651ZM212.088 123V114.818H213.345V123H212.088ZM212.727 113.455C212.482 113.455 212.27 113.371 212.093 113.204C211.919 113.037 211.832 112.837 211.832 112.602C211.832 112.368 211.919 112.167 212.093 112C212.27 111.833 212.482 111.75 212.727 111.75C212.972 111.75 213.181 111.833 213.355 112C213.533 112.167 213.622 112.368 213.622 112.602C213.622 112.837 213.533 113.037 213.355 113.204C213.181 113.371 212.972 113.455 212.727 113.455ZM218.95 126.239C218.342 126.239 217.82 126.161 217.384 126.004C216.947 125.852 216.583 125.649 216.292 125.397C216.004 125.148 215.775 124.882 215.605 124.598L216.606 123.895C216.72 124.044 216.863 124.214 217.037 124.406C217.211 124.602 217.449 124.77 217.751 124.912C218.057 125.058 218.456 125.131 218.95 125.131C219.61 125.131 220.155 124.971 220.585 124.651C221.015 124.332 221.23 123.831 221.23 123.149V121.487H221.123C221.031 121.636 220.899 121.821 220.729 122.041C220.562 122.258 220.32 122.451 220.004 122.622C219.692 122.789 219.269 122.872 218.737 122.872C218.076 122.872 217.483 122.716 216.958 122.403C216.436 122.091 216.022 121.636 215.716 121.04C215.415 120.443 215.264 119.719 215.264 118.866C215.264 118.028 215.411 117.299 215.706 116.677C216 116.052 216.411 115.569 216.936 115.228C217.462 114.884 218.069 114.712 218.758 114.712C219.291 114.712 219.713 114.8 220.026 114.978C220.342 115.152 220.583 115.351 220.75 115.575C220.921 115.795 221.052 115.976 221.144 116.118H221.272V114.818H222.487V123.234C222.487 123.938 222.327 124.509 222.007 124.95C221.691 125.393 221.265 125.718 220.729 125.924C220.196 126.134 219.603 126.239 218.95 126.239ZM218.907 121.743C219.411 121.743 219.837 121.627 220.186 121.397C220.534 121.166 220.798 120.834 220.979 120.401C221.16 119.967 221.251 119.449 221.251 118.845C221.251 118.256 221.162 117.735 220.985 117.284C220.807 116.833 220.544 116.48 220.196 116.224C219.848 115.969 219.418 115.841 218.907 115.841C218.374 115.841 217.931 115.976 217.575 116.246C217.224 116.516 216.959 116.878 216.782 117.332C216.608 117.787 216.521 118.291 216.521 118.845C216.521 119.413 216.61 119.916 216.787 120.353C216.968 120.786 217.235 121.127 217.586 121.375C217.941 121.62 218.382 121.743 218.907 121.743ZM226.045 118.078V123H224.788V114.818H226.002V116.097H226.109C226.301 115.681 226.592 115.347 226.982 115.095C227.373 114.839 227.877 114.712 228.495 114.712C229.049 114.712 229.534 114.825 229.949 115.053C230.365 115.276 230.688 115.617 230.919 116.075C231.15 116.53 231.265 117.105 231.265 117.801V123H230.008V117.886C230.008 117.244 229.841 116.743 229.507 116.384C229.173 116.022 228.715 115.841 228.133 115.841C227.732 115.841 227.373 115.928 227.057 116.102C226.744 116.276 226.498 116.53 226.317 116.864C226.135 117.197 226.045 117.602 226.045 118.078Z" fill="#2488B3"/>
<path d="M32.5364 291.5H31.2154C31.1373 291.12 31.0006 290.786 30.8053 290.499C30.6135 290.211 30.3791 289.969 30.1021 289.774C29.8287 289.575 29.5251 289.426 29.1913 289.327C28.8575 289.227 28.5095 289.178 28.1472 289.178C27.4867 289.178 26.8884 289.344 26.3521 289.678C25.8195 290.012 25.3951 290.504 25.0791 291.154C24.7666 291.804 24.6103 292.601 24.6103 293.545C24.6103 294.49 24.7666 295.287 25.0791 295.937C25.3951 296.587 25.8195 297.079 26.3521 297.413C26.8884 297.746 27.4867 297.913 28.1472 297.913C28.5095 297.913 28.8575 297.864 29.1913 297.764C29.5251 297.665 29.8287 297.517 30.1021 297.322C30.3791 297.123 30.6135 296.88 30.8053 296.592C31.0006 296.301 31.1373 295.967 31.2154 295.591H32.5364C32.437 296.148 32.2559 296.647 31.9931 297.088C31.7303 297.528 31.4036 297.903 31.013 298.212C30.6224 298.517 30.1838 298.75 29.6973 298.909C29.2144 299.069 28.6977 299.149 28.1472 299.149C27.2168 299.149 26.3894 298.922 25.665 298.467C24.9406 298.013 24.3706 297.366 23.9551 296.528C23.5396 295.69 23.3319 294.696 23.3319 293.545C23.3319 292.395 23.5396 291.401 23.9551 290.562C24.3706 289.724 24.9406 289.078 25.665 288.624C26.3894 288.169 27.2168 287.942 28.1472 287.942C28.6977 287.942 29.2144 288.022 29.6973 288.181C30.1838 288.341 30.6224 288.576 31.013 288.885C31.4036 289.19 31.7303 289.563 31.9931 290.003C32.2559 290.44 32.437 290.939 32.5364 291.5ZM39.6569 295.655V290.818H40.914V299H39.6569V297.615H39.5717C39.3799 298.031 39.0816 298.384 38.6768 298.675C38.272 298.963 37.7606 299.107 37.1427 299.107C36.6313 299.107 36.1768 298.995 35.7791 298.771C35.3813 298.544 35.0688 298.203 34.8416 297.748C34.6143 297.29 34.5007 296.713 34.5007 296.017V290.818H35.7578V295.932C35.7578 296.528 35.9247 297.004 36.2585 297.359C36.5958 297.714 37.0255 297.892 37.5475 297.892C37.86 297.892 38.1779 297.812 38.501 297.652C38.8277 297.493 39.1012 297.248 39.3213 296.917C39.5451 296.587 39.6569 296.166 39.6569 295.655ZM49.0119 292.651L47.8827 292.97C47.8117 292.782 47.7069 292.599 47.5684 292.422C47.4335 292.24 47.2488 292.091 47.0144 291.974C46.7801 291.857 46.48 291.798 46.1142 291.798C45.6135 291.798 45.1962 291.914 44.8624 292.145C44.5322 292.372 44.3671 292.661 44.3671 293.013C44.3671 293.325 44.4807 293.572 44.708 293.753C44.9352 293.934 45.2903 294.085 45.7733 294.206L46.9878 294.504C47.7193 294.682 48.2644 294.953 48.6231 295.319C48.9818 295.681 49.1611 296.148 49.1611 296.72C49.1611 297.189 49.0261 297.608 48.7563 297.977C48.4899 298.347 48.1171 298.638 47.6377 298.851C47.1582 299.064 46.6007 299.17 45.9651 299.17C45.1305 299.17 44.4399 298.989 43.893 298.627C43.3461 298.265 42.9999 297.736 42.8543 297.04L44.0475 296.741C44.1611 297.182 44.3759 297.512 44.692 297.732C45.0116 297.952 45.4288 298.062 45.9438 298.062C46.5297 298.062 46.9949 297.938 47.3394 297.69C47.6874 297.437 47.8614 297.136 47.8614 296.784C47.8614 296.5 47.7619 296.262 47.5631 296.07C47.3642 295.875 47.0588 295.729 46.6469 295.634L45.2832 295.314C44.534 295.136 43.9835 294.861 43.632 294.488C43.284 294.112 43.11 293.641 43.11 293.077C43.11 292.615 43.2396 292.207 43.4988 291.852C43.7616 291.496 44.1185 291.218 44.5695 291.015C45.024 290.813 45.5389 290.712 46.1142 290.712C46.9239 290.712 47.5595 290.889 48.0212 291.244C48.4864 291.599 48.8166 292.068 49.0119 292.651ZM54.6116 290.818V291.884H50.3716V290.818H54.6116ZM51.6074 288.858H52.8645V296.656C52.8645 297.011 52.916 297.278 53.019 297.455C53.1255 297.629 53.2604 297.746 53.4238 297.807C53.5907 297.864 53.7665 297.892 53.9511 297.892C54.0896 297.892 54.2033 297.885 54.292 297.871C54.3808 297.853 54.4518 297.839 54.5051 297.828L54.7608 298.957C54.6756 298.989 54.5566 299.021 54.4039 299.053C54.2512 299.089 54.0577 299.107 53.8233 299.107C53.4682 299.107 53.1202 299.03 52.7793 298.877C52.4419 298.725 52.1614 298.492 51.9376 298.18C51.7175 297.867 51.6074 297.473 51.6074 296.997V288.858ZM59.7386 299.17C59 299.17 58.3519 298.995 57.7943 298.643C57.2404 298.292 56.8071 297.8 56.4946 297.168C56.1857 296.536 56.0312 295.797 56.0312 294.952C56.0312 294.099 56.1857 293.355 56.4946 292.72C56.8071 292.084 57.2404 291.591 57.7943 291.239C58.3519 290.887 59 290.712 59.7386 290.712C60.4772 290.712 61.1235 290.887 61.6775 291.239C62.235 291.591 62.6683 292.084 62.9772 292.72C63.2897 293.355 63.446 294.099 63.446 294.952C63.446 295.797 63.2897 296.536 62.9772 297.168C62.6683 297.8 62.235 298.292 61.6775 298.643C61.1235 298.995 60.4772 299.17 59.7386 299.17ZM59.7386 298.041C60.2997 298.041 60.7613 297.897 61.1235 297.61C61.4858 297.322 61.7539 296.944 61.9279 296.475C62.1019 296.006 62.1889 295.499 62.1889 294.952C62.1889 294.405 62.1019 293.895 61.9279 293.423C61.7539 292.951 61.4858 292.569 61.1235 292.278C60.7613 291.987 60.2997 291.841 59.7386 291.841C59.1775 291.841 58.7159 291.987 58.3536 292.278C57.9914 292.569 57.7233 292.951 57.5493 293.423C57.3753 293.895 57.2883 294.405 57.2883 294.952C57.2883 295.499 57.3753 296.006 57.5493 296.475C57.7233 296.944 57.9914 297.322 58.3536 297.61C58.7159 297.897 59.1775 298.041 59.7386 298.041ZM65.3649 299V290.818H66.5794V292.097H66.6859C66.8564 291.66 67.1316 291.321 67.5116 291.079C67.8916 290.834 68.3479 290.712 68.8805 290.712C69.4203 290.712 69.8695 290.834 70.2282 291.079C70.5904 291.321 70.8727 291.66 71.0752 292.097H71.1604C71.3699 291.674 71.6842 291.338 72.1032 291.09C72.5222 290.838 73.0247 290.712 73.6107 290.712C74.3422 290.712 74.9406 290.941 75.4058 291.399C75.871 291.853 76.1036 292.562 76.1036 293.524V299H74.8465V293.524C74.8465 292.92 74.6813 292.489 74.3511 292.23C74.0208 291.971 73.632 291.841 73.1845 291.841C72.6092 291.841 72.1636 292.015 71.8475 292.363C71.5315 292.707 71.3734 293.144 71.3734 293.673V299H70.095V293.396C70.095 292.931 69.9441 292.556 69.6423 292.272C69.3404 291.985 68.9516 291.841 68.4757 291.841C68.149 291.841 67.8436 291.928 67.5595 292.102C67.279 292.276 67.0517 292.517 66.8777 292.826C66.7073 293.132 66.622 293.485 66.622 293.886V299H65.3649ZM81.8324 299.17C81.0441 299.17 80.364 298.996 79.7923 298.648C79.2241 298.297 78.7856 297.807 78.4766 297.178C78.1712 296.546 78.0185 295.811 78.0185 294.973C78.0185 294.135 78.1712 293.396 78.4766 292.757C78.7856 292.114 79.2152 291.614 79.7657 291.255C80.3196 290.893 80.966 290.712 81.7046 290.712C82.1307 290.712 82.5515 290.783 82.967 290.925C83.3825 291.067 83.7607 291.298 84.1016 291.617C84.4425 291.933 84.7142 292.352 84.9166 292.874C85.119 293.396 85.2202 294.039 85.2202 294.803V295.335H78.9134V294.249H83.9418C83.9418 293.787 83.8495 293.375 83.6648 293.013C83.4837 292.651 83.2245 292.365 82.8871 292.155C82.5533 291.946 82.1591 291.841 81.7046 291.841C81.2039 291.841 80.7706 291.965 80.4049 292.214C80.0427 292.459 79.7639 292.778 79.5686 293.173C79.3733 293.567 79.2756 293.989 79.2756 294.44V295.165C79.2756 295.783 79.3821 296.306 79.5952 296.736C79.8118 297.162 80.1119 297.487 80.4954 297.711C80.879 297.931 81.3246 298.041 81.8324 298.041C82.1627 298.041 82.461 297.995 82.7273 297.903C82.9972 297.807 83.2298 297.665 83.4251 297.477C83.6204 297.285 83.7714 297.047 83.8779 296.763L85.0924 297.104C84.9645 297.516 84.7497 297.878 84.4478 298.19C84.146 298.499 83.7731 298.741 83.3292 298.915C82.8853 299.085 82.3864 299.17 81.8324 299.17ZM87.1325 299V290.818H88.347V292.054H88.4322C88.5814 291.649 88.8513 291.321 89.2419 291.069C89.6325 290.816 90.0728 290.69 90.5629 290.69C90.6552 290.69 90.7706 290.692 90.9091 290.696C91.0476 290.699 91.1524 290.705 91.2234 290.712V291.99C91.1808 291.979 91.0831 291.963 90.9304 291.942C90.7813 291.917 90.6233 291.905 90.4564 291.905C90.0586 291.905 89.7035 291.988 89.391 292.155C89.0821 292.319 88.837 292.546 88.6559 292.837C88.4784 293.125 88.3896 293.453 88.3896 293.822V299H87.1325ZM39.7874 308.818C39.7235 308.278 39.4643 307.859 39.0097 307.561C38.5552 307.263 37.9976 307.114 37.3371 307.114C36.8542 307.114 36.4316 307.192 36.0694 307.348C35.7107 307.504 35.4302 307.719 35.2278 307.993C35.0289 308.266 34.9295 308.577 34.9295 308.925C34.9295 309.216 34.9987 309.466 35.1372 309.676C35.2793 309.882 35.4604 310.054 35.6805 310.192C35.9007 310.327 36.1315 310.439 36.373 310.528C36.6145 310.613 36.8364 310.683 37.0388 310.736L38.1468 311.034C38.4309 311.109 38.7469 311.212 39.0949 311.343C39.4465 311.474 39.7821 311.654 40.1017 311.881C40.4248 312.105 40.6912 312.392 40.9007 312.744C41.1102 313.096 41.215 313.527 41.215 314.038C41.215 314.628 41.0605 315.161 40.7516 315.636C40.4462 316.112 39.9987 316.49 39.4092 316.771C38.8233 317.051 38.1113 317.192 37.2732 317.192C36.492 317.192 35.8155 317.066 35.2437 316.814C34.6756 316.561 34.2281 316.21 33.9014 315.759C33.5783 315.308 33.3954 314.784 33.3528 314.188H34.7164C34.7519 314.599 34.8904 314.94 35.1319 315.21C35.3769 315.477 35.6859 315.675 36.0587 315.807C36.4351 315.935 36.84 315.999 37.2732 315.999C37.7775 315.999 38.2302 315.917 38.6315 315.754C39.0328 315.587 39.3506 315.356 39.585 315.061C39.8194 314.763 39.9366 314.415 39.9366 314.017C39.9366 313.655 39.8354 313.36 39.6329 313.133C39.4305 312.906 39.1642 312.721 38.8339 312.579C38.5037 312.437 38.1468 312.312 37.7633 312.206L36.4209 311.822C35.5687 311.577 34.894 311.228 34.3968 310.773C33.8996 310.319 33.6511 309.724 33.6511 308.989C33.6511 308.378 33.8162 307.845 34.1464 307.391C34.4802 306.933 34.9277 306.577 35.4888 306.325C36.0534 306.07 36.6837 305.942 37.3797 305.942C38.0829 305.942 38.7079 306.068 39.2547 306.32C39.8016 306.569 40.2349 306.909 40.5545 307.343C40.8776 307.776 41.0481 308.268 41.0658 308.818H39.7874ZM48.3727 313.655V308.818H49.6298V317H48.3727V315.615H48.2875C48.0957 316.031 47.7975 316.384 47.3926 316.675C46.9878 316.963 46.4764 317.107 45.8585 317.107C45.3472 317.107 44.8926 316.995 44.4949 316.771C44.0972 316.544 43.7847 316.203 43.5574 315.748C43.3301 315.29 43.2165 314.713 43.2165 314.017V308.818H44.4736V313.932C44.4736 314.528 44.6405 315.004 44.9743 315.359C45.3117 315.714 45.7413 315.892 46.2634 315.892C46.5759 315.892 46.8937 315.812 47.2168 315.652C47.5435 315.493 47.817 315.248 48.0372 314.917C48.2609 314.587 48.3727 314.166 48.3727 313.655ZM51.9323 317V308.818H53.1468V310.054H53.232C53.3812 309.649 53.6511 309.321 54.0417 309.069C54.4323 308.816 54.8726 308.69 55.3627 308.69C55.455 308.69 55.5704 308.692 55.7089 308.696C55.8474 308.699 55.9522 308.705 56.0232 308.712V309.99C55.9806 309.979 55.8829 309.963 55.7302 309.942C55.5811 309.917 55.4231 309.905 55.2562 309.905C54.8584 309.905 54.5033 309.988 54.1908 310.155C53.8819 310.319 53.6369 310.546 53.4557 310.837C53.2782 311.125 53.1894 311.453 53.1894 311.822V317H51.9323ZM64.4527 308.818L61.4272 317H60.1487L57.1232 308.818H58.4868L60.7453 315.338H60.8306L63.0891 308.818H64.4527ZM69.2494 317.17C68.4611 317.17 67.781 316.996 67.2093 316.648C66.6411 316.297 66.2025 315.807 65.8936 315.178C65.5882 314.546 65.4355 313.811 65.4355 312.973C65.4355 312.135 65.5882 311.396 65.8936 310.757C66.2025 310.114 66.6322 309.614 67.1827 309.255C67.7366 308.893 68.3829 308.712 69.1216 308.712C69.5477 308.712 69.9685 308.783 70.384 308.925C70.7995 309.067 71.1777 309.298 71.5186 309.617C71.8595 309.933 72.1312 310.352 72.3336 310.874C72.536 311.396 72.6372 312.039 72.6372 312.803V313.335H66.3304V312.249H71.3588C71.3588 311.787 71.2665 311.375 71.0818 311.013C70.9007 310.651 70.6415 310.365 70.3041 310.155C69.9703 309.946 69.5761 309.841 69.1216 309.841C68.6209 309.841 68.1876 309.965 67.8219 310.214C67.4597 310.459 67.1809 310.778 66.9856 311.173C66.7903 311.567 66.6926 311.989 66.6926 312.44V313.165C66.6926 313.783 66.7991 314.306 67.0122 314.736C67.2288 315.162 67.5289 315.487 67.9124 315.711C68.2959 315.931 68.7416 316.041 69.2494 316.041C69.5797 316.041 69.878 315.995 70.1443 315.903C70.4142 315.807 70.6468 315.665 70.8421 315.477C71.0374 315.285 71.1883 315.047 71.2949 314.763L72.5094 315.104C72.3815 315.516 72.1667 315.878 71.8648 316.19C71.563 316.499 71.1901 316.741 70.7462 316.915C70.3023 317.085 69.8034 317.17 69.2494 317.17ZM75.1101 320.068C74.8971 320.068 74.7071 320.05 74.5402 320.015C74.3733 319.983 74.2579 319.951 74.1939 319.919L74.5135 318.811C74.8189 318.889 75.0888 318.918 75.3232 318.896C75.5576 318.875 75.7653 318.77 75.9464 318.582C76.1311 318.397 76.2998 318.097 76.4525 317.682L76.6868 317.043L73.6613 308.818H75.0249L77.2834 315.338H77.3687L79.6272 308.818H80.9908L77.5178 318.193C77.3616 318.616 77.168 318.966 76.9372 319.243C76.7064 319.523 76.4383 319.731 76.1329 319.866C75.831 320.001 75.4901 320.068 75.1101 320.068Z" fill="#2488B3"/>
<path d="M206.411 1.42978L180.411 20.3927C180.153 20.581 180 20.8812 180 21.2007V44.7993C180 45.1188 180.153 45.419 180.411 45.6073L206.411 64.5702C206.762 64.8263 207.238 64.8263 207.589 64.5702L233.589 45.6073C233.847 45.419 234 45.1188 234 44.7993V21.2007C234 20.8812 233.847 20.581 233.589 20.3927L207.589 1.42978C207.238 1.1737 206.762 1.1737 206.411 1.42978Z" fill="#2488B3" stroke="#2488B3" stroke-width="2" stroke-linecap="round"/>
<path d="M379.411 42.4298L353.411 61.3927C353.153 61.581 353 61.8812 353 62.2007V85.7993C353 86.1188 353.153 86.419 353.411 86.6073L379.411 105.57C379.762 105.826 380.238 105.826 380.589 105.57L406.589 86.6073C406.847 86.419 407 86.1188 407 85.7993V62.2007C407 61.8812 406.847 61.581 406.589 61.3927L380.589 42.4298C380.238 42.1737 379.762 42.1737 379.411 42.4298Z" fill="#2488B3" stroke="#2488B3" stroke-width="2" stroke-linecap="round"/>
<path d="M363.251 75.4767C363.238 75.6142 363.339 75.736 363.477 75.7489L365.717 75.9589C365.854 75.9718 365.976 75.8708 365.989 75.7334C366.002 75.5959 365.901 75.474 365.764 75.4611L363.772 75.2744L363.959 73.2832C363.972 73.1457 363.871 73.0238 363.733 73.0109C363.596 72.998 363.474 73.099 363.461 73.2365L363.251 75.4767ZM371.5 82.5L371.641 82.2933L371.641 82.2933L371.5 82.5ZM363.66 75.6925C372.402 68.4489 381.371 62.9746 386.885 61.3018C388.263 60.8837 389.402 60.7105 390.258 60.7928C391.107 60.8745 391.638 61.2006 391.89 61.7521C392.151 62.3266 392.144 63.2145 391.734 64.4929C391.326 65.763 390.533 67.3761 389.288 69.3675L389.712 69.6325C390.967 67.624 391.784 65.9714 392.21 64.6458C392.633 63.3285 392.685 62.2907 392.345 61.5448C391.994 60.776 391.264 60.3873 390.306 60.2951C389.355 60.2036 388.143 60.3976 386.74 60.8233C381.129 62.5254 372.098 68.0512 363.34 75.3075L363.66 75.6925ZM389.288 69.3675C384.355 77.2608 376.838 78.3763 372.053 78.5627C370.84 78.6099 369.849 78.5971 369.058 78.6202C368.673 78.6315 368.341 78.6515 368.081 78.6944C367.951 78.7158 367.83 78.7443 367.727 78.7841C367.625 78.8232 367.522 78.8799 367.444 78.9685C367.36 79.0647 367.32 79.1842 367.329 79.3135C367.338 79.4327 367.387 79.5452 367.45 79.6467C367.575 79.848 367.8 80.0789 368.111 80.3467C368.74 80.8877 369.798 81.6453 371.359 82.7067L371.641 82.2933C370.077 81.2297 369.041 80.4873 368.437 79.9677C368.133 79.7053 367.957 79.5158 367.875 79.3833C367.835 79.318 367.829 79.2852 367.828 79.278C367.828 79.2762 367.829 79.2801 367.826 79.287C367.824 79.2939 367.821 79.2974 367.821 79.2972C367.824 79.2939 367.844 79.2747 367.906 79.2508C367.966 79.2277 368.05 79.2062 368.162 79.1877C368.387 79.1507 368.691 79.1312 369.073 79.12C369.815 79.0983 370.879 79.1088 372.072 79.0623C376.912 78.8738 384.645 77.7393 389.712 69.6325L389.288 69.3675ZM371.359 82.7067C376.428 86.1534 381.959 86.5295 386.797 85.6081C391.631 84.6875 395.79 82.4697 398.15 80.7L397.85 80.3C395.543 82.0303 391.453 84.2125 386.703 85.1169C381.958 86.0205 376.572 85.6466 371.641 82.2933L371.359 82.7067Z" fill="#F5F5F5"/>
<path d="M387.411 198.43L361.411 217.393C361.153 217.581 361 217.881 361 218.201V241.799C361 242.119 361.153 242.419 361.411 242.607L387.411 261.57C387.762 261.826 388.238 261.826 388.589 261.57L414.589 242.607C414.847 242.419 415 242.119 415 241.799V218.201C415 217.881 414.847 217.581 414.589 217.393L388.589 198.43C388.238 198.174 387.762 198.174 387.411 198.43Z" fill="#2488B3" stroke="#2488B3" stroke-width="2" stroke-linecap="round"/>
<circle cx="375.5" cy="238.5" r="3.5" fill="#F5F5F5"/>
<circle cx="386.5" cy="222.5" r="3.5" fill="#F5F5F5"/>
<circle cx="393.5" cy="235.5" r="3.5" fill="#F5F5F5"/>
<circle cx="404.5" cy="221.5" r="3.5" fill="#F5F5F5"/>
<line x1="375.58" y1="238.728" x2="386.58" y2="221.728" stroke="#F5F5F5"/>
<line x1="387.447" y1="222.776" x2="393.447" y2="234.776" stroke="#F5F5F5"/>
<line x1="394.593" y1="235.709" x2="404.593" y2="221.709" stroke="#F5F5F5"/>
<rect x="174" y="203" width="75" height="56" fill="#D9D9D9"/>
<rect x="202" y="182" width="75" height="56" fill="#D9D9D9" fill-opacity="0.7"/>
<path fill-rule="evenodd" clip-rule="evenodd" d="M79 204C79 204.552 79.4477 205 80 205H86C87.1046 205 88 205.895 88 207V263C88 264.105 87.1046 265 86 265H27C25.8954 265 25 264.105 25 263L25 207C25 205.895 25.8954 205 27 205H36C36.5523 205 37 204.552 37 204V204C37 203.448 36.5523 203 36 203H25C23.8954 203 23 203.895 23 205V265C23 266.105 23.8954 267 25 267H88C89.1046 267 90 266.105 90 265V205C90 203.895 89.1046 203 88 203H80C79.4477 203 79 203.448 79 204V204Z" fill="#2488B3"/>
<rect x="41" y="200" width="35" height="8" rx="2" fill="#2488B3"/>
<circle cx="57" cy="199" r="6" fill="#2488B3"/>
<circle cx="56.5" cy="199.5" r="2.5" fill="#F5F5F5"/>
<circle cx="38.5" cy="225.5" r="5.5" fill="#2AB361"/>
<circle cx="38.5" cy="244.5" r="5.5" fill="#2AB361"/>
<path d="M36.1727 224.994C36.6913 226.061 37.8669 227.99 38.4207 227.173C38.9745 226.356 40.7858 224.051 41.6223 223" stroke="#F5F5F5" stroke-linecap="round"/>
<path d="M36.1727 244.994C36.6913 246.061 37.8669 247.99 38.4207 247.173C38.9745 246.356 40.7858 244.051 41.6223 243" stroke="#F5F5F5" stroke-linecap="round"/>
<line x1="51" y1="225.5" x2="76" y2="225.5" stroke="#2488B3"/>
<line x1="51" y1="240.5" x2="76" y2="240.5" stroke="#2488B3"/>
<line x1="45.9984" y1="232.637" x2="75.9977" y2="232.5" stroke="#2488B3"/>
<line x1="45.9977" y1="249.637" x2="75.997" y2="249.5" stroke="#2488B3"/>
<rect x="188" y="37" width="33" height="15" fill="#2488B3"/>
<circle cx="45" cy="67" r="4" fill="#F5F5F5"/>
<path d="M39 81.5C39 83.7091 37.2091 85.5 35 85.5C32.7909 85.5 31 83.7091 31 81.5C31 79.2909 32.7909 77.5 35 77.5C37.2091 77.5 39 79.2909 39 81.5Z" fill="#F5F5F5"/>
<path d="M50 92C50 94.2091 48.2091 96 46 96C43.7909 96 42 94.2091 42 92C42 89.7909 43.7909 88 46 88C48.2091 88 50 89.7909 50 92Z" fill="#F5F5F5"/>
<path d="M63.5 84C63.5 86.2091 61.7091 88 59.5 88C57.2909 88 55.5 86.2091 55.5 84C55.5 81.7909 57.2909 80 59.5 80C61.7091 80 63.5 81.7909 63.5 84Z" fill="#F5F5F5"/>
<path d="M52 77.5C52 79.7091 50.2091 81.5 48 81.5C45.7909 81.5 44 79.7091 44 77.5C44 75.2909 45.7909 73.5 48 73.5C50.2091 73.5 52 75.2909 52 77.5Z" fill="#F5F5F5"/>
<line x1="46.4969" y1="68.9448" x2="47.4969" y2="77.9448" stroke="#F5F5F5"/>
<line x1="36.8143" y1="82.5358" x2="46.8143" y2="78.5358" stroke="#F5F5F5"/>
<line x1="46.5015" y1="92.9617" x2="47.5015" y2="79.9617" stroke="#F5F5F5"/>
<line x1="49.2572" y1="78.5713" x2="59.2572" y2="84.5713" stroke="#F5F5F5"/>
<path d="M369.675 287V276.091H376.216V277.263H370.996V280.949H375.726V282.121H370.996V287H369.675ZM381.138 287.17C380.35 287.17 379.67 286.996 379.098 286.648C378.53 286.297 378.091 285.807 377.782 285.178C377.477 284.546 377.324 283.811 377.324 282.973C377.324 282.135 377.477 281.396 377.782 280.757C378.091 280.114 378.521 279.614 379.071 279.255C379.625 278.893 380.272 278.712 381.01 278.712C381.436 278.712 381.857 278.783 382.273 278.925C382.688 279.067 383.066 279.298 383.407 279.617C383.748 279.933 384.02 280.352 384.222 280.874C384.425 281.396 384.526 282.039 384.526 282.803V283.335H378.219V282.249H383.247C383.247 281.787 383.155 281.375 382.97 281.013C382.789 280.651 382.53 280.365 382.193 280.155C381.859 279.946 381.465 279.841 381.01 279.841C380.51 279.841 380.076 279.965 379.711 280.214C379.348 280.459 379.07 280.778 378.874 281.173C378.679 281.567 378.581 281.989 378.581 282.44V283.165C378.581 283.783 378.688 284.306 378.901 284.736C379.117 285.162 379.418 285.487 379.801 285.711C380.185 285.931 380.63 286.041 381.138 286.041C381.468 286.041 381.767 285.995 382.033 285.903C382.303 285.807 382.535 285.665 382.731 285.477C382.926 285.285 383.077 285.047 383.184 284.763L384.398 285.104C384.27 285.516 384.055 285.878 383.754 286.19C383.452 286.499 383.079 286.741 382.635 286.915C382.191 287.085 381.692 287.17 381.138 287.17ZM389.869 287.17C389.08 287.17 388.4 286.996 387.828 286.648C387.26 286.297 386.822 285.807 386.513 285.178C386.207 284.546 386.055 283.811 386.055 282.973C386.055 282.135 386.207 281.396 386.513 280.757C386.822 280.114 387.251 279.614 387.802 279.255C388.356 278.893 389.002 278.712 389.741 278.712C390.167 278.712 390.588 278.783 391.003 278.925C391.419 279.067 391.797 279.298 392.138 279.617C392.479 279.933 392.75 280.352 392.953 280.874C393.155 281.396 393.256 282.039 393.256 282.803V283.335H386.95V282.249H391.978C391.978 281.787 391.886 281.375 391.701 281.013C391.52 280.651 391.261 280.365 390.923 280.155C390.589 279.946 390.195 279.841 389.741 279.841C389.24 279.841 388.807 279.965 388.441 280.214C388.079 280.459 387.8 280.778 387.605 281.173C387.409 281.567 387.312 281.989 387.312 282.44V283.165C387.312 283.783 387.418 284.306 387.631 284.736C387.848 285.162 388.148 285.487 388.532 285.711C388.915 285.931 389.361 286.041 389.869 286.041C390.199 286.041 390.497 285.995 390.763 285.903C391.033 285.807 391.266 285.665 391.461 285.477C391.657 285.285 391.807 285.047 391.914 284.763L393.129 285.104C393.001 285.516 392.786 285.878 392.484 286.19C392.182 286.499 391.809 286.741 391.365 286.915C390.921 287.085 390.423 287.17 389.869 287.17ZM398.258 287.17C397.576 287.17 396.974 286.998 396.452 286.654C395.93 286.306 395.522 285.816 395.227 285.184C394.932 284.548 394.785 283.797 394.785 282.93C394.785 282.071 394.932 281.325 395.227 280.693C395.522 280.061 395.932 279.573 396.458 279.228C396.983 278.884 397.591 278.712 398.279 278.712C398.812 278.712 399.233 278.8 399.542 278.978C399.854 279.152 400.092 279.351 400.256 279.575C400.423 279.795 400.552 279.976 400.644 280.118H400.751V276.091H402.008V287H400.794V285.743H400.644C400.552 285.892 400.421 286.08 400.25 286.308C400.08 286.531 399.837 286.732 399.521 286.909C399.205 287.083 398.784 287.17 398.258 287.17ZM398.429 286.041C398.933 286.041 399.359 285.91 399.707 285.647C400.055 285.381 400.32 285.013 400.501 284.544C400.682 284.072 400.772 283.527 400.772 282.909C400.772 282.298 400.684 281.764 400.506 281.306C400.328 280.844 400.066 280.485 399.718 280.23C399.37 279.971 398.94 279.841 398.429 279.841C397.896 279.841 397.452 279.978 397.097 280.251C396.745 280.521 396.481 280.888 396.303 281.354C396.129 281.815 396.042 282.334 396.042 282.909C396.042 283.491 396.131 284.021 396.309 284.496C396.49 284.969 396.756 285.345 397.108 285.626C397.463 285.903 397.903 286.041 398.429 286.041ZM407.915 287.17C407.127 287.17 406.447 286.996 405.875 286.648C405.307 286.297 404.869 285.807 404.56 285.178C404.254 284.546 404.102 283.811 404.102 282.973C404.102 282.135 404.254 281.396 404.56 280.757C404.869 280.114 405.298 279.614 405.849 279.255C406.403 278.893 407.049 278.712 407.788 278.712C408.214 278.712 408.635 278.783 409.05 278.925C409.466 279.067 409.844 279.298 410.185 279.617C410.526 279.933 410.797 280.352 411 280.874C411.202 281.396 411.303 282.039 411.303 282.803V283.335H404.996V282.249H410.025C410.025 281.787 409.932 281.375 409.748 281.013C409.567 280.651 409.307 280.365 408.97 280.155C408.636 279.946 408.242 279.841 407.788 279.841C407.287 279.841 406.854 279.965 406.488 280.214C406.126 280.459 405.847 280.778 405.652 281.173C405.456 281.567 405.359 281.989 405.359 282.44V283.165C405.359 283.783 405.465 284.306 405.678 284.736C405.895 285.162 406.195 285.487 406.578 285.711C406.962 285.931 407.408 286.041 407.915 286.041C408.246 286.041 408.544 285.995 408.81 285.903C409.08 285.807 409.313 285.665 409.508 285.477C409.703 285.285 409.854 285.047 409.961 284.763L411.175 285.104C411.048 285.516 410.833 285.878 410.531 286.19C410.229 286.499 409.856 286.741 409.412 286.915C408.968 287.085 408.469 287.17 407.915 287.17ZM413.216 287V278.818H414.43V280.054H414.515C414.664 279.649 414.934 279.321 415.325 279.069C415.716 278.816 416.156 278.69 416.646 278.69C416.738 278.69 416.854 278.692 416.992 278.696C417.131 278.699 417.235 278.705 417.306 278.712V279.99C417.264 279.979 417.166 279.963 417.013 279.942C416.864 279.917 416.706 279.905 416.539 279.905C416.142 279.905 415.787 279.988 415.474 280.155C415.165 280.319 414.92 280.546 414.739 280.837C414.561 281.125 414.473 281.453 414.473 281.822V287H413.216ZM367.881 294.091H369.457L373.165 303.146H373.293L377 294.091H378.577V305H377.341V296.712H377.234L373.825 305H372.632L369.223 296.712H369.116V305H367.881V294.091ZM384.485 305.17C383.697 305.17 383.017 304.996 382.445 304.648C381.877 304.297 381.438 303.807 381.129 303.178C380.824 302.546 380.671 301.811 380.671 300.973C380.671 300.135 380.824 299.396 381.129 298.757C381.438 298.114 381.868 297.614 382.419 297.255C382.972 296.893 383.619 296.712 384.357 296.712C384.784 296.712 385.204 296.783 385.62 296.925C386.035 297.067 386.414 297.298 386.754 297.617C387.095 297.933 387.367 298.352 387.569 298.874C387.772 299.396 387.873 300.039 387.873 300.803V301.335H381.566V300.249H386.595C386.595 299.787 386.502 299.375 386.318 299.013C386.137 298.651 385.877 298.365 385.54 298.155C385.206 297.946 384.812 297.841 384.357 297.841C383.857 297.841 383.423 297.965 383.058 298.214C382.695 298.459 382.417 298.778 382.221 299.173C382.026 299.567 381.928 299.989 381.928 300.44V301.165C381.928 301.783 382.035 302.306 382.248 302.736C382.465 303.162 382.765 303.487 383.148 303.711C383.532 303.931 383.977 304.041 384.485 304.041C384.816 304.041 385.114 303.995 385.38 303.903C385.65 303.807 385.883 303.665 386.078 303.477C386.273 303.285 386.424 303.047 386.531 302.763L387.745 303.104C387.617 303.516 387.403 303.878 387.101 304.19C386.799 304.499 386.426 304.741 385.982 304.915C385.538 305.085 385.039 305.17 384.485 305.17ZM393.344 296.818V297.884H389.104V296.818H393.344ZM390.339 294.858H391.596V302.656C391.596 303.011 391.648 303.278 391.751 303.455C391.857 303.629 391.992 303.746 392.156 303.807C392.323 303.864 392.498 303.892 392.683 303.892C392.822 303.892 392.935 303.885 393.024 303.871C393.113 303.853 393.184 303.839 393.237 303.828L393.493 304.957C393.407 304.989 393.289 305.021 393.136 305.053C392.983 305.089 392.79 305.107 392.555 305.107C392.2 305.107 391.852 305.03 391.511 304.877C391.174 304.725 390.893 304.492 390.67 304.18C390.449 303.867 390.339 303.473 390.339 302.997V294.858ZM395.235 305V296.818H396.449V298.054H396.534C396.683 297.649 396.953 297.321 397.344 297.069C397.735 296.816 398.175 296.69 398.665 296.69C398.757 296.69 398.873 296.692 399.011 296.696C399.15 296.699 399.254 296.705 399.325 296.712V297.99C399.283 297.979 399.185 297.963 399.032 297.942C398.883 297.917 398.725 297.905 398.558 297.905C398.161 297.905 397.806 297.988 397.493 298.155C397.184 298.319 396.939 298.546 396.758 298.837C396.58 299.125 396.492 299.453 396.492 299.822V305H395.235ZM400.816 305V296.818H402.073V305H400.816ZM401.455 295.455C401.21 295.455 400.998 295.371 400.821 295.204C400.647 295.037 400.56 294.837 400.56 294.602C400.56 294.368 400.647 294.167 400.821 294C400.998 293.833 401.21 293.75 401.455 293.75C401.7 293.75 401.909 293.833 402.083 294C402.261 294.167 402.35 294.368 402.35 294.602C402.35 294.837 402.261 295.037 402.083 295.204C401.909 295.371 401.7 295.455 401.455 295.455ZM407.699 305.17C406.932 305.17 406.271 304.989 405.718 304.627C405.164 304.265 404.737 303.766 404.439 303.13C404.141 302.495 403.992 301.768 403.992 300.952C403.992 300.121 404.144 299.387 404.45 298.752C404.759 298.113 405.188 297.614 405.739 297.255C406.293 296.893 406.939 296.712 407.678 296.712C408.253 296.712 408.771 296.818 409.233 297.031C409.695 297.244 410.073 297.543 410.368 297.926C410.662 298.31 410.845 298.757 410.916 299.268H409.659C409.563 298.896 409.35 298.565 409.02 298.278C408.693 297.987 408.253 297.841 407.699 297.841C407.209 297.841 406.779 297.969 406.41 298.224C406.044 298.477 405.758 298.833 405.552 299.295C405.35 299.753 405.249 300.291 405.249 300.909C405.249 301.541 405.348 302.092 405.547 302.56C405.749 303.029 406.034 303.393 406.399 303.652C406.769 303.912 407.202 304.041 407.699 304.041C408.026 304.041 408.322 303.984 408.589 303.871C408.855 303.757 409.08 303.594 409.265 303.381C409.45 303.168 409.581 302.912 409.659 302.614H410.916C410.845 303.097 410.67 303.532 410.389 303.919C410.112 304.302 409.744 304.608 409.286 304.835C408.832 305.059 408.303 305.17 407.699 305.17ZM418.55 298.651L417.42 298.97C417.349 298.782 417.244 298.599 417.106 298.422C416.971 298.24 416.786 298.091 416.552 297.974C416.318 297.857 416.018 297.798 415.652 297.798C415.151 297.798 414.734 297.914 414.4 298.145C414.07 298.372 413.905 298.661 413.905 299.013C413.905 299.325 414.018 299.572 414.246 299.753C414.473 299.934 414.828 300.085 415.311 300.206L416.525 300.504C417.257 300.682 417.802 300.953 418.161 301.319C418.519 301.681 418.699 302.148 418.699 302.72C418.699 303.189 418.564 303.608 418.294 303.977C418.028 304.347 417.655 304.638 417.175 304.851C416.696 305.064 416.138 305.17 415.503 305.17C414.668 305.17 413.977 304.989 413.431 304.627C412.884 304.265 412.537 303.736 412.392 303.04L413.585 302.741C413.699 303.182 413.914 303.512 414.23 303.732C414.549 303.952 414.966 304.062 415.481 304.062C416.067 304.062 416.532 303.938 416.877 303.69C417.225 303.437 417.399 303.136 417.399 302.784C417.399 302.5 417.3 302.262 417.101 302.07C416.902 301.875 416.596 301.729 416.184 301.634L414.821 301.314C414.072 301.136 413.521 300.861 413.17 300.488C412.822 300.112 412.648 299.641 412.648 299.077C412.648 298.615 412.777 298.207 413.036 297.852C413.299 297.496 413.656 297.218 414.107 297.015C414.562 296.813 415.077 296.712 415.652 296.712C416.461 296.712 417.097 296.889 417.559 297.244C418.024 297.599 418.354 298.068 418.55 298.651Z" fill="#2488B3"/>
<path d="M211.354 21.6467C212.072 20.8074 213.325 20.7208 214.151 21.4534L214.842 22.0655C215.669 22.7981 215.757 24.0723 215.039 24.9116L200.224 42.2273C199.506 43.0666 198.254 43.1531 197.427 42.4205L196.736 41.8084C195.909 41.0759 195.821 39.8016 196.54 38.9623L211.354 21.6467Z" fill="#D9D9D9"/>
<path d="M196.016 40.4388L195.034 43.3828C194.734 44.2826 195.738 45.0555 196.531 44.5353L199.047 42.8848C199.607 42.5178 199.655 41.7154 199.143 41.2841L197.609 39.9905C197.069 39.535 196.239 39.7684 196.016 40.4388Z" fill="#D9D9D9" stroke="#D9D9D9" stroke-width="0.1"/>
<rect x="197.033" y="20" width="28.3948" height="6" transform="rotate(42.2294 197.033 20)" fill="#D9D9D9"/>
<line x1="197.823" y1="24.8232" x2="199.823" y2="22.8232" stroke="black" stroke-width="0.5"/>
<line x1="201.823" y1="28.8232" x2="203.823" y2="26.8232" stroke="black" stroke-width="0.5"/>
<line x1="205.823" y1="32.8232" x2="207.823" y2="30.8232" stroke="black" stroke-width="0.5"/>
<line x1="209.823" y1="36.8232" x2="211.823" y2="34.8232" stroke="black" stroke-width="0.5"/>
<line x1="200.823" y1="25.8232" x2="201.823" y2="24.8232" stroke="black" stroke-width="0.5"/>
<line x1="204.823" y1="29.8232" x2="205.823" y2="28.8232" stroke="black" stroke-width="0.5"/>
<line x1="208.823" y1="33.8232" x2="209.823" y2="32.8232" stroke="black" stroke-width="0.5"/>
<line x1="212.823" y1="37.8232" x2="213.823" y2="36.8232" stroke="black" stroke-width="0.5"/>
<rect x="395" y="74" width="8" height="7" fill="#F5F5F5"/>
<path d="M399 71L402.464 74H395.536L399 71Z" fill="#D9D9D9"/>
</svg>
