<svg width="174" height="149" viewBox="0 0 174 149" fill="none" xmlns="http://www.w3.org/2000/svg">
<rect x="0.140869" width="173" height="148" fill="#D9D9D9"/>
<path d="M57.1409 0L0.140869 47.5V0H57.1409Z" fill="#EB4545"/>
<path d="M56.3854 0L0.140869 46.7638V99L115.141 0H56.3854Z" fill="#2BA773"/>
<path d="M114.804 0L0.140869 98.8339V148L173.141 0H114.804Z" fill="#237ED3"/>
<path d="M173.211 0.164817L5.96568e-06 147.917L70.641 147.984L173.16 54.5017L173.211 0.164817Z" fill="#2A98B0"/>
<path d="M173.141 54L70.1409 148H119.601L173.141 98.9785V54Z" fill="#237ED3"/>
<path d="M173.141 99L120.141 148H173.141V99Z" fill="#EB4545"/>
<g filter="url(#filter0_d_103_17)">
<path d="M34.7116 49.496C32.2242 48.5684 30.2323 47.4878 28.7357 46.2541C25.957 44.0174 24.552 41.6402 24.5207 39.1225C24.4652 34.6583 26.9629 31.3222 32.0139 29.114C34.7079 27.9448 37.335 27.3476 39.8951 27.3223C42.4552 27.297 45.6018 27.6468 49.3351 28.3718C53.0683 29.0967 55.6649 29.4519 57.1248 29.4375C58.5847 29.4231 60.0736 29.1862 61.5914 28.7269C63.1301 28.2462 64.2483 27.9812 64.946 27.932C64.4976 31.0046 63.2865 33.1643 61.313 34.411C59.7321 36.6061 58.4177 38.9572 57.3697 41.4644C56.3426 43.9503 55.3628 46.8377 54.4303 50.1267L53.8836 52.0999C56.7244 49.1307 59.5313 45.9819 62.3043 42.6536C65.0983 39.3251 67.3519 36.7742 69.065 35.0011C70.7781 33.2279 72.3366 31.7842 73.7405 30.6701C76.9677 28.1414 80.2105 26.8609 83.4688 26.8288C84.4209 26.8194 85.5973 26.977 86.9979 27.3018C88.4194 27.6051 89.598 27.9426 90.5337 28.3143C91.4906 28.6857 92.3226 29.2277 93.0297 29.9401C93.7366 30.6314 94.0953 31.4002 94.1059 32.2465C94.1164 33.0928 93.4004 34.2213 91.9579 35.6321C90.5363 37.0215 89.4343 37.7412 88.652 37.7913L88.3898 37.1273C87.3755 33.8364 85.7575 32.2019 83.5359 32.2238C80.6162 32.2527 78.0683 33.2617 75.8924 35.2511C73.9674 37.0052 72.3191 38.8835 70.9475 40.8861C68.2459 44.8485 65.8597 47.7921 63.7887 49.7169L70.5836 62.6631C70.9731 63.3575 71.5037 64.3362 72.1754 65.5992C72.8468 66.841 73.3448 67.746 73.6693 68.3141C73.9935 68.861 74.3923 69.4496 74.8656 70.0797C75.6624 71.1933 76.4717 71.6085 77.2934 71.3253C78.1151 71.0421 79.3314 70.152 80.9421 68.6549C82.574 67.1576 85.1137 64.6463 88.5613 61.1209L88.6056 64.6753C81.4477 72.7232 76.8849 76.7568 74.9172 76.7763C73.4785 76.7905 72.0193 76.0114 70.5397 74.439C69.0598 72.8455 67.4191 70.2378 65.6178 66.6161L59.1249 52.4291L53.005 55.473C51.4549 61.8362 50.0596 66.1984 48.8194 68.5593C47.2699 71.5793 45.6876 73.658 44.0724 74.7954C41.7857 76.3838 39.2142 77.1921 36.3579 77.2203C34.6018 77.2376 33.0114 76.9677 31.5867 76.4104C30.1832 75.853 29.0953 75.1549 28.3231 74.3161C26.7147 72.5968 25.9007 70.9544 25.8812 69.3888C25.8549 67.2731 27.4159 66.0304 30.5642 65.6608C31.346 65.5684 32.2553 65.5171 33.292 65.5069L33.3153 67.3793C33.354 70.4894 33.8755 72.4415 34.88 73.2357C35.3502 73.6119 36.019 73.7958 36.8865 73.7872C37.7539 73.7786 38.6077 73.5163 39.4477 73.0002C40.3086 72.4627 41.0397 71.7043 41.6412 70.725C42.2638 69.7455 42.8012 68.714 43.2532 67.6303C43.7262 66.5254 44.1442 65.2622 44.5074 63.8409C44.8704 62.3985 45.1612 61.1154 45.38 59.9918C45.62 58.868 45.8689 57.6171 46.1269 56.2392C46.3848 54.8612 46.5839 53.8542 46.7241 53.218L47.353 50.1965C48.5885 44.048 50.2611 39.8736 52.371 37.6733C53.3318 36.6693 54.4744 35.8116 55.7987 35.1003C54.9087 35.0032 52.9261 34.6737 49.8509 34.1116C46.7756 33.5494 44.5292 33.2754 43.1116 33.2894C41.7152 33.3031 40.3622 33.4011 39.0525 33.5833C37.7428 33.7655 36.3182 34.0653 34.7787 34.4825C33.2603 34.8995 31.988 35.5363 30.9618 36.3928C29.9565 37.228 29.4609 38.2062 29.4748 39.3275C29.503 41.5914 31.5587 43.5495 35.6421 45.202C35.6676 47.2542 35.3574 48.6856 34.7116 49.496Z" fill="white"/>
<path d="M96.1242 109.078L95.9435 112.412C95.9651 114.147 96.2468 115.53 96.7887 116.562C97.3517 117.593 98.3526 118.101 99.7913 118.087C100.616 118.079 101.406 117.796 102.161 117.239C102.916 116.66 103.519 115.85 103.972 114.808C105.498 111.577 106.983 106.791 108.427 100.45L111.962 80.9268C112.227 80.099 113.586 79.6729 116.04 79.6487L119.024 79.6193C118.768 81.1876 118.439 83.6242 118.035 86.9291C117.632 90.2129 117.273 92.8614 116.96 94.8747C116.667 96.8878 116.096 99.3903 115.244 102.382C114.414 105.374 113.37 108.209 112.112 110.888C112.749 112.743 113.964 114.287 115.757 115.517C117.549 116.727 119.387 117.322 121.27 117.304C123.174 117.285 125.029 116.738 126.836 115.662C128.663 114.565 130.285 113.078 131.7 111.202C133.137 109.326 134.282 106.987 135.136 104.185C135.99 101.384 136.4 98.6291 136.366 95.921C136.332 93.1917 136.081 90.8455 135.612 88.8822C135.165 86.9188 134.443 85.0744 133.449 83.3491C132.475 81.6236 131.271 80.1438 129.838 78.9095C126.758 76.2526 122.658 74.9494 117.538 74.9999C114.47 75.0302 111.42 75.6739 108.389 76.9311C105.379 78.1881 102.933 79.7675 101.052 81.6693C99.1926 83.5709 98.2739 85.4208 98.2963 87.2192C98.3271 89.6946 100.086 91.5816 103.572 92.8803C103.584 93.8535 103.502 94.8806 103.325 95.9615C103.148 97.0212 102.976 97.7106 102.811 98.0296C99.6461 97.0663 97.2588 95.6722 95.6491 93.8472C94.0391 92.001 93.2222 90.1258 93.1986 88.2217C93.1746 86.2964 93.5022 84.5686 94.1815 83.0384C94.8605 81.487 95.9529 79.9951 97.4586 78.5625C98.9852 77.1086 100.831 75.8313 102.997 74.7308C107.792 72.3136 114.008 71.0673 121.646 70.9919C124.693 70.9618 127.491 71.3786 130.041 72.2421C132.612 73.1055 134.764 74.2586 136.496 75.7015C138.228 77.1445 139.708 78.8121 140.938 80.7043C143.268 84.3208 144.459 88.1707 144.51 92.254C144.56 96.3162 144.004 100.088 142.841 103.57C141.699 107.03 140.118 110.029 138.097 112.567C136.097 115.105 133.657 117.139 130.777 118.67C127.918 120.179 124.86 120.95 121.601 120.982C116.777 121.03 112.881 119.058 109.911 115.067C108.29 117.453 106.532 119.057 104.638 119.88C102.744 120.703 100.58 121.126 98.1471 121.15C95.714 121.174 93.6941 120.401 92.0876 118.83C90.5019 117.237 89.6974 115.51 89.6743 113.648C89.6369 110.644 91.7869 109.12 96.1242 109.078Z" fill="white"/>
<path d="M109.456 50.4305L119.988 45.6782L110.533 39.0491L107.819 49.2823L109.456 50.4305ZM63.672 99.2293L53.141 103.982L62.5955 110.611L65.3096 100.378L63.672 99.2293ZM108.481 48.533L63.0098 99.9786L64.6473 101.127L110.119 49.6812L108.481 48.533Z" fill="white"/>
</g>
<defs>
<filter id="filter0_d_103_17" x="20.375" y="26.7245" width="128.489" height="102.572" filterUnits="userSpaceOnUse" color-interpolation-filters="sRGB">
<feFlood flood-opacity="0" result="BackgroundImageFix"/>
<feColorMatrix in="SourceAlpha" type="matrix" values="0 0 0 0 0 0 0 0 0 0 0 0 0 0 0 0 0 0 127 0" result="hardAlpha"/>
<feOffset dy="4"/>
<feGaussianBlur stdDeviation="2"/>
<feComposite in2="hardAlpha" operator="out"/>
<feColorMatrix type="matrix" values="0 0 0 0 0 0 0 0 0 0 0 0 0 0 0 0 0 0 0.25 0"/>
<feBlend mode="normal" in2="BackgroundImageFix" result="effect1_dropShadow_103_17"/>
<feBlend mode="normal" in="SourceGraphic" in2="effect1_dropShadow_103_17" result="shape"/>
</filter>
</defs>
</svg>
