<svg width="762" height="353" viewBox="0 0 762 353" fill="none" xmlns="http://www.w3.org/2000/svg">
<circle cx="277" cy="173" r="48.5" stroke="#2488B3" stroke-width="3"/>
<circle cx="217" cy="173" r="48.5" stroke="#2488B3" stroke-width="3"/>
<path d="M115.5 173C115.5 189.867 102.046 203.5 85.5 203.5C68.9536 203.5 55.5 189.867 55.5 173C55.5 156.133 68.9536 142.5 85.5 142.5C102.046 142.5 115.5 156.133 115.5 173Z" fill="#D9D9D9" stroke="#D9D9D9" stroke-width="3"/>
<path d="M87.7322 167.457C87.647 166.597 87.2813 165.93 86.6349 165.454C85.9886 164.978 85.1115 164.74 84.0036 164.74C83.2507 164.74 82.6151 164.847 82.0966 165.06C81.5781 165.266 81.1804 165.553 80.9034 165.923C80.6335 166.292 80.4986 166.711 80.4986 167.18C80.4844 167.57 80.5661 167.911 80.7436 168.202C80.9283 168.494 81.1804 168.746 81.5 168.959C81.8196 169.165 82.1889 169.346 82.608 169.502C83.027 169.651 83.4744 169.779 83.9503 169.886L85.9105 170.354C86.8622 170.567 87.7358 170.852 88.5312 171.207C89.3267 171.562 90.0156 171.999 90.598 172.517C91.1804 173.036 91.6314 173.646 91.951 174.349C92.2777 175.053 92.4446 175.859 92.4517 176.768C92.4446 178.103 92.1037 179.261 91.429 180.241C90.7614 181.214 89.7955 181.97 88.5312 182.51C87.2741 183.043 85.7578 183.309 83.9822 183.309C82.2209 183.309 80.6868 183.039 79.38 182.499C78.0803 181.96 77.0646 181.161 76.3331 180.102C75.6087 179.037 75.2287 177.719 75.1932 176.15H79.657C79.7067 176.881 79.9162 177.492 80.2855 177.982C80.6619 178.465 81.1626 178.831 81.7876 179.08C82.4197 179.321 83.1335 179.442 83.929 179.442C84.7102 179.442 85.3885 179.328 85.9638 179.101C86.5462 178.874 86.9972 178.558 87.3168 178.153C87.6364 177.748 87.7962 177.283 87.7962 176.757C87.7962 176.267 87.6506 175.855 87.3594 175.521C87.0753 175.187 86.6563 174.903 86.1023 174.669C85.5554 174.435 84.8842 174.222 84.0888 174.03L81.7131 173.433C79.8736 172.986 78.4212 172.286 77.3558 171.335C76.2905 170.383 75.7614 169.101 75.7685 167.489C75.7614 166.168 76.1129 165.013 76.8232 164.026C77.5405 163.039 78.5241 162.268 79.7741 161.714C81.0241 161.161 82.4446 160.884 84.0355 160.884C85.6548 160.884 87.0682 161.161 88.2756 161.714C89.4901 162.268 90.4347 163.039 91.1094 164.026C91.7841 165.013 92.1321 166.157 92.1534 167.457H87.7322Z" fill="#817B7B"/>
<line x1="167" y1="173.5" x2="117" y2="173.5" stroke="#2488B3" stroke-width="3"/>
<line x1="377" y1="173.5" x2="327" y2="173.5" stroke="#2488B3" stroke-width="3"/>
<line x1="478" y1="173.5" x2="377" y2="173.5" stroke="#2488B3" stroke-width="3"/>
<line x1="579" y1="174.5" x2="478" y2="174.5" stroke="#2488B3" stroke-width="3"/>
<line x1="680" y1="175.5" x2="579" y2="175.5" stroke="#2488B3" stroke-width="3"/>
<line x1="140.5" y1="190" x2="140.5" y2="157" stroke="#2488B3" stroke-width="3"/>
<line x1="375.5" y1="188" x2="375.5" y2="155" stroke="#2488B3" stroke-width="3"/>
<line x1="470.5" y1="121" x2="470.5" y2="88" stroke="#2488B3" stroke-width="3"/>
<line x1="476.5" y1="189" x2="476.5" y2="156" stroke="#2488B3" stroke-width="3"/>
<line x1="577.5" y1="190" x2="577.5" y2="157" stroke="#2488B3" stroke-width="3"/>
<line x1="678.5" y1="190" x2="678.5" y2="157" stroke="#2488B3" stroke-width="3"/>
<path d="M150.375 262H143.642V240.182H150.673C152.79 240.182 154.601 240.619 156.107 241.492C157.612 242.359 158.766 243.605 159.569 245.232C160.371 246.851 160.773 248.79 160.773 251.048C160.773 253.321 160.368 255.278 159.558 256.918C158.749 258.552 157.57 259.809 156.021 260.69C154.473 261.563 152.591 262 150.375 262ZM146.284 259.656H150.205C152.009 259.656 153.504 259.308 154.69 258.612C155.876 257.916 156.76 256.925 157.342 255.64C157.925 254.354 158.216 252.824 158.216 251.048C158.216 249.287 157.928 247.771 157.353 246.499C156.778 245.221 155.918 244.241 154.775 243.559C153.631 242.87 152.207 242.526 150.503 242.526H146.284V259.656ZM164.864 262V245.636H167.378V262H164.864ZM166.142 242.909C165.652 242.909 165.229 242.742 164.874 242.408C164.526 242.075 164.352 241.673 164.352 241.205C164.352 240.736 164.526 240.335 164.874 240.001C165.229 239.667 165.652 239.5 166.142 239.5C166.632 239.5 167.051 239.667 167.399 240.001C167.754 240.335 167.932 240.736 167.932 241.205C167.932 241.673 167.754 242.075 167.399 242.408C167.051 242.742 166.632 242.909 166.142 242.909ZM183.574 249.301L181.315 249.94C181.173 249.564 180.964 249.198 180.687 248.843C180.417 248.481 180.047 248.183 179.579 247.948C179.11 247.714 178.51 247.597 177.778 247.597C176.777 247.597 175.942 247.827 175.275 248.289C174.614 248.744 174.284 249.322 174.284 250.026C174.284 250.651 174.511 251.144 174.966 251.506C175.42 251.869 176.131 252.17 177.096 252.412L179.525 253.009C180.988 253.364 182.079 253.907 182.796 254.638C183.513 255.363 183.872 256.297 183.872 257.44C183.872 258.378 183.602 259.216 183.062 259.955C182.53 260.693 181.784 261.276 180.825 261.702C179.866 262.128 178.751 262.341 177.48 262.341C175.811 262.341 174.43 261.979 173.336 261.254C172.242 260.53 171.55 259.472 171.258 258.08L173.645 257.483C173.872 258.364 174.302 259.024 174.934 259.464C175.573 259.905 176.407 260.125 177.437 260.125C178.609 260.125 179.54 259.876 180.229 259.379C180.925 258.875 181.273 258.271 181.273 257.568C181.273 257 181.074 256.524 180.676 256.141C180.278 255.75 179.667 255.459 178.844 255.267L176.116 254.628C174.618 254.273 173.517 253.722 172.814 252.977C172.118 252.224 171.77 251.283 171.77 250.153C171.77 249.23 172.029 248.413 172.547 247.703C173.073 246.993 173.787 246.435 174.689 246.031C175.598 245.626 176.628 245.423 177.778 245.423C179.398 245.423 180.669 245.778 181.592 246.489C182.523 247.199 183.183 248.136 183.574 249.301ZM194.773 245.636V247.767H186.293V245.636H194.773ZM188.765 241.716H191.279V257.312C191.279 258.023 191.382 258.555 191.588 258.911C191.801 259.259 192.071 259.493 192.397 259.614C192.731 259.727 193.083 259.784 193.452 259.784C193.729 259.784 193.956 259.77 194.134 259.741C194.311 259.706 194.453 259.678 194.56 259.656L195.071 261.915C194.901 261.979 194.663 262.043 194.358 262.107C194.052 262.178 193.665 262.213 193.196 262.213C192.486 262.213 191.79 262.06 191.108 261.755C190.434 261.45 189.873 260.984 189.425 260.359C188.985 259.734 188.765 258.946 188.765 257.994V241.716ZM198.555 262V245.636H200.984V248.108H201.154C201.453 247.298 201.993 246.641 202.774 246.137C203.555 245.633 204.436 245.381 205.416 245.381C205.6 245.381 205.831 245.384 206.108 245.391C206.385 245.398 206.595 245.409 206.737 245.423V247.98C206.652 247.959 206.456 247.927 206.151 247.884C205.853 247.835 205.537 247.81 205.203 247.81C204.407 247.81 203.697 247.977 203.072 248.31C202.454 248.637 201.964 249.092 201.602 249.674C201.247 250.249 201.069 250.906 201.069 251.645V262H198.555ZM209.717 262V245.636H212.231V262H209.717ZM210.996 242.909C210.506 242.909 210.083 242.742 209.728 242.408C209.38 242.075 209.206 241.673 209.206 241.205C209.206 240.736 209.38 240.335 209.728 240.001C210.083 239.667 210.506 239.5 210.996 239.5C211.486 239.5 211.905 239.667 212.253 240.001C212.608 240.335 212.785 240.736 212.785 241.205C212.785 241.673 212.608 242.075 212.253 242.408C211.905 242.742 211.486 242.909 210.996 242.909ZM217.177 262V240.182H219.691V248.236H219.904C220.089 247.952 220.345 247.589 220.672 247.149C221.005 246.702 221.481 246.304 222.099 245.956C222.724 245.601 223.569 245.423 224.635 245.423C226.012 245.423 227.227 245.768 228.278 246.457C229.329 247.146 230.15 248.122 230.739 249.386C231.328 250.651 231.623 252.142 231.623 253.861C231.623 255.594 231.328 257.096 230.739 258.367C230.15 259.631 229.333 260.612 228.289 261.308C227.245 261.996 226.041 262.341 224.677 262.341C223.626 262.341 222.784 262.167 222.152 261.819C221.52 261.464 221.034 261.062 220.693 260.615C220.352 260.161 220.089 259.784 219.904 259.486H219.606V262H217.177ZM219.649 253.818C219.649 255.054 219.83 256.144 220.192 257.089C220.554 258.026 221.083 258.761 221.779 259.294C222.475 259.82 223.328 260.082 224.336 260.082C225.387 260.082 226.265 259.805 226.968 259.251C227.678 258.69 228.211 257.937 228.566 256.993C228.928 256.041 229.109 254.983 229.109 253.818C229.109 252.668 228.931 251.631 228.576 250.707C228.228 249.777 227.699 249.042 226.989 248.502C226.286 247.955 225.402 247.682 224.336 247.682C223.314 247.682 222.454 247.941 221.758 248.46C221.062 248.971 220.537 249.688 220.181 250.612C219.826 251.528 219.649 252.597 219.649 253.818ZM245.782 255.31V245.636H248.296V262H245.782V259.23H245.611C245.228 260.061 244.631 260.768 243.821 261.35C243.012 261.925 241.989 262.213 240.753 262.213C239.73 262.213 238.821 261.989 238.026 261.542C237.23 261.087 236.605 260.406 236.151 259.496C235.696 258.58 235.469 257.426 235.469 256.034V245.636H237.983V255.864C237.983 257.057 238.317 258.009 238.985 258.719C239.659 259.429 240.519 259.784 241.563 259.784C242.188 259.784 242.824 259.624 243.47 259.305C244.123 258.985 244.67 258.495 245.11 257.835C245.558 257.174 245.782 256.332 245.782 255.31ZM260.017 245.636V247.767H251.537V245.636H260.017ZM254.009 241.716H256.523V257.312C256.523 258.023 256.626 258.555 256.832 258.911C257.045 259.259 257.315 259.493 257.642 259.614C257.975 259.727 258.327 259.784 258.696 259.784C258.973 259.784 259.2 259.77 259.378 259.741C259.556 259.706 259.698 259.678 259.804 259.656L260.316 261.915C260.145 261.979 259.907 262.043 259.602 262.107C259.296 262.178 258.909 262.213 258.441 262.213C257.73 262.213 257.034 262.06 256.352 261.755C255.678 261.45 255.117 260.984 254.669 260.359C254.229 259.734 254.009 258.946 254.009 257.994V241.716ZM263.799 262V245.636H266.313V262H263.799ZM265.078 242.909C264.588 242.909 264.165 242.742 263.81 242.408C263.462 242.075 263.288 241.673 263.288 241.205C263.288 240.736 263.462 240.335 263.81 240.001C264.165 239.667 264.588 239.5 265.078 239.5C265.568 239.5 265.987 239.667 266.335 240.001C266.69 240.335 266.867 240.736 266.867 241.205C266.867 241.673 266.69 242.075 266.335 242.408C265.987 242.742 265.568 242.909 265.078 242.909ZM277.566 262.341C276.089 262.341 274.793 261.989 273.678 261.286C272.57 260.583 271.703 259.599 271.078 258.335C270.46 257.071 270.151 255.594 270.151 253.903C270.151 252.199 270.46 250.711 271.078 249.44C271.703 248.168 272.57 247.181 273.678 246.478C274.793 245.775 276.089 245.423 277.566 245.423C279.043 245.423 280.336 245.775 281.444 246.478C282.559 247.181 283.425 248.168 284.043 249.44C284.668 250.711 284.981 252.199 284.981 253.903C284.981 255.594 284.668 257.071 284.043 258.335C283.425 259.599 282.559 260.583 281.444 261.286C280.336 261.989 279.043 262.341 277.566 262.341ZM277.566 260.082C278.688 260.082 279.612 259.795 280.336 259.219C281.06 258.644 281.597 257.888 281.945 256.95C282.293 256.013 282.467 254.997 282.467 253.903C282.467 252.81 282.293 251.79 281.945 250.846C281.597 249.901 281.06 249.138 280.336 248.555C279.612 247.973 278.688 247.682 277.566 247.682C276.444 247.682 275.521 247.973 274.796 248.555C274.072 249.138 273.536 249.901 273.188 250.846C272.839 251.79 272.665 252.81 272.665 253.903C272.665 254.997 272.839 256.013 273.188 256.95C273.536 257.888 274.072 258.644 274.796 259.219C275.521 259.795 276.444 260.082 277.566 260.082ZM291.333 252.156V262H288.819V245.636H291.248V248.193H291.461C291.844 247.362 292.427 246.695 293.208 246.19C293.989 245.679 294.998 245.423 296.233 245.423C297.341 245.423 298.311 245.651 299.142 246.105C299.973 246.553 300.619 247.234 301.081 248.151C301.542 249.06 301.773 250.21 301.773 251.602V262H299.259V251.773C299.259 250.487 298.925 249.486 298.258 248.768C297.59 248.044 296.674 247.682 295.509 247.682C294.706 247.682 293.989 247.856 293.357 248.204C292.732 248.552 292.238 249.06 291.876 249.727C291.514 250.395 291.333 251.205 291.333 252.156ZM142.449 278.526V276.182H158.812V278.526H151.952V298H149.31V278.526H142.449ZM160.85 298V281.636H163.279V284.108H163.449C163.748 283.298 164.287 282.641 165.069 282.137C165.85 281.633 166.731 281.381 167.711 281.381C167.895 281.381 168.126 281.384 168.403 281.391C168.68 281.398 168.89 281.409 169.032 281.423V283.98C168.947 283.959 168.751 283.927 168.446 283.884C168.148 283.835 167.831 283.81 167.498 283.81C166.702 283.81 165.992 283.977 165.367 284.31C164.749 284.637 164.259 285.092 163.897 285.674C163.542 286.249 163.364 286.906 163.364 287.645V298H160.85ZM176.827 298.384C175.79 298.384 174.849 298.188 174.004 297.798C173.159 297.4 172.488 296.828 171.991 296.082C171.494 295.33 171.245 294.42 171.245 293.355C171.245 292.418 171.43 291.658 171.799 291.075C172.168 290.486 172.662 290.024 173.28 289.69C173.898 289.357 174.58 289.108 175.325 288.945C176.078 288.774 176.835 288.639 177.594 288.54C178.589 288.412 179.395 288.316 180.013 288.252C180.638 288.181 181.092 288.064 181.376 287.901C181.668 287.737 181.813 287.453 181.813 287.048V286.963C181.813 285.912 181.526 285.095 180.95 284.513C180.382 283.93 179.519 283.639 178.362 283.639C177.161 283.639 176.22 283.902 175.538 284.428C174.857 284.953 174.377 285.514 174.1 286.111L171.714 285.259C172.14 284.264 172.708 283.49 173.418 282.936C174.136 282.375 174.917 281.984 175.762 281.764C176.614 281.537 177.452 281.423 178.276 281.423C178.802 281.423 179.406 281.487 180.087 281.615C180.776 281.736 181.44 281.988 182.08 282.371C182.726 282.755 183.262 283.334 183.688 284.108C184.114 284.882 184.327 285.919 184.327 287.219V298H181.813V295.784H181.685C181.515 296.139 181.231 296.519 180.833 296.924C180.435 297.329 179.906 297.673 179.246 297.957C178.585 298.241 177.779 298.384 176.827 298.384ZM177.211 296.125C178.205 296.125 179.043 295.93 179.725 295.539C180.414 295.148 180.933 294.644 181.281 294.026C181.636 293.408 181.813 292.759 181.813 292.077V289.776C181.707 289.903 181.472 290.021 181.11 290.127C180.755 290.227 180.343 290.315 179.874 290.393C179.413 290.464 178.962 290.528 178.521 290.585C178.088 290.635 177.737 290.678 177.467 290.713C176.813 290.798 176.202 290.937 175.634 291.129C175.073 291.313 174.619 291.594 174.271 291.97C173.93 292.339 173.759 292.844 173.759 293.483C173.759 294.357 174.082 295.017 174.729 295.464C175.382 295.905 176.21 296.125 177.211 296.125ZM191.431 288.156V298H188.916V281.636H191.345V284.193H191.558C191.942 283.362 192.524 282.695 193.306 282.19C194.087 281.679 195.095 281.423 196.331 281.423C197.439 281.423 198.409 281.651 199.24 282.105C200.07 282.553 200.717 283.234 201.178 284.151C201.64 285.06 201.871 286.21 201.871 287.602V298H199.357V287.773C199.357 286.487 199.023 285.486 198.355 284.768C197.688 284.044 196.771 283.682 195.607 283.682C194.804 283.682 194.087 283.856 193.455 284.204C192.83 284.552 192.336 285.06 191.974 285.727C191.612 286.395 191.431 287.205 191.431 288.156ZM218.056 285.301L215.798 285.94C215.656 285.564 215.446 285.198 215.169 284.843C214.899 284.481 214.53 284.183 214.061 283.948C213.592 283.714 212.992 283.597 212.261 283.597C211.259 283.597 210.425 283.827 209.757 284.289C209.097 284.744 208.766 285.322 208.766 286.026C208.766 286.651 208.994 287.144 209.448 287.506C209.903 287.869 210.613 288.17 211.579 288.412L214.008 289.009C215.471 289.364 216.561 289.907 217.278 290.638C217.996 291.363 218.354 292.297 218.354 293.44C218.354 294.378 218.085 295.216 217.545 295.955C217.012 296.693 216.266 297.276 215.308 297.702C214.349 298.128 213.234 298.341 211.962 298.341C210.293 298.341 208.912 297.979 207.818 297.254C206.724 296.53 206.032 295.472 205.741 294.08L208.127 293.483C208.354 294.364 208.784 295.024 209.416 295.464C210.055 295.905 210.89 296.125 211.92 296.125C213.092 296.125 214.022 295.876 214.711 295.379C215.407 294.875 215.755 294.271 215.755 293.568C215.755 293 215.556 292.524 215.158 292.141C214.761 291.75 214.15 291.459 213.326 291.267L210.599 290.628C209.1 290.273 207.999 289.722 207.296 288.977C206.6 288.224 206.252 287.283 206.252 286.153C206.252 285.23 206.511 284.413 207.03 283.703C207.555 282.993 208.269 282.435 209.171 282.031C210.08 281.626 211.11 281.423 212.261 281.423C213.88 281.423 215.151 281.778 216.075 282.489C217.005 283.199 217.665 284.136 218.056 285.301ZM229.426 281.636V283.767H220.605V281.636H229.426ZM223.247 298V279.378C223.247 278.44 223.467 277.659 223.907 277.034C224.348 276.409 224.92 275.94 225.623 275.628C226.326 275.315 227.068 275.159 227.849 275.159C228.467 275.159 228.971 275.209 229.362 275.308C229.753 275.408 230.044 275.5 230.236 275.585L229.511 277.759C229.383 277.716 229.206 277.663 228.979 277.599C228.758 277.535 228.467 277.503 228.105 277.503C227.274 277.503 226.674 277.712 226.305 278.131C225.942 278.55 225.761 279.165 225.761 279.974V298H223.247ZM238.923 298.341C237.446 298.341 236.15 297.989 235.035 297.286C233.927 296.583 233.061 295.599 232.436 294.335C231.818 293.071 231.509 291.594 231.509 289.903C231.509 288.199 231.818 286.711 232.436 285.44C233.061 284.168 233.927 283.181 235.035 282.478C236.15 281.775 237.446 281.423 238.923 281.423C240.401 281.423 241.693 281.775 242.801 282.478C243.916 283.181 244.783 284.168 245.401 285.44C246.026 286.711 246.338 288.199 246.338 289.903C246.338 291.594 246.026 293.071 245.401 294.335C244.783 295.599 243.916 296.583 242.801 297.286C241.693 297.989 240.401 298.341 238.923 298.341ZM238.923 296.082C240.046 296.082 240.969 295.795 241.693 295.219C242.418 294.644 242.954 293.888 243.302 292.95C243.65 292.013 243.824 290.997 243.824 289.903C243.824 288.81 243.65 287.79 243.302 286.846C242.954 285.901 242.418 285.138 241.693 284.555C240.969 283.973 240.046 283.682 238.923 283.682C237.801 283.682 236.878 283.973 236.154 284.555C235.429 285.138 234.893 285.901 234.545 286.846C234.197 287.79 234.023 288.81 234.023 289.903C234.023 290.997 234.197 292.013 234.545 292.95C234.893 293.888 235.429 294.644 236.154 295.219C236.878 295.795 237.801 296.082 238.923 296.082ZM250.176 298V281.636H252.605V284.108H252.776C253.074 283.298 253.614 282.641 254.395 282.137C255.176 281.633 256.057 281.381 257.037 281.381C257.222 281.381 257.452 281.384 257.729 281.391C258.006 281.398 258.216 281.409 258.358 281.423V283.98C258.273 283.959 258.077 283.927 257.772 283.884C257.474 283.835 257.158 283.81 256.824 283.81C256.028 283.81 255.318 283.977 254.693 284.31C254.075 284.637 253.585 285.092 253.223 285.674C252.868 286.249 252.69 286.906 252.69 287.645V298H250.176ZM261.338 298V281.636H263.767V284.193H263.98C264.321 283.32 264.872 282.641 265.632 282.158C266.392 281.668 267.304 281.423 268.369 281.423C269.449 281.423 270.347 281.668 271.065 282.158C271.789 282.641 272.354 283.32 272.759 284.193H272.929C273.348 283.348 273.977 282.677 274.815 282.18C275.653 281.675 276.658 281.423 277.83 281.423C279.293 281.423 280.49 281.881 281.42 282.798C282.35 283.707 282.816 285.124 282.816 287.048V298H280.301V287.048C280.301 285.841 279.971 284.978 279.311 284.46C278.65 283.941 277.872 283.682 276.977 283.682C275.827 283.682 274.936 284.03 274.303 284.726C273.671 285.415 273.355 286.288 273.355 287.347V298H270.798V286.793C270.798 285.862 270.497 285.113 269.893 284.545C269.289 283.969 268.512 283.682 267.56 283.682C266.906 283.682 266.296 283.856 265.727 284.204C265.166 284.552 264.712 285.035 264.364 285.653C264.023 286.263 263.852 286.97 263.852 287.773V298H261.338ZM294.273 298.341C292.697 298.341 291.336 297.993 290.193 297.297C289.057 296.594 288.18 295.614 287.562 294.357C286.951 293.092 286.645 291.622 286.645 289.946C286.645 288.27 286.951 286.793 287.562 285.514C288.18 284.229 289.039 283.227 290.14 282.51C291.248 281.786 292.54 281.423 294.018 281.423C294.87 281.423 295.711 281.565 296.542 281.849C297.373 282.134 298.13 282.595 298.812 283.234C299.493 283.866 300.037 284.705 300.442 285.749C300.846 286.793 301.049 288.078 301.049 289.605V290.67H288.435V288.497H298.492C298.492 287.574 298.307 286.75 297.938 286.026C297.576 285.301 297.057 284.729 296.383 284.31C295.715 283.891 294.927 283.682 294.018 283.682C293.016 283.682 292.15 283.93 291.418 284.428C290.694 284.918 290.136 285.557 289.746 286.345C289.355 287.134 289.16 287.979 289.16 288.881V290.33C289.16 291.565 289.373 292.613 289.799 293.472C290.232 294.325 290.832 294.974 291.599 295.422C292.366 295.862 293.258 296.082 294.273 296.082C294.934 296.082 295.53 295.99 296.063 295.805C296.603 295.614 297.068 295.33 297.459 294.953C297.849 294.57 298.151 294.094 298.364 293.526L300.793 294.207C300.537 295.031 300.108 295.756 299.504 296.381C298.9 296.999 298.155 297.482 297.267 297.83C296.379 298.17 295.381 298.341 294.273 298.341ZM304.873 298V281.636H307.302V284.108H307.473C307.771 283.298 308.311 282.641 309.092 282.137C309.873 281.633 310.754 281.381 311.734 281.381C311.919 281.381 312.15 281.384 312.427 281.391C312.704 281.398 312.913 281.409 313.055 281.423V283.98C312.97 283.959 312.775 283.927 312.469 283.884C312.171 283.835 311.855 283.81 311.521 283.81C310.726 283.81 310.015 283.977 309.39 284.31C308.773 284.637 308.282 285.092 307.92 285.674C307.565 286.249 307.388 286.906 307.388 287.645V298H304.873Z" fill="#817B7B"/>
<path d="M559.199 14H556.557C556.401 13.2401 556.127 12.5724 555.737 11.9972C555.353 11.4219 554.884 10.9389 554.33 10.5483C553.783 10.1506 553.176 9.85227 552.509 9.65341C551.841 9.45455 551.145 9.35511 550.42 9.35511C549.099 9.35511 547.903 9.68892 546.83 10.3565C545.765 11.0241 544.916 12.0078 544.284 13.3075C543.659 14.6072 543.347 16.2017 543.347 18.0909C543.347 19.9801 543.659 21.5746 544.284 22.8743C544.916 24.174 545.765 25.1577 546.83 25.8253C547.903 26.4929 549.099 26.8267 550.42 26.8267C551.145 26.8267 551.841 26.7273 552.509 26.5284C553.176 26.3295 553.783 26.0348 554.33 25.6442C554.884 25.2464 555.353 24.7599 555.737 24.1847C556.127 23.6023 556.401 22.9347 556.557 22.1818H559.199C559 23.2969 558.638 24.2947 558.112 25.1754C557.587 26.0561 556.933 26.8054 556.152 27.4233C555.371 28.0341 554.494 28.4993 553.521 28.8189C552.555 29.1385 551.521 29.2983 550.42 29.2983C548.56 29.2983 546.905 28.8438 545.456 27.9347C544.007 27.0256 542.867 25.733 542.036 24.0568C541.205 22.3807 540.79 20.392 540.79 18.0909C540.79 15.7898 541.205 13.8011 542.036 12.125C542.867 10.4489 544.007 9.15625 545.456 8.24716C546.905 7.33807 548.56 6.88352 550.42 6.88352C551.521 6.88352 552.555 7.04332 553.521 7.36293C554.494 7.68253 555.371 8.15128 556.152 8.76918C556.933 9.37997 557.587 10.1257 558.112 11.0064C558.638 11.88 559 12.8778 559.199 14ZM573.44 22.3097V12.6364H575.954V29H573.44V26.2301H573.269C572.886 27.0611 572.289 27.7678 571.48 28.3501C570.67 28.9254 569.647 29.2131 568.411 29.2131C567.389 29.2131 566.48 28.9893 565.684 28.5419C564.889 28.0874 564.264 27.4055 563.809 26.4964C563.355 25.5803 563.127 24.4261 563.127 23.0341V12.6364H565.642V22.8636C565.642 24.0568 565.975 25.0085 566.643 25.7188C567.318 26.429 568.177 26.7841 569.221 26.7841C569.846 26.7841 570.482 26.6243 571.128 26.3047C571.781 25.9851 572.328 25.495 572.769 24.8345C573.216 24.174 573.44 23.3324 573.44 22.3097ZM592.15 16.3011L589.891 16.9403C589.749 16.5639 589.54 16.1982 589.263 15.843C588.993 15.4808 588.624 15.1825 588.155 14.9482C587.686 14.7138 587.086 14.5966 586.354 14.5966C585.353 14.5966 584.518 14.8274 583.851 15.2891C583.19 15.7436 582.86 16.3224 582.86 17.0256C582.86 17.6506 583.087 18.1442 583.542 18.5064C583.996 18.8686 584.707 19.1705 585.673 19.4119L588.102 20.0085C589.565 20.3636 590.655 20.907 591.372 21.6385C592.089 22.3629 592.448 23.2969 592.448 24.4403C592.448 25.3778 592.178 26.2159 591.638 26.9545C591.106 27.6932 590.36 28.2756 589.401 28.7017C588.442 29.1278 587.327 29.3409 586.056 29.3409C584.387 29.3409 583.006 28.9787 581.912 28.2543C580.818 27.5298 580.126 26.4716 579.835 25.0795L582.221 24.483C582.448 25.3636 582.878 26.0241 583.51 26.4645C584.149 26.9048 584.984 27.125 586.013 27.125C587.185 27.125 588.116 26.8764 588.805 26.3793C589.501 25.875 589.849 25.2713 589.849 24.5682C589.849 24 589.65 23.5241 589.252 23.1406C588.854 22.75 588.244 22.4588 587.42 22.267L584.692 21.6278C583.194 21.2727 582.093 20.7223 581.39 19.9766C580.694 19.2237 580.346 18.2827 580.346 17.1534C580.346 16.2301 580.605 15.4134 581.124 14.7031C581.649 13.9929 582.363 13.4354 583.265 13.0305C584.174 12.6257 585.204 12.4233 586.354 12.4233C587.974 12.4233 589.245 12.7784 590.168 13.4886C591.099 14.1989 591.759 15.1364 592.15 16.3011ZM603.349 12.6364V14.767H594.869V12.6364H603.349ZM597.341 8.71591H599.855V24.3125C599.855 25.0227 599.958 25.5554 600.164 25.9105C600.377 26.2585 600.647 26.4929 600.974 26.6136C601.307 26.7273 601.659 26.7841 602.028 26.7841C602.305 26.7841 602.532 26.7699 602.71 26.7415C602.888 26.706 603.03 26.6776 603.136 26.6562L603.648 28.9148C603.477 28.9787 603.239 29.0426 602.934 29.1065C602.628 29.1776 602.241 29.2131 601.773 29.2131C601.062 29.2131 600.366 29.0604 599.684 28.755C599.01 28.4496 598.449 27.9844 598.001 27.3594C597.561 26.7344 597.341 25.946 597.341 24.9943V8.71591ZM613.603 29.3409C612.126 29.3409 610.83 28.9893 609.715 28.2862C608.607 27.5831 607.74 26.5994 607.115 25.3352C606.497 24.071 606.188 22.5937 606.188 20.9034C606.188 19.1989 606.497 17.7109 607.115 16.4396C607.74 15.1683 608.607 14.1811 609.715 13.478C610.83 12.7749 612.126 12.4233 613.603 12.4233C615.08 12.4233 616.373 12.7749 617.481 13.478C618.596 14.1811 619.463 15.1683 620.08 16.4396C620.705 17.7109 621.018 19.1989 621.018 20.9034C621.018 22.5937 620.705 24.071 620.08 25.3352C619.463 26.5994 618.596 27.5831 617.481 28.2862C616.373 28.9893 615.08 29.3409 613.603 29.3409ZM613.603 27.0824C614.725 27.0824 615.649 26.7947 616.373 26.2195C617.097 25.6442 617.634 24.8878 617.982 23.9503C618.33 23.0128 618.504 21.9972 618.504 20.9034C618.504 19.8097 618.33 18.7905 617.982 17.8459C617.634 16.9013 617.097 16.1378 616.373 15.5554C615.649 14.973 614.725 14.6818 613.603 14.6818C612.481 14.6818 611.558 14.973 610.833 15.5554C610.109 16.1378 609.573 16.9013 609.225 17.8459C608.877 18.7905 608.703 19.8097 608.703 20.9034C608.703 21.9972 608.877 23.0128 609.225 23.9503C609.573 24.8878 610.109 25.6442 610.833 26.2195C611.558 26.7947 612.481 27.0824 613.603 27.0824ZM624.856 29V12.6364H627.285V15.1932H627.498C627.839 14.3196 628.389 13.6413 629.149 13.1584C629.909 12.6683 630.822 12.4233 631.887 12.4233C632.967 12.4233 633.865 12.6683 634.582 13.1584C635.307 13.6413 635.871 14.3196 636.276 15.1932H636.447C636.866 14.348 637.494 13.6768 638.332 13.1797C639.17 12.6754 640.175 12.4233 641.347 12.4233C642.81 12.4233 644.007 12.8814 644.938 13.7976C645.868 14.7067 646.333 16.1236 646.333 18.0483V29H643.819V18.0483C643.819 16.8409 643.489 15.978 642.828 15.4595C642.168 14.9411 641.39 14.6818 640.495 14.6818C639.344 14.6818 638.453 15.0298 637.821 15.7259C637.189 16.4148 636.873 17.2884 636.873 18.3466V29H634.316V17.7926C634.316 16.8622 634.014 16.1129 633.411 15.5447C632.807 14.9695 632.029 14.6818 631.077 14.6818C630.424 14.6818 629.813 14.8558 629.245 15.2038C628.684 15.5518 628.229 16.0348 627.881 16.6527C627.54 17.2635 627.37 17.9702 627.37 18.7727V29H624.856ZM657.791 29.3409C656.214 29.3409 654.854 28.9929 653.711 28.2969C652.574 27.5938 651.697 26.6136 651.079 25.3565C650.468 24.0923 650.163 22.6222 650.163 20.946C650.163 19.2699 650.468 17.7926 651.079 16.5142C651.697 15.2287 652.556 14.2273 653.657 13.5099C654.765 12.7855 656.058 12.4233 657.535 12.4233C658.387 12.4233 659.229 12.5653 660.06 12.8494C660.891 13.1335 661.647 13.5952 662.329 14.2344C663.011 14.8665 663.554 15.7045 663.959 16.7486C664.364 17.7926 664.566 19.0781 664.566 20.6051V21.6705H651.953V19.4972H662.01C662.01 18.5739 661.825 17.75 661.456 17.0256C661.093 16.3011 660.575 15.7294 659.9 15.3104C659.233 14.8913 658.444 14.6818 657.535 14.6818C656.534 14.6818 655.667 14.9304 654.936 15.4276C654.211 15.9176 653.654 16.5568 653.263 17.3452C652.873 18.1335 652.677 18.9787 652.677 19.8807V21.3295C652.677 22.5653 652.89 23.6129 653.316 24.4723C653.75 25.3246 654.35 25.9744 655.117 26.4219C655.884 26.8622 656.775 27.0824 657.791 27.0824C658.451 27.0824 659.048 26.9901 659.581 26.8054C660.12 26.6136 660.586 26.3295 660.976 25.9531C661.367 25.5696 661.669 25.0937 661.882 24.5256L664.311 25.2074C664.055 26.0312 663.625 26.7557 663.022 27.3807C662.418 27.9986 661.672 28.4815 660.784 28.8295C659.897 29.1705 658.899 29.3409 657.791 29.3409ZM668.391 29V12.6364H670.82V15.108H670.99C671.289 14.2983 671.828 13.6413 672.61 13.1371C673.391 12.6328 674.272 12.3807 675.252 12.3807C675.436 12.3807 675.667 12.3842 675.944 12.3913C676.221 12.3984 676.431 12.4091 676.573 12.4233V14.9801C676.488 14.9588 676.292 14.9268 675.987 14.8842C675.689 14.8345 675.373 14.8097 675.039 14.8097C674.243 14.8097 673.533 14.9766 672.908 15.3104C672.29 15.6371 671.8 16.0916 671.438 16.674C671.083 17.2493 670.905 17.9062 670.905 18.6449V29H668.391ZM690.505 7.18182V29H687.991V7.18182H690.505ZM701.757 29.3409C700.28 29.3409 698.984 28.9893 697.869 28.2862C696.761 27.5831 695.895 26.5994 695.27 25.3352C694.652 24.071 694.343 22.5937 694.343 20.9034C694.343 19.1989 694.652 17.7109 695.27 16.4396C695.895 15.1683 696.761 14.1811 697.869 13.478C698.984 12.7749 700.28 12.4233 701.757 12.4233C703.235 12.4233 704.527 12.7749 705.635 13.478C706.75 14.1811 707.617 15.1683 708.235 16.4396C708.86 17.7109 709.172 19.1989 709.172 20.9034C709.172 22.5937 708.86 24.071 708.235 25.3352C707.617 26.5994 706.75 27.5831 705.635 28.2862C704.527 28.9893 703.235 29.3409 701.757 29.3409ZM701.757 27.0824C702.88 27.0824 703.803 26.7947 704.527 26.2195C705.252 25.6442 705.788 24.8878 706.136 23.9503C706.484 23.0128 706.658 21.9972 706.658 20.9034C706.658 19.8097 706.484 18.7905 706.136 17.8459C705.788 16.9013 705.252 16.1378 704.527 15.5554C703.803 14.973 702.88 14.6818 701.757 14.6818C700.635 14.6818 699.712 14.973 698.988 15.5554C698.263 16.1378 697.727 16.9013 697.379 17.8459C697.031 18.7905 696.857 19.8097 696.857 20.9034C696.857 21.9972 697.031 23.0128 697.379 23.9503C697.727 24.8878 698.263 25.6442 698.988 26.2195C699.712 26.7947 700.635 27.0824 701.757 27.0824ZM717.825 29.3835C716.789 29.3835 715.847 29.1882 715.002 28.7976C714.157 28.3999 713.486 27.8281 712.989 27.0824C712.492 26.3295 712.243 25.4205 712.243 24.3551C712.243 23.4176 712.428 22.6577 712.797 22.0753C713.166 21.4858 713.66 21.0241 714.278 20.6903C714.896 20.3565 715.578 20.108 716.323 19.9446C717.076 19.7741 717.833 19.6392 718.593 19.5398C719.587 19.4119 720.393 19.3161 721.011 19.2521C721.636 19.1811 722.09 19.0639 722.374 18.9006C722.666 18.7372 722.811 18.4531 722.811 18.0483V17.9631C722.811 16.9119 722.524 16.0952 721.948 15.5128C721.38 14.9304 720.517 14.6392 719.36 14.6392C718.159 14.6392 717.218 14.902 716.536 15.4276C715.855 15.9531 715.375 16.5142 715.098 17.1108L712.712 16.2585C713.138 15.2642 713.706 14.4901 714.416 13.9361C715.134 13.375 715.915 12.9844 716.76 12.7642C717.612 12.5369 718.45 12.4233 719.274 12.4233C719.8 12.4233 720.404 12.4872 721.085 12.6151C721.774 12.7358 722.438 12.9879 723.078 13.3714C723.724 13.755 724.26 14.3338 724.686 15.108C725.112 15.8821 725.325 16.919 725.325 18.2188V29H722.811V26.7841H722.683C722.513 27.1392 722.229 27.5192 721.831 27.924C721.433 28.3288 720.904 28.6733 720.244 28.9574C719.583 29.2415 718.777 29.3835 717.825 29.3835ZM718.209 27.125C719.203 27.125 720.041 26.9297 720.723 26.5391C721.412 26.1484 721.931 25.6442 722.279 25.0263C722.634 24.4084 722.811 23.7585 722.811 23.0767V20.7756C722.705 20.9034 722.47 21.0206 722.108 21.1271C721.753 21.2266 721.341 21.3153 720.872 21.3935C720.411 21.4645 719.96 21.5284 719.519 21.5852C719.086 21.6349 718.735 21.6776 718.465 21.7131C717.811 21.7983 717.2 21.9368 716.632 22.1286C716.071 22.3132 715.617 22.5937 715.269 22.9702C714.928 23.3395 714.757 23.8437 714.757 24.483C714.757 25.3565 715.08 26.017 715.727 26.4645C716.38 26.9048 717.208 27.125 718.209 27.125ZM736.093 29.3409C734.73 29.3409 733.526 28.9964 732.482 28.3075C731.438 27.6115 730.621 26.6314 730.032 25.3672C729.442 24.0959 729.147 22.5938 729.147 20.8608C729.147 19.142 729.442 17.6506 730.032 16.3864C730.621 15.1222 731.441 14.1456 732.493 13.4567C733.544 12.7678 734.758 12.4233 736.136 12.4233C737.201 12.4233 738.043 12.6009 738.661 12.956C739.286 13.304 739.762 13.7017 740.088 14.1491C740.422 14.5895 740.681 14.9517 740.866 15.2358H741.079V7.18182H743.593V29H741.164V26.4858H740.866C740.681 26.7841 740.419 27.1605 740.078 27.6151C739.737 28.0625 739.25 28.4638 738.618 28.8189C737.986 29.1669 737.145 29.3409 736.093 29.3409ZM736.434 27.0824C737.443 27.0824 738.295 26.8196 738.991 26.294C739.687 25.7614 740.216 25.0263 740.578 24.0888C740.941 23.1442 741.122 22.054 741.122 20.8182C741.122 19.5966 740.944 18.5277 740.589 17.6115C740.234 16.6882 739.708 15.9709 739.012 15.4595C738.316 14.9411 737.457 14.6818 736.434 14.6818C735.369 14.6818 734.481 14.9553 733.771 15.5021C733.068 16.0419 732.539 16.777 732.184 17.7074C731.836 18.6307 731.662 19.6676 731.662 20.8182C731.662 21.983 731.839 23.0412 732.194 23.9929C732.556 24.9375 733.089 25.6903 733.792 26.2514C734.502 26.8054 735.383 27.0824 736.434 27.0824ZM760.138 16.3011L757.88 16.9403C757.738 16.5639 757.528 16.1982 757.251 15.843C756.981 15.4808 756.612 15.1825 756.143 14.9482C755.674 14.7138 755.074 14.5966 754.343 14.5966C753.341 14.5966 752.507 14.8274 751.839 15.2891C751.179 15.7436 750.848 16.3224 750.848 17.0256C750.848 17.6506 751.076 18.1442 751.53 18.5064C751.985 18.8686 752.695 19.1705 753.661 19.4119L756.09 20.0085C757.553 20.3636 758.643 20.907 759.36 21.6385C760.078 22.3629 760.436 23.2969 760.436 24.4403C760.436 25.3778 760.167 26.2159 759.627 26.9545C759.094 27.6932 758.348 28.2756 757.39 28.7017C756.431 29.1278 755.316 29.3409 754.044 29.3409C752.375 29.3409 750.994 28.9787 749.9 28.2543C748.806 27.5298 748.114 26.4716 747.823 25.0795L750.209 24.483C750.436 25.3636 750.866 26.0241 751.498 26.4645C752.137 26.9048 752.972 27.125 754.002 27.125C755.174 27.125 756.104 26.8764 756.793 26.3793C757.489 25.875 757.837 25.2713 757.837 24.5682C757.837 24 757.638 23.5241 757.24 23.1406C756.843 22.75 756.232 22.4588 755.408 22.267L752.681 21.6278C751.182 21.2727 750.081 20.7223 749.378 19.9766C748.682 19.2237 748.334 18.2827 748.334 17.1534C748.334 16.2301 748.593 15.4134 749.112 14.7031C749.637 13.9929 750.351 13.4354 751.253 13.0305C752.162 12.6257 753.192 12.4233 754.343 12.4233C755.962 12.4233 757.233 12.7784 758.157 13.4886C759.087 14.1989 759.748 15.1364 760.138 16.3011Z" fill="#817B7B"/>
<path d="M635.265 310V288.182H642.637C644.349 288.182 645.748 288.491 646.835 289.109C647.928 289.719 648.738 290.547 649.264 291.591C649.789 292.635 650.052 293.8 650.052 295.085C650.052 296.371 649.789 297.539 649.264 298.59C648.745 299.641 647.943 300.479 646.856 301.104C645.769 301.722 644.377 302.031 642.68 302.031H637.396V299.688H642.595C643.767 299.688 644.708 299.485 645.418 299.08C646.128 298.675 646.643 298.129 646.963 297.44C647.289 296.744 647.453 295.959 647.453 295.085C647.453 294.212 647.289 293.43 646.963 292.741C646.643 292.053 646.124 291.513 645.407 291.122C644.69 290.724 643.738 290.526 642.552 290.526H637.907V310H635.265ZM655.203 288.182L661.68 306.548H661.936L668.413 288.182H671.183L663.172 310H660.444L652.433 288.182H655.203ZM586.199 346.384C585.163 346.384 584.222 346.188 583.376 345.798C582.531 345.4 581.86 344.828 581.363 344.082C580.866 343.33 580.617 342.42 580.617 341.355C580.617 340.418 580.802 339.658 581.171 339.075C581.54 338.486 582.034 338.024 582.652 337.69C583.27 337.357 583.952 337.108 584.697 336.945C585.45 336.774 586.207 336.639 586.967 336.54C587.961 336.412 588.767 336.316 589.385 336.252C590.01 336.181 590.464 336.064 590.748 335.901C591.04 335.737 591.185 335.453 591.185 335.048V334.963C591.185 333.912 590.898 333.095 590.322 332.513C589.754 331.93 588.891 331.639 587.734 331.639C586.533 331.639 585.592 331.902 584.91 332.428C584.229 332.953 583.749 333.514 583.472 334.111L581.086 333.259C581.512 332.264 582.08 331.49 582.79 330.936C583.508 330.375 584.289 329.984 585.134 329.764C585.986 329.537 586.824 329.423 587.648 329.423C588.174 329.423 588.778 329.487 589.459 329.615C590.148 329.736 590.812 329.988 591.452 330.371C592.098 330.755 592.634 331.334 593.06 332.108C593.486 332.882 593.699 333.919 593.699 335.219V346H591.185V343.784H591.057C590.887 344.139 590.603 344.519 590.205 344.924C589.807 345.329 589.278 345.673 588.618 345.957C587.957 346.241 587.151 346.384 586.199 346.384ZM586.583 344.125C587.577 344.125 588.415 343.93 589.097 343.539C589.786 343.148 590.305 342.644 590.653 342.026C591.008 341.408 591.185 340.759 591.185 340.077V337.776C591.079 337.903 590.844 338.021 590.482 338.127C590.127 338.227 589.715 338.315 589.246 338.393C588.785 338.464 588.334 338.528 587.893 338.585C587.46 338.635 587.109 338.678 586.839 338.713C586.185 338.798 585.574 338.937 585.006 339.129C584.445 339.313 583.991 339.594 583.643 339.97C583.302 340.339 583.131 340.844 583.131 341.483C583.131 342.357 583.454 343.017 584.101 343.464C584.754 343.905 585.582 344.125 586.583 344.125ZM598.288 352.136V329.636H600.717V332.236H601.016C601.2 331.952 601.456 331.589 601.783 331.149C602.117 330.702 602.592 330.304 603.21 329.956C603.835 329.601 604.68 329.423 605.746 329.423C607.124 329.423 608.338 329.768 609.389 330.457C610.44 331.146 611.261 332.122 611.85 333.386C612.44 334.651 612.734 336.142 612.734 337.861C612.734 339.594 612.44 341.096 611.85 342.367C611.261 343.631 610.444 344.612 609.4 345.308C608.356 345.996 607.152 346.341 605.788 346.341C604.737 346.341 603.896 346.167 603.264 345.819C602.631 345.464 602.145 345.062 601.804 344.615C601.463 344.161 601.2 343.784 601.016 343.486H600.803V352.136H598.288ZM600.76 337.818C600.76 339.054 600.941 340.144 601.303 341.089C601.666 342.026 602.195 342.761 602.891 343.294C603.587 343.82 604.439 344.082 605.448 344.082C606.499 344.082 607.376 343.805 608.079 343.251C608.789 342.69 609.322 341.937 609.677 340.993C610.039 340.041 610.22 338.983 610.22 337.818C610.22 336.668 610.043 335.631 609.688 334.707C609.34 333.777 608.81 333.042 608.1 332.502C607.397 331.955 606.513 331.682 605.448 331.682C604.425 331.682 603.565 331.941 602.869 332.46C602.173 332.971 601.648 333.688 601.293 334.612C600.938 335.528 600.76 336.597 600.76 337.818ZM616.57 352.136V329.636H618.999V332.236H619.297C619.482 331.952 619.737 331.589 620.064 331.149C620.398 330.702 620.874 330.304 621.492 329.956C622.117 329.601 622.962 329.423 624.027 329.423C625.405 329.423 626.619 329.768 627.671 330.457C628.722 331.146 629.542 332.122 630.131 333.386C630.721 334.651 631.016 336.142 631.016 337.861C631.016 339.594 630.721 341.096 630.131 342.367C629.542 343.631 628.725 344.612 627.681 345.308C626.637 345.996 625.433 346.341 624.07 346.341C623.019 346.341 622.177 346.167 621.545 345.819C620.913 345.464 620.426 345.062 620.085 344.615C619.744 344.161 619.482 343.784 619.297 343.486H619.084V352.136H616.57ZM619.041 337.818C619.041 339.054 619.222 340.144 619.585 341.089C619.947 342.026 620.476 342.761 621.172 343.294C621.868 343.82 622.72 344.082 623.729 344.082C624.78 344.082 625.657 343.805 626.36 343.251C627.07 342.69 627.603 341.937 627.958 340.993C628.32 340.041 628.502 338.983 628.502 337.818C628.502 336.668 628.324 335.631 627.969 334.707C627.621 333.777 627.092 333.042 626.381 332.502C625.678 331.955 624.794 331.682 623.729 331.682C622.706 331.682 621.847 331.941 621.151 332.46C620.455 332.971 619.929 333.688 619.574 334.612C619.219 335.528 619.041 336.597 619.041 337.818ZM637.365 324.182V346H634.851V324.182H637.365ZM641.97 346V329.636H644.484V346H641.97ZM643.248 326.909C642.758 326.909 642.336 326.742 641.981 326.408C641.633 326.075 641.459 325.673 641.459 325.205C641.459 324.736 641.633 324.335 641.981 324.001C642.336 323.667 642.758 323.5 643.248 323.5C643.739 323.5 644.158 323.667 644.506 324.001C644.861 324.335 645.038 324.736 645.038 325.205C645.038 325.673 644.861 326.075 644.506 326.408C644.158 326.742 643.739 326.909 643.248 326.909ZM655.737 346.341C654.203 346.341 652.882 345.979 651.774 345.254C650.666 344.53 649.814 343.532 649.217 342.261C648.62 340.989 648.322 339.537 648.322 337.903C648.322 336.241 648.628 334.775 649.238 333.504C649.856 332.225 650.716 331.227 651.816 330.51C652.924 329.786 654.217 329.423 655.694 329.423C656.845 329.423 657.882 329.636 658.805 330.062C659.728 330.489 660.485 331.085 661.074 331.852C661.664 332.619 662.03 333.514 662.172 334.537H659.657C659.466 333.791 659.04 333.131 658.379 332.555C657.726 331.973 656.845 331.682 655.737 331.682C654.757 331.682 653.897 331.937 653.159 332.449C652.427 332.953 651.856 333.667 651.444 334.59C651.039 335.506 650.836 336.582 650.836 337.818C650.836 339.082 651.035 340.183 651.433 341.121C651.838 342.058 652.406 342.786 653.138 343.305C653.876 343.823 654.743 344.082 655.737 344.082C656.39 344.082 656.983 343.969 657.516 343.741C658.049 343.514 658.5 343.188 658.869 342.761C659.238 342.335 659.501 341.824 659.657 341.227H662.172C662.03 342.193 661.678 343.063 661.117 343.837C660.563 344.604 659.828 345.215 658.912 345.67C658.003 346.117 656.944 346.341 655.737 346.341ZM670.662 346.384C669.625 346.384 668.684 346.188 667.839 345.798C666.994 345.4 666.323 344.828 665.826 344.082C665.329 343.33 665.08 342.42 665.08 341.355C665.08 340.418 665.265 339.658 665.634 339.075C666.003 338.486 666.497 338.024 667.115 337.69C667.733 337.357 668.415 337.108 669.16 336.945C669.913 336.774 670.669 336.639 671.429 336.54C672.424 336.412 673.23 336.316 673.848 336.252C674.473 336.181 674.927 336.064 675.211 335.901C675.503 335.737 675.648 335.453 675.648 335.048V334.963C675.648 333.912 675.361 333.095 674.785 332.513C674.217 331.93 673.354 331.639 672.196 331.639C670.996 331.639 670.055 331.902 669.373 332.428C668.691 332.953 668.212 333.514 667.935 334.111L665.549 333.259C665.975 332.264 666.543 331.49 667.253 330.936C667.971 330.375 668.752 329.984 669.597 329.764C670.449 329.537 671.287 329.423 672.111 329.423C672.637 329.423 673.241 329.487 673.922 329.615C674.611 329.736 675.275 329.988 675.915 330.371C676.561 330.755 677.097 331.334 677.523 332.108C677.949 332.882 678.162 333.919 678.162 335.219V346H675.648V343.784H675.52C675.35 344.139 675.066 344.519 674.668 344.924C674.27 345.329 673.741 345.673 673.081 345.957C672.42 346.241 671.614 346.384 670.662 346.384ZM671.046 344.125C672.04 344.125 672.878 343.93 673.56 343.539C674.249 343.148 674.767 342.644 675.116 342.026C675.471 341.408 675.648 340.759 675.648 340.077V337.776C675.542 337.903 675.307 338.021 674.945 338.127C674.59 338.227 674.178 338.315 673.709 338.393C673.248 338.464 672.797 338.528 672.356 338.585C671.923 338.635 671.571 338.678 671.302 338.713C670.648 338.798 670.037 338.937 669.469 339.129C668.908 339.313 668.454 339.594 668.106 339.97C667.765 340.339 667.594 340.844 667.594 341.483C667.594 342.357 667.917 343.017 668.564 343.464C669.217 343.905 670.044 344.125 671.046 344.125ZM689.868 329.636V331.767H681.388V329.636H689.868ZM683.859 325.716H686.373V341.312C686.373 342.023 686.476 342.555 686.682 342.911C686.896 343.259 687.165 343.493 687.492 343.614C687.826 343.727 688.177 343.784 688.547 343.784C688.824 343.784 689.051 343.77 689.229 343.741C689.406 343.706 689.548 343.678 689.655 343.656L690.166 345.915C689.996 345.979 689.758 346.043 689.452 346.107C689.147 346.178 688.76 346.213 688.291 346.213C687.581 346.213 686.885 346.06 686.203 345.755C685.528 345.45 684.967 344.984 684.52 344.359C684.079 343.734 683.859 342.946 683.859 341.994V325.716ZM693.65 346V329.636H696.164V346H693.65ZM694.928 326.909C694.438 326.909 694.016 326.742 693.66 326.408C693.312 326.075 693.138 325.673 693.138 325.205C693.138 324.736 693.312 324.335 693.66 324.001C694.016 323.667 694.438 323.5 694.928 323.5C695.418 323.5 695.837 323.667 696.185 324.001C696.54 324.335 696.718 324.736 696.718 325.205C696.718 325.673 696.54 326.075 696.185 326.408C695.837 326.742 695.418 326.909 694.928 326.909ZM707.417 346.341C705.939 346.341 704.643 345.989 703.528 345.286C702.42 344.583 701.554 343.599 700.929 342.335C700.311 341.071 700.002 339.594 700.002 337.903C700.002 336.199 700.311 334.711 700.929 333.44C701.554 332.168 702.42 331.181 703.528 330.478C704.643 329.775 705.939 329.423 707.417 329.423C708.894 329.423 710.187 329.775 711.294 330.478C712.41 331.181 713.276 332.168 713.894 333.44C714.519 334.711 714.831 336.199 714.831 337.903C714.831 339.594 714.519 341.071 713.894 342.335C713.276 343.599 712.41 344.583 711.294 345.286C710.187 345.989 708.894 346.341 707.417 346.341ZM707.417 344.082C708.539 344.082 709.462 343.795 710.187 343.219C710.911 342.644 711.447 341.888 711.795 340.95C712.143 340.013 712.317 338.997 712.317 337.903C712.317 336.81 712.143 335.79 711.795 334.846C711.447 333.901 710.911 333.138 710.187 332.555C709.462 331.973 708.539 331.682 707.417 331.682C706.294 331.682 705.371 331.973 704.647 332.555C703.922 333.138 703.386 333.901 703.038 334.846C702.69 335.79 702.516 336.81 702.516 337.903C702.516 338.997 702.69 340.013 703.038 340.95C703.386 341.888 703.922 342.644 704.647 343.219C705.371 343.795 706.294 344.082 707.417 344.082ZM721.184 336.156V346H718.669V329.636H721.098V332.193H721.311C721.695 331.362 722.277 330.695 723.059 330.19C723.84 329.679 724.848 329.423 726.084 329.423C727.192 329.423 728.161 329.651 728.992 330.105C729.823 330.553 730.47 331.234 730.931 332.151C731.393 333.06 731.624 334.21 731.624 335.602V346H729.11V335.773C729.11 334.487 728.776 333.486 728.108 332.768C727.441 332.044 726.524 331.682 725.36 331.682C724.557 331.682 723.84 331.856 723.208 332.204C722.583 332.552 722.089 333.06 721.727 333.727C721.365 334.395 721.184 335.205 721.184 336.156Z" fill="#817B7B"/>
<path d="M14.5739 117.636C14.446 116.557 13.9276 115.719 13.0185 115.122C12.1094 114.526 10.9943 114.227 9.6733 114.227C8.70739 114.227 7.86222 114.384 7.13778 114.696C6.42045 115.009 5.85938 115.438 5.45455 115.985C5.05682 116.532 4.85795 117.153 4.85795 117.849C4.85795 118.432 4.99645 118.933 5.27344 119.352C5.55753 119.763 5.91974 120.108 6.36009 120.385C6.80043 120.655 7.26207 120.879 7.74503 121.056C8.22798 121.227 8.67188 121.365 9.0767 121.472L11.2926 122.068C11.8608 122.217 12.4929 122.423 13.1889 122.686C13.892 122.949 14.5632 123.308 15.2024 123.762C15.8487 124.21 16.3814 124.785 16.8004 125.488C17.2195 126.191 17.429 127.054 17.429 128.077C17.429 129.256 17.12 130.321 16.5021 131.273C15.8913 132.224 14.9964 132.981 13.8175 133.542C12.6456 134.103 11.2216 134.384 9.54545 134.384C7.98295 134.384 6.62997 134.131 5.48651 133.627C4.35014 133.123 3.45526 132.42 2.80185 131.518C2.15554 130.616 1.78977 129.568 1.70455 128.375H4.43182C4.50284 129.199 4.77983 129.881 5.26278 130.42C5.75284 130.953 6.37074 131.351 7.11648 131.614C7.86932 131.869 8.67898 131.997 9.54545 131.997C10.554 131.997 11.4595 131.834 12.2621 131.507C13.0646 131.173 13.7003 130.712 14.169 130.122C14.6378 129.526 14.8722 128.83 14.8722 128.034C14.8722 127.31 14.6697 126.72 14.2649 126.266C13.8601 125.811 13.3274 125.442 12.6669 125.158C12.0064 124.874 11.2926 124.625 10.5256 124.412L7.84091 123.645C6.13636 123.155 4.78693 122.455 3.79261 121.546C2.7983 120.637 2.30114 119.447 2.30114 117.977C2.30114 116.756 2.63139 115.69 3.2919 114.781C3.95952 113.865 4.8544 113.155 5.97656 112.651C7.10582 112.139 8.36648 111.884 9.75852 111.884C11.1648 111.884 12.4148 112.136 13.5085 112.64C14.6023 113.137 15.4688 113.819 16.108 114.685C16.7543 115.552 17.0952 116.536 17.1307 117.636H14.5739ZM25.1394 134L20.1536 117.636H22.7956L26.3326 130.165H26.503L29.9973 117.636H32.682L36.1337 130.122H36.3042L39.8411 117.636H42.4831L37.4973 134H35.0257L31.4462 121.429H31.1905L27.611 134H25.1394ZM45.807 134V117.636H48.3212V134H45.807ZM47.0854 114.909C46.5953 114.909 46.1728 114.742 45.8176 114.408C45.4696 114.075 45.2956 113.673 45.2956 113.205C45.2956 112.736 45.4696 112.335 45.8176 112.001C46.1728 111.667 46.5953 111.5 47.0854 111.5C47.5755 111.5 47.9945 111.667 48.3425 112.001C48.6976 112.335 48.8752 112.736 48.8752 113.205C48.8752 113.673 48.6976 114.075 48.3425 114.408C47.9945 114.742 47.5755 114.909 47.0854 114.909ZM55.4403 124.156V134H52.9261V117.636H55.3551V120.193H55.5682C55.9517 119.362 56.5341 118.695 57.3153 118.19C58.0966 117.679 59.1051 117.423 60.3409 117.423C61.4489 117.423 62.4183 117.651 63.2493 118.105C64.0803 118.553 64.7266 119.234 65.1882 120.151C65.6499 121.06 65.8807 122.21 65.8807 123.602V134H63.3665V123.773C63.3665 122.487 63.0327 121.486 62.3651 120.768C61.6974 120.044 60.7813 119.682 59.6165 119.682C58.8139 119.682 58.0966 119.856 57.4645 120.204C56.8395 120.552 56.3459 121.06 55.9837 121.727C55.6214 122.395 55.4403 123.205 55.4403 124.156ZM77.0801 140.477C75.8656 140.477 74.8216 140.321 73.948 140.009C73.0744 139.703 72.3464 139.298 71.764 138.794C71.1887 138.297 70.7306 137.764 70.3897 137.196L72.3926 135.79C72.6199 136.088 72.9075 136.429 73.2555 136.812C73.6035 137.203 74.0794 137.54 74.6831 137.825C75.2939 138.116 76.0929 138.261 77.0801 138.261C78.4011 138.261 79.4913 137.942 80.3507 137.303C81.2101 136.663 81.6397 135.662 81.6397 134.298V130.974H81.4267C81.242 131.273 80.9792 131.642 80.6383 132.082C80.3045 132.516 79.8216 132.903 79.1895 133.244C78.5645 133.577 77.7193 133.744 76.6539 133.744C75.3329 133.744 74.1468 133.432 73.0957 132.807C72.0517 132.182 71.2243 131.273 70.6135 130.08C70.0098 128.886 69.7079 127.437 69.7079 125.733C69.7079 124.057 70.0027 122.597 70.5922 121.354C71.1816 120.104 72.002 119.138 73.0531 118.457C74.1042 117.768 75.3187 117.423 76.6966 117.423C77.7619 117.423 78.6071 117.601 79.2321 117.956C79.8642 118.304 80.3471 118.702 80.6809 119.149C81.0218 119.589 81.2846 119.952 81.4693 120.236H81.725V117.636H84.1539V134.469C84.1539 135.875 83.8343 137.018 83.1951 137.899C82.563 138.787 81.7108 139.437 80.6383 139.849C79.573 140.268 78.3869 140.477 77.0801 140.477ZM76.9949 131.486C78.0034 131.486 78.8556 131.255 79.5517 130.793C80.2477 130.332 80.7768 129.668 81.139 128.801C81.5012 127.935 81.6824 126.898 81.6824 125.69C81.6824 124.511 81.5048 123.471 81.1497 122.569C80.7946 121.667 80.269 120.96 79.573 120.449C78.877 119.937 78.0176 119.682 76.9949 119.682C75.9295 119.682 75.0417 119.952 74.3315 120.491C73.6284 121.031 73.0993 121.756 72.7441 122.665C72.3961 123.574 72.2221 124.582 72.2221 125.69C72.2221 126.827 72.3997 127.832 72.7548 128.705C73.117 129.572 73.6497 130.254 74.3528 130.751C75.063 131.241 75.9437 131.486 76.9949 131.486ZM97.5346 134V112.182H100.049V120.236H100.262C100.447 119.952 100.702 119.589 101.029 119.149C101.363 118.702 101.839 118.304 102.456 117.956C103.081 117.601 103.927 117.423 104.992 117.423C106.37 117.423 107.584 117.768 108.635 118.457C109.687 119.146 110.507 120.122 111.096 121.386C111.686 122.651 111.981 124.142 111.981 125.861C111.981 127.594 111.686 129.096 111.096 130.367C110.507 131.631 109.69 132.612 108.646 133.308C107.602 133.996 106.398 134.341 105.035 134.341C103.983 134.341 103.142 134.167 102.51 133.819C101.878 133.464 101.391 133.062 101.05 132.615C100.709 132.161 100.447 131.784 100.262 131.486H99.9636V134H97.5346ZM100.006 125.818C100.006 127.054 100.187 128.144 100.55 129.089C100.912 130.026 101.441 130.761 102.137 131.294C102.833 131.82 103.685 132.082 104.694 132.082C105.745 132.082 106.622 131.805 107.325 131.251C108.035 130.69 108.568 129.937 108.923 128.993C109.285 128.041 109.466 126.983 109.466 125.818C109.466 124.668 109.289 123.631 108.934 122.707C108.586 121.777 108.057 121.042 107.346 120.502C106.643 119.955 105.759 119.682 104.694 119.682C103.671 119.682 102.812 119.941 102.116 120.46C101.42 120.971 100.894 121.688 100.539 122.612C100.184 123.528 100.006 124.597 100.006 125.818ZM126.139 127.31V117.636H128.653V134H126.139V131.23H125.969C125.585 132.061 124.988 132.768 124.179 133.35C123.369 133.925 122.346 134.213 121.111 134.213C120.088 134.213 119.179 133.989 118.383 133.542C117.588 133.087 116.963 132.406 116.508 131.496C116.054 130.58 115.827 129.426 115.827 128.034V117.636H118.341V127.864C118.341 129.057 118.675 130.009 119.342 130.719C120.017 131.429 120.876 131.784 121.92 131.784C122.545 131.784 123.181 131.624 123.827 131.305C124.481 130.985 125.028 130.495 125.468 129.835C125.915 129.174 126.139 128.332 126.139 127.31ZM144.849 121.301L142.591 121.94C142.449 121.564 142.239 121.198 141.962 120.843C141.692 120.481 141.323 120.183 140.854 119.948C140.385 119.714 139.785 119.597 139.054 119.597C138.052 119.597 137.218 119.827 136.55 120.289C135.89 120.744 135.559 121.322 135.559 122.026C135.559 122.651 135.787 123.144 136.241 123.506C136.696 123.869 137.406 124.17 138.372 124.412L140.801 125.009C142.264 125.364 143.354 125.907 144.071 126.638C144.789 127.363 145.147 128.297 145.147 129.44C145.147 130.378 144.877 131.216 144.338 131.955C143.805 132.693 143.059 133.276 142.1 133.702C141.142 134.128 140.027 134.341 138.755 134.341C137.086 134.341 135.705 133.979 134.611 133.254C133.517 132.53 132.825 131.472 132.534 130.08L134.92 129.483C135.147 130.364 135.577 131.024 136.209 131.464C136.848 131.905 137.683 132.125 138.713 132.125C139.885 132.125 140.815 131.876 141.504 131.379C142.2 130.875 142.548 130.271 142.548 129.568C142.548 129 142.349 128.524 141.951 128.141C141.554 127.75 140.943 127.459 140.119 127.267L137.392 126.628C135.893 126.273 134.792 125.722 134.089 124.977C133.393 124.224 133.045 123.283 133.045 122.153C133.045 121.23 133.304 120.413 133.823 119.703C134.348 118.993 135.062 118.435 135.964 118.031C136.873 117.626 137.903 117.423 139.054 117.423C140.673 117.423 141.944 117.778 142.868 118.489C143.798 119.199 144.458 120.136 144.849 121.301Z" fill="#817B7B"/>
<path d="M375.5 164H396V104.5H471.5" stroke="#2488B3" stroke-width="3"/>
<path d="M477.5 184H517.5V226.5" stroke="#2488B3" stroke-width="3"/>
<path d="M471.5 98.5H524V55.5" stroke="#2488B3" stroke-width="3"/>
<path d="M517.599 215.096L532.754 242.096H502.443L517.599 215.096Z" fill="#2488B3"/>
<path d="M701.5 233L686.345 206H716.655L701.5 233Z" fill="#2488B3"/>
<path d="M523.5 29L538.655 56H508.345L523.5 29Z" fill="#2488B3"/>
<path d="M678.5 175.5H702V206.5" stroke="#2488B3" stroke-width="3"/>
<rect width="46.1233" height="33.9019" transform="matrix(0.94752 0.319697 -0.451221 0.892412 513.297 305)" fill="#398DEF"/>
<line y1="-0.5" x2="31.9981" y2="-0.5" transform="matrix(0.951743 0.306896 -0.435085 0.900389 506.816 331.187)" stroke="#F5F5F5"/>
<line y1="-0.5" x2="31.9981" y2="-0.5" transform="matrix(0.951743 0.306896 -0.435085 0.900389 510.021 324.64)" stroke="#F5F5F5"/>
<line y1="-0.5" x2="31.9981" y2="-0.5" transform="matrix(0.951743 0.306896 -0.435085 0.900389 512.426 318.093)" stroke="#F5F5F5"/>
<line y1="-0.5" x2="31.9981" y2="-0.5" transform="matrix(0.951743 0.306896 -0.435085 0.900389 516.433 312.201)" stroke="#F5F5F5"/>
<line y1="-0.5" x2="27.2227" y2="-0.5" transform="matrix(-0.500469 0.865754 -0.932989 -0.359904 522.043 310.892)" stroke="#F5F5F5"/>
<line y1="-0.5" x2="27.2227" y2="-0.5" transform="matrix(-0.500469 0.865754 -0.932989 -0.359904 530.057 314.165)" stroke="#F5F5F5"/>
<line y1="-0.5" x2="27.2227" y2="-0.5" transform="matrix(-0.500469 0.865754 -0.932989 -0.359904 538.872 316.129)" stroke="#F5F5F5"/>
<line y1="-0.5" x2="27.2227" y2="-0.5" transform="matrix(-0.500469 0.865754 -0.932989 -0.359904 546.085 319.403)" stroke="#F5F5F5"/>
<path d="M481.375 280H474.642V258.182H481.673C483.79 258.182 485.601 258.619 487.107 259.492C488.612 260.359 489.766 261.605 490.569 263.232C491.371 264.851 491.773 266.79 491.773 269.048C491.773 271.321 491.368 273.278 490.558 274.918C489.749 276.552 488.57 277.809 487.021 278.69C485.473 279.563 483.591 280 481.375 280ZM477.284 277.656H481.205C483.009 277.656 484.504 277.308 485.69 276.612C486.876 275.916 487.76 274.925 488.342 273.64C488.925 272.354 489.216 270.824 489.216 269.048C489.216 267.287 488.928 265.771 488.353 264.499C487.778 263.221 486.918 262.241 485.775 261.559C484.631 260.87 483.207 260.526 481.503 260.526H477.284V277.656ZM513.761 265H511.119C510.963 264.24 510.69 263.572 510.299 262.997C509.915 262.422 509.447 261.939 508.893 261.548C508.346 261.151 507.739 260.852 507.071 260.653C506.403 260.455 505.707 260.355 504.983 260.355C503.662 260.355 502.465 260.689 501.393 261.357C500.327 262.024 499.479 263.008 498.847 264.308C498.222 265.607 497.909 267.202 497.909 269.091C497.909 270.98 498.222 272.575 498.847 273.874C499.479 275.174 500.327 276.158 501.393 276.825C502.465 277.493 503.662 277.827 504.983 277.827C505.707 277.827 506.403 277.727 507.071 277.528C507.739 277.33 508.346 277.035 508.893 276.644C509.447 276.246 509.915 275.76 510.299 275.185C510.69 274.602 510.963 273.935 511.119 273.182H513.761C513.563 274.297 513.2 275.295 512.675 276.175C512.149 277.056 511.496 277.805 510.714 278.423C509.933 279.034 509.056 279.499 508.083 279.819C507.117 280.138 506.084 280.298 504.983 280.298C503.122 280.298 501.467 279.844 500.018 278.935C498.57 278.026 497.43 276.733 496.599 275.057C495.768 273.381 495.352 271.392 495.352 269.091C495.352 266.79 495.768 264.801 496.599 263.125C497.43 261.449 498.57 260.156 500.018 259.247C501.467 258.338 503.122 257.884 504.983 257.884C506.084 257.884 507.117 258.043 508.083 258.363C509.056 258.683 509.933 259.151 510.714 259.769C511.496 260.38 512.149 261.126 512.675 262.006C513.2 262.88 513.563 263.878 513.761 265ZM525.403 257.159L518.372 283.281H516.07L523.102 257.159H525.403ZM529.619 280H526.849L534.86 258.182H537.588L545.599 280H542.829L536.309 261.634H536.139L529.619 280ZM530.642 271.477H541.806V273.821H530.642V271.477ZM565.529 265H562.887C562.731 264.24 562.457 263.572 562.067 262.997C561.683 262.422 561.214 261.939 560.66 261.548C560.113 261.151 559.506 260.852 558.839 260.653C558.171 260.455 557.475 260.355 556.751 260.355C555.43 260.355 554.233 260.689 553.16 261.357C552.095 262.024 551.246 263.008 550.614 264.308C549.989 265.607 549.677 267.202 549.677 269.091C549.677 270.98 549.989 272.575 550.614 273.874C551.246 275.174 552.095 276.158 553.16 276.825C554.233 277.493 555.43 277.827 556.751 277.827C557.475 277.827 558.171 277.727 558.839 277.528C559.506 277.33 560.113 277.035 560.66 276.644C561.214 276.246 561.683 275.76 562.067 275.185C562.457 274.602 562.731 273.935 562.887 273.182H565.529C565.33 274.297 564.968 275.295 564.442 276.175C563.917 277.056 563.263 277.805 562.482 278.423C561.701 279.034 560.824 279.499 559.851 279.819C558.885 280.138 557.851 280.298 556.751 280.298C554.89 280.298 553.235 279.844 551.786 278.935C550.337 278.026 549.197 276.733 548.366 275.057C547.535 273.381 547.12 271.392 547.12 269.091C547.12 266.79 547.535 264.801 548.366 263.125C549.197 261.449 550.337 260.156 551.786 259.247C553.235 258.338 554.89 257.884 556.751 257.884C557.851 257.884 558.885 258.043 559.851 258.363C560.824 258.683 561.701 259.151 562.482 259.769C563.263 260.38 563.917 261.126 564.442 262.006C564.968 262.88 565.33 263.878 565.529 265Z" fill="#817B7B"/>
<rect x="468.5" y="251.5" width="103" height="35" stroke="#2488B3"/>
<path d="M542.061 292.939C541.475 292.354 540.525 292.354 539.939 292.939L530.393 302.485C529.808 303.071 529.808 304.021 530.393 304.607C530.979 305.192 531.929 305.192 532.515 304.607L541 296.121L549.485 304.607C550.071 305.192 551.021 305.192 551.607 304.607C552.192 304.021 552.192 303.071 551.607 302.485L542.061 292.939ZM542.5 310V294H539.5V310H542.5Z" fill="#2488B3"/>
</svg>
