<svg width="438" height="319" viewBox="0 0 438 319" fill="none" xmlns="http://www.w3.org/2000/svg">
<rect x="139" y="141" width="170" height="141" rx="9" stroke="#2488B3" stroke-width="2"/>
<path d="M149.321 161V150.091H153.007C153.863 150.091 154.563 150.245 155.106 150.554C155.653 150.86 156.058 151.273 156.32 151.795C156.583 152.317 156.714 152.9 156.714 153.543C156.714 154.185 156.583 154.77 156.32 155.295C156.061 155.821 155.66 156.24 155.116 156.552C154.573 156.861 153.877 157.016 153.028 157.016H150.386V155.844H152.986C153.572 155.844 154.042 155.743 154.397 155.54C154.752 155.338 155.01 155.064 155.17 154.72C155.333 154.372 155.415 153.979 155.415 153.543C155.415 153.106 155.333 152.715 155.17 152.371C155.01 152.026 154.751 151.756 154.392 151.561C154.033 151.362 153.558 151.263 152.964 151.263H150.642V161H149.321ZM159.482 164.068C159.269 164.068 159.079 164.05 158.912 164.015C158.745 163.983 158.629 163.951 158.566 163.919L158.885 162.811C159.191 162.889 159.46 162.918 159.695 162.896C159.929 162.875 160.137 162.77 160.318 162.582C160.503 162.397 160.671 162.097 160.824 161.682L161.058 161.043L158.033 152.818H159.396L161.655 159.338H161.74L163.999 152.818H165.362L161.889 162.193C161.733 162.616 161.54 162.966 161.309 163.243C161.078 163.523 160.81 163.731 160.504 163.866C160.203 164.001 159.862 164.068 159.482 164.068ZM170.58 152.818V153.884H166.34V152.818H170.58ZM167.576 150.858H168.833V158.656C168.833 159.011 168.884 159.278 168.987 159.455C169.094 159.629 169.229 159.746 169.392 159.807C169.559 159.864 169.735 159.892 169.919 159.892C170.058 159.892 170.172 159.885 170.26 159.871C170.349 159.853 170.42 159.839 170.473 159.828L170.729 160.957C170.644 160.989 170.525 161.021 170.372 161.053C170.219 161.089 170.026 161.107 169.792 161.107C169.436 161.107 169.088 161.03 168.748 160.877C168.41 160.725 168.13 160.492 167.906 160.18C167.686 159.867 167.576 159.473 167.576 158.997V150.858ZM173.904 156.078V161H172.647V150.091H173.904V154.097H174.01C174.202 153.674 174.49 153.338 174.873 153.09C175.26 152.838 175.775 152.712 176.418 152.712C176.975 152.712 177.464 152.824 177.883 153.047C178.302 153.267 178.627 153.607 178.858 154.065C179.092 154.519 179.209 155.098 179.209 155.801V161H177.952V155.886C177.952 155.237 177.783 154.734 177.446 154.379C177.112 154.02 176.649 153.841 176.056 153.841C175.644 153.841 175.275 153.928 174.948 154.102C174.625 154.276 174.369 154.53 174.181 154.864C173.996 155.197 173.904 155.602 173.904 156.078ZM184.833 161.17C184.094 161.17 183.446 160.995 182.889 160.643C182.335 160.292 181.901 159.8 181.589 159.168C181.28 158.536 181.125 157.797 181.125 156.952C181.125 156.099 181.28 155.355 181.589 154.72C181.901 154.084 182.335 153.591 182.889 153.239C183.446 152.887 184.094 152.712 184.833 152.712C185.571 152.712 186.218 152.887 186.772 153.239C187.329 153.591 187.763 154.084 188.071 154.72C188.384 155.355 188.54 156.099 188.54 156.952C188.54 157.797 188.384 158.536 188.071 159.168C187.763 159.8 187.329 160.292 186.772 160.643C186.218 160.995 185.571 161.17 184.833 161.17ZM184.833 160.041C185.394 160.041 185.856 159.897 186.218 159.61C186.58 159.322 186.848 158.944 187.022 158.475C187.196 158.006 187.283 157.499 187.283 156.952C187.283 156.405 187.196 155.895 187.022 155.423C186.848 154.951 186.58 154.569 186.218 154.278C185.856 153.987 185.394 153.841 184.833 153.841C184.272 153.841 183.81 153.987 183.448 154.278C183.086 154.569 182.818 154.951 182.644 155.423C182.47 155.895 182.383 156.405 182.383 156.952C182.383 157.499 182.47 158.006 182.644 158.475C182.818 158.944 183.086 159.322 183.448 159.61C183.81 159.897 184.272 160.041 184.833 160.041ZM191.716 156.078V161H190.459V152.818H191.674V154.097H191.78C191.972 153.681 192.263 153.347 192.654 153.095C193.044 152.839 193.549 152.712 194.167 152.712C194.721 152.712 195.205 152.825 195.621 153.053C196.036 153.276 196.359 153.617 196.59 154.075C196.821 154.53 196.936 155.105 196.936 155.801V161H195.679V155.886C195.679 155.244 195.512 154.743 195.179 154.384C194.845 154.022 194.387 153.841 193.804 153.841C193.403 153.841 193.044 153.928 192.728 154.102C192.416 154.276 192.169 154.53 191.988 154.864C191.807 155.197 191.716 155.602 191.716 156.078ZM203.623 161V150.091H207.309C208.165 150.091 208.864 150.245 209.408 150.554C209.954 150.86 210.359 151.273 210.622 151.795C210.885 152.317 211.016 152.9 211.016 153.543C211.016 154.185 210.885 154.77 210.622 155.295C210.363 155.821 209.962 156.24 209.418 156.552C208.875 156.861 208.179 157.016 207.33 157.016H204.688V155.844H207.288C207.873 155.844 208.344 155.743 208.699 155.54C209.054 155.338 209.312 155.064 209.472 154.72C209.635 154.372 209.717 153.979 209.717 153.543C209.717 153.106 209.635 152.715 209.472 152.371C209.312 152.026 209.052 151.756 208.694 151.561C208.335 151.362 207.859 151.263 207.266 151.263H204.944V161H203.623ZM215.381 161.192C214.863 161.192 214.392 161.094 213.97 160.899C213.547 160.7 213.212 160.414 212.963 160.041C212.715 159.665 212.59 159.21 212.59 158.678C212.59 158.209 212.683 157.829 212.867 157.538C213.052 157.243 213.299 157.012 213.608 156.845C213.917 156.678 214.258 156.554 214.63 156.472C215.007 156.387 215.385 156.32 215.765 156.27C216.262 156.206 216.665 156.158 216.974 156.126C217.287 156.091 217.514 156.032 217.656 155.95C217.802 155.869 217.874 155.727 217.874 155.524V155.482C217.874 154.956 217.731 154.548 217.443 154.256C217.159 153.965 216.727 153.82 216.149 153.82C215.548 153.82 215.078 153.951 214.737 154.214C214.396 154.477 214.156 154.757 214.018 155.055L212.825 154.629C213.038 154.132 213.322 153.745 213.677 153.468C214.036 153.187 214.426 152.992 214.849 152.882C215.275 152.768 215.694 152.712 216.106 152.712C216.369 152.712 216.671 152.744 217.011 152.808C217.356 152.868 217.688 152.994 218.008 153.186C218.331 153.377 218.599 153.667 218.812 154.054C219.025 154.441 219.131 154.96 219.131 155.609V161H217.874V159.892H217.81C217.725 160.07 217.583 160.26 217.384 160.462C217.185 160.664 216.921 160.837 216.591 160.979C216.26 161.121 215.857 161.192 215.381 161.192ZM215.573 160.062C216.07 160.062 216.489 159.965 216.83 159.77C217.175 159.574 217.434 159.322 217.608 159.013C217.786 158.704 217.874 158.379 217.874 158.038V156.888C217.821 156.952 217.704 157.01 217.523 157.064C217.345 157.113 217.139 157.158 216.905 157.197C216.674 157.232 216.449 157.264 216.228 157.293C216.012 157.317 215.836 157.339 215.701 157.357C215.374 157.399 215.069 157.468 214.785 157.564C214.504 157.657 214.277 157.797 214.103 157.985C213.933 158.17 213.847 158.422 213.847 158.741C213.847 159.178 214.009 159.509 214.332 159.732C214.659 159.952 215.073 160.062 215.573 160.062ZM224.75 161.17C223.983 161.17 223.322 160.989 222.768 160.627C222.214 160.265 221.788 159.766 221.49 159.13C221.192 158.495 221.042 157.768 221.042 156.952C221.042 156.121 221.195 155.387 221.501 154.752C221.809 154.113 222.239 153.614 222.79 153.255C223.344 152.893 223.99 152.712 224.729 152.712C225.304 152.712 225.822 152.818 226.284 153.031C226.746 153.244 227.124 153.543 227.419 153.926C227.713 154.31 227.896 154.757 227.967 155.268H226.71C226.614 154.896 226.401 154.565 226.071 154.278C225.744 153.987 225.304 153.841 224.75 153.841C224.26 153.841 223.83 153.969 223.461 154.224C223.095 154.477 222.809 154.833 222.603 155.295C222.401 155.753 222.3 156.291 222.3 156.909C222.3 157.541 222.399 158.092 222.598 158.56C222.8 159.029 223.084 159.393 223.45 159.652C223.819 159.912 224.253 160.041 224.75 160.041C225.077 160.041 225.373 159.984 225.639 159.871C225.906 159.757 226.131 159.594 226.316 159.381C226.501 159.168 226.632 158.912 226.71 158.614H227.967C227.896 159.097 227.72 159.532 227.44 159.919C227.163 160.302 226.795 160.608 226.337 160.835C225.883 161.059 225.354 161.17 224.75 161.17ZM230.977 158.017L230.955 156.462H231.211L234.791 152.818H236.346L232.532 156.675H232.426L230.977 158.017ZM229.805 161V150.091H231.062V161H229.805ZM235.004 161L231.808 156.952L232.703 156.078L236.602 161H235.004ZM240.372 161.192C239.853 161.192 239.383 161.094 238.96 160.899C238.538 160.7 238.202 160.414 237.953 160.041C237.705 159.665 237.581 159.21 237.581 158.678C237.581 158.209 237.673 157.829 237.858 157.538C238.042 157.243 238.289 157.012 238.598 156.845C238.907 156.678 239.248 156.554 239.621 156.472C239.997 156.387 240.375 156.32 240.755 156.27C241.252 156.206 241.655 156.158 241.964 156.126C242.277 156.091 242.504 156.032 242.646 155.95C242.792 155.869 242.865 155.727 242.865 155.524V155.482C242.865 154.956 242.721 154.548 242.433 154.256C242.149 153.965 241.718 153.82 241.139 153.82C240.539 153.82 240.068 153.951 239.727 154.214C239.386 154.477 239.147 154.757 239.008 155.055L237.815 154.629C238.028 154.132 238.312 153.745 238.667 153.468C239.026 153.187 239.416 152.992 239.839 152.882C240.265 152.768 240.684 152.712 241.096 152.712C241.359 152.712 241.661 152.744 242.002 152.808C242.346 152.868 242.678 152.994 242.998 153.186C243.321 153.377 243.589 153.667 243.802 154.054C244.015 154.441 244.122 154.96 244.122 155.609V161H242.865V159.892H242.801C242.715 160.07 242.573 160.26 242.375 160.462C242.176 160.664 241.911 160.837 241.581 160.979C241.251 161.121 240.848 161.192 240.372 161.192ZM240.563 160.062C241.061 160.062 241.48 159.965 241.821 159.77C242.165 159.574 242.424 159.322 242.598 159.013C242.776 158.704 242.865 158.379 242.865 158.038V156.888C242.811 156.952 242.694 157.01 242.513 157.064C242.335 157.113 242.13 157.158 241.895 157.197C241.664 157.232 241.439 157.264 241.219 157.293C241.002 157.317 240.826 157.339 240.691 157.357C240.365 157.399 240.059 157.468 239.775 157.564C239.495 157.657 239.267 157.797 239.093 157.985C238.923 158.17 238.838 158.422 238.838 158.741C238.838 159.178 238.999 159.509 239.322 159.732C239.649 159.952 240.063 160.062 240.563 160.062ZM249.719 164.239C249.112 164.239 248.589 164.161 248.153 164.004C247.716 163.852 247.352 163.649 247.061 163.397C246.773 163.148 246.544 162.882 246.374 162.598L247.375 161.895C247.489 162.044 247.632 162.214 247.806 162.406C247.98 162.602 248.218 162.77 248.52 162.912C248.826 163.058 249.225 163.131 249.719 163.131C250.379 163.131 250.924 162.971 251.354 162.651C251.784 162.332 251.999 161.831 251.999 161.149V159.487H251.892C251.8 159.636 251.668 159.821 251.498 160.041C251.331 160.258 251.089 160.451 250.773 160.622C250.461 160.789 250.038 160.872 249.506 160.872C248.845 160.872 248.252 160.716 247.727 160.403C247.205 160.091 246.791 159.636 246.485 159.04C246.184 158.443 246.033 157.719 246.033 156.866C246.033 156.028 246.18 155.299 246.475 154.677C246.77 154.052 247.18 153.569 247.705 153.228C248.231 152.884 248.838 152.712 249.527 152.712C250.06 152.712 250.482 152.8 250.795 152.978C251.111 153.152 251.352 153.351 251.519 153.575C251.69 153.795 251.821 153.976 251.913 154.118H252.041V152.818H253.256V161.234C253.256 161.938 253.096 162.509 252.776 162.95C252.46 163.393 252.034 163.718 251.498 163.924C250.965 164.134 250.372 164.239 249.719 164.239ZM249.676 159.743C250.18 159.743 250.607 159.627 250.955 159.397C251.303 159.166 251.567 158.834 251.748 158.401C251.929 157.967 252.02 157.449 252.02 156.845C252.02 156.256 251.931 155.735 251.754 155.284C251.576 154.833 251.313 154.48 250.965 154.224C250.617 153.969 250.188 153.841 249.676 153.841C249.143 153.841 248.7 153.976 248.344 154.246C247.993 154.516 247.728 154.878 247.551 155.332C247.377 155.787 247.29 156.291 247.29 156.845C247.29 157.413 247.379 157.916 247.556 158.353C247.737 158.786 248.004 159.127 248.355 159.375C248.71 159.62 249.151 159.743 249.676 159.743ZM258.987 161.17C258.199 161.17 257.519 160.996 256.947 160.648C256.379 160.297 255.94 159.807 255.631 159.178C255.326 158.546 255.173 157.811 255.173 156.973C255.173 156.135 255.326 155.396 255.631 154.757C255.94 154.114 256.37 153.614 256.92 153.255C257.474 152.893 258.121 152.712 258.859 152.712C259.286 152.712 259.706 152.783 260.122 152.925C260.537 153.067 260.915 153.298 261.256 153.617C261.597 153.933 261.869 154.352 262.071 154.874C262.274 155.396 262.375 156.039 262.375 156.803V157.335H256.068V156.249H261.097C261.097 155.787 261.004 155.375 260.82 155.013C260.638 154.651 260.379 154.365 260.042 154.155C259.708 153.946 259.314 153.841 258.859 153.841C258.359 153.841 257.925 153.965 257.56 154.214C257.197 154.459 256.919 154.778 256.723 155.173C256.528 155.567 256.43 155.989 256.43 156.44V157.165C256.43 157.783 256.537 158.306 256.75 158.736C256.967 159.162 257.267 159.487 257.65 159.711C258.034 159.931 258.479 160.041 258.987 160.041C259.317 160.041 259.616 159.995 259.882 159.903C260.152 159.807 260.385 159.665 260.58 159.477C260.775 159.285 260.926 159.047 261.033 158.763L262.247 159.104C262.119 159.516 261.904 159.878 261.603 160.19C261.301 160.499 260.928 160.741 260.484 160.915C260.04 161.085 259.541 161.17 258.987 161.17Z" fill="#2488B3"/>
<path d="M45.4107 45.4298L19.4107 64.3927C19.1526 64.581 19 64.8812 19 65.2007V88.7993C19 89.1188 19.1526 89.419 19.4107 89.6073L45.4107 108.57C45.7618 108.826 46.2382 108.826 46.5893 108.57L72.5893 89.6073C72.8474 89.419 73 89.1188 73 88.7993V65.2007C73 64.8812 72.8474 64.581 72.5893 64.3927L46.5893 45.4298C46.2382 45.1737 45.7618 45.1737 45.4107 45.4298Z" fill="#2488B3" stroke="#2488B3"/>
<path d="M0.747381 123.263V122.091H8.9292V123.263H5.4988V133H4.17778V123.263H0.747381ZM12.0919 133.192C11.5735 133.192 11.1029 133.094 10.6804 132.899C10.2578 132.7 9.92219 132.414 9.67361 132.041C9.42503 131.665 9.30074 131.21 9.30074 130.678C9.30074 130.209 9.39307 129.829 9.57773 129.538C9.76238 129.243 10.0092 129.012 10.3181 128.845C10.6271 128.678 10.968 128.554 11.3409 128.472C11.7173 128.387 12.0955 128.32 12.4755 128.27C12.9726 128.206 13.3757 128.158 13.6846 128.126C13.9971 128.091 14.2244 128.032 14.3664 127.95C14.512 127.869 14.5848 127.727 14.5848 127.524V127.482C14.5848 126.956 14.441 126.548 14.1534 126.256C13.8693 125.965 13.4378 125.82 12.859 125.82C12.2588 125.82 11.7883 125.951 11.4474 126.214C11.1065 126.477 10.8668 126.757 10.7283 127.055L9.53511 126.629C9.74818 126.132 10.0323 125.745 10.3874 125.468C10.746 125.187 11.1367 124.992 11.5593 124.882C11.9854 124.768 12.4044 124.712 12.8164 124.712C13.0791 124.712 13.381 124.744 13.7219 124.808C14.0664 124.868 14.3984 124.994 14.718 125.186C15.0411 125.377 15.3093 125.667 15.5223 126.054C15.7354 126.441 15.8419 126.96 15.8419 127.609V133H14.5848V131.892H14.5209C14.4357 132.07 14.2936 132.26 14.0948 132.462C13.8959 132.664 13.6313 132.837 13.3011 132.979C12.9708 133.121 12.5678 133.192 12.0919 133.192ZM12.2837 132.062C12.7809 132.062 13.1999 131.965 13.5408 131.77C13.8853 131.574 14.1445 131.322 14.3185 131.013C14.496 130.704 14.5848 130.379 14.5848 130.038V128.888C14.5316 128.952 14.4144 129.01 14.2333 129.064C14.0557 129.113 13.8497 129.158 13.6154 129.197C13.3845 129.232 13.159 129.264 12.9389 129.293C12.7223 129.317 12.5465 129.339 12.4115 129.357C12.0848 129.399 11.7794 129.468 11.4953 129.564C11.2148 129.657 10.9875 129.797 10.8135 129.985C10.6431 130.17 10.5578 130.422 10.5578 130.741C10.5578 131.178 10.7194 131.509 11.0426 131.732C11.3693 131.952 11.783 132.062 12.2837 132.062ZM18.1364 133V124.818H19.3509V126.054H19.4361C19.5853 125.649 19.8552 125.321 20.2458 125.069C20.6364 124.816 21.0767 124.69 21.5668 124.69C21.6591 124.69 21.7745 124.692 21.913 124.696C22.0515 124.699 22.1563 124.705 22.2273 124.712V125.99C22.1847 125.979 22.087 125.963 21.9343 125.942C21.7852 125.917 21.6272 125.905 21.4603 125.905C21.0625 125.905 20.7074 125.988 20.3949 126.155C20.086 126.319 19.841 126.546 19.6598 126.837C19.4823 127.125 19.3935 127.453 19.3935 127.822V133H18.1364ZM23.7175 133V124.818H24.9746V133H23.7175ZM24.3567 123.455C24.1116 123.455 23.9003 123.371 23.7228 123.204C23.5488 123.037 23.4618 122.837 23.4618 122.602C23.4618 122.368 23.5488 122.167 23.7228 122C23.9003 121.833 24.1116 121.75 24.3567 121.75C24.6017 121.75 24.8112 121.833 24.9852 122C25.1628 122.167 25.2516 122.368 25.2516 122.602C25.2516 122.837 25.1628 123.037 24.9852 123.204C24.8112 123.371 24.6017 123.455 24.3567 123.455ZM30.9205 124.818V125.884H26.51V124.818H30.9205ZM27.831 133V123.689C27.831 123.22 27.9411 122.83 28.1613 122.517C28.3814 122.205 28.6673 121.97 29.0189 121.814C29.3704 121.658 29.7415 121.58 30.1321 121.58C30.4411 121.58 30.6932 121.604 30.8885 121.654C31.0839 121.704 31.2294 121.75 31.3253 121.793L30.9631 122.879C30.8992 122.858 30.8104 122.831 30.6968 122.799C30.5867 122.767 30.4411 122.751 30.26 122.751C29.8445 122.751 29.5444 122.856 29.3598 123.066C29.1787 123.275 29.0881 123.582 29.0881 123.987V133H27.831ZM36.3258 124.818V125.884H31.9153V124.818H36.3258ZM33.2363 133V123.689C33.2363 123.22 33.3464 122.83 33.5665 122.517C33.7867 122.205 34.0726 121.97 34.4241 121.814C34.7757 121.658 35.1468 121.58 35.5374 121.58C35.8464 121.58 36.0985 121.604 36.2938 121.654C36.4891 121.704 36.6347 121.75 36.7306 121.793L36.3684 122.879C36.3045 122.858 36.2157 122.831 36.1021 122.799C35.992 122.767 35.8464 122.751 35.6653 122.751C35.2498 122.751 34.9497 122.856 34.765 123.066C34.5839 123.275 34.4934 123.582 34.4934 123.987V133H33.2363ZM44.714 133.192C44.1955 133.192 43.725 133.094 43.3024 132.899C42.8798 132.7 42.5443 132.414 42.2957 132.041C42.0471 131.665 41.9228 131.21 41.9228 130.678C41.9228 130.209 42.0151 129.829 42.1998 129.538C42.3845 129.243 42.6313 129.012 42.9402 128.845C43.2492 128.678 43.5901 128.554 43.9629 128.472C44.3394 128.387 44.7176 128.32 45.0975 128.27C45.5947 128.206 45.9977 128.158 46.3067 128.126C46.6192 128.091 46.8465 128.032 46.9885 127.95C47.1341 127.869 47.2069 127.727 47.2069 127.524V127.482C47.2069 126.956 47.0631 126.548 46.7754 126.256C46.4913 125.965 46.0599 125.82 45.481 125.82C44.8809 125.82 44.4104 125.951 44.0695 126.214C43.7286 126.477 43.4889 126.757 43.3504 127.055L42.1572 126.629C42.3703 126.132 42.6543 125.745 43.0095 125.468C43.3681 125.187 43.7587 124.992 44.1813 124.882C44.6075 124.768 45.0265 124.712 45.4384 124.712C45.7012 124.712 46.0031 124.744 46.344 124.808C46.6884 124.868 47.0205 124.994 47.3401 125.186C47.6632 125.377 47.9313 125.667 48.1444 126.054C48.3575 126.441 48.464 126.96 48.464 127.609V133H47.2069V131.892H47.143C47.0578 132.07 46.9157 132.26 46.7168 132.462C46.518 132.664 46.2534 132.837 45.9232 132.979C45.5929 133.121 45.1899 133.192 44.714 133.192ZM44.9058 132.062C45.4029 132.062 45.822 131.965 46.1629 131.77C46.5073 131.574 46.7666 131.322 46.9406 131.013C47.1181 130.704 47.2069 130.379 47.2069 130.038V128.888C47.1536 128.952 47.0364 129.01 46.8553 129.064C46.6778 129.113 46.4718 129.158 46.2374 129.197C46.0066 129.232 45.7811 129.264 45.5609 129.293C45.3443 129.317 45.1685 129.339 45.0336 129.357C44.7069 129.399 44.4015 129.468 44.1174 129.564C43.8369 129.657 43.6096 129.797 43.4356 129.985C43.2651 130.17 43.1799 130.422 43.1799 130.741C43.1799 131.178 43.3415 131.509 43.6646 131.732C43.9913 131.952 44.4051 132.062 44.9058 132.062ZM52.0156 128.078V133H50.7585V124.818H51.973V126.097H52.0795C52.2713 125.681 52.5625 125.347 52.9531 125.095C53.3437 124.839 53.848 124.712 54.4659 124.712C55.0198 124.712 55.5046 124.825 55.9201 125.053C56.3355 125.276 56.6587 125.617 56.8895 126.075C57.1203 126.53 57.2358 127.105 57.2358 127.801V133H55.9786V127.886C55.9786 127.244 55.8117 126.743 55.4779 126.384C55.1441 126.022 54.686 125.841 54.1036 125.841C53.7024 125.841 53.3437 125.928 53.0277 126.102C52.7152 126.276 52.4684 126.53 52.2872 126.864C52.1061 127.197 52.0156 127.602 52.0156 128.078ZM61.9406 133.192C61.4221 133.192 60.9516 133.094 60.529 132.899C60.1064 132.7 59.7708 132.414 59.5222 132.041C59.2737 131.665 59.1494 131.21 59.1494 130.678C59.1494 130.209 59.2417 129.829 59.4264 129.538C59.611 129.243 59.8578 129.012 60.1668 128.845C60.4757 128.678 60.8166 128.554 61.1895 128.472C61.5659 128.387 61.9441 128.32 62.3241 128.27C62.8212 128.206 63.2243 128.158 63.5332 128.126C63.8457 128.091 64.073 128.032 64.2151 127.95C64.3607 127.869 64.4335 127.727 64.4335 127.524V127.482C64.4335 126.956 64.2896 126.548 64.002 126.256C63.7179 125.965 63.2864 125.82 62.7076 125.82C62.1075 125.82 61.6369 125.951 61.296 126.214C60.9551 126.477 60.7154 126.757 60.5769 127.055L59.3837 126.629C59.5968 126.132 59.8809 125.745 60.236 125.468C60.5947 125.187 60.9853 124.992 61.4079 124.882C61.834 124.768 62.2531 124.712 62.665 124.712C62.9278 124.712 63.2296 124.744 63.5705 124.808C63.915 124.868 64.247 124.994 64.5666 125.186C64.8898 125.377 65.1579 125.667 65.371 126.054C65.584 126.441 65.6906 126.96 65.6906 127.609V133H64.4335V131.892H64.3695C64.2843 132.07 64.1423 132.26 63.9434 132.462C63.7445 132.664 63.48 132.837 63.1497 132.979C62.8195 133.121 62.4164 133.192 61.9406 133.192ZM62.1323 132.062C62.6295 132.062 63.0485 131.965 63.3894 131.77C63.7339 131.574 63.9931 131.322 64.1671 131.013C64.3447 130.704 64.4335 130.379 64.4335 130.038V128.888C64.3802 128.952 64.263 129.01 64.0819 129.064C63.9043 129.113 63.6984 129.158 63.464 129.197C63.2332 129.232 63.0077 129.264 62.7875 129.293C62.5709 129.317 62.3951 129.339 62.2602 129.357C61.9335 129.399 61.6281 129.468 61.344 129.564C61.0634 129.657 60.8362 129.797 60.6622 129.985C60.4917 130.17 60.4065 130.422 60.4065 130.741C60.4065 131.178 60.568 131.509 60.8912 131.732C61.2179 131.952 61.6316 132.062 62.1323 132.062ZM69.2421 122.091V133H67.985V122.091H69.2421ZM72.3543 136.068C72.1412 136.068 71.9512 136.05 71.7843 136.015C71.6174 135.983 71.502 135.951 71.4381 135.919L71.7577 134.811C72.0631 134.889 72.333 134.918 72.5673 134.896C72.8017 134.875 73.0095 134.77 73.1906 134.582C73.3752 134.397 73.5439 134.097 73.6966 133.682L73.931 133.043L70.9054 124.818H72.269L74.5276 131.338H74.6128L76.8713 124.818H78.235L74.7619 134.193C74.6057 134.616 74.4122 134.966 74.1813 135.243C73.9505 135.523 73.6824 135.731 73.377 135.866C73.0752 136.001 72.7342 136.068 72.3543 136.068ZM85.6897 126.651L84.5604 126.97C84.4894 126.782 84.3846 126.599 84.2461 126.422C84.1112 126.24 83.9265 126.091 83.6922 125.974C83.4578 125.857 83.1577 125.798 82.7919 125.798C82.2912 125.798 81.874 125.914 81.5402 126.145C81.2099 126.372 81.0448 126.661 81.0448 127.013C81.0448 127.325 81.1584 127.572 81.3857 127.753C81.613 127.934 81.9681 128.085 82.451 128.206L83.6655 128.504C84.3971 128.682 84.9422 128.953 85.3008 129.319C85.6595 129.681 85.8388 130.148 85.8388 130.72C85.8388 131.189 85.7039 131.608 85.434 131.977C85.1677 132.347 84.7948 132.638 84.3154 132.851C83.836 133.064 83.2785 133.17 82.6428 133.17C81.8083 133.17 81.1176 132.989 80.5707 132.627C80.0238 132.265 79.6776 131.736 79.532 131.04L80.7252 130.741C80.8388 131.182 81.0537 131.512 81.3697 131.732C81.6893 131.952 82.1066 132.062 82.6215 132.062C83.2074 132.062 83.6726 131.938 84.0171 131.69C84.3651 131.437 84.5391 131.136 84.5391 130.784C84.5391 130.5 84.4397 130.262 84.2408 130.07C84.0419 129.875 83.7366 129.729 83.3246 129.634L81.961 129.314C81.2117 129.136 80.6613 128.861 80.3097 128.488C79.9617 128.112 79.7877 127.641 79.7877 127.077C79.7877 126.615 79.9173 126.207 80.1765 125.852C80.4393 125.496 80.7962 125.218 81.2472 125.015C81.7017 124.813 82.2167 124.712 82.7919 124.712C83.6016 124.712 84.2373 124.889 84.6989 125.244C85.1641 125.599 85.4944 126.068 85.6897 126.651ZM87.7311 133V124.818H88.9882V133H87.7311ZM88.3703 123.455C88.1253 123.455 87.914 123.371 87.7365 123.204C87.5625 123.037 87.4755 122.837 87.4755 122.602C87.4755 122.368 87.5625 122.167 87.7365 122C87.914 121.833 88.1253 121.75 88.3703 121.75C88.6154 121.75 88.8249 121.833 88.9989 122C89.1764 122.167 89.2652 122.368 89.2652 122.602C89.2652 122.837 89.1764 123.037 88.9989 123.204C88.8249 123.371 88.6154 123.455 88.3703 123.455ZM97.0862 126.651L95.9569 126.97C95.8859 126.782 95.7811 126.599 95.6426 126.422C95.5077 126.24 95.323 126.091 95.0886 125.974C94.8543 125.857 94.5542 125.798 94.1884 125.798C93.6877 125.798 93.2705 125.914 92.9367 126.145C92.6064 126.372 92.4413 126.661 92.4413 127.013C92.4413 127.325 92.5549 127.572 92.7822 127.753C93.0095 127.934 93.3646 128.085 93.8475 128.206L95.062 128.504C95.7935 128.682 96.3386 128.953 96.6973 129.319C97.056 129.681 97.2353 130.148 97.2353 130.72C97.2353 131.189 97.1004 131.608 96.8305 131.977C96.5641 132.347 96.1913 132.638 95.7119 132.851C95.2325 133.064 94.6749 133.17 94.0393 133.17C93.2048 133.17 92.5141 132.989 91.9672 132.627C91.4203 132.265 91.0741 131.736 90.9285 131.04L92.1217 130.741C92.2353 131.182 92.4502 131.512 92.7662 131.732C93.0858 131.952 93.5031 132.062 94.018 132.062C94.6039 132.062 95.0691 131.938 95.4136 131.69C95.7616 131.437 95.9356 131.136 95.9356 130.784C95.9356 130.5 95.8362 130.262 95.6373 130.07C95.4384 129.875 95.133 129.729 94.7211 129.634L93.3575 129.314C92.6082 129.136 92.0578 128.861 91.7062 128.488C91.3582 128.112 91.1842 127.641 91.1842 127.077C91.1842 126.615 91.3138 126.207 91.573 125.852C91.8358 125.496 92.1927 125.218 92.6437 125.015C93.0982 124.813 93.6131 124.712 94.1884 124.712C94.9981 124.712 95.6337 124.889 96.0954 125.244C96.5606 125.599 96.8908 126.068 97.0862 126.651Z" fill="#2488B3"/>
<path d="M191.267 85.2628V84.0909H199.449V85.2628H196.019V95H194.698V85.2628H191.267ZM202.612 95.1918C202.093 95.1918 201.623 95.0941 201.2 94.8988C200.778 94.6999 200.442 94.4141 200.194 94.0412C199.945 93.6648 199.821 93.2102 199.821 92.6776C199.821 92.2088 199.913 91.8288 200.098 91.5376C200.282 91.2429 200.529 91.0121 200.838 90.8452C201.147 90.6783 201.488 90.554 201.861 90.4723C202.237 90.3871 202.616 90.3196 202.995 90.2699C203.493 90.206 203.896 90.158 204.205 90.1261C204.517 90.0906 204.744 90.032 204.886 89.9503C205.032 89.8686 205.105 89.7266 205.105 89.5241V89.4815C205.105 88.956 204.961 88.5476 204.673 88.2564C204.389 87.9652 203.958 87.8196 203.379 87.8196C202.779 87.8196 202.308 87.951 201.967 88.2138C201.627 88.4766 201.387 88.7571 201.248 89.0554L200.055 88.6293C200.268 88.1321 200.552 87.745 200.907 87.468C201.266 87.1875 201.657 86.9922 202.079 86.8821C202.505 86.7685 202.924 86.7116 203.336 86.7116C203.599 86.7116 203.901 86.7436 204.242 86.8075C204.586 86.8679 204.918 86.994 205.238 87.1857C205.561 87.3775 205.829 87.6669 206.042 88.054C206.255 88.4411 206.362 88.9595 206.362 89.6094V95H205.105V93.892H205.041C204.956 94.0696 204.814 94.2596 204.615 94.462C204.416 94.6644 204.151 94.8366 203.821 94.9787C203.491 95.1207 203.088 95.1918 202.612 95.1918ZM202.804 94.0625C203.301 94.0625 203.72 93.9648 204.061 93.7695C204.405 93.5742 204.665 93.3221 204.839 93.0131C205.016 92.7042 205.105 92.3793 205.105 92.0384V90.8878C205.052 90.9517 204.934 91.0103 204.753 91.0636C204.576 91.1133 204.37 91.1577 204.135 91.1967C203.905 91.2322 203.679 91.2642 203.459 91.2926C203.242 91.3175 203.066 91.3388 202.932 91.3565C202.605 91.3991 202.299 91.4684 202.015 91.5643C201.735 91.6566 201.508 91.7969 201.334 91.9851C201.163 92.1697 201.078 92.4219 201.078 92.7415C201.078 93.1783 201.239 93.5085 201.563 93.7322C201.889 93.9524 202.303 94.0625 202.804 94.0625ZM208.656 95V86.8182H209.871V88.054H209.956C210.105 87.6491 210.375 87.3207 210.766 87.0685C211.156 86.8164 211.597 86.6903 212.087 86.6903C212.179 86.6903 212.295 86.6921 212.433 86.6957C212.572 86.6992 212.676 86.7045 212.747 86.7116V87.9901C212.705 87.9794 212.607 87.9634 212.454 87.9421C212.305 87.9173 212.147 87.9048 211.98 87.9048C211.583 87.9048 211.227 87.9883 210.915 88.1552C210.606 88.3185 210.361 88.5458 210.18 88.837C210.002 89.1246 209.914 89.4531 209.914 89.8224V95H208.656ZM214.237 95V86.8182H215.495V95H214.237ZM214.877 85.4545C214.632 85.4545 214.42 85.3711 214.243 85.2042C214.069 85.0373 213.982 84.8366 213.982 84.6023C213.982 84.3679 214.069 84.1673 214.243 84.0004C214.42 83.8335 214.632 83.75 214.877 83.75C215.122 83.75 215.331 83.8335 215.505 84.0004C215.683 84.1673 215.772 84.3679 215.772 84.6023C215.772 84.8366 215.683 85.0373 215.505 85.2042C215.331 85.3711 215.122 85.4545 214.877 85.4545ZM221.441 86.8182V87.8835H217.03V86.8182H221.441ZM218.351 95V85.6889C218.351 85.2202 218.461 84.8295 218.681 84.517C218.901 84.2045 219.187 83.9702 219.539 83.8139C219.89 83.6577 220.262 83.5795 220.652 83.5795C220.961 83.5795 221.213 83.6044 221.409 83.6541C221.604 83.7038 221.749 83.75 221.845 83.7926L221.483 84.8793C221.419 84.858 221.33 84.8313 221.217 84.7994C221.107 84.7674 220.961 84.7514 220.78 84.7514C220.365 84.7514 220.064 84.8562 219.88 85.0657C219.699 85.2752 219.608 85.5824 219.608 85.9872V95H218.351ZM226.846 86.8182V87.8835H222.435V86.8182H226.846ZM223.756 95V85.6889C223.756 85.2202 223.866 84.8295 224.087 84.517C224.307 84.2045 224.593 83.9702 224.944 83.8139C225.296 83.6577 225.667 83.5795 226.057 83.5795C226.366 83.5795 226.619 83.6044 226.814 83.6541C227.009 83.7038 227.155 83.75 227.251 83.7926L226.888 84.8793C226.824 84.858 226.736 84.8313 226.622 84.7994C226.512 84.7674 226.366 84.7514 226.185 84.7514C225.77 84.7514 225.47 84.8562 225.285 85.0657C225.104 85.2752 225.013 85.5824 225.013 85.9872V95H223.756ZM174.789 107.545C174.789 108.696 174.581 109.69 174.166 110.528C173.751 111.366 173.181 112.013 172.456 112.467C171.732 112.922 170.904 113.149 169.974 113.149C169.044 113.149 168.216 112.922 167.492 112.467C166.767 112.013 166.197 111.366 165.782 110.528C165.366 109.69 165.159 108.696 165.159 107.545C165.159 106.395 165.366 105.401 165.782 104.562C166.197 103.724 166.767 103.078 167.492 102.624C168.216 102.169 169.044 101.942 169.974 101.942C170.904 101.942 171.732 102.169 172.456 102.624C173.181 103.078 173.751 103.724 174.166 104.562C174.581 105.401 174.789 106.395 174.789 107.545ZM173.511 107.545C173.511 106.601 173.353 105.804 173.037 105.154C172.724 104.504 172.3 104.012 171.764 103.678C171.231 103.344 170.634 103.178 169.974 103.178C169.313 103.178 168.715 103.344 168.179 103.678C167.646 104.012 167.222 104.504 166.906 105.154C166.593 105.804 166.437 106.601 166.437 107.545C166.437 108.49 166.593 109.287 166.906 109.937C167.222 110.587 167.646 111.079 168.179 111.413C168.715 111.746 169.313 111.913 169.974 111.913C170.634 111.913 171.231 111.746 171.764 111.413C172.3 111.079 172.724 110.587 173.037 109.937C173.353 109.287 173.511 108.49 173.511 107.545ZM176.84 116.068V104.818H178.055V106.118H178.204C178.296 105.976 178.424 105.795 178.587 105.575C178.754 105.351 178.992 105.152 179.301 104.978C179.613 104.8 180.036 104.712 180.569 104.712C181.258 104.712 181.865 104.884 182.39 105.228C182.916 105.573 183.326 106.061 183.621 106.693C183.916 107.325 184.063 108.071 184.063 108.93C184.063 109.797 183.916 110.548 183.621 111.184C183.326 111.816 182.918 112.306 182.396 112.654C181.874 112.998 181.272 113.17 180.59 113.17C180.064 113.17 179.644 113.083 179.328 112.909C179.012 112.732 178.768 112.531 178.598 112.308C178.427 112.08 178.296 111.892 178.204 111.743H178.097V116.068H176.84ZM178.076 108.909C178.076 109.527 178.166 110.072 178.347 110.544C178.529 111.013 178.793 111.381 179.141 111.647C179.489 111.91 179.915 112.041 180.42 112.041C180.945 112.041 181.384 111.903 181.735 111.626C182.09 111.345 182.357 110.969 182.534 110.496C182.715 110.021 182.806 109.491 182.806 108.909C182.806 108.334 182.717 107.815 182.54 107.354C182.366 106.888 182.101 106.521 181.746 106.251C181.394 105.978 180.952 105.841 180.42 105.841C179.908 105.841 179.479 105.971 179.131 106.23C178.782 106.485 178.52 106.844 178.342 107.306C178.165 107.764 178.076 108.298 178.076 108.909ZM189.539 104.818V105.884H185.299V104.818H189.539ZM186.535 102.858H187.792V110.656C187.792 111.011 187.843 111.278 187.946 111.455C188.053 111.629 188.188 111.746 188.351 111.807C188.518 111.864 188.694 111.892 188.878 111.892C189.017 111.892 189.131 111.885 189.219 111.871C189.308 111.853 189.379 111.839 189.432 111.828L189.688 112.957C189.603 112.989 189.484 113.021 189.331 113.053C189.178 113.089 188.985 113.107 188.751 113.107C188.395 113.107 188.047 113.03 187.706 112.877C187.369 112.725 187.089 112.492 186.865 112.18C186.645 111.867 186.535 111.473 186.535 110.997V102.858ZM191.43 113V104.818H192.687V113H191.43ZM192.069 103.455C191.824 103.455 191.613 103.371 191.435 103.204C191.261 103.037 191.174 102.837 191.174 102.602C191.174 102.368 191.261 102.167 191.435 102C191.613 101.833 191.824 101.75 192.069 101.75C192.314 101.75 192.524 101.833 192.698 102C192.875 102.167 192.964 102.368 192.964 102.602C192.964 102.837 192.875 103.037 192.698 103.204C192.524 103.371 192.314 103.455 192.069 103.455ZM194.989 113V104.818H196.204V106.097H196.31C196.481 105.66 196.756 105.321 197.136 105.079C197.516 104.834 197.972 104.712 198.505 104.712C199.045 104.712 199.494 104.834 199.853 105.079C200.215 105.321 200.497 105.66 200.7 106.097H200.785C200.994 105.674 201.309 105.338 201.728 105.09C202.147 104.838 202.649 104.712 203.235 104.712C203.967 104.712 204.565 104.941 205.03 105.399C205.495 105.853 205.728 106.562 205.728 107.524V113H204.471V107.524C204.471 106.92 204.306 106.489 203.976 106.23C203.645 105.971 203.256 105.841 202.809 105.841C202.234 105.841 201.788 106.015 201.472 106.363C201.156 106.707 200.998 107.144 200.998 107.673V113H199.72V107.396C199.72 106.931 199.569 106.556 199.267 106.272C198.965 105.985 198.576 105.841 198.1 105.841C197.774 105.841 197.468 105.928 197.184 106.102C196.903 106.276 196.676 106.517 196.502 106.826C196.332 107.132 196.247 107.485 196.247 107.886V113H194.989ZM208.027 113V104.818H209.284V113H208.027ZM208.666 103.455C208.421 103.455 208.209 103.371 208.032 103.204C207.858 103.037 207.771 102.837 207.771 102.602C207.771 102.368 207.858 102.167 208.032 102C208.209 101.833 208.421 101.75 208.666 101.75C208.911 101.75 209.12 101.833 209.294 102C209.472 102.167 209.561 102.368 209.561 102.602C209.561 102.837 209.472 103.037 209.294 103.204C209.12 103.371 208.911 103.455 208.666 103.455ZM211.352 113V112.041L215.997 106.075V105.99H211.501V104.818H217.616V105.82L213.099 111.743V111.828H217.765V113H211.352ZM222.109 113.192C221.591 113.192 221.12 113.094 220.697 112.899C220.275 112.7 219.939 112.414 219.691 112.041C219.442 111.665 219.318 111.21 219.318 110.678C219.318 110.209 219.41 109.829 219.595 109.538C219.779 109.243 220.026 109.012 220.335 108.845C220.644 108.678 220.985 108.554 221.358 108.472C221.734 108.387 222.113 108.32 222.493 108.27C222.99 108.206 223.393 108.158 223.702 108.126C224.014 108.091 224.241 108.032 224.384 107.95C224.529 107.869 224.602 107.727 224.602 107.524V107.482C224.602 106.956 224.458 106.548 224.17 106.256C223.886 105.965 223.455 105.82 222.876 105.82C222.276 105.82 221.805 105.951 221.464 106.214C221.124 106.477 220.884 106.757 220.745 107.055L219.552 106.629C219.765 106.132 220.049 105.745 220.404 105.468C220.763 105.187 221.154 104.992 221.576 104.882C222.002 104.768 222.422 104.712 222.833 104.712C223.096 104.712 223.398 104.744 223.739 104.808C224.083 104.868 224.415 104.994 224.735 105.186C225.058 105.377 225.326 105.667 225.539 106.054C225.752 106.441 225.859 106.96 225.859 107.609V113H224.602V111.892H224.538C224.453 112.07 224.311 112.26 224.112 112.462C223.913 112.664 223.648 112.837 223.318 112.979C222.988 113.121 222.585 113.192 222.109 113.192ZM222.301 112.062C222.798 112.062 223.217 111.965 223.558 111.77C223.902 111.574 224.162 111.322 224.336 111.013C224.513 110.704 224.602 110.379 224.602 110.038V108.888C224.549 108.952 224.431 109.01 224.25 109.064C224.073 109.113 223.867 109.158 223.632 109.197C223.402 109.232 223.176 109.264 222.956 109.293C222.739 109.317 222.564 109.339 222.429 109.357C222.102 109.399 221.797 109.468 221.512 109.564C221.232 109.657 221.005 109.797 220.831 109.985C220.66 110.17 220.575 110.422 220.575 110.741C220.575 111.178 220.737 111.509 221.06 111.732C221.386 111.952 221.8 112.062 222.301 112.062ZM231.712 104.818V105.884H227.472V104.818H231.712ZM228.707 102.858H229.965V110.656C229.965 111.011 230.016 111.278 230.119 111.455C230.226 111.629 230.361 111.746 230.524 111.807C230.691 111.864 230.867 111.892 231.051 111.892C231.19 111.892 231.303 111.885 231.392 111.871C231.481 111.853 231.552 111.839 231.605 111.828L231.861 112.957C231.776 112.989 231.657 113.021 231.504 113.053C231.351 113.089 231.158 113.107 230.923 113.107C230.568 113.107 230.22 113.03 229.879 112.877C229.542 112.725 229.261 112.492 229.038 112.18C228.818 111.867 228.707 111.473 228.707 110.997V102.858ZM233.603 113V104.818H234.86V113H233.603ZM234.242 103.455C233.997 103.455 233.786 103.371 233.608 103.204C233.434 103.037 233.347 102.837 233.347 102.602C233.347 102.368 233.434 102.167 233.608 102C233.786 101.833 233.997 101.75 234.242 101.75C234.487 101.75 234.696 101.833 234.87 102C235.048 102.167 235.137 102.368 235.137 102.602C235.137 102.837 235.048 103.037 234.87 103.204C234.696 103.371 234.487 103.455 234.242 103.455ZM240.486 113.17C239.748 113.17 239.099 112.995 238.542 112.643C237.988 112.292 237.555 111.8 237.242 111.168C236.933 110.536 236.779 109.797 236.779 108.952C236.779 108.099 236.933 107.355 237.242 106.72C237.555 106.084 237.988 105.591 238.542 105.239C239.099 104.887 239.748 104.712 240.486 104.712C241.225 104.712 241.871 104.887 242.425 105.239C242.983 105.591 243.416 106.084 243.725 106.72C244.037 107.355 244.194 108.099 244.194 108.952C244.194 109.797 244.037 110.536 243.725 111.168C243.416 111.8 242.983 112.292 242.425 112.643C241.871 112.995 241.225 113.17 240.486 113.17ZM240.486 112.041C241.047 112.041 241.509 111.897 241.871 111.61C242.233 111.322 242.501 110.944 242.675 110.475C242.849 110.006 242.936 109.499 242.936 108.952C242.936 108.405 242.849 107.895 242.675 107.423C242.501 106.951 242.233 106.569 241.871 106.278C241.509 105.987 241.047 105.841 240.486 105.841C239.925 105.841 239.463 105.987 239.101 106.278C238.739 106.569 238.471 106.951 238.297 107.423C238.123 107.895 238.036 108.405 238.036 108.952C238.036 109.499 238.123 110.006 238.297 110.475C238.471 110.944 238.739 111.322 239.101 111.61C239.463 111.897 239.925 112.041 240.486 112.041ZM247.37 108.078V113H246.112V104.818H247.327V106.097H247.434C247.625 105.681 247.916 105.347 248.307 105.095C248.698 104.839 249.202 104.712 249.82 104.712C250.374 104.712 250.859 104.825 251.274 105.053C251.69 105.276 252.013 105.617 252.244 106.075C252.474 106.53 252.59 107.105 252.59 107.801V113H251.333V107.886C251.333 107.244 251.166 106.743 250.832 106.384C250.498 106.022 250.04 105.841 249.458 105.841C249.056 105.841 248.698 105.928 248.382 106.102C248.069 106.276 247.822 106.53 247.641 106.864C247.46 107.197 247.37 107.602 247.37 108.078Z" fill="#2488B3"/>
<path d="M357.126 129.818C357.062 129.278 356.803 128.859 356.349 128.561C355.894 128.263 355.337 128.114 354.676 128.114C354.193 128.114 353.77 128.192 353.408 128.348C353.05 128.504 352.769 128.719 352.567 128.993C352.368 129.266 352.268 129.577 352.268 129.925C352.268 130.216 352.338 130.466 352.476 130.676C352.618 130.882 352.799 131.054 353.019 131.192C353.24 131.327 353.47 131.439 353.712 131.528C353.953 131.613 354.175 131.683 354.378 131.736L355.486 132.034C355.77 132.109 356.086 132.212 356.434 132.343C356.785 132.474 357.121 132.654 357.441 132.881C357.764 133.105 358.03 133.392 358.24 133.744C358.449 134.096 358.554 134.527 358.554 135.038C358.554 135.628 358.399 136.161 358.09 136.636C357.785 137.112 357.338 137.49 356.748 137.771C356.162 138.051 355.45 138.192 354.612 138.192C353.831 138.192 353.154 138.066 352.583 137.814C352.014 137.561 351.567 137.21 351.24 136.759C350.917 136.308 350.734 135.784 350.692 135.188H352.055C352.091 135.599 352.229 135.94 352.471 136.21C352.716 136.477 353.025 136.675 353.398 136.807C353.774 136.935 354.179 136.999 354.612 136.999C355.116 136.999 355.569 136.917 355.97 136.754C356.372 136.587 356.689 136.356 356.924 136.061C357.158 135.763 357.275 135.415 357.275 135.017C357.275 134.655 357.174 134.36 356.972 134.133C356.769 133.906 356.503 133.721 356.173 133.579C355.843 133.437 355.486 133.312 355.102 133.206L353.76 132.822C352.908 132.577 352.233 132.228 351.736 131.773C351.239 131.319 350.99 130.724 350.99 129.989C350.99 129.378 351.155 128.845 351.485 128.391C351.819 127.933 352.267 127.577 352.828 127.325C353.392 127.07 354.023 126.942 354.719 126.942C355.422 126.942 356.047 127.068 356.594 127.32C357.14 127.569 357.574 127.909 357.893 128.343C358.216 128.776 358.387 129.268 358.405 129.818H357.126ZM363.986 138.17C363.197 138.17 362.517 137.996 361.946 137.648C361.377 137.297 360.939 136.807 360.63 136.178C360.325 135.546 360.172 134.811 360.172 133.973C360.172 133.135 360.325 132.396 360.63 131.757C360.939 131.114 361.369 130.614 361.919 130.255C362.473 129.893 363.119 129.712 363.858 129.712C364.284 129.712 364.705 129.783 365.12 129.925C365.536 130.067 365.914 130.298 366.255 130.617C366.596 130.933 366.867 131.352 367.07 131.874C367.272 132.396 367.374 133.039 367.374 133.803V134.335H361.067V133.249H366.095C366.095 132.787 366.003 132.375 365.818 132.013C365.637 131.651 365.378 131.365 365.04 131.155C364.707 130.946 364.312 130.841 363.858 130.841C363.357 130.841 362.924 130.965 362.558 131.214C362.196 131.459 361.917 131.778 361.722 132.173C361.527 132.567 361.429 132.989 361.429 133.44V134.165C361.429 134.783 361.535 135.306 361.749 135.736C361.965 136.162 362.265 136.487 362.649 136.711C363.032 136.931 363.478 137.041 363.986 137.041C364.316 137.041 364.614 136.995 364.881 136.903C365.151 136.807 365.383 136.665 365.578 136.477C365.774 136.285 365.925 136.047 366.031 135.763L367.246 136.104C367.118 136.516 366.903 136.878 366.601 137.19C366.299 137.499 365.926 137.741 365.483 137.915C365.039 138.085 364.54 138.17 363.986 138.17ZM371.693 138.192C371.175 138.192 370.705 138.094 370.282 137.899C369.859 137.7 369.524 137.414 369.275 137.041C369.027 136.665 368.902 136.21 368.902 135.678C368.902 135.209 368.995 134.829 369.179 134.538C369.364 134.243 369.611 134.012 369.92 133.845C370.229 133.678 370.57 133.554 370.942 133.472C371.319 133.387 371.697 133.32 372.077 133.27C372.574 133.206 372.977 133.158 373.286 133.126C373.599 133.091 373.826 133.032 373.968 132.95C374.114 132.869 374.186 132.727 374.186 132.524V132.482C374.186 131.956 374.043 131.548 373.755 131.256C373.471 130.965 373.039 130.82 372.461 130.82C371.86 130.82 371.39 130.951 371.049 131.214C370.708 131.477 370.468 131.757 370.33 132.055L369.137 131.629C369.35 131.132 369.634 130.745 369.989 130.468C370.348 130.187 370.738 129.992 371.161 129.882C371.587 129.768 372.006 129.712 372.418 129.712C372.681 129.712 372.983 129.744 373.323 129.808C373.668 129.868 374 129.994 374.32 130.186C374.643 130.377 374.911 130.667 375.124 131.054C375.337 131.441 375.443 131.96 375.443 132.609V138H374.186V136.892H374.122C374.037 137.07 373.895 137.26 373.696 137.462C373.497 137.664 373.233 137.837 372.903 137.979C372.572 138.121 372.169 138.192 371.693 138.192ZM371.885 137.062C372.382 137.062 372.801 136.965 373.142 136.77C373.487 136.574 373.746 136.322 373.92 136.013C374.098 135.704 374.186 135.379 374.186 135.038V133.888C374.133 133.952 374.016 134.01 373.835 134.064C373.657 134.113 373.451 134.158 373.217 134.197C372.986 134.232 372.761 134.264 372.54 134.293C372.324 134.317 372.148 134.339 372.013 134.357C371.686 134.399 371.381 134.468 371.097 134.564C370.816 134.657 370.589 134.797 370.415 134.985C370.245 135.17 370.159 135.422 370.159 135.741C370.159 136.178 370.321 136.509 370.644 136.732C370.971 136.952 371.385 137.062 371.885 137.062ZM383.533 131.651L382.404 131.97C382.333 131.782 382.228 131.599 382.09 131.422C381.955 131.24 381.77 131.091 381.536 130.974C381.302 130.857 381.001 130.798 380.636 130.798C380.135 130.798 379.718 130.914 379.384 131.145C379.054 131.372 378.889 131.661 378.889 132.013C378.889 132.325 379.002 132.572 379.229 132.753C379.457 132.934 379.812 133.085 380.295 133.206L381.509 133.504C382.241 133.682 382.786 133.953 383.145 134.319C383.503 134.681 383.683 135.148 383.683 135.72C383.683 136.189 383.548 136.608 383.278 136.977C383.011 137.347 382.639 137.638 382.159 137.851C381.68 138.064 381.122 138.17 380.487 138.17C379.652 138.17 378.961 137.989 378.414 137.627C377.868 137.265 377.521 136.736 377.376 136.04L378.569 135.741C378.683 136.182 378.897 136.512 379.213 136.732C379.533 136.952 379.95 137.062 380.465 137.062C381.051 137.062 381.516 136.938 381.861 136.69C382.209 136.437 382.383 136.136 382.383 135.784C382.383 135.5 382.283 135.262 382.085 135.07C381.886 134.875 381.58 134.729 381.168 134.634L379.805 134.314C379.055 134.136 378.505 133.861 378.153 133.488C377.805 133.112 377.631 132.641 377.631 132.077C377.631 131.615 377.761 131.207 378.02 130.852C378.283 130.496 378.64 130.218 379.091 130.015C379.545 129.813 380.06 129.712 380.636 129.712C381.445 129.712 382.081 129.889 382.543 130.244C383.008 130.599 383.338 131.068 383.533 131.651ZM388.899 138.17C388.16 138.17 387.512 137.995 386.955 137.643C386.401 137.292 385.967 136.8 385.655 136.168C385.346 135.536 385.191 134.797 385.191 133.952C385.191 133.099 385.346 132.355 385.655 131.72C385.967 131.084 386.401 130.591 386.955 130.239C387.512 129.887 388.16 129.712 388.899 129.712C389.637 129.712 390.284 129.887 390.838 130.239C391.395 130.591 391.828 131.084 392.137 131.72C392.45 132.355 392.606 133.099 392.606 133.952C392.606 134.797 392.45 135.536 392.137 136.168C391.828 136.8 391.395 137.292 390.838 137.643C390.284 137.995 389.637 138.17 388.899 138.17ZM388.899 137.041C389.46 137.041 389.921 136.897 390.284 136.61C390.646 136.322 390.914 135.944 391.088 135.475C391.262 135.006 391.349 134.499 391.349 133.952C391.349 133.405 391.262 132.895 391.088 132.423C390.914 131.951 390.646 131.569 390.284 131.278C389.921 130.987 389.46 130.841 388.899 130.841C388.338 130.841 387.876 130.987 387.514 131.278C387.152 131.569 386.883 131.951 386.709 132.423C386.535 132.895 386.448 133.405 386.448 133.952C386.448 134.499 386.535 135.006 386.709 135.475C386.883 135.944 387.152 136.322 387.514 136.61C387.876 136.897 388.338 137.041 388.899 137.041ZM395.782 133.078V138H394.525V129.818H395.74V131.097H395.846C396.038 130.681 396.329 130.347 396.72 130.095C397.11 129.839 397.615 129.712 398.232 129.712C398.786 129.712 399.271 129.825 399.687 130.053C400.102 130.276 400.425 130.617 400.656 131.075C400.887 131.53 401.002 132.105 401.002 132.801V138H399.745V132.886C399.745 132.244 399.578 131.743 399.245 131.384C398.911 131.022 398.453 130.841 397.87 130.841C397.469 130.841 397.11 130.928 396.794 131.102C396.482 131.276 396.235 131.53 396.054 131.864C395.873 132.197 395.782 132.602 395.782 133.078ZM405.707 138.192C405.189 138.192 404.718 138.094 404.296 137.899C403.873 137.7 403.537 137.414 403.289 137.041C403.04 136.665 402.916 136.21 402.916 135.678C402.916 135.209 403.008 134.829 403.193 134.538C403.378 134.243 403.624 134.012 403.933 133.845C404.242 133.678 404.583 133.554 404.956 133.472C405.333 133.387 405.711 133.32 406.091 133.27C406.588 133.206 406.991 133.158 407.3 133.126C407.612 133.091 407.84 133.032 407.982 132.95C408.127 132.869 408.2 132.727 408.2 132.524V132.482C408.2 131.956 408.056 131.548 407.769 131.256C407.485 130.965 407.053 130.82 406.474 130.82C405.874 130.82 405.404 130.951 405.063 131.214C404.722 131.477 404.482 131.757 404.344 132.055L403.15 131.629C403.363 131.132 403.648 130.745 404.003 130.468C404.361 130.187 404.752 129.992 405.174 129.882C405.601 129.768 406.02 129.712 406.432 129.712C406.694 129.712 406.996 129.744 407.337 129.808C407.682 129.868 408.014 129.994 408.333 130.186C408.656 130.377 408.924 130.667 409.138 131.054C409.351 131.441 409.457 131.96 409.457 132.609V138H408.2V136.892H408.136C408.051 137.07 407.909 137.26 407.71 137.462C407.511 137.664 407.247 137.837 406.916 137.979C406.586 138.121 406.183 138.192 405.707 138.192ZM405.899 137.062C406.396 137.062 406.815 136.965 407.156 136.77C407.5 136.574 407.76 136.322 407.934 136.013C408.111 135.704 408.2 135.379 408.2 135.038V133.888C408.147 133.952 408.03 134.01 407.848 134.064C407.671 134.113 407.465 134.158 407.231 134.197C407 134.232 406.774 134.264 406.554 134.293C406.337 134.317 406.162 134.339 406.027 134.357C405.7 134.399 405.395 134.468 405.111 134.564C404.83 134.657 404.603 134.797 404.429 134.985C404.258 135.17 404.173 135.422 404.173 135.741C404.173 136.178 404.335 136.509 404.658 136.732C404.985 136.952 405.398 137.062 405.899 137.062ZM413.009 127.091V138H411.752V127.091H413.009ZM369.783 147.818V148.884H365.542V147.818H369.783ZM366.778 145.858H368.035V153.656C368.035 154.011 368.087 154.278 368.19 154.455C368.296 154.629 368.431 154.746 368.595 154.807C368.762 154.864 368.937 154.892 369.122 154.892C369.261 154.892 369.374 154.885 369.463 154.871C369.552 154.853 369.623 154.839 369.676 154.828L369.932 155.957C369.846 155.989 369.727 156.021 369.575 156.053C369.422 156.089 369.229 156.107 368.994 156.107C368.639 156.107 368.291 156.03 367.95 155.877C367.613 155.725 367.332 155.492 367.109 155.18C366.888 154.867 366.778 154.473 366.778 153.997V145.858ZM374.081 156.192C373.563 156.192 373.092 156.094 372.67 155.899C372.247 155.7 371.911 155.414 371.663 155.041C371.414 154.665 371.29 154.21 371.29 153.678C371.29 153.209 371.382 152.829 371.567 152.538C371.752 152.243 371.998 152.012 372.307 151.845C372.616 151.678 372.957 151.554 373.33 151.472C373.707 151.387 374.085 151.32 374.465 151.27C374.962 151.206 375.365 151.158 375.674 151.126C375.986 151.091 376.214 151.032 376.356 150.95C376.501 150.869 376.574 150.727 376.574 150.524V150.482C376.574 149.956 376.43 149.548 376.143 149.256C375.859 148.965 375.427 148.82 374.848 148.82C374.248 148.82 373.778 148.951 373.437 149.214C373.096 149.477 372.856 149.757 372.718 150.055L371.524 149.629C371.737 149.132 372.022 148.745 372.377 148.468C372.735 148.187 373.126 147.992 373.549 147.882C373.975 147.768 374.394 147.712 374.806 147.712C375.068 147.712 375.37 147.744 375.711 147.808C376.056 147.868 376.388 147.994 376.707 148.186C377.03 148.377 377.299 148.667 377.512 149.054C377.725 149.441 377.831 149.96 377.831 150.609V156H376.574V154.892H376.51C376.425 155.07 376.283 155.26 376.084 155.462C375.885 155.664 375.621 155.837 375.29 155.979C374.96 156.121 374.557 156.192 374.081 156.192ZM374.273 155.062C374.77 155.062 375.189 154.965 375.53 154.77C375.875 154.574 376.134 154.322 376.308 154.013C376.485 153.704 376.574 153.379 376.574 153.038V151.888C376.521 151.952 376.404 152.01 376.223 152.064C376.045 152.113 375.839 152.158 375.605 152.197C375.374 152.232 375.148 152.264 374.928 152.293C374.712 152.317 374.536 152.339 374.401 152.357C374.074 152.399 373.769 152.468 373.485 152.564C373.204 152.657 372.977 152.797 372.803 152.985C372.632 153.17 372.547 153.422 372.547 153.741C372.547 154.178 372.709 154.509 373.032 154.732C373.359 154.952 373.772 155.062 374.273 155.062ZM380.126 156V147.818H381.34V149.054H381.425C381.575 148.649 381.844 148.321 382.235 148.069C382.626 147.816 383.066 147.69 383.556 147.69C383.648 147.69 383.764 147.692 383.902 147.696C384.041 147.699 384.146 147.705 384.217 147.712V148.99C384.174 148.979 384.076 148.963 383.924 148.942C383.774 148.917 383.616 148.905 383.45 148.905C383.052 148.905 382.697 148.988 382.384 149.155C382.075 149.319 381.83 149.546 381.649 149.837C381.472 150.125 381.383 150.453 381.383 150.822V156H380.126ZM385.707 156V147.818H386.964V156H385.707ZM386.346 146.455C386.101 146.455 385.89 146.371 385.712 146.204C385.538 146.037 385.451 145.837 385.451 145.602C385.451 145.368 385.538 145.167 385.712 145C385.89 144.833 386.101 144.75 386.346 144.75C386.591 144.75 386.8 144.833 386.974 145C387.152 145.167 387.241 145.368 387.241 145.602C387.241 145.837 387.152 146.037 386.974 146.204C386.8 146.371 386.591 146.455 386.346 146.455ZM392.91 147.818V148.884H388.499V147.818H392.91ZM389.82 156V146.689C389.82 146.22 389.93 145.83 390.151 145.517C390.371 145.205 390.657 144.97 391.008 144.814C391.36 144.658 391.731 144.58 392.121 144.58C392.43 144.58 392.682 144.604 392.878 144.654C393.073 144.704 393.219 144.75 393.315 144.793L392.952 145.879C392.888 145.858 392.8 145.831 392.686 145.799C392.576 145.767 392.43 145.751 392.249 145.751C391.834 145.751 391.534 145.856 391.349 146.066C391.168 146.275 391.077 146.582 391.077 146.987V156H389.82ZM398.315 147.818V148.884H393.905V147.818H398.315ZM395.226 156V146.689C395.226 146.22 395.336 145.83 395.556 145.517C395.776 145.205 396.062 144.97 396.413 144.814C396.765 144.658 397.136 144.58 397.527 144.58C397.836 144.58 398.088 144.604 398.283 144.654C398.478 144.704 398.624 144.75 398.72 144.793L398.358 145.879C398.294 145.858 398.205 145.831 398.091 145.799C397.981 145.767 397.836 145.751 397.655 145.751C397.239 145.751 396.939 145.856 396.754 146.066C396.573 146.275 396.483 146.582 396.483 146.987V156H395.226Z" fill="#2488B3"/>
<path d="M348.295 282V271.091H349.616V280.828H354.687V282H348.295ZM359.886 282.17C359.147 282.17 358.499 281.995 357.941 281.643C357.387 281.292 356.954 280.8 356.642 280.168C356.333 279.536 356.178 278.797 356.178 277.952C356.178 277.099 356.333 276.355 356.642 275.72C356.954 275.084 357.387 274.591 357.941 274.239C358.499 273.887 359.147 273.712 359.886 273.712C360.624 273.712 361.271 273.887 361.824 274.239C362.382 274.591 362.815 275.084 363.124 275.72C363.437 276.355 363.593 277.099 363.593 277.952C363.593 278.797 363.437 279.536 363.124 280.168C362.815 280.8 362.382 281.292 361.824 281.643C361.271 281.995 360.624 282.17 359.886 282.17ZM359.886 281.041C360.447 281.041 360.908 280.897 361.271 280.61C361.633 280.322 361.901 279.944 362.075 279.475C362.249 279.006 362.336 278.499 362.336 277.952C362.336 277.405 362.249 276.895 362.075 276.423C361.901 275.951 361.633 275.569 361.271 275.278C360.908 274.987 360.447 274.841 359.886 274.841C359.324 274.841 358.863 274.987 358.501 275.278C358.138 275.569 357.87 275.951 357.696 276.423C357.522 276.895 357.435 277.405 357.435 277.952C357.435 278.499 357.522 279.006 357.696 279.475C357.87 279.944 358.138 280.322 358.501 280.61C358.863 280.897 359.324 281.041 359.886 281.041ZM367.92 282.192C367.401 282.192 366.931 282.094 366.508 281.899C366.085 281.7 365.75 281.414 365.501 281.041C365.253 280.665 365.128 280.21 365.128 279.678C365.128 279.209 365.221 278.829 365.405 278.538C365.59 278.243 365.837 278.012 366.146 277.845C366.455 277.678 366.796 277.554 367.169 277.472C367.545 277.387 367.923 277.32 368.303 277.27C368.8 277.206 369.203 277.158 369.512 277.126C369.825 277.091 370.052 277.032 370.194 276.95C370.34 276.869 370.412 276.727 370.412 276.524V276.482C370.412 275.956 370.269 275.548 369.981 275.256C369.697 274.965 369.265 274.82 368.687 274.82C368.086 274.82 367.616 274.951 367.275 275.214C366.934 275.477 366.694 275.757 366.556 276.055L365.363 275.629C365.576 275.132 365.86 274.745 366.215 274.468C366.574 274.187 366.964 273.992 367.387 273.882C367.813 273.768 368.232 273.712 368.644 273.712C368.907 273.712 369.209 273.744 369.55 273.808C369.894 273.868 370.226 273.994 370.546 274.186C370.869 274.377 371.137 274.667 371.35 275.054C371.563 275.441 371.67 275.96 371.67 276.609V282H370.412V280.892H370.349C370.263 281.07 370.121 281.26 369.922 281.462C369.724 281.664 369.459 281.837 369.129 281.979C368.798 282.121 368.395 282.192 367.92 282.192ZM368.111 281.062C368.608 281.062 369.028 280.965 369.368 280.77C369.713 280.574 369.972 280.322 370.146 280.013C370.324 279.704 370.412 279.379 370.412 279.038V277.888C370.359 277.952 370.242 278.01 370.061 278.064C369.883 278.113 369.677 278.158 369.443 278.197C369.212 278.232 368.987 278.264 368.767 278.293C368.55 278.317 368.374 278.339 368.239 278.357C367.912 278.399 367.607 278.468 367.323 278.564C367.042 278.657 366.815 278.797 366.641 278.985C366.471 279.17 366.385 279.422 366.385 279.741C366.385 280.178 366.547 280.509 366.87 280.732C367.197 280.952 367.611 281.062 368.111 281.062ZM377.054 282.17C376.372 282.17 375.77 281.998 375.248 281.654C374.726 281.306 374.317 280.816 374.023 280.184C373.728 279.548 373.581 278.797 373.581 277.93C373.581 277.071 373.728 276.325 374.023 275.693C374.317 275.061 374.728 274.573 375.253 274.228C375.779 273.884 376.386 273.712 377.075 273.712C377.608 273.712 378.028 273.8 378.337 273.978C378.65 274.152 378.888 274.351 379.051 274.575C379.218 274.795 379.348 274.976 379.44 275.118H379.546V271.091H380.804V282H379.589V280.743H379.44C379.348 280.892 379.216 281.08 379.046 281.308C378.875 281.531 378.632 281.732 378.316 281.909C378 282.083 377.579 282.17 377.054 282.17ZM377.224 281.041C377.728 281.041 378.154 280.91 378.502 280.647C378.85 280.381 379.115 280.013 379.296 279.544C379.477 279.072 379.568 278.527 379.568 277.909C379.568 277.298 379.479 276.764 379.301 276.306C379.124 275.844 378.861 275.485 378.513 275.23C378.165 274.971 377.735 274.841 377.224 274.841C376.691 274.841 376.247 274.978 375.892 275.251C375.541 275.521 375.276 275.888 375.099 276.354C374.925 276.815 374.838 277.334 374.838 277.909C374.838 278.491 374.926 279.021 375.104 279.496C375.285 279.969 375.551 280.345 375.903 280.626C376.258 280.903 376.698 281.041 377.224 281.041ZM387.499 285.068V273.818H388.714V275.118H388.863C388.955 274.976 389.083 274.795 389.246 274.575C389.413 274.351 389.651 274.152 389.96 273.978C390.273 273.8 390.695 273.712 391.228 273.712C391.917 273.712 392.524 273.884 393.05 274.228C393.575 274.573 393.985 275.061 394.28 275.693C394.575 276.325 394.722 277.071 394.722 277.93C394.722 278.797 394.575 279.548 394.28 280.184C393.985 280.816 393.577 281.306 393.055 281.654C392.533 281.998 391.931 282.17 391.249 282.17C390.724 282.17 390.303 282.083 389.987 281.909C389.671 281.732 389.427 281.531 389.257 281.308C389.087 281.08 388.955 280.892 388.863 280.743H388.756V285.068H387.499ZM388.735 277.909C388.735 278.527 388.826 279.072 389.007 279.544C389.188 280.013 389.452 280.381 389.8 280.647C390.148 280.91 390.574 281.041 391.079 281.041C391.604 281.041 392.043 280.903 392.394 280.626C392.75 280.345 393.016 279.969 393.193 279.496C393.375 279.021 393.465 278.491 393.465 277.909C393.465 277.334 393.376 276.815 393.199 276.354C393.025 275.888 392.76 275.521 392.405 275.251C392.054 274.978 391.611 274.841 391.079 274.841C390.567 274.841 390.138 274.971 389.79 275.23C389.442 275.485 389.179 275.844 389.001 276.306C388.824 276.764 388.735 277.298 388.735 277.909ZM396.64 282V273.818H397.854V275.054H397.94C398.089 274.649 398.359 274.321 398.749 274.069C399.14 273.816 399.58 273.69 400.07 273.69C400.163 273.69 400.278 273.692 400.416 273.696C400.555 273.699 400.66 273.705 400.731 273.712V274.99C400.688 274.979 400.59 274.963 400.438 274.942C400.289 274.917 400.131 274.905 399.964 274.905C399.566 274.905 399.211 274.988 398.898 275.155C398.589 275.319 398.344 275.546 398.163 275.837C397.986 276.125 397.897 276.453 397.897 276.822V282H396.64ZM405.296 282.17C404.557 282.17 403.909 281.995 403.351 281.643C402.797 281.292 402.364 280.8 402.052 280.168C401.743 279.536 401.588 278.797 401.588 277.952C401.588 277.099 401.743 276.355 402.052 275.72C402.364 275.084 402.797 274.591 403.351 274.239C403.909 273.887 404.557 273.712 405.296 273.712C406.034 273.712 406.681 273.887 407.235 274.239C407.792 274.591 408.225 275.084 408.534 275.72C408.847 276.355 409.003 277.099 409.003 277.952C409.003 278.797 408.847 279.536 408.534 280.168C408.225 280.8 407.792 281.292 407.235 281.643C406.681 281.995 406.034 282.17 405.296 282.17ZM405.296 281.041C405.857 281.041 406.318 280.897 406.681 280.61C407.043 280.322 407.311 279.944 407.485 279.475C407.659 279.006 407.746 278.499 407.746 277.952C407.746 277.405 407.659 276.895 407.485 276.423C407.311 275.951 407.043 275.569 406.681 275.278C406.318 274.987 405.857 274.841 405.296 274.841C404.735 274.841 404.273 274.987 403.911 275.278C403.549 275.569 403.28 275.951 403.106 276.423C402.932 276.895 402.845 277.405 402.845 277.952C402.845 278.499 402.932 279.006 403.106 279.475C403.28 279.944 403.549 280.322 403.911 280.61C404.273 280.897 404.735 281.041 405.296 281.041ZM414.566 273.818V274.884H410.155V273.818H414.566ZM411.476 282V272.689C411.476 272.22 411.586 271.83 411.806 271.517C412.026 271.205 412.312 270.97 412.664 270.814C413.015 270.658 413.387 270.58 413.777 270.58C414.086 270.58 414.338 270.604 414.534 270.654C414.729 270.704 414.874 270.75 414.97 270.793L414.608 271.879C414.544 271.858 414.455 271.831 414.342 271.799C414.232 271.767 414.086 271.751 413.905 271.751C413.49 271.751 413.189 271.856 413.005 272.066C412.824 272.275 412.733 272.582 412.733 272.987V282H411.476ZM416.327 282V273.818H417.584V282H416.327ZM416.967 272.455C416.722 272.455 416.51 272.371 416.333 272.204C416.159 272.037 416.072 271.837 416.072 271.602C416.072 271.368 416.159 271.167 416.333 271C416.51 270.833 416.722 270.75 416.967 270.75C417.212 270.75 417.421 270.833 417.595 271C417.773 271.167 417.861 271.368 417.861 271.602C417.861 271.837 417.773 272.037 417.595 272.204C417.421 272.371 417.212 272.455 416.967 272.455ZM421.144 271.091V282H419.887V271.091H421.144ZM426.877 282.17C426.089 282.17 425.408 281.996 424.837 281.648C424.269 281.297 423.83 280.807 423.521 280.178C423.216 279.546 423.063 278.811 423.063 277.973C423.063 277.135 423.216 276.396 423.521 275.757C423.83 275.114 424.26 274.614 424.81 274.255C425.364 273.893 426.01 273.712 426.749 273.712C427.175 273.712 427.596 273.783 428.011 273.925C428.427 274.067 428.805 274.298 429.146 274.617C429.487 274.933 429.759 275.352 429.961 275.874C430.163 276.396 430.265 277.039 430.265 277.803V278.335H423.958V277.249H428.986C428.986 276.787 428.894 276.375 428.709 276.013C428.528 275.651 428.269 275.365 427.932 275.155C427.598 274.946 427.204 274.841 426.749 274.841C426.248 274.841 425.815 274.965 425.449 275.214C425.087 275.459 424.808 275.778 424.613 276.173C424.418 276.567 424.32 276.989 424.32 277.44V278.165C424.32 278.783 424.427 279.306 424.64 279.736C424.856 280.162 425.156 280.487 425.54 280.711C425.923 280.931 426.369 281.041 426.877 281.041C427.207 281.041 427.505 280.995 427.772 280.903C428.042 280.807 428.274 280.665 428.47 280.477C428.665 280.285 428.816 280.047 428.922 279.763L430.137 280.104C430.009 280.516 429.794 280.878 429.492 281.19C429.19 281.499 428.818 281.741 428.374 281.915C427.93 282.085 427.431 282.17 426.877 282.17ZM364.148 300.192C363.629 300.192 363.159 300.094 362.736 299.899C362.313 299.7 361.978 299.414 361.729 299.041C361.481 298.665 361.356 298.21 361.356 297.678C361.356 297.209 361.449 296.829 361.633 296.538C361.818 296.243 362.065 296.012 362.374 295.845C362.683 295.678 363.024 295.554 363.397 295.472C363.773 295.387 364.151 295.32 364.531 295.27C365.028 295.206 365.431 295.158 365.74 295.126C366.053 295.091 366.28 295.032 366.422 294.95C366.568 294.869 366.64 294.727 366.64 294.524V294.482C366.64 293.956 366.497 293.548 366.209 293.256C365.925 292.965 365.493 292.82 364.915 292.82C364.314 292.82 363.844 292.951 363.503 293.214C363.162 293.477 362.922 293.757 362.784 294.055L361.591 293.629C361.804 293.132 362.088 292.745 362.443 292.468C362.802 292.187 363.192 291.992 363.615 291.882C364.041 291.768 364.46 291.712 364.872 291.712C365.135 291.712 365.437 291.744 365.778 291.808C366.122 291.868 366.454 291.994 366.774 292.186C367.097 292.377 367.365 292.667 367.578 293.054C367.791 293.441 367.898 293.96 367.898 294.609V300H366.64V298.892H366.577C366.491 299.07 366.349 299.26 366.15 299.462C365.952 299.664 365.687 299.837 365.357 299.979C365.027 300.121 364.623 300.192 364.148 300.192ZM364.339 299.062C364.837 299.062 365.256 298.965 365.596 298.77C365.941 298.574 366.2 298.322 366.374 298.013C366.552 297.704 366.64 297.379 366.64 297.038V295.888C366.587 295.952 366.47 296.01 366.289 296.064C366.111 296.113 365.905 296.158 365.671 296.197C365.44 296.232 365.215 296.264 364.995 296.293C364.778 296.317 364.602 296.339 364.467 296.357C364.14 296.399 363.835 296.468 363.551 296.564C363.27 296.657 363.043 296.797 362.869 296.985C362.699 297.17 362.614 297.422 362.614 297.741C362.614 298.178 362.775 298.509 363.098 298.732C363.425 298.952 363.839 299.062 364.339 299.062ZM371.449 295.078V300H370.192V291.818H371.407V293.097H371.513C371.705 292.681 371.996 292.347 372.387 292.095C372.777 291.839 373.282 291.712 373.899 291.712C374.453 291.712 374.938 291.825 375.354 292.053C375.769 292.276 376.092 292.617 376.323 293.075C376.554 293.53 376.669 294.105 376.669 294.801V300H375.412V294.886C375.412 294.244 375.245 293.743 374.912 293.384C374.578 293.022 374.12 292.841 373.537 292.841C373.136 292.841 372.777 292.928 372.461 293.102C372.149 293.276 371.902 293.53 371.721 293.864C371.54 294.197 371.449 294.602 371.449 295.078ZM381.374 300.192C380.856 300.192 380.385 300.094 379.963 299.899C379.54 299.7 379.204 299.414 378.956 299.041C378.707 298.665 378.583 298.21 378.583 297.678C378.583 297.209 378.675 296.829 378.86 296.538C379.045 296.243 379.291 296.012 379.6 295.845C379.909 295.678 380.25 295.554 380.623 295.472C381 295.387 381.378 295.32 381.758 295.27C382.255 295.206 382.658 295.158 382.967 295.126C383.279 295.091 383.507 295.032 383.649 294.95C383.794 294.869 383.867 294.727 383.867 294.524V294.482C383.867 293.956 383.723 293.548 383.436 293.256C383.152 292.965 382.72 292.82 382.141 292.82C381.541 292.82 381.071 292.951 380.73 293.214C380.389 293.477 380.149 293.757 380.011 294.055L378.817 293.629C379.03 293.132 379.314 292.745 379.67 292.468C380.028 292.187 380.419 291.992 380.841 291.882C381.268 291.768 381.687 291.712 382.099 291.712C382.361 291.712 382.663 291.744 383.004 291.808C383.349 291.868 383.681 291.994 384 292.186C384.323 292.377 384.591 292.667 384.805 293.054C385.018 293.441 385.124 293.96 385.124 294.609V300H383.867V298.892H383.803C383.718 299.07 383.576 299.26 383.377 299.462C383.178 299.664 382.914 299.837 382.583 299.979C382.253 300.121 381.85 300.192 381.374 300.192ZM381.566 299.062C382.063 299.062 382.482 298.965 382.823 298.77C383.167 298.574 383.427 298.322 383.601 298.013C383.778 297.704 383.867 297.379 383.867 297.038V295.888C383.814 295.952 383.697 296.01 383.515 296.064C383.338 296.113 383.132 296.158 382.898 296.197C382.667 296.232 382.441 296.264 382.221 296.293C382.004 296.317 381.829 296.339 381.694 296.357C381.367 296.399 381.062 296.468 380.778 296.564C380.497 296.657 380.27 296.797 380.096 296.985C379.925 297.17 379.84 297.422 379.84 297.741C379.84 298.178 380.002 298.509 380.325 298.732C380.652 298.952 381.065 299.062 381.566 299.062ZM388.676 289.091V300H387.419V289.091H388.676ZM391.788 303.068C391.575 303.068 391.385 303.05 391.218 303.015C391.051 302.983 390.936 302.951 390.872 302.919L391.191 301.811C391.497 301.889 391.767 301.918 392.001 301.896C392.235 301.875 392.443 301.77 392.624 301.582C392.809 301.397 392.977 301.097 393.13 300.682L393.365 300.043L390.339 291.818H391.703L393.961 298.338H394.046L396.305 291.818H397.669L394.196 301.193C394.039 301.616 393.846 301.966 393.615 302.243C393.384 302.523 393.116 302.731 392.811 302.866C392.509 303.001 392.168 303.068 391.788 303.068ZM405.123 293.651L403.994 293.97C403.923 293.782 403.818 293.599 403.68 293.422C403.545 293.24 403.36 293.091 403.126 292.974C402.891 292.857 402.591 292.798 402.226 292.798C401.725 292.798 401.308 292.914 400.974 293.145C400.644 293.372 400.478 293.661 400.478 294.013C400.478 294.325 400.592 294.572 400.819 294.753C401.047 294.934 401.402 295.085 401.885 295.206L403.099 295.504C403.831 295.682 404.376 295.953 404.734 296.319C405.093 296.681 405.272 297.148 405.272 297.72C405.272 298.189 405.137 298.608 404.868 298.977C404.601 299.347 404.228 299.638 403.749 299.851C403.27 300.064 402.712 300.17 402.076 300.17C401.242 300.17 400.551 299.989 400.004 299.627C399.457 299.265 399.111 298.736 398.966 298.04L400.159 297.741C400.272 298.182 400.487 298.512 400.803 298.732C401.123 298.952 401.54 299.062 402.055 299.062C402.641 299.062 403.106 298.938 403.451 298.69C403.799 298.437 403.973 298.136 403.973 297.784C403.973 297.5 403.873 297.262 403.674 297.07C403.476 296.875 403.17 296.729 402.758 296.634L401.395 296.314C400.645 296.136 400.095 295.861 399.743 295.488C399.395 295.112 399.221 294.641 399.221 294.077C399.221 293.615 399.351 293.207 399.61 292.852C399.873 292.496 400.23 292.218 400.681 292.015C401.135 291.813 401.65 291.712 402.226 291.712C403.035 291.712 403.671 291.889 404.133 292.244C404.598 292.599 404.928 293.068 405.123 293.651ZM407.165 300V291.818H408.422V300H407.165ZM407.804 290.455C407.559 290.455 407.348 290.371 407.17 290.204C406.996 290.037 406.909 289.837 406.909 289.602C406.909 289.368 406.996 289.167 407.17 289C407.348 288.833 407.559 288.75 407.804 288.75C408.049 288.75 408.258 288.833 408.432 289C408.61 289.167 408.699 289.368 408.699 289.602C408.699 289.837 408.61 290.037 408.432 290.204C408.258 290.371 408.049 290.455 407.804 290.455ZM416.52 293.651L415.39 293.97C415.319 293.782 415.215 293.599 415.076 293.422C414.941 293.24 414.757 293.091 414.522 292.974C414.288 292.857 413.988 292.798 413.622 292.798C413.121 292.798 412.704 292.914 412.37 293.145C412.04 293.372 411.875 293.661 411.875 294.013C411.875 294.325 411.989 294.572 412.216 294.753C412.443 294.934 412.798 295.085 413.281 295.206L414.496 295.504C415.227 295.682 415.772 295.953 416.131 296.319C416.49 296.681 416.669 297.148 416.669 297.72C416.669 298.189 416.534 298.608 416.264 298.977C415.998 299.347 415.625 299.638 415.145 299.851C414.666 300.064 414.109 300.17 413.473 300.17C412.638 300.17 411.948 299.989 411.401 299.627C410.854 299.265 410.508 298.736 410.362 298.04L411.555 297.741C411.669 298.182 411.884 298.512 412.2 298.732C412.519 298.952 412.937 299.062 413.452 299.062C414.038 299.062 414.503 298.938 414.847 298.69C415.195 298.437 415.369 298.136 415.369 297.784C415.369 297.5 415.27 297.262 415.071 297.07C414.872 296.875 414.567 296.729 414.155 296.634L412.791 296.314C412.042 296.136 411.491 295.861 411.14 295.488C410.792 295.112 410.618 294.641 410.618 294.077C410.618 293.615 410.747 293.207 411.007 292.852C411.269 292.496 411.626 292.218 412.077 292.015C412.532 291.813 413.047 291.712 413.622 291.712C414.432 291.712 415.067 291.889 415.529 292.244C415.994 292.599 416.324 293.068 416.52 293.651Z" fill="#2488B3"/>
<path d="M32.5364 289.5H31.2154C31.1373 289.12 31.0006 288.786 30.8053 288.499C30.6135 288.211 30.3791 287.969 30.1021 287.774C29.8287 287.575 29.5251 287.426 29.1913 287.327C28.8575 287.227 28.5095 287.178 28.1472 287.178C27.4867 287.178 26.8884 287.344 26.3521 287.678C25.8195 288.012 25.3951 288.504 25.0791 289.154C24.7666 289.804 24.6103 290.601 24.6103 291.545C24.6103 292.49 24.7666 293.287 25.0791 293.937C25.3951 294.587 25.8195 295.079 26.3521 295.413C26.8884 295.746 27.4867 295.913 28.1472 295.913C28.5095 295.913 28.8575 295.864 29.1913 295.764C29.5251 295.665 29.8287 295.517 30.1021 295.322C30.3791 295.123 30.6135 294.88 30.8053 294.592C31.0006 294.301 31.1373 293.967 31.2154 293.591H32.5364C32.437 294.148 32.2559 294.647 31.9931 295.088C31.7303 295.528 31.4036 295.903 31.013 296.212C30.6224 296.517 30.1838 296.75 29.6973 296.909C29.2144 297.069 28.6977 297.149 28.1472 297.149C27.2168 297.149 26.3894 296.922 25.665 296.467C24.9406 296.013 24.3706 295.366 23.9551 294.528C23.5396 293.69 23.3319 292.696 23.3319 291.545C23.3319 290.395 23.5396 289.401 23.9551 288.562C24.3706 287.724 24.9406 287.078 25.665 286.624C26.3894 286.169 27.2168 285.942 28.1472 285.942C28.6977 285.942 29.2144 286.022 29.6973 286.181C30.1838 286.341 30.6224 286.576 31.013 286.885C31.4036 287.19 31.7303 287.563 31.9931 288.003C32.2559 288.44 32.437 288.939 32.5364 289.5ZM39.6569 293.655V288.818H40.914V297H39.6569V295.615H39.5717C39.3799 296.031 39.0816 296.384 38.6768 296.675C38.272 296.963 37.7606 297.107 37.1427 297.107C36.6313 297.107 36.1768 296.995 35.7791 296.771C35.3813 296.544 35.0688 296.203 34.8416 295.748C34.6143 295.29 34.5007 294.713 34.5007 294.017V288.818H35.7578V293.932C35.7578 294.528 35.9247 295.004 36.2585 295.359C36.5958 295.714 37.0255 295.892 37.5475 295.892C37.86 295.892 38.1779 295.812 38.501 295.652C38.8277 295.493 39.1012 295.248 39.3213 294.917C39.5451 294.587 39.6569 294.166 39.6569 293.655ZM49.0119 290.651L47.8827 290.97C47.8117 290.782 47.7069 290.599 47.5684 290.422C47.4335 290.24 47.2488 290.091 47.0144 289.974C46.7801 289.857 46.48 289.798 46.1142 289.798C45.6135 289.798 45.1962 289.914 44.8624 290.145C44.5322 290.372 44.3671 290.661 44.3671 291.013C44.3671 291.325 44.4807 291.572 44.708 291.753C44.9352 291.934 45.2903 292.085 45.7733 292.206L46.9878 292.504C47.7193 292.682 48.2644 292.953 48.6231 293.319C48.9818 293.681 49.1611 294.148 49.1611 294.72C49.1611 295.189 49.0261 295.608 48.7563 295.977C48.4899 296.347 48.1171 296.638 47.6377 296.851C47.1582 297.064 46.6007 297.17 45.9651 297.17C45.1305 297.17 44.4399 296.989 43.893 296.627C43.3461 296.265 42.9999 295.736 42.8543 295.04L44.0475 294.741C44.1611 295.182 44.3759 295.512 44.692 295.732C45.0116 295.952 45.4288 296.062 45.9438 296.062C46.5297 296.062 46.9949 295.938 47.3394 295.69C47.6874 295.437 47.8614 295.136 47.8614 294.784C47.8614 294.5 47.7619 294.262 47.5631 294.07C47.3642 293.875 47.0588 293.729 46.6469 293.634L45.2832 293.314C44.534 293.136 43.9835 292.861 43.632 292.488C43.284 292.112 43.11 291.641 43.11 291.077C43.11 290.615 43.2396 290.207 43.4988 289.852C43.7616 289.496 44.1185 289.218 44.5695 289.015C45.024 288.813 45.5389 288.712 46.1142 288.712C46.9239 288.712 47.5595 288.889 48.0212 289.244C48.4864 289.599 48.8166 290.068 49.0119 290.651ZM54.6116 288.818V289.884H50.3716V288.818H54.6116ZM51.6074 286.858H52.8645V294.656C52.8645 295.011 52.916 295.278 53.019 295.455C53.1255 295.629 53.2604 295.746 53.4238 295.807C53.5907 295.864 53.7665 295.892 53.9511 295.892C54.0896 295.892 54.2033 295.885 54.292 295.871C54.3808 295.853 54.4518 295.839 54.5051 295.828L54.7608 296.957C54.6756 296.989 54.5566 297.021 54.4039 297.053C54.2512 297.089 54.0577 297.107 53.8233 297.107C53.4682 297.107 53.1202 297.03 52.7793 296.877C52.4419 296.725 52.1614 296.492 51.9376 296.18C51.7175 295.867 51.6074 295.473 51.6074 294.997V286.858ZM59.7386 297.17C59 297.17 58.3519 296.995 57.7943 296.643C57.2404 296.292 56.8071 295.8 56.4946 295.168C56.1857 294.536 56.0312 293.797 56.0312 292.952C56.0312 292.099 56.1857 291.355 56.4946 290.72C56.8071 290.084 57.2404 289.591 57.7943 289.239C58.3519 288.887 59 288.712 59.7386 288.712C60.4772 288.712 61.1235 288.887 61.6775 289.239C62.235 289.591 62.6683 290.084 62.9772 290.72C63.2897 291.355 63.446 292.099 63.446 292.952C63.446 293.797 63.2897 294.536 62.9772 295.168C62.6683 295.8 62.235 296.292 61.6775 296.643C61.1235 296.995 60.4772 297.17 59.7386 297.17ZM59.7386 296.041C60.2997 296.041 60.7613 295.897 61.1235 295.61C61.4858 295.322 61.7539 294.944 61.9279 294.475C62.1019 294.006 62.1889 293.499 62.1889 292.952C62.1889 292.405 62.1019 291.895 61.9279 291.423C61.7539 290.951 61.4858 290.569 61.1235 290.278C60.7613 289.987 60.2997 289.841 59.7386 289.841C59.1775 289.841 58.7159 289.987 58.3536 290.278C57.9914 290.569 57.7233 290.951 57.5493 291.423C57.3753 291.895 57.2883 292.405 57.2883 292.952C57.2883 293.499 57.3753 294.006 57.5493 294.475C57.7233 294.944 57.9914 295.322 58.3536 295.61C58.7159 295.897 59.1775 296.041 59.7386 296.041ZM65.3649 297V288.818H66.5794V290.097H66.6859C66.8564 289.66 67.1316 289.321 67.5116 289.079C67.8916 288.834 68.3479 288.712 68.8805 288.712C69.4203 288.712 69.8695 288.834 70.2282 289.079C70.5904 289.321 70.8727 289.66 71.0752 290.097H71.1604C71.3699 289.674 71.6842 289.338 72.1032 289.09C72.5222 288.838 73.0247 288.712 73.6107 288.712C74.3422 288.712 74.9406 288.941 75.4058 289.399C75.871 289.853 76.1036 290.562 76.1036 291.524V297H74.8465V291.524C74.8465 290.92 74.6813 290.489 74.3511 290.23C74.0208 289.971 73.632 289.841 73.1845 289.841C72.6092 289.841 72.1636 290.015 71.8475 290.363C71.5315 290.707 71.3734 291.144 71.3734 291.673V297H70.095V291.396C70.095 290.931 69.9441 290.556 69.6423 290.272C69.3404 289.985 68.9516 289.841 68.4757 289.841C68.149 289.841 67.8436 289.928 67.5595 290.102C67.279 290.276 67.0517 290.517 66.8777 290.826C66.7073 291.132 66.622 291.485 66.622 291.886V297H65.3649ZM81.8324 297.17C81.0441 297.17 80.364 296.996 79.7923 296.648C79.2241 296.297 78.7856 295.807 78.4766 295.178C78.1712 294.546 78.0185 293.811 78.0185 292.973C78.0185 292.135 78.1712 291.396 78.4766 290.757C78.7856 290.114 79.2152 289.614 79.7657 289.255C80.3196 288.893 80.966 288.712 81.7046 288.712C82.1307 288.712 82.5515 288.783 82.967 288.925C83.3825 289.067 83.7607 289.298 84.1016 289.617C84.4425 289.933 84.7142 290.352 84.9166 290.874C85.119 291.396 85.2202 292.039 85.2202 292.803V293.335H78.9134V292.249H83.9418C83.9418 291.787 83.8495 291.375 83.6648 291.013C83.4837 290.651 83.2245 290.365 82.8871 290.155C82.5533 289.946 82.1591 289.841 81.7046 289.841C81.2039 289.841 80.7706 289.965 80.4049 290.214C80.0427 290.459 79.7639 290.778 79.5686 291.173C79.3733 291.567 79.2756 291.989 79.2756 292.44V293.165C79.2756 293.783 79.3821 294.306 79.5952 294.736C79.8118 295.162 80.1119 295.487 80.4954 295.711C80.879 295.931 81.3246 296.041 81.8324 296.041C82.1627 296.041 82.461 295.995 82.7273 295.903C82.9972 295.807 83.2298 295.665 83.4251 295.477C83.6204 295.285 83.7714 295.047 83.8779 294.763L85.0924 295.104C84.9645 295.516 84.7497 295.878 84.4478 296.19C84.146 296.499 83.7731 296.741 83.3292 296.915C82.8853 297.085 82.3864 297.17 81.8324 297.17ZM87.1325 297V288.818H88.347V290.054H88.4322C88.5814 289.649 88.8513 289.321 89.2419 289.069C89.6325 288.816 90.0728 288.69 90.5629 288.69C90.6552 288.69 90.7706 288.692 90.9091 288.696C91.0476 288.699 91.1524 288.705 91.2234 288.712V289.99C91.1808 289.979 91.0831 289.963 90.9304 289.942C90.7813 289.917 90.6233 289.905 90.4564 289.905C90.0586 289.905 89.7035 289.988 89.391 290.155C89.0821 290.319 88.837 290.546 88.6559 290.837C88.4784 291.125 88.3896 291.453 88.3896 291.822V297H87.1325ZM39.7874 306.818C39.7235 306.278 39.4643 305.859 39.0097 305.561C38.5552 305.263 37.9976 305.114 37.3371 305.114C36.8542 305.114 36.4316 305.192 36.0694 305.348C35.7107 305.504 35.4302 305.719 35.2278 305.993C35.0289 306.266 34.9295 306.577 34.9295 306.925C34.9295 307.216 34.9987 307.466 35.1372 307.676C35.2793 307.882 35.4604 308.054 35.6805 308.192C35.9007 308.327 36.1315 308.439 36.373 308.528C36.6145 308.613 36.8364 308.683 37.0388 308.736L38.1468 309.034C38.4309 309.109 38.7469 309.212 39.0949 309.343C39.4465 309.474 39.7821 309.654 40.1017 309.881C40.4248 310.105 40.6912 310.392 40.9007 310.744C41.1102 311.096 41.215 311.527 41.215 312.038C41.215 312.628 41.0605 313.161 40.7516 313.636C40.4462 314.112 39.9987 314.49 39.4092 314.771C38.8233 315.051 38.1113 315.192 37.2732 315.192C36.492 315.192 35.8155 315.066 35.2437 314.814C34.6756 314.561 34.2281 314.21 33.9014 313.759C33.5783 313.308 33.3954 312.784 33.3528 312.188H34.7164C34.7519 312.599 34.8904 312.94 35.1319 313.21C35.3769 313.477 35.6859 313.675 36.0587 313.807C36.4351 313.935 36.84 313.999 37.2732 313.999C37.7775 313.999 38.2302 313.917 38.6315 313.754C39.0328 313.587 39.3506 313.356 39.585 313.061C39.8194 312.763 39.9366 312.415 39.9366 312.017C39.9366 311.655 39.8354 311.36 39.6329 311.133C39.4305 310.906 39.1642 310.721 38.8339 310.579C38.5037 310.437 38.1468 310.312 37.7633 310.206L36.4209 309.822C35.5687 309.577 34.894 309.228 34.3968 308.773C33.8996 308.319 33.6511 307.724 33.6511 306.989C33.6511 306.378 33.8162 305.845 34.1464 305.391C34.4802 304.933 34.9277 304.577 35.4888 304.325C36.0534 304.07 36.6837 303.942 37.3797 303.942C38.0829 303.942 38.7079 304.068 39.2547 304.32C39.8016 304.569 40.2349 304.909 40.5545 305.343C40.8776 305.776 41.0481 306.268 41.0658 306.818H39.7874ZM48.3727 311.655V306.818H49.6298V315H48.3727V313.615H48.2875C48.0957 314.031 47.7975 314.384 47.3926 314.675C46.9878 314.963 46.4764 315.107 45.8585 315.107C45.3472 315.107 44.8926 314.995 44.4949 314.771C44.0972 314.544 43.7847 314.203 43.5574 313.748C43.3301 313.29 43.2165 312.713 43.2165 312.017V306.818H44.4736V311.932C44.4736 312.528 44.6405 313.004 44.9743 313.359C45.3117 313.714 45.7413 313.892 46.2634 313.892C46.5759 313.892 46.8937 313.812 47.2168 313.652C47.5435 313.493 47.817 313.248 48.0372 312.917C48.2609 312.587 48.3727 312.166 48.3727 311.655ZM51.9323 315V306.818H53.1468V308.054H53.232C53.3812 307.649 53.6511 307.321 54.0417 307.069C54.4323 306.816 54.8726 306.69 55.3627 306.69C55.455 306.69 55.5704 306.692 55.7089 306.696C55.8474 306.699 55.9522 306.705 56.0232 306.712V307.99C55.9806 307.979 55.8829 307.963 55.7302 307.942C55.5811 307.917 55.4231 307.905 55.2562 307.905C54.8584 307.905 54.5033 307.988 54.1908 308.155C53.8819 308.319 53.6369 308.546 53.4557 308.837C53.2782 309.125 53.1894 309.453 53.1894 309.822V315H51.9323ZM64.4527 306.818L61.4272 315H60.1487L57.1232 306.818H58.4868L60.7453 313.338H60.8306L63.0891 306.818H64.4527ZM69.2494 315.17C68.4611 315.17 67.781 314.996 67.2093 314.648C66.6411 314.297 66.2025 313.807 65.8936 313.178C65.5882 312.546 65.4355 311.811 65.4355 310.973C65.4355 310.135 65.5882 309.396 65.8936 308.757C66.2025 308.114 66.6322 307.614 67.1827 307.255C67.7366 306.893 68.3829 306.712 69.1216 306.712C69.5477 306.712 69.9685 306.783 70.384 306.925C70.7995 307.067 71.1777 307.298 71.5186 307.617C71.8595 307.933 72.1312 308.352 72.3336 308.874C72.536 309.396 72.6372 310.039 72.6372 310.803V311.335H66.3304V310.249H71.3588C71.3588 309.787 71.2665 309.375 71.0818 309.013C70.9007 308.651 70.6415 308.365 70.3041 308.155C69.9703 307.946 69.5761 307.841 69.1216 307.841C68.6209 307.841 68.1876 307.965 67.8219 308.214C67.4597 308.459 67.1809 308.778 66.9856 309.173C66.7903 309.567 66.6926 309.989 66.6926 310.44V311.165C66.6926 311.783 66.7991 312.306 67.0122 312.736C67.2288 313.162 67.5289 313.487 67.9124 313.711C68.2959 313.931 68.7416 314.041 69.2494 314.041C69.5797 314.041 69.878 313.995 70.1443 313.903C70.4142 313.807 70.6468 313.665 70.8421 313.477C71.0374 313.285 71.1883 313.047 71.2949 312.763L72.5094 313.104C72.3815 313.516 72.1667 313.878 71.8648 314.19C71.563 314.499 71.1901 314.741 70.7462 314.915C70.3023 315.085 69.8034 315.17 69.2494 315.17ZM75.1101 318.068C74.8971 318.068 74.7071 318.05 74.5402 318.015C74.3733 317.983 74.2579 317.951 74.1939 317.919L74.5135 316.811C74.8189 316.889 75.0888 316.918 75.3232 316.896C75.5576 316.875 75.7653 316.77 75.9464 316.582C76.1311 316.397 76.2998 316.097 76.4525 315.682L76.6868 315.043L73.6613 306.818H75.0249L77.2834 313.338H77.3687L79.6272 306.818H80.9908L77.5178 316.193C77.3616 316.616 77.168 316.966 76.9372 317.243C76.7064 317.523 76.4383 317.731 76.1329 317.866C75.831 318.001 75.4901 318.068 75.1101 318.068Z" fill="#2488B3"/>
<path d="M204.411 1.42978L178.411 20.3927C178.153 20.581 178 20.8812 178 21.2007V44.7993C178 45.1188 178.153 45.419 178.411 45.6073L204.411 64.5702C204.762 64.8263 205.238 64.8263 205.589 64.5702L231.589 45.6073C231.847 45.419 232 45.1188 232 44.7993V21.2007C232 20.8812 231.847 20.581 231.589 20.3927L205.589 1.42978C205.238 1.1737 204.762 1.1737 204.411 1.42978Z" fill="#2488B3" stroke="#2488B3" stroke-width="2" stroke-linecap="round"/>
<path d="M379.411 40.4298L353.411 59.3927C353.153 59.581 353 59.8812 353 60.2007V83.7993C353 84.1188 353.153 84.419 353.411 84.6073L379.411 103.57C379.762 103.826 380.238 103.826 380.589 103.57L406.589 84.6073C406.847 84.419 407 84.1188 407 83.7993V60.2007C407 59.8812 406.847 59.581 406.589 59.3927L380.589 40.4298C380.238 40.1737 379.762 40.1737 379.411 40.4298Z" fill="#2488B3" stroke="#2488B3" stroke-width="2" stroke-linecap="round"/>
<path d="M387.411 196.43L361.411 215.393C361.153 215.581 361 215.881 361 216.201V239.799C361 240.119 361.153 240.419 361.411 240.607L387.411 259.57C387.762 259.826 388.238 259.826 388.589 259.57L414.589 240.607C414.847 240.419 415 240.119 415 239.799V216.201C415 215.881 414.847 215.581 414.589 215.393L388.589 196.43C388.238 196.174 387.762 196.174 387.411 196.43Z" fill="#2488B3" stroke="#2488B3" stroke-width="2" stroke-linecap="round"/>
<circle cx="375.5" cy="236.5" r="3.5" fill="#F5F5F5"/>
<circle cx="386.5" cy="220.5" r="3.5" fill="#F5F5F5"/>
<circle cx="393.5" cy="233.5" r="3.5" fill="#F5F5F5"/>
<circle cx="404.5" cy="219.5" r="3.5" fill="#F5F5F5"/>
<line x1="375.58" y1="236.728" x2="386.58" y2="219.728" stroke="#F5F5F5"/>
<line x1="387.447" y1="220.776" x2="393.447" y2="232.776" stroke="#F5F5F5"/>
<line x1="394.593" y1="233.709" x2="404.593" y2="219.709" stroke="#F5F5F5"/>
<rect x="174" y="201" width="75" height="56" fill="#D9D9D9"/>
<rect x="202" y="180" width="75" height="56" fill="#D9D9D9" fill-opacity="0.7"/>
<path fill-rule="evenodd" clip-rule="evenodd" d="M79 202C79 202.552 79.4477 203 80 203H86C87.1046 203 88 203.895 88 205V261C88 262.105 87.1046 263 86 263H27C25.8954 263 25 262.105 25 261L25 205C25 203.895 25.8954 203 27 203H36C36.5523 203 37 202.552 37 202V202C37 201.448 36.5523 201 36 201H25C23.8954 201 23 201.895 23 203V263C23 264.105 23.8954 265 25 265H88C89.1046 265 90 264.105 90 263V203C90 201.895 89.1046 201 88 201H80C79.4477 201 79 201.448 79 202V202Z" fill="#2488B3"/>
<rect x="41" y="198" width="35" height="8" rx="2" fill="#2488B3"/>
<circle cx="57" cy="197" r="6" fill="#2488B3"/>
<circle cx="56.5" cy="197.5" r="2.5" fill="#F5F5F5"/>
<circle cx="38.5" cy="223.5" r="5.5" fill="#2AB361"/>
<circle cx="38.5" cy="242.5" r="5.5" fill="#2AB361"/>
<path d="M36.1727 222.994C36.6913 224.061 37.8669 225.99 38.4207 225.173C38.9745 224.356 40.7858 222.051 41.6223 221" stroke="#F5F5F5" stroke-linecap="round"/>
<path d="M36.1727 242.994C36.6913 244.061 37.8669 245.99 38.4207 245.173C38.9745 244.356 40.7858 242.051 41.6223 241" stroke="#F5F5F5" stroke-linecap="round"/>
<line x1="51" y1="223.5" x2="76" y2="223.5" stroke="#2488B3"/>
<line x1="51" y1="238.5" x2="76" y2="238.5" stroke="#2488B3"/>
<line x1="45.9985" y1="230.637" x2="75.9977" y2="230.5" stroke="#2488B3"/>
<line x1="45.9977" y1="247.637" x2="75.997" y2="247.5" stroke="#2488B3"/>
<path d="M44.7955 85.8182V67.6364H45.9602V85.8182H44.7955ZM48.7159 73.0909C48.6307 72.3712 48.285 71.8125 47.679 71.4148C47.0729 71.017 46.3295 70.8182 45.4489 70.8182C44.8049 70.8182 44.2415 70.9223 43.7585 71.1307C43.2803 71.339 42.9063 71.6255 42.6364 71.9901C42.3712 72.3546 42.2386 72.7689 42.2386 73.233C42.2386 73.6212 42.331 73.955 42.5156 74.2344C42.705 74.509 42.9465 74.7386 43.2401 74.9233C43.5336 75.1032 43.8414 75.2524 44.1634 75.3707C44.4853 75.4844 44.7812 75.5767 45.0511 75.6477L46.5284 76.0455C46.9072 76.1449 47.3286 76.2822 47.7926 76.4574C48.2614 76.6326 48.7088 76.8717 49.1349 77.1747C49.5658 77.473 49.9209 77.8565 50.2003 78.3253C50.4796 78.794 50.6193 79.3693 50.6193 80.0511C50.6193 80.8371 50.4134 81.5473 50.0014 82.1818C49.5942 82.8163 48.9976 83.3205 48.2116 83.6946C47.4304 84.0687 46.4811 84.2557 45.3636 84.2557C44.322 84.2557 43.42 84.0876 42.6577 83.7514C41.9001 83.4152 41.3035 82.9465 40.8679 82.3452C40.437 81.7438 40.1932 81.0455 40.1364 80.25H41.9545C42.0019 80.7992 42.1866 81.2538 42.5085 81.6136C42.8352 81.9687 43.2472 82.2339 43.7443 82.4091C44.2462 82.5795 44.786 82.6648 45.3636 82.6648C46.036 82.6648 46.6397 82.5559 47.1747 82.3381C47.7098 82.1155 48.1335 81.8078 48.446 81.4148C48.7585 81.017 48.9148 80.553 48.9148 80.0227C48.9148 79.5398 48.7798 79.1468 48.5099 78.8438C48.2401 78.5407 47.8849 78.2945 47.4446 78.1051C47.0043 77.9157 46.5284 77.75 46.017 77.608L44.2273 77.0966C43.0909 76.7699 42.1913 76.3035 41.5284 75.6974C40.8655 75.0914 40.5341 74.2983 40.5341 73.3182C40.5341 72.5038 40.7543 71.7936 41.1946 71.1875C41.6397 70.5767 42.2363 70.1032 42.9844 69.767C43.7372 69.4261 44.5777 69.2557 45.5057 69.2557C46.4432 69.2557 47.2765 69.4238 48.0057 69.7599C48.7348 70.0914 49.3125 70.5459 49.7386 71.1236C50.1695 71.7012 50.3968 72.357 50.4205 73.0909H48.7159Z" fill="#F5F5F5"/>
<path fill-rule="evenodd" clip-rule="evenodd" d="M204.5 46C211.956 46 218 40.1797 218 33C218 25.8203 211.956 20 204.5 20C197.044 20 191 25.8203 191 33C191 40.1797 197.044 46 204.5 46ZM205 42C209.971 42 214 38.1944 214 33.5C214 28.8056 209.971 25 205 25C200.029 25 196 28.8056 196 33.5C196 38.1944 200.029 42 205 42Z" fill="#D9D9D9"/>
<rect x="189" y="33" width="33" height="15" fill="#2488B3"/>
<circle cx="205" cy="38" r="3" fill="#D9D9D9"/>
<path d="M212.738 16.9095L207.236 38.8483L202.894 37.2729L212.738 16.9095Z" fill="#D9D9D9"/>
<ellipse cx="379.5" cy="72" rx="8.5" ry="8" fill="#F5F5F5"/>
<line x1="379.5" y1="55.5" x2="379.5" y2="61.5" stroke="#F5F5F5" stroke-linecap="round"/>
<line x1="379.5" y1="83.5" x2="379.5" y2="89.5" stroke="#F5F5F5" stroke-linecap="round"/>
<line x1="389.644" y1="76.7074" x2="396.707" y2="79.3563" stroke="#F5F5F5" stroke-linecap="round"/>
<line x1="389.139" y1="67.3066" x2="394.307" y2="63.8613" stroke="#F5F5F5" stroke-linecap="round"/>
<line x1="365.139" y1="82.3066" x2="370.307" y2="78.8613" stroke="#F5F5F5" stroke-linecap="round"/>
<line x1="361.644" y1="64.7074" x2="368.707" y2="67.3563" stroke="#F5F5F5" stroke-linecap="round"/>
</svg>
