<svg width="438" height="304" viewBox="0 0 438 304" fill="none" xmlns="http://www.w3.org/2000/svg">
<rect x="139" y="141" width="170" height="141" rx="9" stroke="#2488B3" stroke-width="2"/>
<path d="M149.321 161V150.091H153.007C153.863 150.091 154.563 150.245 155.106 150.554C155.653 150.86 156.058 151.273 156.32 151.795C156.583 152.317 156.714 152.9 156.714 153.543C156.714 154.185 156.583 154.77 156.32 155.295C156.061 155.821 155.66 156.24 155.116 156.552C154.573 156.861 153.877 157.016 153.028 157.016H150.386V155.844H152.986C153.572 155.844 154.042 155.743 154.397 155.54C154.752 155.338 155.01 155.064 155.17 154.72C155.333 154.372 155.415 153.979 155.415 153.543C155.415 153.106 155.333 152.715 155.17 152.371C155.01 152.026 154.751 151.756 154.392 151.561C154.033 151.362 153.558 151.263 152.964 151.263H150.642V161H149.321ZM159.482 164.068C159.269 164.068 159.079 164.05 158.912 164.015C158.745 163.983 158.629 163.951 158.566 163.919L158.885 162.811C159.191 162.889 159.46 162.918 159.695 162.896C159.929 162.875 160.137 162.77 160.318 162.582C160.503 162.397 160.671 162.097 160.824 161.682L161.058 161.043L158.033 152.818H159.396L161.655 159.338H161.74L163.999 152.818H165.362L161.889 162.193C161.733 162.616 161.54 162.966 161.309 163.243C161.078 163.523 160.81 163.731 160.504 163.866C160.203 164.001 159.862 164.068 159.482 164.068ZM170.58 152.818V153.884H166.34V152.818H170.58ZM167.576 150.858H168.833V158.656C168.833 159.011 168.884 159.278 168.987 159.455C169.094 159.629 169.229 159.746 169.392 159.807C169.559 159.864 169.735 159.892 169.919 159.892C170.058 159.892 170.172 159.885 170.26 159.871C170.349 159.853 170.42 159.839 170.473 159.828L170.729 160.957C170.644 160.989 170.525 161.021 170.372 161.053C170.219 161.089 170.026 161.107 169.792 161.107C169.436 161.107 169.088 161.03 168.748 160.877C168.41 160.725 168.13 160.492 167.906 160.18C167.686 159.867 167.576 159.473 167.576 158.997V150.858ZM173.904 156.078V161H172.647V150.091H173.904V154.097H174.01C174.202 153.674 174.49 153.338 174.873 153.09C175.26 152.838 175.775 152.712 176.418 152.712C176.975 152.712 177.464 152.824 177.883 153.047C178.302 153.267 178.627 153.607 178.858 154.065C179.092 154.519 179.209 155.098 179.209 155.801V161H177.952V155.886C177.952 155.237 177.783 154.734 177.446 154.379C177.112 154.02 176.649 153.841 176.056 153.841C175.644 153.841 175.275 153.928 174.948 154.102C174.625 154.276 174.369 154.53 174.181 154.864C173.996 155.197 173.904 155.602 173.904 156.078ZM184.833 161.17C184.094 161.17 183.446 160.995 182.889 160.643C182.335 160.292 181.901 159.8 181.589 159.168C181.28 158.536 181.125 157.797 181.125 156.952C181.125 156.099 181.28 155.355 181.589 154.72C181.901 154.084 182.335 153.591 182.889 153.239C183.446 152.887 184.094 152.712 184.833 152.712C185.571 152.712 186.218 152.887 186.772 153.239C187.329 153.591 187.763 154.084 188.071 154.72C188.384 155.355 188.54 156.099 188.54 156.952C188.54 157.797 188.384 158.536 188.071 159.168C187.763 159.8 187.329 160.292 186.772 160.643C186.218 160.995 185.571 161.17 184.833 161.17ZM184.833 160.041C185.394 160.041 185.856 159.897 186.218 159.61C186.58 159.322 186.848 158.944 187.022 158.475C187.196 158.006 187.283 157.499 187.283 156.952C187.283 156.405 187.196 155.895 187.022 155.423C186.848 154.951 186.58 154.569 186.218 154.278C185.856 153.987 185.394 153.841 184.833 153.841C184.272 153.841 183.81 153.987 183.448 154.278C183.086 154.569 182.818 154.951 182.644 155.423C182.47 155.895 182.383 156.405 182.383 156.952C182.383 157.499 182.47 158.006 182.644 158.475C182.818 158.944 183.086 159.322 183.448 159.61C183.81 159.897 184.272 160.041 184.833 160.041ZM191.716 156.078V161H190.459V152.818H191.674V154.097H191.78C191.972 153.681 192.263 153.347 192.654 153.095C193.044 152.839 193.549 152.712 194.167 152.712C194.721 152.712 195.205 152.825 195.621 153.053C196.036 153.276 196.359 153.617 196.59 154.075C196.821 154.53 196.936 155.105 196.936 155.801V161H195.679V155.886C195.679 155.244 195.512 154.743 195.179 154.384C194.845 154.022 194.387 153.841 193.804 153.841C193.403 153.841 193.044 153.928 192.728 154.102C192.416 154.276 192.169 154.53 191.988 154.864C191.807 155.197 191.716 155.602 191.716 156.078ZM203.623 161V150.091H207.309C208.165 150.091 208.864 150.245 209.408 150.554C209.954 150.86 210.359 151.273 210.622 151.795C210.885 152.317 211.016 152.9 211.016 153.543C211.016 154.185 210.885 154.77 210.622 155.295C210.363 155.821 209.962 156.24 209.418 156.552C208.875 156.861 208.179 157.016 207.33 157.016H204.688V155.844H207.288C207.873 155.844 208.344 155.743 208.699 155.54C209.054 155.338 209.312 155.064 209.472 154.72C209.635 154.372 209.717 153.979 209.717 153.543C209.717 153.106 209.635 152.715 209.472 152.371C209.312 152.026 209.052 151.756 208.694 151.561C208.335 151.362 207.859 151.263 207.266 151.263H204.944V161H203.623ZM215.381 161.192C214.863 161.192 214.392 161.094 213.97 160.899C213.547 160.7 213.212 160.414 212.963 160.041C212.715 159.665 212.59 159.21 212.59 158.678C212.59 158.209 212.683 157.829 212.867 157.538C213.052 157.243 213.299 157.012 213.608 156.845C213.917 156.678 214.258 156.554 214.63 156.472C215.007 156.387 215.385 156.32 215.765 156.27C216.262 156.206 216.665 156.158 216.974 156.126C217.287 156.091 217.514 156.032 217.656 155.95C217.802 155.869 217.874 155.727 217.874 155.524V155.482C217.874 154.956 217.731 154.548 217.443 154.256C217.159 153.965 216.727 153.82 216.149 153.82C215.548 153.82 215.078 153.951 214.737 154.214C214.396 154.477 214.156 154.757 214.018 155.055L212.825 154.629C213.038 154.132 213.322 153.745 213.677 153.468C214.036 153.187 214.426 152.992 214.849 152.882C215.275 152.768 215.694 152.712 216.106 152.712C216.369 152.712 216.671 152.744 217.011 152.808C217.356 152.868 217.688 152.994 218.008 153.186C218.331 153.377 218.599 153.667 218.812 154.054C219.025 154.441 219.131 154.96 219.131 155.609V161H217.874V159.892H217.81C217.725 160.07 217.583 160.26 217.384 160.462C217.185 160.664 216.921 160.837 216.591 160.979C216.26 161.121 215.857 161.192 215.381 161.192ZM215.573 160.062C216.07 160.062 216.489 159.965 216.83 159.77C217.175 159.574 217.434 159.322 217.608 159.013C217.786 158.704 217.874 158.379 217.874 158.038V156.888C217.821 156.952 217.704 157.01 217.523 157.064C217.345 157.113 217.139 157.158 216.905 157.197C216.674 157.232 216.449 157.264 216.228 157.293C216.012 157.317 215.836 157.339 215.701 157.357C215.374 157.399 215.069 157.468 214.785 157.564C214.504 157.657 214.277 157.797 214.103 157.985C213.933 158.17 213.847 158.422 213.847 158.741C213.847 159.178 214.009 159.509 214.332 159.732C214.659 159.952 215.073 160.062 215.573 160.062ZM224.75 161.17C223.983 161.17 223.322 160.989 222.768 160.627C222.214 160.265 221.788 159.766 221.49 159.13C221.192 158.495 221.042 157.768 221.042 156.952C221.042 156.121 221.195 155.387 221.501 154.752C221.809 154.113 222.239 153.614 222.79 153.255C223.344 152.893 223.99 152.712 224.729 152.712C225.304 152.712 225.822 152.818 226.284 153.031C226.746 153.244 227.124 153.543 227.419 153.926C227.713 154.31 227.896 154.757 227.967 155.268H226.71C226.614 154.896 226.401 154.565 226.071 154.278C225.744 153.987 225.304 153.841 224.75 153.841C224.26 153.841 223.83 153.969 223.461 154.224C223.095 154.477 222.809 154.833 222.603 155.295C222.401 155.753 222.3 156.291 222.3 156.909C222.3 157.541 222.399 158.092 222.598 158.56C222.8 159.029 223.084 159.393 223.45 159.652C223.819 159.912 224.253 160.041 224.75 160.041C225.077 160.041 225.373 159.984 225.639 159.871C225.906 159.757 226.131 159.594 226.316 159.381C226.501 159.168 226.632 158.912 226.71 158.614H227.967C227.896 159.097 227.72 159.532 227.44 159.919C227.163 160.302 226.795 160.608 226.337 160.835C225.883 161.059 225.354 161.17 224.75 161.17ZM230.977 158.017L230.955 156.462H231.211L234.791 152.818H236.346L232.532 156.675H232.426L230.977 158.017ZM229.805 161V150.091H231.062V161H229.805ZM235.004 161L231.808 156.952L232.703 156.078L236.602 161H235.004ZM240.372 161.192C239.853 161.192 239.383 161.094 238.96 160.899C238.538 160.7 238.202 160.414 237.953 160.041C237.705 159.665 237.581 159.21 237.581 158.678C237.581 158.209 237.673 157.829 237.858 157.538C238.042 157.243 238.289 157.012 238.598 156.845C238.907 156.678 239.248 156.554 239.621 156.472C239.997 156.387 240.375 156.32 240.755 156.27C241.252 156.206 241.655 156.158 241.964 156.126C242.277 156.091 242.504 156.032 242.646 155.95C242.792 155.869 242.865 155.727 242.865 155.524V155.482C242.865 154.956 242.721 154.548 242.433 154.256C242.149 153.965 241.718 153.82 241.139 153.82C240.539 153.82 240.068 153.951 239.727 154.214C239.386 154.477 239.147 154.757 239.008 155.055L237.815 154.629C238.028 154.132 238.312 153.745 238.667 153.468C239.026 153.187 239.416 152.992 239.839 152.882C240.265 152.768 240.684 152.712 241.096 152.712C241.359 152.712 241.661 152.744 242.002 152.808C242.346 152.868 242.678 152.994 242.998 153.186C243.321 153.377 243.589 153.667 243.802 154.054C244.015 154.441 244.122 154.96 244.122 155.609V161H242.865V159.892H242.801C242.715 160.07 242.573 160.26 242.375 160.462C242.176 160.664 241.911 160.837 241.581 160.979C241.251 161.121 240.848 161.192 240.372 161.192ZM240.563 160.062C241.061 160.062 241.48 159.965 241.821 159.77C242.165 159.574 242.424 159.322 242.598 159.013C242.776 158.704 242.865 158.379 242.865 158.038V156.888C242.811 156.952 242.694 157.01 242.513 157.064C242.335 157.113 242.13 157.158 241.895 157.197C241.664 157.232 241.439 157.264 241.219 157.293C241.002 157.317 240.826 157.339 240.691 157.357C240.365 157.399 240.059 157.468 239.775 157.564C239.495 157.657 239.267 157.797 239.093 157.985C238.923 158.17 238.838 158.422 238.838 158.741C238.838 159.178 238.999 159.509 239.322 159.732C239.649 159.952 240.063 160.062 240.563 160.062ZM249.719 164.239C249.112 164.239 248.589 164.161 248.153 164.004C247.716 163.852 247.352 163.649 247.061 163.397C246.773 163.148 246.544 162.882 246.374 162.598L247.375 161.895C247.489 162.044 247.632 162.214 247.806 162.406C247.98 162.602 248.218 162.77 248.52 162.912C248.826 163.058 249.225 163.131 249.719 163.131C250.379 163.131 250.924 162.971 251.354 162.651C251.784 162.332 251.999 161.831 251.999 161.149V159.487H251.892C251.8 159.636 251.668 159.821 251.498 160.041C251.331 160.258 251.089 160.451 250.773 160.622C250.461 160.789 250.038 160.872 249.506 160.872C248.845 160.872 248.252 160.716 247.727 160.403C247.205 160.091 246.791 159.636 246.485 159.04C246.184 158.443 246.033 157.719 246.033 156.866C246.033 156.028 246.18 155.299 246.475 154.677C246.77 154.052 247.18 153.569 247.705 153.228C248.231 152.884 248.838 152.712 249.527 152.712C250.06 152.712 250.482 152.8 250.795 152.978C251.111 153.152 251.352 153.351 251.519 153.575C251.69 153.795 251.821 153.976 251.913 154.118H252.041V152.818H253.256V161.234C253.256 161.938 253.096 162.509 252.776 162.95C252.46 163.393 252.034 163.718 251.498 163.924C250.965 164.134 250.372 164.239 249.719 164.239ZM249.676 159.743C250.18 159.743 250.607 159.627 250.955 159.397C251.303 159.166 251.567 158.834 251.748 158.401C251.929 157.967 252.02 157.449 252.02 156.845C252.02 156.256 251.931 155.735 251.754 155.284C251.576 154.833 251.313 154.48 250.965 154.224C250.617 153.969 250.188 153.841 249.676 153.841C249.143 153.841 248.7 153.976 248.344 154.246C247.993 154.516 247.728 154.878 247.551 155.332C247.377 155.787 247.29 156.291 247.29 156.845C247.29 157.413 247.379 157.916 247.556 158.353C247.737 158.786 248.004 159.127 248.355 159.375C248.71 159.62 249.151 159.743 249.676 159.743ZM258.987 161.17C258.199 161.17 257.519 160.996 256.947 160.648C256.379 160.297 255.94 159.807 255.631 159.178C255.326 158.546 255.173 157.811 255.173 156.973C255.173 156.135 255.326 155.396 255.631 154.757C255.94 154.114 256.37 153.614 256.92 153.255C257.474 152.893 258.121 152.712 258.859 152.712C259.286 152.712 259.706 152.783 260.122 152.925C260.537 153.067 260.915 153.298 261.256 153.617C261.597 153.933 261.869 154.352 262.071 154.874C262.274 155.396 262.375 156.039 262.375 156.803V157.335H256.068V156.249H261.097C261.097 155.787 261.004 155.375 260.82 155.013C260.638 154.651 260.379 154.365 260.042 154.155C259.708 153.946 259.314 153.841 258.859 153.841C258.359 153.841 257.925 153.965 257.56 154.214C257.197 154.459 256.919 154.778 256.723 155.173C256.528 155.567 256.43 155.989 256.43 156.44V157.165C256.43 157.783 256.537 158.306 256.75 158.736C256.967 159.162 257.267 159.487 257.65 159.711C258.034 159.931 258.479 160.041 258.987 160.041C259.317 160.041 259.616 159.995 259.882 159.903C260.152 159.807 260.385 159.665 260.58 159.477C260.775 159.285 260.926 159.047 261.033 158.763L262.247 159.104C262.119 159.516 261.904 159.878 261.603 160.19C261.301 160.499 260.928 160.741 260.484 160.915C260.04 161.085 259.541 161.17 258.987 161.17Z" fill="#2488B3"/>
<path fill-rule="evenodd" clip-rule="evenodd" d="M209 173H203C197.477 173 193 177.477 193 183V263C193 268.523 197.477 273 203 273H283C288.523 273 293 268.523 293 263V183C293 177.477 288.523 173 283 173H225V175H283C287.418 175 291 178.582 291 183V263C291 267.418 287.418 271 283 271H203C198.582 271 195 267.418 195 263V183C195 178.582 198.582 175 203 175H209V173Z" fill="#2488B3"/>
<line x1="193" y1="195" x2="291" y2="195" stroke="#2488B3" stroke-width="2"/>
<circle cx="258" cy="185" r="5" fill="#2488B3"/>
<circle cx="271" cy="185" r="5" fill="#2488B3"/>
<circle cx="245" cy="185" r="5" fill="#2488B3"/>
<circle cx="276" cy="263" r="5" fill="#2488B3"/>
<rect x="208.5" y="210.5" width="13" height="12" rx="3.5" fill="#D9D9D9" stroke="#2488B3"/>
<rect x="231.5" y="210.5" width="13" height="12" rx="3.5" fill="#D9D9D9" stroke="#2488B3"/>
<rect x="252.5" y="210.5" width="27" height="12" rx="3.5" fill="#D9D9D9" stroke="#2488B3"/>
<line x1="210" y1="235.5" x2="280" y2="235.5" stroke="#2488B3"/>
<line x1="210" y1="251.5" x2="280" y2="251.5" stroke="#2488B3"/>
<line x1="210" y1="243.5" x2="266" y2="243.5" stroke="#2488B3"/>
<path d="M215.48 179.091H216.801V186.314C216.801 187.06 216.625 187.725 216.274 188.311C215.926 188.894 215.434 189.354 214.798 189.691C214.163 190.025 213.417 190.192 212.561 190.192C211.705 190.192 210.96 190.025 210.324 189.691C209.688 189.354 209.195 188.894 208.843 188.311C208.495 187.725 208.321 187.06 208.321 186.314V179.091H209.642V186.207C209.642 186.74 209.759 187.214 209.994 187.63C210.228 188.042 210.562 188.366 210.995 188.604C211.432 188.839 211.954 188.956 212.561 188.956C213.168 188.956 213.69 188.839 214.127 188.604C214.564 188.366 214.898 188.042 215.129 187.63C215.363 187.214 215.48 186.74 215.48 186.207V179.091ZM220.76 179.091V190H219.439V179.091H220.76Z" fill="#2488B3"/>
<rect x="152" y="247" width="16" height="16" fill="#D9D9D9"/>
<rect x="172" y="247" width="16" height="16" fill="#D9D9D9"/>
<rect x="172" y="223" width="16" height="16" fill="#D9D9D9"/>
<rect x="152" y="223" width="16" height="16" fill="#D9D9D9"/>
<path d="M45.4107 45.4298L19.4107 64.3927C19.1526 64.581 19 64.8812 19 65.2007V88.7993C19 89.1188 19.1526 89.419 19.4107 89.6073L45.4107 108.57C45.7618 108.826 46.2382 108.826 46.5893 108.57L72.5893 89.6073C72.8474 89.419 73 89.1188 73 88.7993V65.2007C73 64.8812 72.8474 64.581 72.5893 64.3927L46.5893 45.4298C46.2382 45.1737 45.7618 45.1737 45.4107 45.4298Z" fill="#2488B3" stroke="#2488B3"/>
<path fill-rule="evenodd" clip-rule="evenodd" d="M59.8646 68.6347C59.878 68.6131 59.9016 68.6 59.927 68.6V68.6C59.97 68.6 60.0038 68.5628 59.9998 68.5199C59.343 61.4985 53.3368 56 46.0245 56C38.7469 56 32.763 61.4465 32.059 68.4202C32.0574 68.4353 32.0447 68.4469 32.0296 68.4469V68.4469C32.0064 68.4469 31.9923 68.4722 32.0045 68.4919L32.0406 68.5503C32.0439 68.5557 32.0454 68.562 32.0448 68.5683C32.0445 68.5724 32.0441 68.5766 32.0437 68.5807C32.0428 68.5911 32.051 68.6 32.0614 68.6V68.6C32.0676 68.6 32.0733 68.6032 32.0765 68.6084L41.7162 84.1996C43.6694 87.3587 48.2634 87.3608 50.2194 84.2034L59.8646 68.6347Z" fill="#F5F5F5"/>
<path d="M59.5 86C59.5 92.2817 53.5309 97.5 46 97.5C38.4691 97.5 32.5 92.2817 32.5 86C32.5 79.7183 38.4691 74.5 46 74.5C53.5309 74.5 59.5 79.7183 59.5 86Z" stroke="#F5F5F5"/>
<circle cx="46" cy="68" r="3" fill="#398DEF"/>
<path d="M28.3703 122.091H29.947L33.6544 131.146H33.7823L37.4897 122.091H39.0664V133H37.8306V124.712H37.724L34.3149 133H33.1218L29.7127 124.712H29.6061V133H28.3703V122.091ZM44.8685 133.17C44.1298 133.17 43.4818 132.995 42.9242 132.643C42.3703 132.292 41.937 131.8 41.6245 131.168C41.3156 130.536 41.1611 129.797 41.1611 128.952C41.1611 128.099 41.3156 127.355 41.6245 126.72C41.937 126.084 42.3703 125.591 42.9242 125.239C43.4818 124.887 44.1298 124.712 44.8685 124.712C45.6071 124.712 46.2534 124.887 46.8074 125.239C47.3649 125.591 47.7982 126.084 48.1071 126.72C48.4196 127.355 48.5759 128.099 48.5759 128.952C48.5759 129.797 48.4196 130.536 48.1071 131.168C47.7982 131.8 47.3649 132.292 46.8074 132.643C46.2534 132.995 45.6071 133.17 44.8685 133.17ZM44.8685 132.041C45.4296 132.041 45.8912 131.897 46.2534 131.61C46.6156 131.322 46.8837 130.944 47.0578 130.475C47.2318 130.006 47.3188 129.499 47.3188 128.952C47.3188 128.405 47.2318 127.895 47.0578 127.423C46.8837 126.951 46.6156 126.569 46.2534 126.278C45.8912 125.987 45.4296 125.841 44.8685 125.841C44.3074 125.841 43.8457 125.987 43.4835 126.278C43.1213 126.569 42.8532 126.951 42.6792 127.423C42.5052 127.895 42.4182 128.405 42.4182 128.952C42.4182 129.499 42.5052 130.006 42.6792 130.475C42.8532 130.944 43.1213 131.322 43.4835 131.61C43.8457 131.897 44.3074 132.041 44.8685 132.041ZM53.5843 133.17C52.9025 133.17 52.3006 132.998 51.7785 132.654C51.2565 132.306 50.8481 131.816 50.5534 131.184C50.2587 130.548 50.1113 129.797 50.1113 128.93C50.1113 128.071 50.2587 127.325 50.5534 126.693C50.8481 126.061 51.2583 125.573 51.7839 125.228C52.3094 124.884 52.9167 124.712 53.6056 124.712C54.1383 124.712 54.5591 124.8 54.868 124.978C55.1805 125.152 55.4185 125.351 55.5818 125.575C55.7487 125.795 55.8783 125.976 55.9707 126.118H56.0772V122.091H57.3343V133H56.1198V131.743H55.9707C55.8783 131.892 55.7469 132.08 55.5765 132.308C55.406 132.531 55.1628 132.732 54.8467 132.909C54.5307 133.083 54.1099 133.17 53.5843 133.17ZM53.7547 132.041C54.259 132.041 54.6851 131.91 55.0332 131.647C55.3812 131.381 55.6457 131.013 55.8268 130.544C56.0079 130.072 56.0985 129.527 56.0985 128.909C56.0985 128.298 56.0097 127.764 55.8322 127.306C55.6546 126.844 55.3918 126.485 55.0438 126.23C54.6958 125.971 54.2661 125.841 53.7547 125.841C53.2221 125.841 52.7782 125.978 52.4231 126.251C52.0715 126.521 51.807 126.888 51.6294 127.354C51.4554 127.815 51.3684 128.334 51.3684 128.909C51.3684 129.491 51.4572 130.021 51.6347 130.496C51.8158 130.969 52.0822 131.345 52.4337 131.626C52.7888 131.903 53.2292 132.041 53.7547 132.041ZM63.2416 133.17C62.4533 133.17 61.7732 132.996 61.2015 132.648C60.6333 132.297 60.1947 131.807 59.8858 131.178C59.5804 130.546 59.4277 129.811 59.4277 128.973C59.4277 128.135 59.5804 127.396 59.8858 126.757C60.1947 126.114 60.6244 125.614 61.1748 125.255C61.7288 124.893 62.3751 124.712 63.1138 124.712C63.5399 124.712 63.9607 124.783 64.3762 124.925C64.7917 125.067 65.1699 125.298 65.5108 125.617C65.8517 125.933 66.1234 126.352 66.3258 126.874C66.5282 127.396 66.6294 128.039 66.6294 128.803V129.335H60.3226V128.249H65.351C65.351 127.787 65.2587 127.375 65.074 127.013C64.8929 126.651 64.6337 126.365 64.2963 126.155C63.9625 125.946 63.5683 125.841 63.1138 125.841C62.6131 125.841 62.1798 125.965 61.8141 126.214C61.4518 126.459 61.1731 126.778 60.9778 127.173C60.7824 127.567 60.6848 127.989 60.6848 128.44V129.165C60.6848 129.783 60.7913 130.306 61.0044 130.736C61.221 131.162 61.5211 131.487 61.9046 131.711C62.2881 131.931 62.7338 132.041 63.2416 132.041C63.5719 132.041 63.8702 131.995 64.1365 131.903C64.4064 131.807 64.639 131.665 64.8343 131.477C65.0296 131.285 65.1805 131.047 65.2871 130.763L66.5016 131.104C66.3737 131.516 66.1589 131.878 65.857 132.19C65.5552 132.499 65.1823 132.741 64.7384 132.915C64.2945 133.085 63.7956 133.17 63.2416 133.17ZM69.7988 122.091V133H68.5417V122.091H69.7988ZM3.87815 151V140.091H5.13525V144.118H5.24179C5.33412 143.976 5.46196 143.795 5.62531 143.575C5.79221 143.351 6.03014 143.152 6.33909 142.978C6.65159 142.8 7.07417 142.712 7.60685 142.712C8.29577 142.712 8.90301 142.884 9.42858 143.228C9.95415 143.573 10.3643 144.061 10.659 144.693C10.9538 145.325 11.1012 146.071 11.1012 146.93C11.1012 147.797 10.9538 148.548 10.659 149.184C10.3643 149.816 9.95592 150.306 9.4339 150.654C8.91189 150.998 8.30997 151.17 7.62815 151.17C7.10258 151.17 6.68177 151.083 6.36572 150.909C6.04967 150.732 5.80642 150.531 5.63596 150.308C5.46551 150.08 5.33412 149.892 5.24179 149.743H5.09264V151H3.87815ZM5.11395 146.909C5.11395 147.527 5.2045 148.072 5.38561 148.544C5.56672 149.013 5.83128 149.381 6.17929 149.647C6.5273 149.91 6.95344 150.041 7.4577 150.041C7.98327 150.041 8.42183 149.903 8.77339 149.626C9.12851 149.345 9.39484 148.969 9.5724 148.496C9.75351 148.021 9.84406 147.491 9.84406 146.909C9.84406 146.334 9.75528 145.815 9.57773 145.354C9.40372 144.888 9.13916 144.521 8.78405 144.251C8.43248 143.978 7.99037 143.841 7.4577 143.841C6.94633 143.841 6.51665 143.971 6.16863 144.23C5.82062 144.485 5.55784 144.844 5.38028 145.306C5.20273 145.764 5.11395 146.298 5.11395 146.909ZM18.1804 147.655V142.818H19.4375V151H18.1804V149.615H18.0951C17.9034 150.031 17.6051 150.384 17.2002 150.675C16.7954 150.963 16.284 151.107 15.6661 151.107C15.1548 151.107 14.7002 150.995 14.3025 150.771C13.9048 150.544 13.5923 150.203 13.365 149.748C13.1377 149.29 13.0241 148.713 13.0241 148.017V142.818H14.2812V147.932C14.2812 148.528 14.4481 149.004 14.7819 149.359C15.1193 149.714 15.549 149.892 16.071 149.892C16.3835 149.892 16.7013 149.812 17.0245 149.652C17.3512 149.493 17.6246 149.248 17.8448 148.917C18.0685 148.587 18.1804 148.166 18.1804 147.655ZM21.7399 151V142.818H22.997V151H21.7399ZM22.3791 141.455C22.1341 141.455 21.9228 141.371 21.7453 141.204C21.5712 141.037 21.4842 140.837 21.4842 140.602C21.4842 140.368 21.5712 140.167 21.7453 140C21.9228 139.833 22.1341 139.75 22.3791 139.75C22.6242 139.75 22.8337 139.833 23.0077 140C23.1852 140.167 23.274 140.368 23.274 140.602C23.274 140.837 23.1852 141.037 23.0077 141.204C22.8337 141.371 22.6242 141.455 22.3791 141.455ZM26.5566 140.091V151H25.2995V140.091H26.5566ZM31.9486 151.17C31.2667 151.17 30.6648 150.998 30.1428 150.654C29.6208 150.306 29.2124 149.816 28.9177 149.184C28.6229 148.548 28.4755 147.797 28.4755 146.93C28.4755 146.071 28.6229 145.325 28.9177 144.693C29.2124 144.061 29.6226 143.573 30.1481 143.228C30.6737 142.884 31.2809 142.712 31.9699 142.712C32.5025 142.712 32.9233 142.8 33.2323 142.978C33.5448 143.152 33.7827 143.351 33.9461 143.575C34.113 143.795 34.2426 143.976 34.3349 144.118H34.4415V140.091H35.6986V151H34.4841V149.743H34.3349C34.2426 149.892 34.1112 150.08 33.9407 150.308C33.7703 150.531 33.527 150.732 33.211 150.909C32.8949 151.083 32.4741 151.17 31.9486 151.17ZM32.119 150.041C32.6233 150.041 33.0494 149.91 33.3974 149.647C33.7454 149.381 34.01 149.013 34.1911 148.544C34.3722 148.072 34.4628 147.527 34.4628 146.909C34.4628 146.298 34.374 145.764 34.1964 145.306C34.0189 144.844 33.7561 144.485 33.4081 144.23C33.0601 143.971 32.6304 143.841 32.119 143.841C31.5863 143.841 31.1424 143.978 30.7873 144.251C30.4358 144.521 30.1712 144.888 29.9937 145.354C29.8196 145.815 29.7326 146.334 29.7326 146.909C29.7326 147.491 29.8214 148.021 29.999 148.496C30.1801 148.969 30.4464 149.345 30.798 149.626C31.1531 149.903 31.5934 150.041 32.119 150.041ZM38.1755 151V142.818H39.4326V151H38.1755ZM38.8147 141.455C38.5696 141.455 38.3584 141.371 38.1808 141.204C38.0068 141.037 37.9198 140.837 37.9198 140.602C37.9198 140.368 38.0068 140.167 38.1808 140C38.3584 139.833 38.5696 139.75 38.8147 139.75C39.0597 139.75 39.2692 139.833 39.4432 140C39.6208 140.167 39.7096 140.368 39.7096 140.602C39.7096 140.837 39.6208 141.037 39.4432 141.204C39.2692 141.371 39.0597 141.455 38.8147 141.455ZM42.9921 146.078V151H41.735V142.818H42.9495V144.097H43.0561C43.2478 143.681 43.539 143.347 43.9296 143.095C44.3203 142.839 44.8245 142.712 45.4424 142.712C45.9964 142.712 46.4811 142.825 46.8966 143.053C47.3121 143.276 47.6353 143.617 47.8661 144.075C48.0969 144.53 48.2123 145.105 48.2123 145.801V151H46.9552V145.886C46.9552 145.244 46.7883 144.743 46.4545 144.384C46.1207 144.022 45.6626 143.841 45.0802 143.841C44.6789 143.841 44.3203 143.928 44.0042 144.102C43.6917 144.276 43.4449 144.53 43.2638 144.864C43.0827 145.197 42.9921 145.602 42.9921 146.078ZM53.812 154.239C53.2048 154.239 52.6828 154.161 52.246 154.004C51.8092 153.852 51.4452 153.649 51.154 153.397C50.8663 153.148 50.6373 152.882 50.4668 152.598L51.4683 151.895C51.5819 152.044 51.7257 152.214 51.8997 152.406C52.0737 152.602 52.3117 152.77 52.6135 152.912C52.9189 153.058 53.3184 153.131 53.812 153.131C54.4725 153.131 55.0176 152.971 55.4473 152.651C55.877 152.332 56.0918 151.831 56.0918 151.149V149.487H55.9853C55.893 149.636 55.7616 149.821 55.5911 150.041C55.4242 150.258 55.1828 150.451 54.8667 150.622C54.5542 150.789 54.1316 150.872 53.5989 150.872C52.9384 150.872 52.3454 150.716 51.8198 150.403C51.2978 150.091 50.8841 149.636 50.5787 149.04C50.2769 148.443 50.1259 147.719 50.1259 146.866C50.1259 146.028 50.2733 145.299 50.568 144.677C50.8628 144.052 51.2729 143.569 51.7985 143.228C52.3241 142.884 52.9313 142.712 53.6203 142.712C54.1529 142.712 54.5755 142.8 54.888 142.978C55.2041 143.152 55.4455 143.351 55.6124 143.575C55.7829 143.795 55.9143 143.976 56.0066 144.118H56.1345V142.818H57.3489V151.234C57.3489 151.938 57.1891 152.509 56.8695 152.95C56.5535 153.393 56.1274 153.718 55.5911 153.924C55.0585 154.134 54.4654 154.239 53.812 154.239ZM53.7694 149.743C54.2737 149.743 54.6998 149.627 55.0478 149.397C55.3958 149.166 55.6604 148.834 55.8415 148.401C56.0226 147.967 56.1131 147.449 56.1131 146.845C56.1131 146.256 56.0244 145.735 55.8468 145.284C55.6693 144.833 55.4065 144.48 55.0585 144.224C54.7104 143.969 54.2808 143.841 53.7694 143.841C53.2367 143.841 52.7928 143.976 52.4377 144.246C52.0862 144.516 51.8216 144.878 51.644 145.332C51.47 145.787 51.383 146.291 51.383 146.845C51.383 147.413 51.4718 147.916 51.6494 148.353C51.8305 148.786 52.0968 149.127 52.4484 149.375C52.8035 149.62 53.2438 149.743 53.7694 149.743ZM67.5123 142.818V143.884H63.1018V142.818H67.5123ZM64.4228 151V141.689C64.4228 141.22 64.5329 140.83 64.7531 140.517C64.9732 140.205 65.2591 139.97 65.6107 139.814C65.9622 139.658 66.3333 139.58 66.7239 139.58C67.0329 139.58 67.285 139.604 67.4803 139.654C67.6756 139.704 67.8212 139.75 67.9171 139.793L67.5549 140.879C67.491 140.858 67.4022 140.831 67.2886 140.799C67.1785 140.767 67.0329 140.751 66.8518 140.751C66.4363 140.751 66.1362 140.856 65.9516 141.066C65.7705 141.275 65.6799 141.582 65.6799 141.987V151H64.4228ZM69.2741 151V142.818H70.4886V144.054H70.5738C70.723 143.649 70.9929 143.321 71.3835 143.069C71.7741 142.816 72.2144 142.69 72.7045 142.69C72.7968 142.69 72.9122 142.692 73.0507 142.696C73.1892 142.699 73.294 142.705 73.365 142.712V143.99C73.3224 143.979 73.2247 143.963 73.072 143.942C72.9229 143.917 72.7649 143.905 72.598 143.905C72.2002 143.905 71.8451 143.988 71.5326 144.155C71.2237 144.319 70.9786 144.546 70.7975 144.837C70.62 145.125 70.5312 145.453 70.5312 145.822V151H69.2741ZM77.93 151.17C77.1914 151.17 76.5433 150.995 75.9858 150.643C75.4318 150.292 74.9985 149.8 74.686 149.168C74.3771 148.536 74.2226 147.797 74.2226 146.952C74.2226 146.099 74.3771 145.355 74.686 144.72C74.9985 144.084 75.4318 143.591 75.9858 143.239C76.5433 142.887 77.1914 142.712 77.93 142.712C78.6686 142.712 79.3149 142.887 79.8689 143.239C80.4264 143.591 80.8597 144.084 81.1686 144.72C81.4811 145.355 81.6374 146.099 81.6374 146.952C81.6374 147.797 81.4811 148.536 81.1686 149.168C80.8597 149.8 80.4264 150.292 79.8689 150.643C79.3149 150.995 78.6686 151.17 77.93 151.17ZM77.93 150.041C78.4911 150.041 78.9527 149.897 79.3149 149.61C79.6772 149.322 79.9453 148.944 80.1193 148.475C80.2933 148.006 80.3803 147.499 80.3803 146.952C80.3803 146.405 80.2933 145.895 80.1193 145.423C79.9453 144.951 79.6772 144.569 79.3149 144.278C78.9527 143.987 78.4911 143.841 77.93 143.841C77.3689 143.841 76.9073 143.987 76.5451 144.278C76.1828 144.569 75.9147 144.951 75.7407 145.423C75.5667 145.895 75.4797 146.405 75.4797 146.952C75.4797 147.499 75.5667 148.006 75.7407 148.475C75.9147 148.944 76.1828 149.322 76.5451 149.61C76.9073 149.897 77.3689 150.041 77.93 150.041ZM83.5563 151V142.818H84.7708V144.097H84.8774C85.0478 143.66 85.323 143.321 85.703 143.079C86.083 142.834 86.5393 142.712 87.072 142.712C87.6117 142.712 88.0609 142.834 88.4196 143.079C88.7818 143.321 89.0641 143.66 89.2666 144.097H89.3518C89.5613 143.674 89.8756 143.338 90.2946 143.09C90.7136 142.838 91.2161 142.712 91.8021 142.712C92.5336 142.712 93.132 142.941 93.5972 143.399C94.0624 143.853 94.295 144.562 94.295 145.524V151H93.0379V145.524C93.0379 144.92 92.8727 144.489 92.5425 144.23C92.2122 143.971 91.8234 143.841 91.3759 143.841C90.8006 143.841 90.355 144.015 90.0389 144.363C89.7229 144.707 89.5649 145.144 89.5649 145.673V151H88.2864V145.396C88.2864 144.931 88.1355 144.556 87.8337 144.272C87.5318 143.985 87.143 143.841 86.6671 143.841C86.3404 143.841 86.035 143.928 85.7509 144.102C85.4704 144.276 85.2431 144.517 85.0691 144.826C84.8987 145.132 84.8134 145.485 84.8134 145.886V151H83.5563ZM45.4371 161.5C45.3199 161.141 45.1654 160.82 44.9737 160.536C44.7855 160.248 44.56 160.003 44.2972 159.801C44.038 159.598 43.7432 159.444 43.413 159.337C43.0827 159.231 42.7205 159.178 42.3263 159.178C41.68 159.178 41.0923 159.344 40.5632 159.678C40.034 160.012 39.6132 160.504 39.3007 161.154C38.9882 161.804 38.832 162.601 38.832 163.545C38.832 164.49 38.99 165.287 39.3061 165.937C39.6221 166.587 40.05 167.079 40.5898 167.413C41.1296 167.746 41.7368 167.913 42.4115 167.913C43.0365 167.913 43.587 167.78 44.0628 167.514C44.5422 167.244 44.9151 166.864 45.1814 166.374C45.4513 165.88 45.5862 165.3 45.5862 164.632L45.9911 164.717H42.7098V163.545H46.8647V164.717C46.8647 165.616 46.6729 166.397 46.2894 167.061C45.9094 167.725 45.3838 168.24 44.7127 168.606C44.0451 168.968 43.278 169.149 42.4115 169.149C41.4456 169.149 40.5969 168.922 39.8654 168.467C39.1374 168.013 38.5692 167.366 38.1608 166.528C37.756 165.69 37.5536 164.696 37.5536 163.545C37.5536 162.683 37.669 161.907 37.8998 161.218C38.1342 160.525 38.4644 159.936 38.8906 159.449C39.3167 158.963 39.821 158.59 40.4034 158.331C40.9858 158.071 41.6267 157.942 42.3263 157.942C42.9016 157.942 43.4378 158.029 43.935 158.203C44.4357 158.373 44.8813 158.616 45.272 158.933C45.6661 159.245 45.9946 159.62 46.2574 160.056C46.5202 160.49 46.7013 160.971 46.8007 161.5H45.4371ZM50.4482 158.091V169H49.1272V158.091H50.4482ZM59.0628 160.818C58.9989 160.278 58.7397 159.859 58.2851 159.561C57.8306 159.263 57.273 159.114 56.6125 159.114C56.1296 159.114 55.707 159.192 55.3448 159.348C54.9861 159.504 54.7056 159.719 54.5032 159.993C54.3043 160.266 54.2049 160.577 54.2049 160.925C54.2049 161.216 54.2741 161.466 54.4126 161.676C54.5546 161.882 54.7358 162.054 54.9559 162.192C55.1761 162.327 55.4069 162.439 55.6484 162.528C55.8899 162.613 56.1118 162.683 56.3142 162.736L57.4222 163.034C57.7063 163.109 58.0223 163.212 58.3703 163.343C58.7219 163.474 59.0575 163.654 59.3771 163.881C59.7002 164.105 59.9666 164.392 60.1761 164.744C60.3856 165.096 60.4904 165.527 60.4904 166.038C60.4904 166.628 60.3359 167.161 60.0269 167.636C59.7215 168.112 59.2741 168.49 58.6846 168.771C58.0987 169.051 57.3867 169.192 56.5486 169.192C55.7674 169.192 55.0909 169.066 54.5191 168.814C53.9509 168.561 53.5035 168.21 53.1768 167.759C52.8536 167.308 52.6708 166.784 52.6282 166.188H53.9918C54.0273 166.599 54.1658 166.94 54.4073 167.21C54.6523 167.477 54.9612 167.675 55.3341 167.807C55.7105 167.935 56.1154 167.999 56.5486 167.999C57.0529 167.999 57.5056 167.917 57.9069 167.754C58.3082 167.587 58.626 167.356 58.8604 167.061C59.0948 166.763 59.212 166.415 59.212 166.017C59.212 165.655 59.1108 165.36 58.9083 165.133C58.7059 164.906 58.4396 164.721 58.1093 164.579C57.7791 164.437 57.4222 164.312 57.0387 164.206L55.6963 163.822C54.8441 163.577 54.1693 163.228 53.6722 162.773C53.175 162.319 52.9264 161.724 52.9264 160.989C52.9264 160.378 53.0916 159.845 53.4218 159.391C53.7556 158.933 54.2031 158.577 54.7642 158.325C55.3288 158.07 55.9591 157.942 56.6551 157.942C57.3583 157.942 57.9833 158.068 58.5301 158.32C59.077 158.569 59.5103 158.909 59.8299 159.343C60.153 159.776 60.3235 160.268 60.3412 160.818H59.0628Z" fill="#2488B3"/>
<path d="M197.12 95H193.754V84.0909H197.269C198.328 84.0909 199.233 84.3093 199.986 84.7461C200.739 85.1793 201.316 85.8026 201.717 86.6158C202.118 87.4254 202.319 88.3949 202.319 89.5241C202.319 90.6605 202.117 91.6388 201.712 92.4592C201.307 93.2759 200.717 93.9045 199.943 94.3448C199.169 94.7816 198.228 95 197.12 95ZM195.075 93.8281H197.035C197.937 93.8281 198.684 93.6541 199.277 93.3061C199.87 92.9581 200.313 92.4627 200.604 91.82C200.895 91.1772 201.041 90.4119 201.041 89.5241C201.041 88.6435 200.897 87.8853 200.609 87.2496C200.321 86.6104 199.892 86.1204 199.32 85.7795C198.748 85.435 198.036 85.2628 197.184 85.2628H195.075V93.8281ZM206.772 95.1918C206.254 95.1918 205.783 95.0941 205.361 94.8988C204.938 94.6999 204.602 94.4141 204.354 94.0412C204.105 93.6648 203.981 93.2102 203.981 92.6776C203.981 92.2088 204.073 91.8288 204.258 91.5376C204.443 91.2429 204.689 91.0121 204.998 90.8452C205.307 90.6783 205.648 90.554 206.021 90.4723C206.397 90.3871 206.776 90.3196 207.156 90.2699C207.653 90.206 208.056 90.158 208.365 90.1261C208.677 90.0906 208.905 90.032 209.047 89.9503C209.192 89.8686 209.265 89.7266 209.265 89.5241V89.4815C209.265 88.956 209.121 88.5476 208.834 88.2564C208.549 87.9652 208.118 87.8196 207.539 87.8196C206.939 87.8196 206.468 87.951 206.128 88.2138C205.787 88.4766 205.547 88.7571 205.408 89.0554L204.215 88.6293C204.428 88.1321 204.712 87.745 205.068 87.468C205.426 87.1875 205.817 86.9922 206.239 86.8821C206.666 86.7685 207.085 86.7116 207.497 86.7116C207.759 86.7116 208.061 86.7436 208.402 86.8075C208.747 86.8679 209.079 86.994 209.398 87.1857C209.721 87.3775 209.989 87.6669 210.203 88.054C210.416 88.4411 210.522 88.9595 210.522 89.6094V95H209.265V93.892H209.201C209.116 94.0696 208.974 94.2596 208.775 94.462C208.576 94.6644 208.312 94.8366 207.981 94.9787C207.651 95.1207 207.248 95.1918 206.772 95.1918ZM206.964 94.0625C207.461 94.0625 207.88 93.9648 208.221 93.7695C208.565 93.5742 208.825 93.3221 208.999 93.0131C209.176 92.7042 209.265 92.3793 209.265 92.0384V90.8878C209.212 90.9517 209.095 91.0103 208.913 91.0636C208.736 91.1133 208.53 91.1577 208.296 91.1967C208.065 91.2322 207.839 91.2642 207.619 91.2926C207.402 91.3175 207.227 91.3388 207.092 91.3565C206.765 91.3991 206.46 91.4684 206.176 91.5643C205.895 91.6566 205.668 91.7969 205.494 91.9851C205.323 92.1697 205.238 92.4219 205.238 92.7415C205.238 93.1783 205.4 93.5085 205.723 93.7322C206.049 93.9524 206.463 94.0625 206.964 94.0625ZM216.375 86.8182V87.8835H212.135V86.8182H216.375ZM213.371 84.858H214.628V92.6562C214.628 93.0114 214.679 93.2777 214.782 93.4553C214.889 93.6293 215.024 93.7464 215.187 93.8068C215.354 93.8636 215.53 93.892 215.714 93.892C215.853 93.892 215.966 93.8849 216.055 93.8707C216.144 93.853 216.215 93.8388 216.268 93.8281L216.524 94.9574C216.439 94.9893 216.32 95.0213 216.167 95.0533C216.014 95.0888 215.821 95.1065 215.586 95.1065C215.231 95.1065 214.883 95.0302 214.542 94.8775C214.205 94.7248 213.925 94.4922 213.701 94.1797C213.481 93.8672 213.371 93.473 213.371 92.9972V84.858ZM220.673 95.1918C220.155 95.1918 219.684 95.0941 219.262 94.8988C218.839 94.6999 218.504 94.4141 218.255 94.0412C218.007 93.6648 217.882 93.2102 217.882 92.6776C217.882 92.2088 217.975 91.8288 218.159 91.5376C218.344 91.2429 218.591 91.0121 218.9 90.8452C219.209 90.6783 219.55 90.554 219.922 90.4723C220.299 90.3871 220.677 90.3196 221.057 90.2699C221.554 90.206 221.957 90.158 222.266 90.1261C222.579 90.0906 222.806 90.032 222.948 89.9503C223.094 89.8686 223.166 89.7266 223.166 89.5241V89.4815C223.166 88.956 223.023 88.5476 222.735 88.2564C222.451 87.9652 222.019 87.8196 221.441 87.8196C220.84 87.8196 220.37 87.951 220.029 88.2138C219.688 88.4766 219.448 88.7571 219.31 89.0554L218.117 88.6293C218.33 88.1321 218.614 87.745 218.969 87.468C219.328 87.1875 219.718 86.9922 220.141 86.8821C220.567 86.7685 220.986 86.7116 221.398 86.7116C221.661 86.7116 221.963 86.7436 222.303 86.8075C222.648 86.8679 222.98 86.994 223.3 87.1857C223.623 87.3775 223.891 87.6669 224.104 88.054C224.317 88.4411 224.423 88.9595 224.423 89.6094V95H223.166V93.892H223.102C223.017 94.0696 222.875 94.2596 222.676 94.462C222.477 94.6644 222.213 94.8366 221.883 94.9787C221.552 95.1207 221.149 95.1918 220.673 95.1918ZM220.865 94.0625C221.362 94.0625 221.781 93.9648 222.122 93.7695C222.467 93.5742 222.726 93.3221 222.9 93.0131C223.078 92.7042 223.166 92.3793 223.166 92.0384V90.8878C223.113 90.9517 222.996 91.0103 222.815 91.0636C222.637 91.1133 222.431 91.1577 222.197 91.1967C221.966 91.2322 221.741 91.2642 221.52 91.2926C221.304 91.3175 221.128 91.3388 220.993 91.3565C220.666 91.3991 220.361 91.4684 220.077 91.5643C219.796 91.6566 219.569 91.7969 219.395 91.9851C219.225 92.1697 219.139 92.4219 219.139 92.7415C219.139 93.1783 219.301 93.5085 219.624 93.7322C219.951 93.9524 220.365 94.0625 220.865 94.0625ZM179.871 113.17C179.104 113.17 178.443 112.989 177.889 112.627C177.335 112.265 176.909 111.766 176.611 111.13C176.313 110.495 176.164 109.768 176.164 108.952C176.164 108.121 176.316 107.387 176.622 106.752C176.931 106.113 177.36 105.614 177.911 105.255C178.465 104.893 179.111 104.712 179.85 104.712C180.425 104.712 180.943 104.818 181.405 105.031C181.867 105.244 182.245 105.543 182.54 105.926C182.834 106.31 183.017 106.757 183.088 107.268H181.831C181.735 106.896 181.522 106.565 181.192 106.278C180.865 105.987 180.425 105.841 179.871 105.841C179.381 105.841 178.951 105.969 178.582 106.224C178.216 106.477 177.93 106.833 177.724 107.295C177.522 107.753 177.421 108.291 177.421 108.909C177.421 109.541 177.52 110.092 177.719 110.56C177.921 111.029 178.205 111.393 178.571 111.652C178.941 111.912 179.374 112.041 179.871 112.041C180.198 112.041 180.494 111.984 180.76 111.871C181.027 111.757 181.252 111.594 181.437 111.381C181.622 111.168 181.753 110.912 181.831 110.614H183.088C183.017 111.097 182.841 111.532 182.561 111.919C182.284 112.302 181.916 112.608 181.458 112.835C181.004 113.059 180.475 113.17 179.871 113.17ZM186.183 102.091V113H184.926V102.091H186.183ZM191.916 113.17C191.128 113.17 190.448 112.996 189.876 112.648C189.308 112.297 188.869 111.807 188.56 111.178C188.255 110.546 188.102 109.811 188.102 108.973C188.102 108.135 188.255 107.396 188.56 106.757C188.869 106.114 189.299 105.614 189.849 105.255C190.403 104.893 191.049 104.712 191.788 104.712C192.214 104.712 192.635 104.783 193.051 104.925C193.466 105.067 193.844 105.298 194.185 105.617C194.526 105.933 194.798 106.352 195 106.874C195.203 107.396 195.304 108.039 195.304 108.803V109.335H188.997V108.249H194.025C194.025 107.787 193.933 107.375 193.748 107.013C193.567 106.651 193.308 106.365 192.971 106.155C192.637 105.946 192.243 105.841 191.788 105.841C191.287 105.841 190.854 105.965 190.488 106.214C190.126 106.459 189.847 106.778 189.652 107.173C189.457 107.567 189.359 107.989 189.359 108.44V109.165C189.359 109.783 189.466 110.306 189.679 110.736C189.895 111.162 190.195 111.487 190.579 111.711C190.962 111.931 191.408 112.041 191.916 112.041C192.246 112.041 192.544 111.995 192.811 111.903C193.081 111.807 193.313 111.665 193.509 111.477C193.704 111.285 193.855 111.047 193.961 110.763L195.176 111.104C195.048 111.516 194.833 111.878 194.531 112.19C194.229 112.499 193.857 112.741 193.413 112.915C192.969 113.085 192.47 113.17 191.916 113.17ZM199.624 113.192C199.105 113.192 198.635 113.094 198.212 112.899C197.79 112.7 197.454 112.414 197.205 112.041C196.957 111.665 196.832 111.21 196.832 110.678C196.832 110.209 196.925 109.829 197.109 109.538C197.294 109.243 197.541 109.012 197.85 108.845C198.159 108.678 198.5 108.554 198.873 108.472C199.249 108.387 199.627 108.32 200.007 108.27C200.504 108.206 200.907 108.158 201.216 108.126C201.529 108.091 201.756 108.032 201.898 107.95C202.044 107.869 202.117 107.727 202.117 107.524V107.482C202.117 106.956 201.973 106.548 201.685 106.256C201.401 105.965 200.97 105.82 200.391 105.82C199.791 105.82 199.32 105.951 198.979 106.214C198.638 106.477 198.399 106.757 198.26 107.055L197.067 106.629C197.28 106.132 197.564 105.745 197.919 105.468C198.278 105.187 198.668 104.992 199.091 104.882C199.517 104.768 199.936 104.712 200.348 104.712C200.611 104.712 200.913 104.744 201.254 104.808C201.598 104.868 201.93 104.994 202.25 105.186C202.573 105.377 202.841 105.667 203.054 106.054C203.267 106.441 203.374 106.96 203.374 107.609V113H202.117V111.892H202.053C201.967 112.07 201.825 112.26 201.627 112.462C201.428 112.664 201.163 112.837 200.833 112.979C200.503 113.121 200.1 113.192 199.624 113.192ZM199.815 112.062C200.313 112.062 200.732 111.965 201.073 111.77C201.417 111.574 201.676 111.322 201.85 111.013C202.028 110.704 202.117 110.379 202.117 110.038V108.888C202.063 108.952 201.946 109.01 201.765 109.064C201.587 109.113 201.381 109.158 201.147 109.197C200.916 109.232 200.691 109.264 200.471 109.293C200.254 109.317 200.078 109.339 199.943 109.357C199.617 109.399 199.311 109.468 199.027 109.564C198.747 109.657 198.519 109.797 198.345 109.985C198.175 110.17 198.09 110.422 198.09 110.741C198.09 111.178 198.251 111.509 198.574 111.732C198.901 111.952 199.315 112.062 199.815 112.062ZM206.925 108.078V113H205.668V104.818H206.883V106.097H206.989C207.181 105.681 207.472 105.347 207.863 105.095C208.253 104.839 208.758 104.712 209.376 104.712C209.93 104.712 210.414 104.825 210.83 105.053C211.245 105.276 211.568 105.617 211.799 106.075C212.03 106.53 212.145 107.105 212.145 107.801V113H210.888V107.886C210.888 107.244 210.721 106.743 210.388 106.384C210.054 106.022 209.596 105.841 209.013 105.841C208.612 105.841 208.253 105.928 207.937 106.102C207.625 106.276 207.378 106.53 207.197 106.864C207.016 107.197 206.925 107.602 206.925 108.078ZM220.238 106.651L219.109 106.97C219.038 106.782 218.933 106.599 218.794 106.422C218.66 106.24 218.475 106.091 218.241 105.974C218.006 105.857 217.706 105.798 217.34 105.798C216.84 105.798 216.422 105.914 216.089 106.145C215.758 106.372 215.593 106.661 215.593 107.013C215.593 107.325 215.707 107.572 215.934 107.753C216.161 107.934 216.516 108.085 216.999 108.206L218.214 108.504C218.945 108.682 219.491 108.953 219.849 109.319C220.208 109.681 220.387 110.148 220.387 110.72C220.387 111.189 220.252 111.608 219.982 111.977C219.716 112.347 219.343 112.638 218.864 112.851C218.384 113.064 217.827 113.17 217.191 113.17C216.357 113.17 215.666 112.989 215.119 112.627C214.572 112.265 214.226 111.736 214.08 111.04L215.274 110.741C215.387 111.182 215.602 111.512 215.918 111.732C216.238 111.952 216.655 112.062 217.17 112.062C217.756 112.062 218.221 111.938 218.565 111.69C218.913 111.437 219.087 111.136 219.087 110.784C219.087 110.5 218.988 110.262 218.789 110.07C218.59 109.875 218.285 109.729 217.873 109.634L216.509 109.314C215.76 109.136 215.21 108.861 214.858 108.488C214.51 108.112 214.336 107.641 214.336 107.077C214.336 106.615 214.466 106.207 214.725 105.852C214.988 105.496 215.345 105.218 215.796 105.015C216.25 104.813 216.765 104.712 217.34 104.712C218.15 104.712 218.786 104.889 219.247 105.244C219.712 105.599 220.043 106.068 220.238 106.651ZM222.279 113V104.818H223.537V113H222.279ZM222.919 103.455C222.674 103.455 222.462 103.371 222.285 103.204C222.111 103.037 222.024 102.837 222.024 102.602C222.024 102.368 222.111 102.167 222.285 102C222.462 101.833 222.674 101.75 222.919 101.75C223.164 101.75 223.373 101.833 223.547 102C223.725 102.167 223.814 102.368 223.814 102.602C223.814 102.837 223.725 103.037 223.547 103.204C223.373 103.371 223.164 103.455 222.919 103.455ZM227.096 108.078V113H225.839V104.818H227.054V106.097H227.16C227.352 105.681 227.643 105.347 228.034 105.095C228.424 104.839 228.929 104.712 229.546 104.712C230.1 104.712 230.585 104.825 231.001 105.053C231.416 105.276 231.739 105.617 231.97 106.075C232.201 106.53 232.316 107.105 232.316 107.801V113H231.059V107.886C231.059 107.244 230.892 106.743 230.559 106.384C230.225 106.022 229.767 105.841 229.184 105.841C228.783 105.841 228.424 105.928 228.108 106.102C227.796 106.276 227.549 106.53 227.368 106.864C227.187 107.197 227.096 107.602 227.096 108.078ZM237.916 116.239C237.309 116.239 236.787 116.161 236.35 116.004C235.913 115.852 235.549 115.649 235.258 115.397C234.97 115.148 234.741 114.882 234.571 114.598L235.572 113.895C235.686 114.044 235.83 114.214 236.004 114.406C236.178 114.602 236.416 114.77 236.718 114.912C237.023 115.058 237.422 115.131 237.916 115.131C238.577 115.131 239.122 114.971 239.551 114.651C239.981 114.332 240.196 113.831 240.196 113.149V111.487H240.089C239.997 111.636 239.866 111.821 239.695 112.041C239.528 112.258 239.287 112.451 238.971 112.622C238.658 112.789 238.236 112.872 237.703 112.872C237.042 112.872 236.449 112.716 235.924 112.403C235.402 112.091 234.988 111.636 234.683 111.04C234.381 110.443 234.23 109.719 234.23 108.866C234.23 108.028 234.377 107.299 234.672 106.677C234.967 106.052 235.377 105.569 235.903 105.228C236.428 104.884 237.035 104.712 237.724 104.712C238.257 104.712 238.68 104.8 238.992 104.978C239.308 105.152 239.55 105.351 239.716 105.575C239.887 105.795 240.018 105.976 240.111 106.118H240.238V104.818H241.453V113.234C241.453 113.938 241.293 114.509 240.974 114.95C240.657 115.393 240.231 115.718 239.695 115.924C239.162 116.134 238.569 116.239 237.916 116.239ZM237.873 111.743C238.378 111.743 238.804 111.627 239.152 111.397C239.5 111.166 239.764 110.834 239.945 110.401C240.127 109.967 240.217 109.449 240.217 108.845C240.217 108.256 240.128 107.735 239.951 107.284C239.773 106.833 239.51 106.48 239.162 106.224C238.814 105.969 238.385 105.841 237.873 105.841C237.341 105.841 236.897 105.976 236.542 106.246C236.19 106.516 235.926 106.878 235.748 107.332C235.574 107.787 235.487 108.291 235.487 108.845C235.487 109.413 235.576 109.916 235.753 110.353C235.934 110.786 236.201 111.127 236.552 111.375C236.907 111.62 237.348 111.743 237.873 111.743Z" fill="#2488B3"/>
<path d="M373.492 138V127.091H377.178C378.034 127.091 378.733 127.245 379.277 127.554C379.824 127.86 380.228 128.273 380.491 128.795C380.754 129.317 380.885 129.9 380.885 130.543C380.885 131.185 380.754 131.77 380.491 132.295C380.232 132.821 379.831 133.24 379.287 133.552C378.744 133.861 378.048 134.016 377.199 134.016H374.557V132.844H377.157C377.743 132.844 378.213 132.743 378.568 132.54C378.923 132.338 379.181 132.064 379.341 131.72C379.504 131.372 379.586 130.979 379.586 130.543C379.586 130.106 379.504 129.715 379.341 129.371C379.181 129.026 378.922 128.756 378.563 128.561C378.204 128.362 377.728 128.263 377.135 128.263H374.813V138H373.492ZM383.461 127.091L386.699 136.274H386.827L390.066 127.091H391.451L387.445 138H386.082L382.076 127.091H383.461ZM344.229 156H340.863V145.091H344.378C345.436 145.091 346.342 145.309 347.095 145.746C347.848 146.179 348.425 146.803 348.826 147.616C349.227 148.425 349.428 149.395 349.428 150.524C349.428 151.661 349.225 152.639 348.821 153.459C348.416 154.276 347.826 154.904 347.052 155.345C346.278 155.782 345.337 156 344.229 156ZM342.184 154.828H344.144C345.046 154.828 345.793 154.654 346.386 154.306C346.979 153.958 347.421 153.463 347.713 152.82C348.004 152.177 348.149 151.412 348.149 150.524C348.149 149.643 348.006 148.885 347.718 148.25C347.43 147.61 347.001 147.12 346.429 146.779C345.857 146.435 345.145 146.263 344.293 146.263H342.184V154.828ZM354.904 156.17C354.115 156.17 353.435 155.996 352.864 155.648C352.295 155.297 351.857 154.807 351.548 154.178C351.242 153.546 351.09 152.811 351.09 151.973C351.09 151.135 351.242 150.396 351.548 149.757C351.857 149.114 352.287 148.614 352.837 148.255C353.391 147.893 354.037 147.712 354.776 147.712C355.202 147.712 355.623 147.783 356.038 147.925C356.454 148.067 356.832 148.298 357.173 148.617C357.514 148.933 357.785 149.352 357.988 149.874C358.19 150.396 358.292 151.039 358.292 151.803V152.335H351.985V151.249H357.013C357.013 150.787 356.921 150.375 356.736 150.013C356.555 149.651 356.296 149.365 355.958 149.155C355.625 148.946 355.23 148.841 354.776 148.841C354.275 148.841 353.842 148.965 353.476 149.214C353.114 149.459 352.835 149.778 352.64 150.173C352.445 150.567 352.347 150.989 352.347 151.44V152.165C352.347 152.783 352.453 153.306 352.667 153.736C352.883 154.162 353.183 154.487 353.567 154.711C353.95 154.931 354.396 155.041 354.904 155.041C355.234 155.041 355.532 154.995 355.799 154.903C356.068 154.807 356.301 154.665 356.496 154.477C356.692 154.285 356.843 154.047 356.949 153.763L358.164 154.104C358.036 154.516 357.821 154.878 357.519 155.19C357.217 155.499 356.844 155.741 356.401 155.915C355.957 156.085 355.458 156.17 354.904 156.17ZM360.204 159.068V147.818H361.418V149.118H361.567C361.66 148.976 361.788 148.795 361.951 148.575C362.118 148.351 362.356 148.152 362.665 147.978C362.977 147.8 363.4 147.712 363.932 147.712C364.621 147.712 365.229 147.884 365.754 148.228C366.28 148.573 366.69 149.061 366.985 149.693C367.279 150.325 367.427 151.071 367.427 151.93C367.427 152.797 367.279 153.548 366.985 154.184C366.69 154.816 366.282 155.306 365.76 155.654C365.238 155.998 364.636 156.17 363.954 156.17C363.428 156.17 363.007 156.083 362.691 155.909C362.375 155.732 362.132 155.531 361.962 155.308C361.791 155.08 361.66 154.892 361.567 154.743H361.461V159.068H360.204ZM361.44 151.909C361.44 152.527 361.53 153.072 361.711 153.544C361.892 154.013 362.157 154.381 362.505 154.647C362.853 154.91 363.279 155.041 363.783 155.041C364.309 155.041 364.747 154.903 365.099 154.626C365.454 154.345 365.72 153.969 365.898 153.496C366.079 153.021 366.17 152.491 366.17 151.909C366.17 151.334 366.081 150.815 365.903 150.354C365.729 149.888 365.465 149.521 365.11 149.251C364.758 148.978 364.316 148.841 363.783 148.841C363.272 148.841 362.842 148.971 362.494 149.23C362.146 149.485 361.883 149.844 361.706 150.306C361.528 150.764 361.44 151.298 361.44 151.909ZM370.602 145.091V156H369.344V145.091H370.602ZM376.228 156.17C375.489 156.17 374.841 155.995 374.284 155.643C373.73 155.292 373.296 154.8 372.984 154.168C372.675 153.536 372.52 152.797 372.52 151.952C372.52 151.099 372.675 150.355 372.984 149.72C373.296 149.084 373.73 148.591 374.284 148.239C374.841 147.887 375.489 147.712 376.228 147.712C376.966 147.712 377.613 147.887 378.167 148.239C378.724 148.591 379.158 149.084 379.466 149.72C379.779 150.355 379.935 151.099 379.935 151.952C379.935 152.797 379.779 153.536 379.466 154.168C379.158 154.8 378.724 155.292 378.167 155.643C377.613 155.995 376.966 156.17 376.228 156.17ZM376.228 155.041C376.789 155.041 377.251 154.897 377.613 154.61C377.975 154.322 378.243 153.944 378.417 153.475C378.591 153.006 378.678 152.499 378.678 151.952C378.678 151.405 378.591 150.895 378.417 150.423C378.243 149.951 377.975 149.569 377.613 149.278C377.251 148.987 376.789 148.841 376.228 148.841C375.667 148.841 375.205 148.987 374.843 149.278C374.481 149.569 374.213 149.951 374.039 150.423C373.865 150.895 373.778 151.405 373.778 151.952C373.778 152.499 373.865 153.006 374.039 153.475C374.213 153.944 374.481 154.322 374.843 154.61C375.205 154.897 375.667 155.041 376.228 155.041ZM382.371 159.068C382.158 159.068 381.968 159.05 381.801 159.015C381.634 158.983 381.519 158.951 381.455 158.919L381.774 157.811C382.08 157.889 382.35 157.918 382.584 157.896C382.818 157.875 383.026 157.77 383.207 157.582C383.392 157.397 383.561 157.097 383.713 156.682L383.948 156.043L380.922 147.818H382.286L384.544 154.338H384.629L386.888 147.818H388.252L384.779 157.193C384.622 157.616 384.429 157.966 384.198 158.243C383.967 158.523 383.699 158.731 383.394 158.866C383.092 159.001 382.751 159.068 382.371 159.068ZM393.048 156.17C392.26 156.17 391.58 155.996 391.008 155.648C390.44 155.297 390.001 154.807 389.692 154.178C389.387 153.546 389.234 152.811 389.234 151.973C389.234 151.135 389.387 150.396 389.692 149.757C390.001 149.114 390.431 148.614 390.981 148.255C391.535 147.893 392.182 147.712 392.92 147.712C393.347 147.712 393.767 147.783 394.183 147.925C394.598 148.067 394.977 148.298 395.317 148.617C395.658 148.933 395.93 149.352 396.132 149.874C396.335 150.396 396.436 151.039 396.436 151.803V152.335H390.129V151.249H395.158C395.158 150.787 395.065 150.375 394.881 150.013C394.7 149.651 394.44 149.365 394.103 149.155C393.769 148.946 393.375 148.841 392.92 148.841C392.42 148.841 391.986 148.965 391.621 149.214C391.258 149.459 390.98 149.778 390.784 150.173C390.589 150.567 390.491 150.989 390.491 151.44V152.165C390.491 152.783 390.598 153.306 390.811 153.736C391.028 154.162 391.328 154.487 391.711 154.711C392.095 154.931 392.54 155.041 393.048 155.041C393.379 155.041 393.677 154.995 393.943 154.903C394.213 154.807 394.446 154.665 394.641 154.477C394.836 154.285 394.987 154.047 395.094 153.763L396.308 154.104C396.18 154.516 395.966 154.878 395.664 155.19C395.362 155.499 394.989 155.741 394.545 155.915C394.101 156.085 393.602 156.17 393.048 156.17ZM398.348 156V147.818H399.563V149.097H399.669C399.84 148.66 400.115 148.321 400.495 148.079C400.875 147.834 401.331 147.712 401.864 147.712C402.404 147.712 402.853 147.834 403.212 148.079C403.574 148.321 403.856 148.66 404.059 149.097H404.144C404.353 148.674 404.668 148.338 405.087 148.09C405.506 147.838 406.008 147.712 406.594 147.712C407.326 147.712 407.924 147.941 408.389 148.399C408.854 148.853 409.087 149.562 409.087 150.524V156H407.83V150.524C407.83 149.92 407.665 149.489 407.334 149.23C407.004 148.971 406.615 148.841 406.168 148.841C405.593 148.841 405.147 149.015 404.831 149.363C404.515 149.707 404.357 150.144 404.357 150.673V156H403.078V150.396C403.078 149.931 402.928 149.556 402.626 149.272C402.324 148.985 401.935 148.841 401.459 148.841C401.132 148.841 400.827 148.928 400.543 149.102C400.262 149.276 400.035 149.517 399.861 149.826C399.691 150.132 399.605 150.485 399.605 150.886V156H398.348ZM412.643 151.078V156H411.385V147.818H412.6V149.097H412.706C412.898 148.681 413.189 148.347 413.58 148.095C413.971 147.839 414.475 147.712 415.093 147.712C415.647 147.712 416.132 147.825 416.547 148.053C416.962 148.276 417.286 148.617 417.516 149.075C417.747 149.53 417.863 150.105 417.863 150.801V156H416.606V150.886C416.606 150.244 416.439 149.743 416.105 149.384C415.771 149.022 415.313 148.841 414.731 148.841C414.329 148.841 413.971 148.928 413.655 149.102C413.342 149.276 413.095 149.53 412.914 149.864C412.733 150.197 412.643 150.602 412.643 151.078ZM423.718 147.818V148.884H419.478V147.818H423.718ZM420.714 145.858H421.971V153.656C421.971 154.011 422.022 154.278 422.125 154.455C422.232 154.629 422.367 154.746 422.53 154.807C422.697 154.864 422.873 154.892 423.058 154.892C423.196 154.892 423.31 154.885 423.398 154.871C423.487 154.853 423.558 154.839 423.612 154.828L423.867 155.957C423.782 155.989 423.663 156.021 423.51 156.053C423.358 156.089 423.164 156.107 422.93 156.107C422.575 156.107 422.227 156.03 421.886 155.877C421.548 155.725 421.268 155.492 421.044 155.18C420.824 154.867 420.714 154.473 420.714 153.997V145.858ZM354.372 165.818C354.308 165.278 354.049 164.859 353.595 164.561C353.14 164.263 352.583 164.114 351.922 164.114C351.439 164.114 351.017 164.192 350.654 164.348C350.296 164.504 350.015 164.719 349.813 164.993C349.614 165.266 349.514 165.577 349.514 165.925C349.514 166.216 349.584 166.466 349.722 166.676C349.864 166.882 350.045 167.054 350.265 167.192C350.486 167.327 350.716 167.439 350.958 167.528C351.199 167.613 351.421 167.683 351.624 167.736L352.732 168.034C353.016 168.109 353.332 168.212 353.68 168.343C354.031 168.474 354.367 168.654 354.687 168.881C355.01 169.105 355.276 169.392 355.486 169.744C355.695 170.096 355.8 170.527 355.8 171.038C355.8 171.628 355.645 172.161 355.337 172.636C355.031 173.112 354.584 173.49 353.994 173.771C353.408 174.051 352.696 174.192 351.858 174.192C351.077 174.192 350.4 174.066 349.829 173.814C349.261 173.561 348.813 173.21 348.486 172.759C348.163 172.308 347.98 171.784 347.938 171.188H349.301C349.337 171.599 349.475 171.94 349.717 172.21C349.962 172.477 350.271 172.675 350.644 172.807C351.02 172.935 351.425 172.999 351.858 172.999C352.362 172.999 352.815 172.917 353.216 172.754C353.618 172.587 353.936 172.356 354.17 172.061C354.404 171.763 354.522 171.415 354.522 171.017C354.522 170.655 354.42 170.36 354.218 170.133C354.015 169.906 353.749 169.721 353.419 169.579C353.089 169.437 352.732 169.312 352.348 169.206L351.006 168.822C350.154 168.577 349.479 168.228 348.982 167.773C348.485 167.319 348.236 166.724 348.236 165.989C348.236 165.378 348.401 164.845 348.731 164.391C349.065 163.933 349.513 163.577 350.074 163.325C350.638 163.07 351.269 162.942 351.965 162.942C352.668 162.942 353.293 163.068 353.84 163.32C354.387 163.569 354.82 163.909 355.139 164.343C355.463 164.776 355.633 165.268 355.651 165.818H354.372ZM361.125 174.17C360.358 174.17 359.698 173.989 359.144 173.627C358.59 173.265 358.164 172.766 357.865 172.13C357.567 171.495 357.418 170.768 357.418 169.952C357.418 169.121 357.571 168.387 357.876 167.752C358.185 167.113 358.615 166.614 359.165 166.255C359.719 165.893 360.365 165.712 361.104 165.712C361.679 165.712 362.198 165.818 362.659 166.031C363.121 166.244 363.499 166.543 363.794 166.926C364.089 167.31 364.272 167.757 364.343 168.268H363.086C362.99 167.896 362.777 167.565 362.446 167.278C362.12 166.987 361.679 166.841 361.125 166.841C360.635 166.841 360.206 166.969 359.836 167.224C359.47 167.477 359.185 167.833 358.979 168.295C358.776 168.753 358.675 169.291 358.675 169.909C358.675 170.541 358.774 171.092 358.973 171.56C359.176 172.029 359.46 172.393 359.826 172.652C360.195 172.912 360.628 173.041 361.125 173.041C361.452 173.041 361.749 172.984 362.015 172.871C362.281 172.757 362.507 172.594 362.691 172.381C362.876 172.168 363.007 171.912 363.086 171.614H364.343C364.272 172.097 364.096 172.532 363.815 172.919C363.538 173.302 363.171 173.608 362.713 173.835C362.258 174.059 361.729 174.17 361.125 174.17ZM369.611 174.17C368.822 174.17 368.142 173.996 367.571 173.648C367.002 173.297 366.564 172.807 366.255 172.178C365.95 171.546 365.797 170.811 365.797 169.973C365.797 169.135 365.95 168.396 366.255 167.757C366.564 167.114 366.994 166.614 367.544 166.255C368.098 165.893 368.744 165.712 369.483 165.712C369.909 165.712 370.33 165.783 370.745 165.925C371.161 166.067 371.539 166.298 371.88 166.617C372.221 166.933 372.492 167.352 372.695 167.874C372.897 168.396 372.999 169.039 372.999 169.803V170.335H366.692V169.249H371.72C371.72 168.787 371.628 168.375 371.443 168.013C371.262 167.651 371.003 167.365 370.665 167.155C370.332 166.946 369.937 166.841 369.483 166.841C368.982 166.841 368.549 166.965 368.183 167.214C367.821 167.459 367.542 167.778 367.347 168.173C367.152 168.567 367.054 168.989 367.054 169.44V170.165C367.054 170.783 367.16 171.306 367.374 171.736C367.59 172.162 367.89 172.487 368.274 172.711C368.657 172.931 369.103 173.041 369.611 173.041C369.941 173.041 370.239 172.995 370.506 172.903C370.776 172.807 371.008 172.665 371.203 172.477C371.399 172.285 371.55 172.047 371.656 171.763L372.871 172.104C372.743 172.516 372.528 172.878 372.226 173.19C371.924 173.499 371.551 173.741 371.108 173.915C370.664 174.085 370.165 174.17 369.611 174.17ZM376.168 169.078V174H374.911V165.818H376.125V167.097H376.232C376.424 166.681 376.715 166.347 377.105 166.095C377.496 165.839 378 165.712 378.618 165.712C379.172 165.712 379.657 165.825 380.072 166.053C380.488 166.276 380.811 166.617 381.042 167.075C381.273 167.53 381.388 168.105 381.388 168.801V174H380.131V168.886C380.131 168.244 379.964 167.743 379.63 167.384C379.296 167.022 378.838 166.841 378.256 166.841C377.855 166.841 377.496 166.928 377.18 167.102C376.867 167.276 376.621 167.53 376.44 167.864C376.258 168.197 376.168 168.602 376.168 169.078ZM386.093 174.192C385.574 174.192 385.104 174.094 384.681 173.899C384.259 173.7 383.923 173.414 383.675 173.041C383.426 172.665 383.302 172.21 383.302 171.678C383.302 171.209 383.394 170.829 383.579 170.538C383.763 170.243 384.01 170.012 384.319 169.845C384.628 169.678 384.969 169.554 385.342 169.472C385.718 169.387 386.096 169.32 386.476 169.27C386.974 169.206 387.377 169.158 387.686 169.126C387.998 169.091 388.225 169.032 388.367 168.95C388.513 168.869 388.586 168.727 388.586 168.524V168.482C388.586 167.956 388.442 167.548 388.154 167.256C387.87 166.965 387.439 166.82 386.86 166.82C386.26 166.82 385.789 166.951 385.448 167.214C385.107 167.477 384.868 167.757 384.729 168.055L383.536 167.629C383.749 167.132 384.033 166.745 384.388 166.468C384.747 166.187 385.138 165.992 385.56 165.882C385.986 165.768 386.405 165.712 386.817 165.712C387.08 165.712 387.382 165.744 387.723 165.808C388.067 165.868 388.399 165.994 388.719 166.186C389.042 166.377 389.31 166.667 389.523 167.054C389.736 167.441 389.843 167.96 389.843 168.609V174H388.586V172.892H388.522C388.437 173.07 388.295 173.26 388.096 173.462C387.897 173.664 387.632 173.837 387.302 173.979C386.972 174.121 386.569 174.192 386.093 174.192ZM386.285 173.062C386.782 173.062 387.201 172.965 387.542 172.77C387.886 172.574 388.145 172.322 388.319 172.013C388.497 171.704 388.586 171.379 388.586 171.038V169.888C388.533 169.952 388.415 170.01 388.234 170.064C388.057 170.113 387.851 170.158 387.616 170.197C387.386 170.232 387.16 170.264 386.94 170.293C386.723 170.317 386.547 170.339 386.413 170.357C386.086 170.399 385.78 170.468 385.496 170.564C385.216 170.657 384.989 170.797 384.814 170.985C384.644 171.17 384.559 171.422 384.559 171.741C384.559 172.178 384.72 172.509 385.044 172.732C385.37 172.952 385.784 173.062 386.285 173.062ZM392.137 174V165.818H393.352V167.054H393.437C393.586 166.649 393.856 166.321 394.247 166.069C394.637 165.816 395.078 165.69 395.568 165.69C395.66 165.69 395.776 165.692 395.914 165.696C396.053 165.699 396.157 165.705 396.228 165.712V166.99C396.186 166.979 396.088 166.963 395.935 166.942C395.786 166.917 395.628 166.905 395.461 166.905C395.064 166.905 394.708 166.988 394.396 167.155C394.087 167.319 393.842 167.546 393.661 167.837C393.483 168.125 393.394 168.453 393.394 168.822V174H392.137ZM397.718 174V165.818H398.976V174H397.718ZM398.358 164.455C398.113 164.455 397.901 164.371 397.724 164.204C397.55 164.037 397.463 163.837 397.463 163.602C397.463 163.368 397.55 163.167 397.724 163C397.901 162.833 398.113 162.75 398.358 162.75C398.603 162.75 398.812 162.833 398.986 163C399.164 163.167 399.253 163.368 399.253 163.602C399.253 163.837 399.164 164.037 398.986 164.204C398.812 164.371 398.603 164.455 398.358 164.455ZM404.602 174.17C403.863 174.17 403.215 173.995 402.658 173.643C402.104 173.292 401.67 172.8 401.358 172.168C401.049 171.536 400.894 170.797 400.894 169.952C400.894 169.099 401.049 168.355 401.358 167.72C401.67 167.084 402.104 166.591 402.658 166.239C403.215 165.887 403.863 165.712 404.602 165.712C405.341 165.712 405.987 165.887 406.541 166.239C407.098 166.591 407.532 167.084 407.841 167.72C408.153 168.355 408.309 169.099 408.309 169.952C408.309 170.797 408.153 171.536 407.841 172.168C407.532 172.8 407.098 173.292 406.541 173.643C405.987 173.995 405.341 174.17 404.602 174.17ZM404.602 173.041C405.163 173.041 405.625 172.897 405.987 172.61C406.349 172.322 406.617 171.944 406.791 171.475C406.965 171.006 407.052 170.499 407.052 169.952C407.052 169.405 406.965 168.895 406.791 168.423C406.617 167.951 406.349 167.569 405.987 167.278C405.625 166.987 405.163 166.841 404.602 166.841C404.041 166.841 403.579 166.987 403.217 167.278C402.855 167.569 402.587 167.951 402.413 168.423C402.239 168.895 402.152 169.405 402.152 169.952C402.152 170.499 402.239 171.006 402.413 171.475C402.587 171.944 402.855 172.322 403.217 172.61C403.579 172.897 404.041 173.041 404.602 173.041ZM416.024 167.651L414.894 167.97C414.823 167.782 414.719 167.599 414.58 167.422C414.445 167.24 414.261 167.091 414.026 166.974C413.792 166.857 413.492 166.798 413.126 166.798C412.625 166.798 412.208 166.914 411.874 167.145C411.544 167.372 411.379 167.661 411.379 168.013C411.379 168.325 411.492 168.572 411.72 168.753C411.947 168.934 412.302 169.085 412.785 169.206L414 169.504C414.731 169.682 415.276 169.953 415.635 170.319C415.993 170.681 416.173 171.148 416.173 171.72C416.173 172.189 416.038 172.608 415.768 172.977C415.502 173.347 415.129 173.638 414.649 173.851C414.17 174.064 413.612 174.17 412.977 174.17C412.142 174.17 411.452 173.989 410.905 173.627C410.358 173.265 410.012 172.736 409.866 172.04L411.059 171.741C411.173 172.182 411.388 172.512 411.704 172.732C412.023 172.952 412.441 173.062 412.955 173.062C413.541 173.062 414.007 172.938 414.351 172.69C414.699 172.437 414.873 172.136 414.873 171.784C414.873 171.5 414.774 171.262 414.575 171.07C414.376 170.875 414.071 170.729 413.659 170.634L412.295 170.314C411.546 170.136 410.995 169.861 410.644 169.488C410.296 169.112 410.122 168.641 410.122 168.077C410.122 167.615 410.251 167.207 410.511 166.852C410.773 166.496 411.13 166.218 411.581 166.015C412.036 165.813 412.551 165.712 413.126 165.712C413.936 165.712 414.571 165.889 415.033 166.244C415.498 166.599 415.828 167.068 416.024 167.651Z" fill="#2488B3"/>
<path d="M363.881 271.091H365.457L369.165 280.146H369.293L373 271.091H374.577V282H373.341V273.712H373.234L369.825 282H368.632L365.223 273.712H365.116V282H363.881V271.091ZM380.485 282.17C379.697 282.17 379.017 281.996 378.445 281.648C377.877 281.297 377.438 280.807 377.129 280.178C376.824 279.546 376.671 278.811 376.671 277.973C376.671 277.135 376.824 276.396 377.129 275.757C377.438 275.114 377.868 274.614 378.419 274.255C378.972 273.893 379.619 273.712 380.357 273.712C380.784 273.712 381.204 273.783 381.62 273.925C382.035 274.067 382.414 274.298 382.754 274.617C383.095 274.933 383.367 275.352 383.569 275.874C383.772 276.396 383.873 277.039 383.873 277.803V278.335H377.566V277.249H382.595C382.595 276.787 382.502 276.375 382.318 276.013C382.137 275.651 381.877 275.365 381.54 275.155C381.206 274.946 380.812 274.841 380.357 274.841C379.857 274.841 379.423 274.965 379.058 275.214C378.695 275.459 378.417 275.778 378.221 276.173C378.026 276.567 377.928 276.989 377.928 277.44V278.165C377.928 278.783 378.035 279.306 378.248 279.736C378.465 280.162 378.765 280.487 379.148 280.711C379.532 280.931 379.977 281.041 380.485 281.041C380.816 281.041 381.114 280.995 381.38 280.903C381.65 280.807 381.883 280.665 382.078 280.477C382.273 280.285 382.424 280.047 382.531 279.763L383.745 280.104C383.617 280.516 383.403 280.878 383.101 281.19C382.799 281.499 382.426 281.741 381.982 281.915C381.538 282.085 381.039 282.17 380.485 282.17ZM389.344 273.818V274.884H385.104V273.818H389.344ZM386.339 271.858H387.596V279.656C387.596 280.011 387.648 280.278 387.751 280.455C387.857 280.629 387.992 280.746 388.156 280.807C388.323 280.864 388.498 280.892 388.683 280.892C388.822 280.892 388.935 280.885 389.024 280.871C389.113 280.853 389.184 280.839 389.237 280.828L389.493 281.957C389.407 281.989 389.289 282.021 389.136 282.053C388.983 282.089 388.79 282.107 388.555 282.107C388.2 282.107 387.852 282.03 387.511 281.877C387.174 281.725 386.893 281.492 386.67 281.18C386.449 280.867 386.339 280.473 386.339 279.997V271.858ZM391.235 282V273.818H392.449V275.054H392.534C392.683 274.649 392.953 274.321 393.344 274.069C393.735 273.816 394.175 273.69 394.665 273.69C394.757 273.69 394.873 273.692 395.011 273.696C395.15 273.699 395.254 273.705 395.325 273.712V274.99C395.283 274.979 395.185 274.963 395.032 274.942C394.883 274.917 394.725 274.905 394.558 274.905C394.161 274.905 393.806 274.988 393.493 275.155C393.184 275.319 392.939 275.546 392.758 275.837C392.58 276.125 392.492 276.453 392.492 276.822V282H391.235ZM396.816 282V273.818H398.073V282H396.816ZM397.455 272.455C397.21 272.455 396.998 272.371 396.821 272.204C396.647 272.037 396.56 271.837 396.56 271.602C396.56 271.368 396.647 271.167 396.821 271C396.998 270.833 397.21 270.75 397.455 270.75C397.7 270.75 397.909 270.833 398.083 271C398.261 271.167 398.35 271.368 398.35 271.602C398.35 271.837 398.261 272.037 398.083 272.204C397.909 272.371 397.7 272.455 397.455 272.455ZM403.699 282.17C402.932 282.17 402.271 281.989 401.718 281.627C401.164 281.265 400.737 280.766 400.439 280.13C400.141 279.495 399.992 278.768 399.992 277.952C399.992 277.121 400.144 276.387 400.45 275.752C400.759 275.113 401.188 274.614 401.739 274.255C402.293 273.893 402.939 273.712 403.678 273.712C404.253 273.712 404.771 273.818 405.233 274.031C405.695 274.244 406.073 274.543 406.368 274.926C406.662 275.31 406.845 275.757 406.916 276.268H405.659C405.563 275.896 405.35 275.565 405.02 275.278C404.693 274.987 404.253 274.841 403.699 274.841C403.209 274.841 402.779 274.969 402.41 275.224C402.044 275.477 401.758 275.833 401.552 276.295C401.35 276.753 401.249 277.291 401.249 277.909C401.249 278.541 401.348 279.092 401.547 279.56C401.749 280.029 402.034 280.393 402.399 280.652C402.769 280.912 403.202 281.041 403.699 281.041C404.026 281.041 404.322 280.984 404.589 280.871C404.855 280.757 405.08 280.594 405.265 280.381C405.45 280.168 405.581 279.912 405.659 279.614H406.916C406.845 280.097 406.67 280.532 406.389 280.919C406.112 281.302 405.744 281.608 405.286 281.835C404.832 282.059 404.303 282.17 403.699 282.17ZM414.55 275.651L413.42 275.97C413.349 275.782 413.244 275.599 413.106 275.422C412.971 275.24 412.786 275.091 412.552 274.974C412.318 274.857 412.018 274.798 411.652 274.798C411.151 274.798 410.734 274.914 410.4 275.145C410.07 275.372 409.905 275.661 409.905 276.013C409.905 276.325 410.018 276.572 410.246 276.753C410.473 276.934 410.828 277.085 411.311 277.206L412.525 277.504C413.257 277.682 413.802 277.953 414.161 278.319C414.519 278.681 414.699 279.148 414.699 279.72C414.699 280.189 414.564 280.608 414.294 280.977C414.028 281.347 413.655 281.638 413.175 281.851C412.696 282.064 412.138 282.17 411.503 282.17C410.668 282.17 409.977 281.989 409.431 281.627C408.884 281.265 408.537 280.736 408.392 280.04L409.585 279.741C409.699 280.182 409.914 280.512 410.23 280.732C410.549 280.952 410.966 281.062 411.481 281.062C412.067 281.062 412.532 280.938 412.877 280.69C413.225 280.437 413.399 280.136 413.399 279.784C413.399 279.5 413.3 279.262 413.101 279.07C412.902 278.875 412.596 278.729 412.184 278.634L410.821 278.314C410.072 278.136 409.521 277.861 409.17 277.488C408.822 277.112 408.648 276.641 408.648 276.077C408.648 275.615 408.777 275.207 409.036 274.852C409.299 274.496 409.656 274.218 410.107 274.015C410.562 273.813 411.077 273.712 411.652 273.712C412.461 273.712 413.097 273.889 413.559 274.244C414.024 274.599 414.354 275.068 414.55 275.651ZM353.174 291.818L350.148 300H348.87L345.844 291.818H347.208L349.467 298.338H349.552L351.81 291.818H353.174ZM354.833 300V291.818H356.09V300H354.833ZM355.472 290.455C355.227 290.455 355.016 290.371 354.839 290.204C354.665 290.037 354.578 289.837 354.578 289.602C354.578 289.368 354.665 289.167 354.839 289C355.016 288.833 355.227 288.75 355.472 288.75C355.717 288.75 355.927 288.833 356.101 289C356.278 289.167 356.367 289.368 356.367 289.602C356.367 289.837 356.278 290.037 356.101 290.204C355.927 290.371 355.717 290.455 355.472 290.455ZM364.188 293.651L363.059 293.97C362.988 293.782 362.883 293.599 362.745 293.422C362.61 293.24 362.425 293.091 362.191 292.974C361.956 292.857 361.656 292.798 361.29 292.798C360.79 292.798 360.373 292.914 360.039 293.145C359.708 293.372 359.543 293.661 359.543 294.013C359.543 294.325 359.657 294.572 359.884 294.753C360.112 294.934 360.467 295.085 360.95 295.206L362.164 295.504C362.896 295.682 363.441 295.953 363.799 296.319C364.158 296.681 364.337 297.148 364.337 297.72C364.337 298.189 364.202 298.608 363.933 298.977C363.666 299.347 363.293 299.638 362.814 299.851C362.335 300.064 361.777 300.17 361.141 300.17C360.307 300.17 359.616 299.989 359.069 299.627C358.522 299.265 358.176 298.736 358.031 298.04L359.224 297.741C359.337 298.182 359.552 298.512 359.868 298.732C360.188 298.952 360.605 299.062 361.12 299.062C361.706 299.062 362.171 298.938 362.516 298.69C362.864 298.437 363.038 298.136 363.038 297.784C363.038 297.5 362.938 297.262 362.739 297.07C362.54 296.875 362.235 296.729 361.823 296.634L360.46 296.314C359.71 296.136 359.16 295.861 358.808 295.488C358.46 295.112 358.286 294.641 358.286 294.077C358.286 293.615 358.416 293.207 358.675 292.852C358.938 292.496 359.295 292.218 359.746 292.015C360.2 291.813 360.715 291.712 361.29 291.712C362.1 291.712 362.736 291.889 363.197 292.244C363.663 292.599 363.993 293.068 364.188 293.651ZM371.386 296.655V291.818H372.643V300H371.386V298.615H371.301C371.109 299.031 370.811 299.384 370.406 299.675C370.001 299.963 369.49 300.107 368.872 300.107C368.36 300.107 367.906 299.995 367.508 299.771C367.11 299.544 366.798 299.203 366.571 298.748C366.343 298.29 366.23 297.713 366.23 297.017V291.818H367.487V296.932C367.487 297.528 367.654 298.004 367.987 298.359C368.325 298.714 368.755 298.892 369.277 298.892C369.589 298.892 369.907 298.812 370.23 298.652C370.557 298.493 370.83 298.248 371.05 297.917C371.274 297.587 371.386 297.166 371.386 296.655ZM377.353 300.192C376.835 300.192 376.364 300.094 375.942 299.899C375.519 299.7 375.183 299.414 374.935 299.041C374.686 298.665 374.562 298.21 374.562 297.678C374.562 297.209 374.654 296.829 374.839 296.538C375.024 296.243 375.27 296.012 375.579 295.845C375.888 295.678 376.229 295.554 376.602 295.472C376.979 295.387 377.357 295.32 377.737 295.27C378.234 295.206 378.637 295.158 378.946 295.126C379.258 295.091 379.486 295.032 379.628 294.95C379.773 294.869 379.846 294.727 379.846 294.524V294.482C379.846 293.956 379.702 293.548 379.415 293.256C379.131 292.965 378.699 292.82 378.12 292.82C377.52 292.82 377.05 292.951 376.709 293.214C376.368 293.477 376.128 293.757 375.99 294.055L374.796 293.629C375.009 293.132 375.294 292.745 375.649 292.468C376.007 292.187 376.398 291.992 376.82 291.882C377.247 291.768 377.666 291.712 378.078 291.712C378.34 291.712 378.642 291.744 378.983 291.808C379.328 291.868 379.66 291.994 379.979 292.186C380.302 292.377 380.57 292.667 380.784 293.054C380.997 293.441 381.103 293.96 381.103 294.609V300H379.846V298.892H379.782C379.697 299.07 379.555 299.26 379.356 299.462C379.157 299.664 378.893 299.837 378.562 299.979C378.232 300.121 377.829 300.192 377.353 300.192ZM377.545 299.062C378.042 299.062 378.461 298.965 378.802 298.77C379.146 298.574 379.406 298.322 379.58 298.013C379.757 297.704 379.846 297.379 379.846 297.038V295.888C379.793 295.952 379.676 296.01 379.494 296.064C379.317 296.113 379.111 296.158 378.877 296.197C378.646 296.232 378.42 296.264 378.2 296.293C377.983 296.317 377.808 296.339 377.673 296.357C377.346 296.399 377.041 296.468 376.757 296.564C376.476 296.657 376.249 296.797 376.075 296.985C375.904 297.17 375.819 297.422 375.819 297.741C375.819 298.178 375.981 298.509 376.304 298.732C376.631 298.952 377.044 299.062 377.545 299.062ZM384.655 289.091V300H383.398V289.091H384.655ZM386.957 300V291.818H388.214V300H386.957ZM387.596 290.455C387.351 290.455 387.14 290.371 386.963 290.204C386.789 290.037 386.702 289.837 386.702 289.602C386.702 289.368 386.789 289.167 386.963 289C387.14 288.833 387.351 288.75 387.596 288.75C387.841 288.75 388.051 288.833 388.225 289C388.403 289.167 388.491 289.368 388.491 289.602C388.491 289.837 388.403 290.037 388.225 290.204C388.051 290.371 387.841 290.455 387.596 290.455ZM390.282 300V299.041L394.927 293.075V292.99H390.432V291.818H396.547V292.82L392.03 298.743V298.828H396.696V300H390.282ZM401.04 300.192C400.521 300.192 400.051 300.094 399.628 299.899C399.206 299.7 398.87 299.414 398.621 299.041C398.373 298.665 398.248 298.21 398.248 297.678C398.248 297.209 398.341 296.829 398.525 296.538C398.71 296.243 398.957 296.012 399.266 295.845C399.575 295.678 399.916 295.554 400.289 295.472C400.665 295.387 401.043 295.32 401.423 295.27C401.92 295.206 402.323 295.158 402.632 295.126C402.945 295.091 403.172 295.032 403.314 294.95C403.46 294.869 403.533 294.727 403.533 294.524V294.482C403.533 293.956 403.389 293.548 403.101 293.256C402.817 292.965 402.386 292.82 401.807 292.82C401.207 292.82 400.736 292.951 400.395 293.214C400.054 293.477 399.815 293.757 399.676 294.055L398.483 293.629C398.696 293.132 398.98 292.745 399.335 292.468C399.694 292.187 400.084 291.992 400.507 291.882C400.933 291.768 401.352 291.712 401.764 291.712C402.027 291.712 402.329 291.744 402.67 291.808C403.014 291.868 403.346 291.994 403.666 292.186C403.989 292.377 404.257 292.667 404.47 293.054C404.683 293.441 404.79 293.96 404.79 294.609V300H403.533V298.892H403.469C403.383 299.07 403.241 299.26 403.043 299.462C402.844 299.664 402.579 299.837 402.249 299.979C401.919 300.121 401.516 300.192 401.04 300.192ZM401.231 299.062C401.729 299.062 402.148 298.965 402.489 298.77C402.833 298.574 403.092 298.322 403.266 298.013C403.444 297.704 403.533 297.379 403.533 297.038V295.888C403.479 295.952 403.362 296.01 403.181 296.064C403.003 296.113 402.797 296.158 402.563 296.197C402.332 296.232 402.107 296.264 401.887 296.293C401.67 296.317 401.494 296.339 401.359 296.357C401.033 296.399 400.727 296.468 400.443 296.564C400.163 296.657 399.935 296.797 399.761 296.985C399.591 297.17 399.506 297.422 399.506 297.741C399.506 298.178 399.667 298.509 399.99 298.732C400.317 298.952 400.731 299.062 401.231 299.062ZM410.642 291.818V292.884H406.402V291.818H410.642ZM407.638 289.858H408.895V297.656C408.895 298.011 408.947 298.278 409.05 298.455C409.156 298.629 409.291 298.746 409.455 298.807C409.621 298.864 409.797 298.892 409.982 298.892C410.12 298.892 410.234 298.885 410.323 298.871C410.412 298.853 410.483 298.839 410.536 298.828L410.792 299.957C410.706 299.989 410.587 300.021 410.435 300.053C410.282 300.089 410.088 300.107 409.854 300.107C409.499 300.107 409.151 300.03 408.81 299.877C408.473 299.725 408.192 299.492 407.968 299.18C407.748 298.867 407.638 298.473 407.638 297.997V289.858ZM412.533 300V291.818H413.79V300H412.533ZM413.173 290.455C412.928 290.455 412.716 290.371 412.539 290.204C412.365 290.037 412.278 289.837 412.278 289.602C412.278 289.368 412.365 289.167 412.539 289C412.716 288.833 412.928 288.75 413.173 288.75C413.418 288.75 413.627 288.833 413.801 289C413.979 289.167 414.067 289.368 414.067 289.602C414.067 289.837 413.979 290.037 413.801 290.204C413.627 290.371 413.418 290.455 413.173 290.455ZM419.417 300.17C418.678 300.17 418.03 299.995 417.473 299.643C416.919 299.292 416.485 298.8 416.173 298.168C415.864 297.536 415.709 296.797 415.709 295.952C415.709 295.099 415.864 294.355 416.173 293.72C416.485 293.084 416.919 292.591 417.473 292.239C418.03 291.887 418.678 291.712 419.417 291.712C420.155 291.712 420.802 291.887 421.356 292.239C421.913 292.591 422.347 293.084 422.655 293.72C422.968 294.355 423.124 295.099 423.124 295.952C423.124 296.797 422.968 297.536 422.655 298.168C422.347 298.8 421.913 299.292 421.356 299.643C420.802 299.995 420.155 300.17 419.417 300.17ZM419.417 299.041C419.978 299.041 420.44 298.897 420.802 298.61C421.164 298.322 421.432 297.944 421.606 297.475C421.78 297.006 421.867 296.499 421.867 295.952C421.867 295.405 421.78 294.895 421.606 294.423C421.432 293.951 421.164 293.569 420.802 293.278C420.44 292.987 419.978 292.841 419.417 292.841C418.856 292.841 418.394 292.987 418.032 293.278C417.67 293.569 417.402 293.951 417.228 294.423C417.054 294.895 416.967 295.405 416.967 295.952C416.967 296.499 417.054 297.006 417.228 297.475C417.402 297.944 417.67 298.322 418.032 298.61C418.394 298.897 418.856 299.041 419.417 299.041ZM426.3 295.078V300H425.043V291.818H426.258V293.097H426.364C426.556 292.681 426.847 292.347 427.238 292.095C427.628 291.839 428.133 291.712 428.751 291.712C429.305 291.712 429.789 291.825 430.205 292.053C430.62 292.276 430.943 292.617 431.174 293.075C431.405 293.53 431.52 294.105 431.52 294.801V300H430.263V294.886C430.263 294.244 430.096 293.743 429.763 293.384C429.429 293.022 428.971 292.841 428.388 292.841C427.987 292.841 427.628 292.928 427.312 293.102C427 293.276 426.753 293.53 426.572 293.864C426.391 294.197 426.3 294.602 426.3 295.078Z" fill="#2488B3"/>
<path d="M15.196 297V286.091H18.8821C19.7344 286.091 20.4339 286.237 20.9808 286.528C21.5277 286.815 21.9325 287.211 22.1953 287.716C22.4581 288.22 22.5895 288.793 22.5895 289.436C22.5895 290.079 22.4581 290.649 22.1953 291.146C21.9325 291.643 21.5295 292.034 20.9862 292.318C20.4428 292.598 19.7486 292.739 18.9034 292.739H15.9205V291.545H18.8608C19.4432 291.545 19.9119 291.46 20.267 291.29C20.6257 291.119 20.8849 290.878 21.0447 290.565C21.2081 290.249 21.2898 289.873 21.2898 289.436C21.2898 288.999 21.2081 288.618 21.0447 288.291C20.8814 287.964 20.6204 287.712 20.2617 287.534C19.9031 287.353 19.429 287.263 18.8395 287.263H16.517V297H15.196ZM20.331 292.099L23.0156 297H21.4815L18.8395 292.099H20.331ZM24.6203 297V288.818H25.8774V297H24.6203ZM25.2595 287.455C25.0145 287.455 24.8032 287.371 24.6256 287.204C24.4516 287.037 24.3646 286.837 24.3646 286.602C24.3646 286.368 24.4516 286.167 24.6256 286C24.8032 285.833 25.0145 285.75 25.2595 285.75C25.5045 285.75 25.714 285.833 25.8881 286C26.0656 286.167 26.1544 286.368 26.1544 286.602C26.1544 286.837 26.0656 287.037 25.8881 287.204C25.714 287.371 25.5045 287.455 25.2595 287.455ZM33.9753 290.651L32.8461 290.97C32.775 290.782 32.6703 290.599 32.5318 290.422C32.3968 290.24 32.2122 290.091 31.9778 289.974C31.7434 289.857 31.4434 289.798 31.0776 289.798C30.5769 289.798 30.1596 289.914 29.8258 290.145C29.4956 290.372 29.3304 290.661 29.3304 291.013C29.3304 291.325 29.4441 291.572 29.6713 291.753C29.8986 291.934 30.2537 292.085 30.7367 292.206L31.9512 292.504C32.6827 292.682 33.2278 292.953 33.5865 293.319C33.9451 293.681 34.1245 294.148 34.1245 294.72C34.1245 295.189 33.9895 295.608 33.7196 295.977C33.4533 296.347 33.0804 296.638 32.601 296.851C32.1216 297.064 31.5641 297.17 30.9284 297.17C30.0939 297.17 29.4032 296.989 28.8564 296.627C28.3095 296.265 27.9632 295.736 27.8176 295.04L29.0108 294.741C29.1245 295.182 29.3393 295.512 29.6554 295.732C29.975 295.952 30.3922 296.062 30.9071 296.062C31.4931 296.062 31.9583 295.938 32.3027 295.69C32.6507 295.437 32.8248 295.136 32.8248 294.784C32.8248 294.5 32.7253 294.262 32.5265 294.07C32.3276 293.875 32.0222 293.729 31.6103 293.634L30.2466 293.314C29.4973 293.136 28.9469 292.861 28.5953 292.488C28.2473 292.112 28.0733 291.641 28.0733 291.077C28.0733 290.615 28.2029 290.207 28.4622 289.852C28.725 289.496 29.0819 289.218 29.5328 289.015C29.9874 288.813 30.5023 288.712 31.0776 288.712C31.8873 288.712 32.5229 288.889 32.9846 289.244C33.4498 289.599 33.78 290.068 33.9753 290.651ZM37.1887 294.017L37.1673 292.462H37.423L41.0026 288.818H42.558L38.7441 292.675H38.6375L37.1887 294.017ZM36.0168 297V286.091H37.2739V297H36.0168ZM41.2156 297L38.0196 292.952L38.9145 292.078L42.8137 297H41.2156ZM48.5652 286.091H50.1419L53.8493 295.146H53.9771L57.6845 286.091H59.2612V297H58.0254V288.712H57.9189L54.5098 297H53.3166L49.9075 288.712H49.801V297H48.5652V286.091ZM65.1698 297.17C64.3815 297.17 63.7014 296.996 63.1297 296.648C62.5615 296.297 62.123 295.807 61.814 295.178C61.5086 294.546 61.3559 293.811 61.3559 292.973C61.3559 292.135 61.5086 291.396 61.814 290.757C62.123 290.114 62.5526 289.614 63.1031 289.255C63.657 288.893 64.3034 288.712 65.042 288.712C65.4681 288.712 65.8889 288.783 66.3044 288.925C66.7199 289.067 67.0981 289.298 67.439 289.617C67.7799 289.933 68.0516 290.352 68.254 290.874C68.4564 291.396 68.5576 292.039 68.5576 292.803V293.335H62.2508V292.249H67.2792C67.2792 291.787 67.1869 291.375 67.0022 291.013C66.8211 290.651 66.5619 290.365 66.2245 290.155C65.8907 289.946 65.4965 289.841 65.042 289.841C64.5413 289.841 64.108 289.965 63.7423 290.214C63.3801 290.459 63.1013 290.778 62.906 291.173C62.7107 291.567 62.613 291.989 62.613 292.44V293.165C62.613 293.783 62.7195 294.306 62.9326 294.736C63.1492 295.162 63.4493 295.487 63.8328 295.711C64.2164 295.931 64.662 296.041 65.1698 296.041C65.5001 296.041 65.7984 295.995 66.0647 295.903C66.3346 295.807 66.5672 295.665 66.7625 295.477C66.9578 295.285 67.1088 295.047 67.2153 294.763L68.4298 295.104C68.3019 295.516 68.0871 295.878 67.7852 296.19C67.4834 296.499 67.1105 296.741 66.6666 296.915C66.2227 297.085 65.7238 297.17 65.1698 297.17ZM74.0281 288.818V289.884H69.7881V288.818H74.0281ZM71.0239 286.858H72.281V294.656C72.281 295.011 72.3325 295.278 72.4355 295.455C72.542 295.629 72.6769 295.746 72.8403 295.807C73.0072 295.864 73.183 295.892 73.3676 295.892C73.5061 295.892 73.6198 295.885 73.7085 295.871C73.7973 295.853 73.8683 295.839 73.9216 295.828L74.1773 296.957C74.0921 296.989 73.9731 297.021 73.8204 297.053C73.6677 297.089 73.4742 297.107 73.2398 297.107C72.8847 297.107 72.5367 297.03 72.1958 296.877C71.8584 296.725 71.5779 296.492 71.3541 296.18C71.134 295.867 71.0239 295.473 71.0239 294.997V286.858ZM75.9191 297V288.818H77.1336V290.054H77.2188C77.368 289.649 77.6379 289.321 78.0285 289.069C78.4191 288.816 78.8595 288.69 79.3495 288.69C79.4419 288.69 79.5573 288.692 79.6958 288.696C79.8343 288.699 79.939 288.705 80.01 288.712V289.99C79.9674 289.979 79.8698 289.963 79.7171 289.942C79.5679 289.917 79.4099 289.905 79.243 289.905C78.8453 289.905 78.4901 289.988 78.1776 290.155C77.8687 290.319 77.6237 290.546 77.4426 290.837C77.265 291.125 77.1762 291.453 77.1762 291.822V297H75.9191ZM81.5002 297V288.818H82.7573V297H81.5002ZM82.1394 287.455C81.8944 287.455 81.6831 287.371 81.5055 287.204C81.3315 287.037 81.2445 286.837 81.2445 286.602C81.2445 286.368 81.3315 286.167 81.5055 286C81.6831 285.833 81.8944 285.75 82.1394 285.75C82.3844 285.75 82.5939 285.833 82.7679 286C82.9455 286.167 83.0343 286.368 83.0343 286.602C83.0343 286.837 82.9455 287.037 82.7679 287.204C82.5939 287.371 82.3844 287.455 82.1394 287.455ZM88.3836 297.17C87.6166 297.17 86.9561 296.989 86.4021 296.627C85.8481 296.265 85.422 295.766 85.1237 295.13C84.8254 294.495 84.6762 293.768 84.6762 292.952C84.6762 292.121 84.8289 291.387 85.1343 290.752C85.4433 290.113 85.873 289.614 86.4234 289.255C86.9774 288.893 87.6237 288.712 88.3623 288.712C88.9376 288.712 89.4561 288.818 89.9177 289.031C90.3794 289.244 90.7575 289.543 91.0523 289.926C91.347 290.31 91.5299 290.757 91.6009 291.268H90.3438C90.248 290.896 90.0349 290.565 89.7046 290.278C89.3779 289.987 88.9376 289.841 88.3836 289.841C87.8936 289.841 87.4639 289.969 87.0945 290.224C86.7288 290.477 86.4429 290.833 86.2369 291.295C86.0345 291.753 85.9333 292.291 85.9333 292.909C85.9333 293.541 86.0328 294.092 86.2316 294.56C86.434 295.029 86.7181 295.393 87.0839 295.652C87.4532 295.912 87.8865 296.041 88.3836 296.041C88.7103 296.041 89.0068 295.984 89.2732 295.871C89.5395 295.757 89.765 295.594 89.9497 295.381C90.1343 295.168 90.2657 294.912 90.3438 294.614H91.6009C91.5299 295.097 91.3541 295.532 91.0736 295.919C90.7966 296.302 90.4291 296.608 89.971 296.835C89.5164 297.059 88.9873 297.17 88.3836 297.17ZM99.2341 290.651L98.1048 290.97C98.0338 290.782 97.9291 290.599 97.7906 290.422C97.6556 290.24 97.471 290.091 97.2366 289.974C97.0022 289.857 96.7021 289.798 96.3364 289.798C95.8357 289.798 95.4184 289.914 95.0846 290.145C94.7544 290.372 94.5892 290.661 94.5892 291.013C94.5892 291.325 94.7029 291.572 94.9301 291.753C95.1574 291.934 95.5125 292.085 95.9955 292.206L97.21 292.504C97.9415 292.682 98.4866 292.953 98.8453 293.319C99.2039 293.681 99.3833 294.148 99.3833 294.72C99.3833 295.189 99.2483 295.608 98.9784 295.977C98.7121 296.347 98.3392 296.638 97.8598 296.851C97.3804 297.064 96.8229 297.17 96.1872 297.17C95.3527 297.17 94.662 296.989 94.1151 296.627C93.5683 296.265 93.222 295.736 93.0764 295.04L94.2696 294.741C94.3833 295.182 94.5981 295.512 94.9142 295.732C95.2338 295.952 95.651 296.062 96.1659 296.062C96.7519 296.062 97.2171 295.938 97.5615 295.69C97.9095 295.437 98.0835 295.136 98.0835 294.784C98.0835 294.5 97.9841 294.262 97.7852 294.07C97.5864 293.875 97.281 293.729 96.8691 293.634L95.5054 293.314C94.7561 293.136 94.2057 292.861 93.8541 292.488C93.5061 292.112 93.3321 291.641 93.3321 291.077C93.3321 290.615 93.4617 290.207 93.721 289.852C93.9838 289.496 94.3406 289.218 94.7916 289.015C95.2462 288.813 95.7611 288.712 96.3364 288.712C97.146 288.712 97.7817 288.889 98.2433 289.244C98.7085 289.599 99.0388 290.068 99.2341 290.651Z" fill="#2488B3"/>
<path d="M204.411 1.42978L178.411 20.3927C178.153 20.581 178 20.8812 178 21.2007V44.7993C178 45.1188 178.153 45.419 178.411 45.6073L204.411 64.5702C204.762 64.8263 205.238 64.8263 205.589 64.5702L231.589 45.6073C231.847 45.419 232 45.1188 232 44.7993V21.2007C232 20.8812 231.847 20.581 231.589 20.3927L205.589 1.42978C205.238 1.1737 204.762 1.1737 204.411 1.42978Z" fill="#D9D9D9" stroke="#2488B3" stroke-width="2" stroke-linecap="round"/>
<path d="M379.411 40.4298L353.411 59.3927C353.153 59.581 353 59.8812 353 60.2007V83.7993C353 84.1188 353.153 84.419 353.411 84.6073L379.411 103.57C379.762 103.826 380.238 103.826 380.589 103.57L406.589 84.6073C406.847 84.419 407 84.1188 407 83.7993V60.2007C407 59.8812 406.847 59.581 406.589 59.3927L380.589 40.4298C380.238 40.1737 379.762 40.1737 379.411 40.4298Z" fill="#D9D9D9" stroke="#2488B3" stroke-width="2" stroke-linecap="round"/>
<path d="M49.4107 199.43L23.4107 218.393C23.1526 218.581 23 218.881 23 219.201V242.799C23 243.119 23.1526 243.419 23.4107 243.607L49.4107 262.57C49.7618 262.826 50.2381 262.826 50.5893 262.57L76.5893 243.607C76.8474 243.419 77 243.119 77 242.799V219.201C77 218.881 76.8474 218.581 76.5893 218.393L50.5893 199.43C50.2382 199.174 49.7618 199.174 49.4107 199.43Z" fill="#D9D9D9" stroke="#2488B3" stroke-width="2" stroke-linecap="round"/>
<path d="M387.411 196.43L361.411 215.393C361.153 215.581 361 215.881 361 216.201V239.799C361 240.119 361.153 240.419 361.411 240.607L387.411 259.57C387.762 259.826 388.238 259.826 388.589 259.57L414.589 240.607C414.847 240.419 415 240.119 415 239.799V216.201C415 215.881 414.847 215.581 414.589 215.393L388.589 196.43C388.238 196.174 387.762 196.174 387.411 196.43Z" fill="#D9D9D9" stroke="#2488B3" stroke-width="2" stroke-linecap="round"/>
<rect x="191.5" y="20.5" width="27" height="24" rx="0.5" fill="#F5F5F5" stroke="#398DEF"/>
<rect x="208" y="24" width="6" height="5" fill="#398DEF"/>
<line x1="196.5" y1="32.5" x2="212.5" y2="32.5" stroke="#398DEF" stroke-linecap="round"/>
<line x1="196.5" y1="35.5" x2="207.5" y2="35.5" stroke="#398DEF" stroke-linecap="round"/>
<path d="M205.644 44C206.144 44.3333 207.144 44.5 208.144 44C209.156 43.494 209.644 43 209.644 43M208.644 47L210.644 44.5" stroke="#398DEF" stroke-width="0.5" stroke-linecap="round"/>
<line x1="215.978" y1="37.7604" x2="222.453" y2="27.1659" stroke="#398DEF" stroke-linecap="round"/>
<rect x="214.306" y="36" width="4.50851" height="4" rx="1" transform="rotate(32.7159 214.306 36)" fill="#398DEF"/>
<path d="M213.049 38.6534C212.569 39.5021 210.359 41.2601 205.354 41.5026" stroke="#398DEF" stroke-width="0.5" stroke-linecap="round"/>
<path d="M214.74 48.0753C214.291 47.2497 213.965 44.4851 216.258 40.0323" stroke="#398DEF" stroke-width="0.5" stroke-linecap="round"/>
<path d="M205.144 41.5C204.81 42.3333 204.844 44.5 207.644 46.5C210.444 48.5 213.477 48.3333 214.644 48" stroke="#398DEF" stroke-width="0.5" stroke-linecap="round"/>
<path d="M211.144 48C211.544 46.8 212.644 45.5 213.144 45" stroke="#398DEF" stroke-width="0.5" stroke-linecap="round"/>
<rect width="33.2718" height="26.5405" transform="matrix(0.935039 0.354546 -0.4103 0.91195 369.89 54)" fill="#398DEF"/>
<line y1="-0.5" x2="23.0587" y2="-0.5" transform="matrix(0.940172 0.340699 -0.395015 0.918675 365.276 74.9495)" stroke="#F5F5F5"/>
<line y1="-0.5" x2="23.0587" y2="-0.5" transform="matrix(0.940172 0.340699 -0.395015 0.918675 367.558 69.7121)" stroke="#F5F5F5"/>
<line y1="-0.5" x2="23.0587" y2="-0.5" transform="matrix(0.940172 0.340699 -0.395015 0.918675 369.269 64.4748)" stroke="#F5F5F5"/>
<line y1="-0.5" x2="23.0587" y2="-0.5" transform="matrix(0.940172 0.340699 -0.395015 0.918675 372.122 59.7611)" stroke="#F5F5F5"/>
<line y1="-0.5" x2="21.2027" y2="-0.5" transform="matrix(-0.457419 0.889251 -0.917495 -0.397747 376.115 58.7136)" stroke="#F5F5F5"/>
<line y1="-0.5" x2="21.2027" y2="-0.5" transform="matrix(-0.457419 0.889251 -0.917495 -0.397747 381.82 61.3323)" stroke="#F5F5F5"/>
<line y1="-0.5" x2="21.2027" y2="-0.5" transform="matrix(-0.457419 0.889251 -0.917495 -0.397747 388.096 62.9035)" stroke="#F5F5F5"/>
<line y1="-0.5" x2="21.2027" y2="-0.5" transform="matrix(-0.457419 0.889251 -0.917495 -0.397747 393.23 65.5222)" stroke="#F5F5F5"/>
<path d="M50.433 218.75L61.6913 238.25C61.8838 238.583 61.6432 239 61.2583 239H38.7417C38.3568 239 38.1162 238.583 38.3087 238.25L49.567 218.75C49.7594 218.417 50.2406 218.417 50.433 218.75Z" fill="#D9D9D9" stroke="#398DEF"/>
<path d="M51.2251 225.091L51.1186 232.932H49.8828L49.7762 225.091H51.2251ZM50.5007 236.085C50.2379 236.085 50.0124 235.991 49.8242 235.803C49.636 235.615 49.5419 235.389 49.5419 235.126C49.5419 234.864 49.636 234.638 49.8242 234.45C50.0124 234.262 50.2379 234.168 50.5007 234.168C50.7634 234.168 50.9889 234.262 51.1772 234.45C51.3654 234.638 51.4595 234.864 51.4595 235.126C51.4595 235.3 51.4151 235.46 51.3263 235.606C51.2411 235.751 51.1257 235.869 50.9801 235.957C50.838 236.043 50.6782 236.085 50.5007 236.085Z" fill="#ED1D29"/>
<circle cx="375.5" cy="236.5" r="3.5" fill="#398DEF"/>
<circle cx="386.5" cy="220.5" r="3.5" fill="#398DEF"/>
<circle cx="393.5" cy="233.5" r="3.5" fill="#398DEF"/>
<circle cx="404.5" cy="219.5" r="3.5" fill="#398DEF"/>
<line x1="375.58" y1="236.728" x2="386.58" y2="219.728" stroke="#398DEF"/>
<line x1="387.447" y1="220.776" x2="393.447" y2="232.776" stroke="#398DEF"/>
<line x1="394.593" y1="233.709" x2="404.593" y2="219.709" stroke="#398DEF"/>
</svg>
