<svg width="422" height="285" viewBox="0 0 422 285" fill="none" xmlns="http://www.w3.org/2000/svg">
<rect x="136" y="166" width="98" height="98" rx="9" stroke="#2488B3" stroke-width="2"/>
<rect x="324" y="36" width="94" height="78" rx="9" stroke="#2488B3" stroke-width="2"/>
<line x1="158" y1="157" x2="158" y2="166" stroke="#2488B3" stroke-width="2" stroke-linecap="round"/>
<line x1="171" y1="157" x2="171" y2="166" stroke="#2488B3" stroke-width="2" stroke-linecap="round"/>
<line x1="183" y1="157" x2="183" y2="166" stroke="#2488B3" stroke-width="2" stroke-linecap="round"/>
<line x1="196" y1="157" x2="196" y2="166" stroke="#2488B3" stroke-width="2" stroke-linecap="round"/>
<line x1="210" y1="157" x2="210" y2="166" stroke="#2488B3" stroke-width="2" stroke-linecap="round"/>
<line x1="158" y1="265" x2="158" y2="274" stroke="#2488B3" stroke-width="2" stroke-linecap="round"/>
<line x1="171" y1="265" x2="171" y2="274" stroke="#2488B3" stroke-width="2" stroke-linecap="round"/>
<line x1="183" y1="265" x2="183" y2="274" stroke="#2488B3" stroke-width="2" stroke-linecap="round"/>
<line x1="196" y1="265" x2="196" y2="274" stroke="#2488B3" stroke-width="2" stroke-linecap="round"/>
<line x1="210" y1="265" x2="210" y2="274" stroke="#2488B3" stroke-width="2" stroke-linecap="round"/>
<line x1="243.009" y1="188.01" x2="234.01" y2="188.096" stroke="#2488B3" stroke-width="2" stroke-linecap="round"/>
<line x1="243.134" y1="201.009" x2="234.134" y2="201.095" stroke="#2488B3" stroke-width="2" stroke-linecap="round"/>
<line x1="243.249" y1="213.008" x2="234.249" y2="213.095" stroke="#2488B3" stroke-width="2" stroke-linecap="round"/>
<line x1="243.374" y1="226.008" x2="234.374" y2="226.094" stroke="#2488B3" stroke-width="2" stroke-linecap="round"/>
<line x1="243.508" y1="240.007" x2="234.508" y2="240.094" stroke="#2488B3" stroke-width="2" stroke-linecap="round"/>
<line x1="135.009" y1="187.01" x2="126.01" y2="187.096" stroke="#2488B3" stroke-width="2" stroke-linecap="round"/>
<line x1="135.134" y1="200.009" x2="126.134" y2="200.095" stroke="#2488B3" stroke-width="2" stroke-linecap="round"/>
<line x1="135.249" y1="212.008" x2="126.249" y2="212.095" stroke="#2488B3" stroke-width="2" stroke-linecap="round"/>
<line x1="135.374" y1="225.008" x2="126.374" y2="225.094" stroke="#2488B3" stroke-width="2" stroke-linecap="round"/>
<line x1="135.508" y1="239.007" x2="126.508" y2="239.094" stroke="#2488B3" stroke-width="2" stroke-linecap="round"/>
<path d="M161.126 236H157.895L167.241 210.545H170.423L179.77 236H176.538L168.932 214.572H168.733L161.126 236ZM162.32 226.057H175.345V228.791H162.32V226.057ZM183.735 236V210.545H192.336C194.333 210.545 195.965 210.906 197.233 211.627C198.509 212.339 199.453 213.305 200.066 214.523C200.68 215.741 200.986 217.1 200.986 218.599C200.986 220.099 200.68 221.462 200.066 222.689C199.462 223.915 198.525 224.893 197.257 225.622C195.99 226.343 194.366 226.703 192.385 226.703H186.221V223.969H192.286C193.653 223.969 194.751 223.733 195.58 223.26C196.408 222.788 197.009 222.15 197.382 221.346C197.763 220.534 197.953 219.619 197.953 218.599C197.953 217.58 197.763 216.669 197.382 215.865C197.009 215.061 196.404 214.432 195.567 213.976C194.73 213.512 193.62 213.28 192.236 213.28H186.817V236H183.735ZM209.034 210.545V236H205.952V210.545H209.034Z" fill="#2488B3"/>
<path d="M162.761 207V192.455H167.676C168.813 192.455 169.745 192.649 170.474 193.037C171.204 193.42 171.743 193.948 172.094 194.621C172.444 195.293 172.619 196.058 172.619 196.915C172.619 197.772 172.444 198.532 172.094 199.195C171.743 199.857 171.206 200.378 170.482 200.757C169.757 201.131 168.831 201.318 167.705 201.318H163.727V199.727H167.648C168.424 199.727 169.049 199.614 169.523 199.386C170.001 199.159 170.347 198.837 170.56 198.42C170.777 197.999 170.886 197.497 170.886 196.915C170.886 196.332 170.777 195.823 170.56 195.388C170.342 194.952 169.994 194.616 169.516 194.379C169.037 194.138 168.405 194.017 167.619 194.017H164.523V207H162.761ZM169.608 200.466L173.188 207H171.142L167.619 200.466H169.608ZM179.784 207.227C178.733 207.227 177.826 206.995 177.064 206.531C176.306 206.062 175.721 205.409 175.309 204.571C174.902 203.728 174.699 202.748 174.699 201.631C174.699 200.513 174.902 199.528 175.309 198.676C175.721 197.819 176.294 197.152 177.028 196.673C177.767 196.19 178.628 195.949 179.613 195.949C180.181 195.949 180.743 196.044 181.297 196.233C181.85 196.422 182.355 196.73 182.809 197.156C183.264 197.578 183.626 198.136 183.896 198.832C184.166 199.528 184.301 200.385 184.301 201.403V202.114H175.892V200.665H182.596C182.596 200.049 182.473 199.5 182.227 199.017C181.985 198.534 181.64 198.153 181.19 197.874C180.745 197.594 180.219 197.455 179.613 197.455C178.946 197.455 178.368 197.62 177.88 197.952C177.397 198.278 177.026 198.705 176.765 199.23C176.505 199.756 176.375 200.319 176.375 200.92V201.886C176.375 202.71 176.517 203.409 176.801 203.982C177.09 204.55 177.49 204.983 178.001 205.281C178.512 205.575 179.107 205.722 179.784 205.722C180.224 205.722 180.622 205.66 180.977 205.537C181.337 205.409 181.647 205.22 181.907 204.969C182.168 204.713 182.369 204.396 182.511 204.017L184.13 204.472C183.96 205.021 183.673 205.504 183.271 205.92C182.868 206.332 182.371 206.654 181.779 206.886C181.188 207.114 180.522 207.227 179.784 207.227ZM194.578 198.534L193.072 198.96C192.977 198.709 192.838 198.465 192.653 198.229C192.473 197.987 192.227 197.788 191.914 197.632C191.602 197.476 191.202 197.398 190.714 197.398C190.047 197.398 189.49 197.552 189.045 197.859C188.605 198.162 188.385 198.548 188.385 199.017C188.385 199.434 188.536 199.763 188.839 200.004C189.142 200.246 189.616 200.447 190.26 200.608L191.879 201.006C192.854 201.242 193.581 201.605 194.059 202.092C194.538 202.575 194.777 203.198 194.777 203.96C194.777 204.585 194.597 205.144 194.237 205.636C193.882 206.129 193.385 206.517 192.745 206.801C192.106 207.085 191.363 207.227 190.515 207.227C189.403 207.227 188.482 206.986 187.752 206.503C187.023 206.02 186.562 205.314 186.368 204.386L187.958 203.989C188.11 204.576 188.396 205.016 188.818 205.31C189.244 205.603 189.8 205.75 190.487 205.75C191.268 205.75 191.888 205.584 192.348 205.253C192.812 204.917 193.044 204.514 193.044 204.045C193.044 203.667 192.911 203.349 192.646 203.094C192.381 202.833 191.974 202.639 191.424 202.511L189.606 202.085C188.607 201.848 187.873 201.482 187.404 200.984C186.94 200.482 186.708 199.855 186.708 199.102C186.708 198.487 186.881 197.942 187.227 197.469C187.577 196.995 188.053 196.624 188.654 196.354C189.261 196.084 189.947 195.949 190.714 195.949C191.794 195.949 192.641 196.186 193.257 196.659C193.877 197.133 194.317 197.758 194.578 198.534ZM202.044 196.091V197.511H196.391V196.091H202.044ZM198.038 193.477H199.714V203.875C199.714 204.348 199.783 204.704 199.92 204.94C200.063 205.172 200.242 205.329 200.46 205.409C200.683 205.485 200.917 205.523 201.163 205.523C201.348 205.523 201.5 205.513 201.618 205.494C201.736 205.471 201.831 205.452 201.902 205.438L202.243 206.943C202.129 206.986 201.971 207.028 201.767 207.071C201.563 207.118 201.305 207.142 200.993 207.142C200.519 207.142 200.055 207.04 199.601 206.837C199.151 206.633 198.777 206.323 198.479 205.906C198.185 205.49 198.038 204.964 198.038 204.33V193.477Z" fill="#2488B3"/>
<path fill-rule="evenodd" clip-rule="evenodd" d="M337 165H331C325.477 165 321 169.477 321 175V255C321 260.523 325.477 265 331 265H411C416.523 265 421 260.523 421 255V175C421 169.477 416.523 165 411 165H353V167H411C415.418 167 419 170.582 419 175V255C419 259.418 415.418 263 411 263H331C326.582 263 323 259.418 323 255V175C323 170.582 326.582 167 331 167H337V165Z" fill="#2488B3"/>
<line x1="321" y1="187" x2="419" y2="187" stroke="#2488B3" stroke-width="2"/>
<circle cx="386" cy="177" r="5" fill="#2488B3"/>
<circle cx="399" cy="177" r="5" fill="#2488B3"/>
<circle cx="373" cy="177" r="5" fill="#2488B3"/>
<circle cx="404" cy="255" r="5" fill="#2488B3"/>
<rect x="336.5" y="202.5" width="13" height="12" rx="3.5" fill="#D9D9D9" stroke="#2488B3"/>
<rect x="359.5" y="202.5" width="13" height="12" rx="3.5" fill="#D9D9D9" stroke="#2488B3"/>
<rect x="380.5" y="202.5" width="27" height="12" rx="3.5" fill="#D9D9D9" stroke="#2488B3"/>
<line x1="338" y1="227.5" x2="408" y2="227.5" stroke="#2488B3"/>
<line x1="338" y1="243.5" x2="408" y2="243.5" stroke="#2488B3"/>
<line x1="338" y1="235.5" x2="394" y2="235.5" stroke="#2488B3"/>
<path d="M343.48 171.091H344.801V178.314C344.801 179.06 344.625 179.725 344.274 180.311C343.926 180.894 343.434 181.354 342.798 181.691C342.163 182.025 341.417 182.192 340.561 182.192C339.705 182.192 338.96 182.025 338.324 181.691C337.688 181.354 337.195 180.894 336.843 180.311C336.495 179.725 336.321 179.06 336.321 178.314V171.091H337.642V178.207C337.642 178.74 337.759 179.214 337.994 179.63C338.228 180.042 338.562 180.366 338.995 180.604C339.432 180.839 339.954 180.956 340.561 180.956C341.168 180.956 341.69 180.839 342.127 180.604C342.564 180.366 342.898 180.042 343.129 179.63C343.363 179.214 343.48 178.74 343.48 178.207V171.091ZM348.76 171.091V182H347.439V171.091H348.76Z" fill="#2488B3"/>
<path d="M267.646 214.146C267.451 214.342 267.451 214.658 267.646 214.854L270.828 218.036C271.024 218.231 271.34 218.231 271.536 218.036C271.731 217.84 271.731 217.524 271.536 217.328L268.707 214.5L271.536 211.672C271.731 211.476 271.731 211.16 271.536 210.964C271.34 210.769 271.024 210.769 270.828 210.964L267.646 214.146ZM308.354 214.854C308.549 214.658 308.549 214.342 308.354 214.146L305.172 210.964C304.976 210.769 304.66 210.769 304.464 210.964C304.269 211.16 304.269 211.476 304.464 211.672L307.293 214.5L304.464 217.328C304.269 217.524 304.269 217.84 304.464 218.036C304.66 218.231 304.976 218.231 305.172 218.036L308.354 214.854ZM268 215H308V214H268V215Z" fill="#2488B3"/>
<path d="M372.526 156.356C372.722 156.55 373.038 156.549 373.233 156.353L376.405 153.162C376.6 152.966 376.599 152.649 376.403 152.455C376.207 152.26 375.891 152.261 375.696 152.457L372.876 155.294L370.039 152.474C369.843 152.279 369.527 152.28 369.332 152.476C369.137 152.672 369.138 152.989 369.334 153.183L372.526 156.356ZM373.158 131.644C372.962 131.45 372.645 131.451 372.451 131.647L369.278 134.838C369.084 135.034 369.085 135.351 369.281 135.545C369.476 135.74 369.793 135.739 369.988 135.543L372.807 132.706L375.644 135.526C375.84 135.721 376.157 135.72 376.352 135.524C376.546 135.328 376.545 135.011 376.349 134.817L373.158 131.644ZM373.378 155.999L373.305 131.997L372.305 132.001L372.378 156.003L373.378 155.999Z" fill="#2488B3"/>
<path d="M237.523 167.849C237.44 168.112 237.586 168.393 237.849 168.477L242.138 169.838C242.401 169.922 242.682 169.776 242.766 169.513C242.849 169.25 242.704 168.969 242.44 168.885L238.628 167.675L239.838 163.862C239.922 163.599 239.776 163.318 239.513 163.234C239.25 163.151 238.969 163.296 238.885 163.56L237.523 167.849ZM321.477 125.151C321.56 124.888 321.414 124.607 321.151 124.523L316.862 123.162C316.599 123.078 316.318 123.224 316.234 123.487C316.151 123.75 316.296 124.031 316.56 124.115L320.372 125.325L319.162 129.138C319.078 129.401 319.224 129.682 319.487 129.766C319.75 129.849 320.031 129.704 320.115 129.44L321.477 125.151ZM238.23 168.444L321.23 125.444L320.77 124.556L237.77 167.556L238.23 168.444Z" fill="#2488B3"/>
<path d="M129.068 168.495C129.342 168.457 129.533 168.205 129.495 167.932L128.879 163.474C128.841 163.2 128.589 163.009 128.315 163.047C128.042 163.085 127.851 163.337 127.889 163.611L128.436 167.573L124.474 168.121C124.2 168.159 124.009 168.411 124.047 168.685C124.085 168.958 124.337 169.149 124.611 169.111L129.068 168.495ZM58.9315 114.505C58.658 114.543 58.4669 114.795 58.5047 115.068L59.1208 119.526C59.1586 119.8 59.411 119.991 59.6845 119.953C59.9581 119.915 60.1492 119.663 60.1114 119.389L59.5637 115.427L63.5261 114.879C63.7996 114.841 63.9907 114.589 63.9529 114.315C63.9151 114.042 63.6627 113.851 63.3892 113.889L58.9315 114.505ZM129.302 167.601L59.3018 114.601L58.6982 115.399L128.698 168.399L129.302 167.601Z" fill="#2488B3"/>
<path d="M156.838 146.473C157.1 146.562 157.384 146.423 157.473 146.162L158.928 141.904C159.018 141.642 158.878 141.358 158.617 141.269C158.356 141.179 158.072 141.319 157.982 141.58L156.689 145.365L152.904 144.072C152.642 143.982 152.358 144.122 152.269 144.383C152.179 144.644 152.319 144.928 152.58 145.018L156.838 146.473ZM131.162 92.5269C130.9 92.4376 130.616 92.577 130.527 92.8383L129.072 97.0965C128.982 97.3578 129.122 97.642 129.383 97.7313C129.644 97.8206 129.928 97.6812 130.018 97.4199L131.311 93.6348L135.096 94.9285C135.358 95.0178 135.642 94.8783 135.731 94.617C135.821 94.3557 135.681 94.0715 135.42 93.9822L131.162 92.5269ZM157.449 145.78L131.449 92.7798L130.551 93.2202L156.551 146.22L157.449 145.78Z" fill="#2488B3"/>
<path d="M177.5 145.978C177.488 146.254 177.702 146.487 177.978 146.5L182.473 146.699C182.749 146.712 182.983 146.498 182.995 146.222C183.007 145.946 182.794 145.713 182.518 145.7L178.522 145.523L178.699 141.527C178.712 141.251 178.498 141.017 178.222 141.005C177.946 140.993 177.713 141.206 177.7 141.482L177.5 145.978ZM225.5 103.022C225.512 102.746 225.298 102.513 225.022 102.5L220.527 102.301C220.251 102.288 220.017 102.502 220.005 102.778C219.993 103.054 220.206 103.287 220.482 103.3L224.478 103.477L224.301 107.473C224.288 107.749 224.502 107.983 224.778 107.995C225.054 108.007 225.287 107.794 225.3 107.518L225.5 103.022ZM178.338 146.369L225.338 103.369L224.662 102.631L177.662 145.631L178.338 146.369Z" fill="#2488B3"/>
<path d="M117.354 207.354C117.549 207.158 117.549 206.842 117.354 206.646L114.172 203.464C113.976 203.269 113.66 203.269 113.464 203.464C113.269 203.66 113.269 203.976 113.464 204.172L116.293 207L113.464 209.828C113.269 210.024 113.269 210.34 113.464 210.536C113.66 210.731 113.976 210.731 114.172 210.536L117.354 207.354ZM83.6464 206.646C83.4512 206.842 83.4512 207.158 83.6464 207.354L86.8284 210.536C87.0237 210.731 87.3403 210.731 87.5355 210.536C87.7308 210.34 87.7308 210.024 87.5355 209.828L84.7071 207L87.5355 204.172C87.7308 203.976 87.7308 203.66 87.5355 203.464C87.3403 203.269 87.0237 203.269 86.8284 203.464L83.6464 206.646ZM117 206.5L84 206.5L84 207.5L117 207.5L117 206.5Z" fill="#2488B3"/>
<path fill-rule="evenodd" clip-rule="evenodd" d="M389.878 62.6842V80.1427L398.876 86.8542C399.647 87.4292 399.243 88.654 398.281 88.6557L386.021 88.6762C385.973 88.6763 385.926 88.6731 385.881 88.6667H360.402H354.08H347.249C346.343 88.6667 345.904 87.5581 346.564 86.9378L354.08 79.8781V62.6667L354.08 62.6667C354.08 54.1983 362.093 47.3333 371.979 47.3333C381.864 47.3333 389.878 54.1983 389.878 62.6667C389.878 62.6725 389.878 62.6784 389.878 62.6842Z" fill="#2488B3"/>
<rect x="369.538" y="44" width="4.88151" height="6.66667" rx="2.44075" fill="#2488B3"/>
<path fill-rule="evenodd" clip-rule="evenodd" d="M358.579 92.6667C360.986 96.9759 366.625 100 373.199 100C379.773 100 385.413 96.9759 387.82 92.6667H358.579Z" fill="#2488B3"/>
<path d="M8.77841 133.5C8.66122 133.141 8.50675 132.82 8.31499 132.536C8.12678 132.248 7.90128 132.003 7.63849 131.801C7.37926 131.598 7.08452 131.444 6.75426 131.337C6.42401 131.231 6.06179 131.178 5.66761 131.178C5.02131 131.178 4.43359 131.344 3.90447 131.678C3.37536 132.012 2.95455 132.504 2.64205 133.154C2.32955 133.804 2.1733 134.601 2.1733 135.545C2.1733 136.49 2.33132 137.287 2.64737 137.937C2.96342 138.587 3.39134 139.079 3.93111 139.413C4.47088 139.746 5.07813 139.913 5.75284 139.913C6.37784 139.913 6.92827 139.78 7.40412 139.514C7.88352 139.244 8.25639 138.864 8.52273 138.374C8.79261 137.88 8.92756 137.3 8.92756 136.632L9.33239 136.717H6.05114V135.545H10.206V136.717C10.206 137.616 10.0142 138.397 9.63068 139.061C9.25071 139.725 8.72514 140.24 8.05398 140.606C7.38636 140.968 6.61932 141.149 5.75284 141.149C4.78693 141.149 3.93821 140.922 3.20668 140.467C2.47869 140.013 1.91051 139.366 1.50213 138.528C1.0973 137.69 0.894886 136.696 0.894886 135.545C0.894886 134.683 1.0103 133.907 1.24112 133.218C1.4755 132.525 1.80575 131.936 2.23189 131.449C2.65803 130.963 3.16229 130.59 3.74467 130.331C4.32706 130.071 4.96804 129.942 5.66761 129.942C6.2429 129.942 6.77912 130.029 7.27628 130.203C7.77699 130.373 8.22266 130.616 8.61328 130.933C9.00746 131.245 9.33594 131.62 9.59872 132.056C9.86151 132.49 10.0426 132.971 10.142 133.5H8.77841ZM13.7895 130.091V141H12.4685V130.091H13.7895ZM22.4041 132.818C22.3402 132.278 22.081 131.859 21.6264 131.561C21.1719 131.263 20.6143 131.114 19.9538 131.114C19.4709 131.114 19.0483 131.192 18.6861 131.348C18.3274 131.504 18.0469 131.719 17.8445 131.993C17.6456 132.266 17.5462 132.577 17.5462 132.925C17.5462 133.216 17.6154 133.466 17.7539 133.676C17.896 133.882 18.0771 134.054 18.2972 134.192C18.5174 134.327 18.7482 134.439 18.9897 134.528C19.2312 134.613 19.4531 134.683 19.6555 134.736L20.7635 135.034C21.0476 135.109 21.3636 135.212 21.7116 135.343C22.0632 135.474 22.3988 135.654 22.7184 135.881C23.0415 136.105 23.3079 136.392 23.5174 136.744C23.7269 137.096 23.8317 137.527 23.8317 138.038C23.8317 138.628 23.6772 139.161 23.3683 139.636C23.0629 140.112 22.6154 140.49 22.0259 140.771C21.44 141.051 20.728 141.192 19.8899 141.192C19.1087 141.192 18.4322 141.066 17.8604 140.814C17.2923 140.561 16.8448 140.21 16.5181 139.759C16.195 139.308 16.0121 138.784 15.9695 138.188H17.3331C17.3686 138.599 17.5071 138.94 17.7486 139.21C17.9936 139.477 18.3026 139.675 18.6754 139.807C19.0518 139.935 19.4567 139.999 19.8899 139.999C20.3942 139.999 20.8469 139.917 21.2482 139.754C21.6495 139.587 21.9673 139.356 22.2017 139.061C22.4361 138.763 22.5533 138.415 22.5533 138.017C22.5533 137.655 22.4521 137.36 22.2496 137.133C22.0472 136.906 21.7809 136.721 21.4506 136.579C21.1204 136.437 20.7635 136.312 20.38 136.206L19.0376 135.822C18.1854 135.577 17.5107 135.228 17.0135 134.773C16.5163 134.319 16.2678 133.724 16.2678 132.989C16.2678 132.378 16.4329 131.845 16.7631 131.391C17.0969 130.933 17.5444 130.577 18.1055 130.325C18.6701 130.07 19.3004 129.942 19.9964 129.942C20.6996 129.942 21.3246 130.068 21.8714 130.32C22.4183 130.569 22.8516 130.909 23.1712 131.343C23.4943 131.776 23.6648 132.268 23.6825 132.818H22.4041ZM33.5889 141H30.2224V130.091H33.738C34.7963 130.091 35.7018 130.309 36.4546 130.746C37.2075 131.179 37.7845 131.803 38.1858 132.616C38.5871 133.425 38.7877 134.395 38.7877 135.524C38.7877 136.661 38.5853 137.639 38.1805 138.459C37.7757 139.276 37.1862 139.904 36.412 140.345C35.6379 140.782 34.6968 141 33.5889 141ZM31.5434 139.828H33.5036C34.4056 139.828 35.1531 139.654 35.7462 139.306C36.3392 138.958 36.7813 138.463 37.0725 137.82C37.3637 137.177 37.5093 136.412 37.5093 135.524C37.5093 134.643 37.3655 133.885 37.0779 133.25C36.7902 132.61 36.3605 132.12 35.7888 131.779C35.2171 131.435 34.5051 131.263 33.6528 131.263H31.5434V139.828ZM43.2409 141.192C42.7224 141.192 42.2519 141.094 41.8293 140.899C41.4067 140.7 41.0711 140.414 40.8225 140.041C40.574 139.665 40.4497 139.21 40.4497 138.678C40.4497 138.209 40.542 137.829 40.7267 137.538C40.9113 137.243 41.1581 137.012 41.4671 136.845C41.776 136.678 42.1169 136.554 42.4898 136.472C42.8662 136.387 43.2444 136.32 43.6244 136.27C44.1215 136.206 44.5246 136.158 44.8335 136.126C45.146 136.091 45.3733 136.032 45.5154 135.95C45.661 135.869 45.7338 135.727 45.7338 135.524V135.482C45.7338 134.956 45.5899 134.548 45.3023 134.256C45.0182 133.965 44.5867 133.82 44.0079 133.82C43.4078 133.82 42.9372 133.951 42.5963 134.214C42.2554 134.477 42.0157 134.757 41.8772 135.055L40.684 134.629C40.8971 134.132 41.1812 133.745 41.5363 133.468C41.895 133.187 42.2856 132.992 42.7082 132.882C43.1343 132.768 43.5534 132.712 43.9653 132.712C44.2281 132.712 44.5299 132.744 44.8708 132.808C45.2153 132.868 45.5473 132.994 45.8669 133.186C46.1901 133.377 46.4582 133.667 46.6713 134.054C46.8843 134.441 46.9909 134.96 46.9909 135.609V141H45.7338V139.892H45.6698C45.5846 140.07 45.4426 140.26 45.2437 140.462C45.0448 140.664 44.7803 140.837 44.45 140.979C44.1198 141.121 43.7167 141.192 43.2409 141.192ZM43.4326 140.062C43.9298 140.062 44.3488 139.965 44.6897 139.77C45.0342 139.574 45.2934 139.322 45.4674 139.013C45.645 138.704 45.7338 138.379 45.7338 138.038V136.888C45.6805 136.952 45.5633 137.01 45.3822 137.064C45.2046 137.113 44.9987 137.158 44.7643 137.197C44.5335 137.232 44.308 137.264 44.0878 137.293C43.8712 137.317 43.6954 137.339 43.5605 137.357C43.2338 137.399 42.9284 137.468 42.6443 137.564C42.3637 137.657 42.1365 137.797 41.9624 137.985C41.792 138.17 41.7068 138.422 41.7068 138.741C41.7068 139.178 41.8683 139.509 42.1915 139.732C42.5182 139.952 42.9319 140.062 43.4326 140.062ZM52.8436 132.818V133.884H48.6035V132.818H52.8436ZM49.8393 130.858H51.0964V138.656C51.0964 139.011 51.1479 139.278 51.2509 139.455C51.3574 139.629 51.4924 139.746 51.6557 139.807C51.8226 139.864 51.9984 139.892 52.1831 139.892C52.3216 139.892 52.4352 139.885 52.524 139.871C52.6127 139.853 52.6838 139.839 52.737 139.828L52.9927 140.957C52.9075 140.989 52.7885 141.021 52.6358 141.053C52.4831 141.089 52.2896 141.107 52.0552 141.107C51.7001 141.107 51.3521 141.03 51.0112 140.877C50.6738 140.725 50.3933 140.492 50.1696 140.18C49.9494 139.867 49.8393 139.473 49.8393 138.997V130.858ZM57.1422 141.192C56.6238 141.192 56.1532 141.094 55.7306 140.899C55.3081 140.7 54.9725 140.414 54.7239 140.041C54.4753 139.665 54.351 139.21 54.351 138.678C54.351 138.209 54.4434 137.829 54.628 137.538C54.8127 137.243 55.0595 137.012 55.3684 136.845C55.6774 136.678 56.0183 136.554 56.3912 136.472C56.7676 136.387 57.1458 136.32 57.5257 136.27C58.0229 136.206 58.426 136.158 58.7349 136.126C59.0474 136.091 59.2747 136.032 59.4167 135.95C59.5623 135.869 59.6351 135.727 59.6351 135.524V135.482C59.6351 134.956 59.4913 134.548 59.2037 134.256C58.9196 133.965 58.4881 133.82 57.9093 133.82C57.3091 133.82 56.8386 133.951 56.4977 134.214C56.1568 134.477 55.9171 134.757 55.7786 135.055L54.5854 134.629C54.7985 134.132 55.0826 133.745 55.4377 133.468C55.7963 133.187 56.187 132.992 56.6096 132.882C57.0357 132.768 57.4547 132.712 57.8667 132.712C58.1294 132.712 58.4313 132.744 58.7722 132.808C59.1167 132.868 59.4487 132.994 59.7683 133.186C60.0914 133.377 60.3596 133.667 60.5726 134.054C60.7857 134.441 60.8922 134.96 60.8922 135.609V141H59.6351V139.892H59.5712C59.486 140.07 59.3439 140.26 59.1451 140.462C58.9462 140.664 58.6816 140.837 58.3514 140.979C58.0211 141.121 57.6181 141.192 57.1422 141.192ZM57.334 140.062C57.8311 140.062 58.2502 139.965 58.5911 139.77C58.9355 139.574 59.1948 139.322 59.3688 139.013C59.5463 138.704 59.6351 138.379 59.6351 138.038V136.888C59.5819 136.952 59.4647 137.01 59.2836 137.064C59.106 137.113 58.9 137.158 58.6657 137.197C58.4348 137.232 58.2093 137.264 57.9892 137.293C57.7725 137.317 57.5968 137.339 57.4618 137.357C57.1351 137.399 56.8297 137.468 56.5456 137.564C56.2651 137.657 56.0378 137.797 55.8638 137.985C55.6934 138.17 55.6081 138.422 55.6081 138.741C55.6081 139.178 55.7697 139.509 56.0929 139.732C56.4196 139.952 56.8333 140.062 57.334 140.062Z" fill="#2488B3"/>
<path d="M8.77841 133.5C8.66122 133.141 8.50675 132.82 8.31499 132.536C8.12678 132.248 7.90128 132.003 7.63849 131.801C7.37926 131.598 7.08452 131.444 6.75426 131.337C6.42401 131.231 6.06179 131.178 5.66761 131.178C5.02131 131.178 4.43359 131.344 3.90447 131.678C3.37536 132.012 2.95455 132.504 2.64205 133.154C2.32955 133.804 2.1733 134.601 2.1733 135.545C2.1733 136.49 2.33132 137.287 2.64737 137.937C2.96342 138.587 3.39134 139.079 3.93111 139.413C4.47088 139.746 5.07813 139.913 5.75284 139.913C6.37784 139.913 6.92827 139.78 7.40412 139.514C7.88352 139.244 8.25639 138.864 8.52273 138.374C8.79261 137.88 8.92756 137.3 8.92756 136.632L9.33239 136.717H6.05114V135.545H10.206V136.717C10.206 137.616 10.0142 138.397 9.63068 139.061C9.25071 139.725 8.72514 140.24 8.05398 140.606C7.38636 140.968 6.61932 141.149 5.75284 141.149C4.78693 141.149 3.93821 140.922 3.20668 140.467C2.47869 140.013 1.91051 139.366 1.50213 138.528C1.0973 137.69 0.894886 136.696 0.894886 135.545C0.894886 134.683 1.0103 133.907 1.24112 133.218C1.4755 132.525 1.80575 131.936 2.23189 131.449C2.65803 130.963 3.16229 130.59 3.74467 130.331C4.32706 130.071 4.96804 129.942 5.66761 129.942C6.2429 129.942 6.77912 130.029 7.27628 130.203C7.77699 130.373 8.22266 130.616 8.61328 130.933C9.00746 131.245 9.33594 131.62 9.59872 132.056C9.86151 132.49 10.0426 132.971 10.142 133.5H8.77841ZM13.7895 130.091V141H12.4685V130.091H13.7895ZM22.4041 132.818C22.3402 132.278 22.081 131.859 21.6264 131.561C21.1719 131.263 20.6143 131.114 19.9538 131.114C19.4709 131.114 19.0483 131.192 18.6861 131.348C18.3274 131.504 18.0469 131.719 17.8445 131.993C17.6456 132.266 17.5462 132.577 17.5462 132.925C17.5462 133.216 17.6154 133.466 17.7539 133.676C17.896 133.882 18.0771 134.054 18.2972 134.192C18.5174 134.327 18.7482 134.439 18.9897 134.528C19.2312 134.613 19.4531 134.683 19.6555 134.736L20.7635 135.034C21.0476 135.109 21.3636 135.212 21.7116 135.343C22.0632 135.474 22.3988 135.654 22.7184 135.881C23.0415 136.105 23.3079 136.392 23.5174 136.744C23.7269 137.096 23.8317 137.527 23.8317 138.038C23.8317 138.628 23.6772 139.161 23.3683 139.636C23.0629 140.112 22.6154 140.49 22.0259 140.771C21.44 141.051 20.728 141.192 19.8899 141.192C19.1087 141.192 18.4322 141.066 17.8604 140.814C17.2923 140.561 16.8448 140.21 16.5181 139.759C16.195 139.308 16.0121 138.784 15.9695 138.188H17.3331C17.3686 138.599 17.5071 138.94 17.7486 139.21C17.9936 139.477 18.3026 139.675 18.6754 139.807C19.0518 139.935 19.4567 139.999 19.8899 139.999C20.3942 139.999 20.8469 139.917 21.2482 139.754C21.6495 139.587 21.9673 139.356 22.2017 139.061C22.4361 138.763 22.5533 138.415 22.5533 138.017C22.5533 137.655 22.4521 137.36 22.2496 137.133C22.0472 136.906 21.7809 136.721 21.4506 136.579C21.1204 136.437 20.7635 136.312 20.38 136.206L19.0376 135.822C18.1854 135.577 17.5107 135.228 17.0135 134.773C16.5163 134.319 16.2678 133.724 16.2678 132.989C16.2678 132.378 16.4329 131.845 16.7631 131.391C17.0969 130.933 17.5444 130.577 18.1055 130.325C18.6701 130.07 19.3004 129.942 19.9964 129.942C20.6996 129.942 21.3246 130.068 21.8714 130.32C22.4183 130.569 22.8516 130.909 23.1712 131.343C23.4943 131.776 23.6648 132.268 23.6825 132.818H22.4041ZM33.5889 141H30.2224V130.091H33.738C34.7963 130.091 35.7018 130.309 36.4546 130.746C37.2075 131.179 37.7845 131.803 38.1858 132.616C38.5871 133.425 38.7877 134.395 38.7877 135.524C38.7877 136.661 38.5853 137.639 38.1805 138.459C37.7757 139.276 37.1862 139.904 36.412 140.345C35.6379 140.782 34.6968 141 33.5889 141ZM31.5434 139.828H33.5036C34.4056 139.828 35.1531 139.654 35.7462 139.306C36.3392 138.958 36.7813 138.463 37.0725 137.82C37.3637 137.177 37.5093 136.412 37.5093 135.524C37.5093 134.643 37.3655 133.885 37.0779 133.25C36.7902 132.61 36.3605 132.12 35.7888 131.779C35.2171 131.435 34.5051 131.263 33.6528 131.263H31.5434V139.828ZM43.2409 141.192C42.7224 141.192 42.2519 141.094 41.8293 140.899C41.4067 140.7 41.0711 140.414 40.8225 140.041C40.574 139.665 40.4497 139.21 40.4497 138.678C40.4497 138.209 40.542 137.829 40.7267 137.538C40.9113 137.243 41.1581 137.012 41.4671 136.845C41.776 136.678 42.1169 136.554 42.4898 136.472C42.8662 136.387 43.2444 136.32 43.6244 136.27C44.1215 136.206 44.5246 136.158 44.8335 136.126C45.146 136.091 45.3733 136.032 45.5154 135.95C45.661 135.869 45.7338 135.727 45.7338 135.524V135.482C45.7338 134.956 45.5899 134.548 45.3023 134.256C45.0182 133.965 44.5867 133.82 44.0079 133.82C43.4078 133.82 42.9372 133.951 42.5963 134.214C42.2554 134.477 42.0157 134.757 41.8772 135.055L40.684 134.629C40.8971 134.132 41.1812 133.745 41.5363 133.468C41.895 133.187 42.2856 132.992 42.7082 132.882C43.1343 132.768 43.5534 132.712 43.9653 132.712C44.2281 132.712 44.5299 132.744 44.8708 132.808C45.2153 132.868 45.5473 132.994 45.8669 133.186C46.1901 133.377 46.4582 133.667 46.6713 134.054C46.8843 134.441 46.9909 134.96 46.9909 135.609V141H45.7338V139.892H45.6698C45.5846 140.07 45.4426 140.26 45.2437 140.462C45.0448 140.664 44.7803 140.837 44.45 140.979C44.1198 141.121 43.7167 141.192 43.2409 141.192ZM43.4326 140.062C43.9298 140.062 44.3488 139.965 44.6897 139.77C45.0342 139.574 45.2934 139.322 45.4674 139.013C45.645 138.704 45.7338 138.379 45.7338 138.038V136.888C45.6805 136.952 45.5633 137.01 45.3822 137.064C45.2046 137.113 44.9987 137.158 44.7643 137.197C44.5335 137.232 44.308 137.264 44.0878 137.293C43.8712 137.317 43.6954 137.339 43.5605 137.357C43.2338 137.399 42.9284 137.468 42.6443 137.564C42.3637 137.657 42.1365 137.797 41.9624 137.985C41.792 138.17 41.7068 138.422 41.7068 138.741C41.7068 139.178 41.8683 139.509 42.1915 139.732C42.5182 139.952 42.9319 140.062 43.4326 140.062ZM52.8436 132.818V133.884H48.6035V132.818H52.8436ZM49.8393 130.858H51.0964V138.656C51.0964 139.011 51.1479 139.278 51.2509 139.455C51.3574 139.629 51.4924 139.746 51.6557 139.807C51.8226 139.864 51.9984 139.892 52.1831 139.892C52.3216 139.892 52.4352 139.885 52.524 139.871C52.6127 139.853 52.6838 139.839 52.737 139.828L52.9927 140.957C52.9075 140.989 52.7885 141.021 52.6358 141.053C52.4831 141.089 52.2896 141.107 52.0552 141.107C51.7001 141.107 51.3521 141.03 51.0112 140.877C50.6738 140.725 50.3933 140.492 50.1696 140.18C49.9494 139.867 49.8393 139.473 49.8393 138.997V130.858ZM57.1422 141.192C56.6238 141.192 56.1532 141.094 55.7306 140.899C55.3081 140.7 54.9725 140.414 54.7239 140.041C54.4753 139.665 54.351 139.21 54.351 138.678C54.351 138.209 54.4434 137.829 54.628 137.538C54.8127 137.243 55.0595 137.012 55.3684 136.845C55.6774 136.678 56.0183 136.554 56.3912 136.472C56.7676 136.387 57.1458 136.32 57.5257 136.27C58.0229 136.206 58.426 136.158 58.7349 136.126C59.0474 136.091 59.2747 136.032 59.4167 135.95C59.5623 135.869 59.6351 135.727 59.6351 135.524V135.482C59.6351 134.956 59.4913 134.548 59.2037 134.256C58.9196 133.965 58.4881 133.82 57.9093 133.82C57.3091 133.82 56.8386 133.951 56.4977 134.214C56.1568 134.477 55.9171 134.757 55.7786 135.055L54.5854 134.629C54.7985 134.132 55.0826 133.745 55.4377 133.468C55.7963 133.187 56.187 132.992 56.6096 132.882C57.0357 132.768 57.4547 132.712 57.8667 132.712C58.1294 132.712 58.4313 132.744 58.7722 132.808C59.1167 132.868 59.4487 132.994 59.7683 133.186C60.0914 133.377 60.3596 133.667 60.5726 134.054C60.7857 134.441 60.8922 134.96 60.8922 135.609V141H59.6351V139.892H59.5712C59.486 140.07 59.3439 140.26 59.1451 140.462C58.9462 140.664 58.6816 140.837 58.3514 140.979C58.0211 141.121 57.6181 141.192 57.1422 141.192ZM57.334 140.062C57.8311 140.062 58.2502 139.965 58.5911 139.77C58.9355 139.574 59.1948 139.322 59.3688 139.013C59.5463 138.704 59.6351 138.379 59.6351 138.038V136.888C59.5819 136.952 59.4647 137.01 59.2836 137.064C59.106 137.113 58.9 137.158 58.6657 137.197C58.4348 137.232 58.2093 137.264 57.9892 137.293C57.7725 137.317 57.5968 137.339 57.4618 137.357C57.1351 137.399 56.8297 137.468 56.5456 137.564C56.2651 137.657 56.0378 137.797 55.8638 137.985C55.6934 138.17 55.6081 138.422 55.6081 138.741C55.6081 139.178 55.7697 139.509 56.0929 139.732C56.4196 139.952 56.8333 140.062 57.334 140.062Z" fill="#2488B3"/>
<path d="M232.768 127H231.384L235.389 116.091H236.753L240.759 127H239.374L236.114 117.817H236.028L232.768 127ZM233.28 122.739H238.862V123.911H233.28V122.739ZM242.458 116.091H244.034L247.742 125.146H247.87L251.577 116.091H253.154V127H251.918V118.712H251.811L248.402 127H247.209L243.8 118.712H243.694V127H242.458V116.091ZM257.123 116.091V127H255.802V116.091H257.123ZM235.688 145H232.321V134.091H235.837C236.895 134.091 237.8 134.309 238.553 134.746C239.306 135.179 239.883 135.803 240.284 136.616C240.686 137.425 240.886 138.395 240.886 139.524C240.886 140.661 240.684 141.639 240.279 142.459C239.874 143.276 239.285 143.904 238.511 144.345C237.737 144.782 236.795 145 235.688 145ZM233.642 143.828H235.602C236.504 143.828 237.252 143.654 237.845 143.306C238.438 142.958 238.88 142.463 239.171 141.82C239.462 141.177 239.608 140.412 239.608 139.524C239.608 138.643 239.464 137.885 239.176 137.25C238.889 136.61 238.459 136.12 237.887 135.779C237.316 135.435 236.604 135.263 235.751 135.263H233.642V143.828ZM245.339 145.192C244.821 145.192 244.35 145.094 243.928 144.899C243.505 144.7 243.17 144.414 242.921 144.041C242.673 143.665 242.548 143.21 242.548 142.678C242.548 142.209 242.641 141.829 242.825 141.538C243.01 141.243 243.257 141.012 243.566 140.845C243.875 140.678 244.216 140.554 244.588 140.472C244.965 140.387 245.343 140.32 245.723 140.27C246.22 140.206 246.623 140.158 246.932 140.126C247.245 140.091 247.472 140.032 247.614 139.95C247.76 139.869 247.832 139.727 247.832 139.524V139.482C247.832 138.956 247.689 138.548 247.401 138.256C247.117 137.965 246.685 137.82 246.107 137.82C245.506 137.82 245.036 137.951 244.695 138.214C244.354 138.477 244.114 138.757 243.976 139.055L242.783 138.629C242.996 138.132 243.28 137.745 243.635 137.468C243.994 137.187 244.384 136.992 244.807 136.882C245.233 136.768 245.652 136.712 246.064 136.712C246.327 136.712 246.629 136.744 246.969 136.808C247.314 136.868 247.646 136.994 247.966 137.186C248.289 137.377 248.557 137.667 248.77 138.054C248.983 138.441 249.089 138.96 249.089 139.609V145H247.832V143.892H247.768C247.683 144.07 247.541 144.26 247.342 144.462C247.143 144.664 246.879 144.837 246.549 144.979C246.218 145.121 245.815 145.192 245.339 145.192ZM245.531 144.062C246.028 144.062 246.447 143.965 246.788 143.77C247.133 143.574 247.392 143.322 247.566 143.013C247.744 142.704 247.832 142.379 247.832 142.038V140.888C247.779 140.952 247.662 141.01 247.481 141.064C247.303 141.113 247.097 141.158 246.863 141.197C246.632 141.232 246.407 141.264 246.186 141.293C245.97 141.317 245.794 141.339 245.659 141.357C245.332 141.399 245.027 141.468 244.743 141.564C244.462 141.657 244.235 141.797 244.061 141.985C243.891 142.17 243.805 142.422 243.805 142.741C243.805 143.178 243.967 143.509 244.29 143.732C244.617 143.952 245.031 144.062 245.531 144.062ZM254.942 136.818V137.884H250.702V136.818H254.942ZM251.938 134.858H253.195V142.656C253.195 143.011 253.247 143.278 253.35 143.455C253.456 143.629 253.591 143.746 253.754 143.807C253.921 143.864 254.097 143.892 254.282 143.892C254.42 143.892 254.534 143.885 254.623 143.871C254.711 143.853 254.782 143.839 254.836 143.828L255.091 144.957C255.006 144.989 254.887 145.021 254.734 145.053C254.582 145.089 254.388 145.107 254.154 145.107C253.799 145.107 253.451 145.03 253.11 144.877C252.772 144.725 252.492 144.492 252.268 144.18C252.048 143.867 251.938 143.473 251.938 142.997V134.858ZM259.241 145.192C258.722 145.192 258.252 145.094 257.829 144.899C257.407 144.7 257.071 144.414 256.823 144.041C256.574 143.665 256.45 143.21 256.45 142.678C256.45 142.209 256.542 141.829 256.727 141.538C256.911 141.243 257.158 141.012 257.467 140.845C257.776 140.678 258.117 140.554 258.49 140.472C258.866 140.387 259.244 140.32 259.624 140.27C260.122 140.206 260.525 140.158 260.834 140.126C261.146 140.091 261.373 140.032 261.515 139.95C261.661 139.869 261.734 139.727 261.734 139.524V139.482C261.734 138.956 261.59 138.548 261.302 138.256C261.018 137.965 260.587 137.82 260.008 137.82C259.408 137.82 258.937 137.951 258.596 138.214C258.255 138.477 258.016 138.757 257.877 139.055L256.684 138.629C256.897 138.132 257.181 137.745 257.536 137.468C257.895 137.187 258.286 136.992 258.708 136.882C259.134 136.768 259.553 136.712 259.965 136.712C260.228 136.712 260.53 136.744 260.871 136.808C261.215 136.868 261.547 136.994 261.867 137.186C262.19 137.377 262.458 137.667 262.671 138.054C262.884 138.441 262.991 138.96 262.991 139.609V145H261.734V143.892H261.67C261.585 144.07 261.443 144.26 261.244 144.462C261.045 144.664 260.78 144.837 260.45 144.979C260.12 145.121 259.717 145.192 259.241 145.192ZM259.433 144.062C259.93 144.062 260.349 143.965 260.69 143.77C261.034 143.574 261.293 143.322 261.467 143.013C261.645 142.704 261.734 142.379 261.734 142.038V140.888C261.68 140.952 261.563 141.01 261.382 141.064C261.205 141.113 260.999 141.158 260.764 141.197C260.533 141.232 260.308 141.264 260.088 141.293C259.871 141.317 259.695 141.339 259.56 141.357C259.234 141.399 258.928 141.468 258.644 141.564C258.364 141.657 258.136 141.797 257.962 141.985C257.792 142.17 257.707 142.422 257.707 142.741C257.707 143.178 257.868 143.509 258.191 143.732C258.518 143.952 258.932 144.062 259.433 144.062Z" fill="#2488B3"/>
<rect x="-0.499425" y="-0.501295" width="44.9328" height="57.7573" rx="4.5" transform="matrix(-0.999997 -0.00259049 0.00114589 -0.999999 120.934 105.919)" fill="#2488B3" stroke="#2488B3"/>
<path d="M121.5 51C121.5 51.5529 121.061 52.2121 119.93 52.9099C118.826 53.5906 117.196 54.2217 115.137 54.7588C111.027 55.8311 105.321 56.5 99 56.5C92.6786 56.5 86.973 55.8311 82.8628 54.7588C80.8039 54.2217 79.1736 53.5906 78.0699 52.9099C76.9385 52.2121 76.5 51.5529 76.5 51C76.5 50.4471 76.9385 49.7879 78.0699 49.0901C79.1736 48.4094 80.8039 47.7783 82.8628 47.2412C86.973 46.1689 92.6786 45.5 99 45.5C105.321 45.5 111.027 46.1689 115.137 47.2412C117.196 47.7783 118.826 48.4094 119.93 49.0901C121.061 49.7879 121.5 50.4471 121.5 51Z" fill="#2488B3" stroke="#F5F5F5"/>
<path d="M121.5 71C121.5 71.5529 121.061 72.2121 119.93 72.9099C118.826 73.5906 117.196 74.2217 115.137 74.7588C111.027 75.8311 105.321 76.5 99 76.5C92.6786 76.5 86.973 75.8311 82.8628 74.7588C80.8039 74.2217 79.1736 73.5906 78.0699 72.9099C76.9385 72.2121 76.5 71.5529 76.5 71C76.5 70.4471 76.9385 69.7879 78.0699 69.0901C79.1736 68.4094 80.8039 67.7783 82.8628 67.2412C86.973 66.1689 92.6786 65.5 99 65.5C105.321 65.5 111.027 66.1689 115.137 67.2412C117.196 67.7783 118.826 68.4094 119.93 69.0901C121.061 69.7879 121.5 70.4471 121.5 71Z" fill="#2488B3" stroke="#F5F5F5"/>
<path d="M121.5 88C121.5 88.5529 121.061 89.2121 119.93 89.9099C118.826 90.5906 117.196 91.2217 115.137 91.7588C111.027 92.8311 105.321 93.5 99 93.5C92.6786 93.5 86.973 92.8311 82.8628 91.7588C80.8039 91.2217 79.1736 90.5906 78.0699 89.9099C76.9385 89.2121 76.5 88.5529 76.5 88C76.5 87.4471 76.9385 86.7879 78.0699 86.0901C79.1736 85.4094 80.8039 84.7783 82.8628 84.2412C86.973 83.1689 92.6786 82.5 99 82.5C105.321 82.5 111.027 83.1689 115.137 84.2412C117.196 84.7783 118.826 85.4094 119.93 86.0901C121.061 86.7879 121.5 87.4471 121.5 88Z" fill="#2488B3" stroke="#F5F5F5"/>
<ellipse cx="99" cy="104" rx="23" ry="6" fill="#2488B3"/>
<rect x="76" y="64" width="46" height="7" fill="#2488B3"/>
<rect x="76" y="81" width="46" height="7" fill="#2488B3"/>
<path d="M79.2869 26.8182C79.223 26.2784 78.9638 25.8594 78.5092 25.5611C78.0547 25.2628 77.4972 25.1136 76.8366 25.1136C76.3537 25.1136 75.9311 25.1918 75.5689 25.348C75.2102 25.5043 74.9297 25.7191 74.7273 25.9925C74.5284 26.266 74.429 26.5767 74.429 26.9247C74.429 27.2159 74.4982 27.4663 74.6367 27.6758C74.7788 27.8817 74.9599 28.054 75.18 28.1925C75.4002 28.3274 75.631 28.4393 75.8725 28.5281C76.114 28.6133 76.3359 28.6825 76.5384 28.7358L77.6463 29.0341C77.9304 29.1087 78.2464 29.2116 78.5945 29.343C78.946 29.4744 79.2816 29.6538 79.6012 29.881C79.9244 30.1048 80.1907 30.3924 80.4002 30.744C80.6097 31.0955 80.7145 31.527 80.7145 32.0384C80.7145 32.6278 80.56 33.1605 80.2511 33.6364C79.9457 34.1122 79.4982 34.4904 78.9087 34.771C78.3228 35.0515 77.6108 35.1918 76.7727 35.1918C75.9915 35.1918 75.315 35.0657 74.7433 34.8136C74.1751 34.5614 73.7276 34.2099 73.4009 33.7589C73.0778 33.3079 72.8949 32.7841 72.8523 32.1875H74.2159C74.2514 32.5994 74.3899 32.9403 74.6314 33.2102C74.8764 33.4766 75.1854 33.6754 75.5582 33.8068C75.9347 33.9347 76.3395 33.9986 76.7727 33.9986C77.277 33.9986 77.7298 33.9169 78.131 33.7536C78.5323 33.5866 78.8501 33.3558 79.0845 33.0611C79.3189 32.7628 79.4361 32.4148 79.4361 32.017C79.4361 31.6548 79.3349 31.3601 79.1325 31.1328C78.93 30.9055 78.6637 30.7209 78.3335 30.5788C78.0032 30.4368 77.6463 30.3125 77.2628 30.206L75.9205 29.8224C75.0682 29.5774 74.3935 29.2276 73.8963 28.7731C73.3991 28.3185 73.1506 27.7237 73.1506 26.9886C73.1506 26.3778 73.3157 25.8452 73.646 25.3906C73.9798 24.9325 74.4272 24.5774 74.9883 24.3253C75.5529 24.0696 76.1832 23.9418 76.8793 23.9418C77.5824 23.9418 78.2074 24.0678 78.7543 24.32C79.3011 24.5685 79.7344 24.9094 80.054 25.3427C80.3771 25.7759 80.5476 26.2678 80.5653 26.8182H79.2869ZM86.8495 31.5909H88.2984L89.5129 33.1889L89.8325 33.6151L91.6436 36.0227H90.1947L89.0015 34.4247L88.7032 34.0199L86.8495 31.5909ZM92.091 29.5455C92.091 30.696 91.8833 31.6903 91.4678 32.5284C91.0523 33.3665 90.4823 34.0128 89.7579 34.4673C89.0335 34.9219 88.2061 35.1491 87.2757 35.1491C86.3453 35.1491 85.5178 34.9219 84.7934 34.4673C84.069 34.0128 83.499 33.3665 83.0835 32.5284C82.6681 31.6903 82.4603 30.696 82.4603 29.5455C82.4603 28.3949 82.6681 27.4006 83.0835 26.5625C83.499 25.7244 84.069 25.0781 84.7934 24.6236C85.5178 24.169 86.3453 23.9418 87.2757 23.9418C88.2061 23.9418 89.0335 24.169 89.7579 24.6236C90.4823 25.0781 91.0523 25.7244 91.4678 26.5625C91.8833 27.4006 92.091 28.3949 92.091 29.5455ZM90.8126 29.5455C90.8126 28.6009 90.6546 27.8036 90.3385 27.1538C90.026 26.5039 89.6017 26.0121 89.0654 25.6783C88.5328 25.3445 87.9362 25.1776 87.2757 25.1776C86.6151 25.1776 86.0168 25.3445 85.4806 25.6783C84.9479 26.0121 84.5235 26.5039 84.2075 27.1538C83.895 27.8036 83.7387 28.6009 83.7387 29.5455C83.7387 30.4901 83.895 31.2873 84.2075 31.9371C84.5235 32.587 84.9479 33.0788 85.4806 33.4126C86.0168 33.7464 86.6151 33.9134 87.2757 33.9134C87.9362 33.9134 88.5328 33.7464 89.0654 33.4126C89.6017 33.0788 90.026 32.587 90.3385 31.9371C90.6546 31.2873 90.8126 30.4901 90.8126 29.5455ZM94.3122 35V24.0909H95.6333V33.8281H100.704V35H94.3122ZM110.335 35H106.968V24.0909H110.484C111.542 24.0909 112.448 24.3093 113.201 24.7461C113.954 25.1793 114.531 25.8026 114.932 26.6158C115.333 27.4254 115.534 28.3949 115.534 29.5241C115.534 30.6605 115.331 31.6388 114.927 32.4592C114.522 33.2759 113.932 33.9045 113.158 34.3448C112.384 34.7816 111.443 35 110.335 35ZM108.29 33.8281H110.25C111.152 33.8281 111.899 33.6541 112.492 33.3061C113.085 32.9581 113.527 32.4627 113.819 31.82C114.11 31.1772 114.255 30.4119 114.255 29.5241C114.255 28.6435 114.112 27.8853 113.824 27.2496C113.536 26.6104 113.107 26.1204 112.535 25.7795C111.963 25.435 111.251 25.2628 110.399 25.2628H108.29V33.8281ZM117.75 35V24.0909H121.564C122.324 24.0909 122.95 24.2223 123.444 24.4851C123.938 24.7443 124.305 25.0941 124.547 25.5344C124.788 25.9712 124.909 26.456 124.909 26.9886C124.909 27.4574 124.825 27.8445 124.658 28.1499C124.495 28.4553 124.278 28.6967 124.009 28.8743C123.742 29.0518 123.453 29.1832 123.14 29.2685V29.375C123.474 29.3963 123.81 29.5135 124.147 29.7266C124.484 29.9396 124.767 30.245 124.994 30.6428C125.221 31.0405 125.335 31.527 125.335 32.1023C125.335 32.6491 125.211 33.141 124.962 33.5778C124.714 34.0146 124.321 34.3608 123.785 34.6165C123.249 34.8722 122.551 35 121.691 35H117.75ZM119.071 33.8281H121.691C122.554 33.8281 123.167 33.6612 123.529 33.3274C123.895 32.9901 124.078 32.5817 124.078 32.1023C124.078 31.733 123.984 31.392 123.796 31.0795C123.607 30.7635 123.339 30.5114 122.991 30.3232C122.643 30.1314 122.231 30.0355 121.755 30.0355H119.071V33.8281ZM119.071 28.8849H121.521C121.919 28.8849 122.277 28.8068 122.597 28.6506C122.92 28.4943 123.176 28.2741 123.364 27.9901C123.556 27.706 123.652 27.3722 123.652 26.9886C123.652 26.5092 123.485 26.1026 123.151 25.7688C122.817 25.4315 122.288 25.2628 121.564 25.2628H119.071V28.8849ZM131.149 24.0909V35H129.828V25.4759H129.764L127.101 27.2443V25.902L129.828 24.0909H131.149Z" fill="#2488B3"/>
<rect x="-0.499425" y="-0.501295" width="44.9328" height="57.7573" rx="4.5" transform="matrix(-0.999997 -0.00259049 0.00114589 -0.999999 185.934 84.9192)" fill="#2488B3" stroke="#2488B3"/>
<path d="M186.5 30C186.5 30.5529 186.061 31.2121 184.93 31.9099C183.826 32.5906 182.196 33.2217 180.137 33.7588C176.027 34.8311 170.321 35.5 164 35.5C157.679 35.5 151.973 34.8311 147.863 33.7588C145.804 33.2217 144.174 32.5906 143.07 31.9099C141.939 31.2121 141.5 30.5529 141.5 30C141.5 29.4471 141.939 28.7879 143.07 28.0901C144.174 27.4094 145.804 26.7783 147.863 26.2412C151.973 25.1689 157.679 24.5 164 24.5C170.321 24.5 176.027 25.1689 180.137 26.2412C182.196 26.7783 183.826 27.4094 184.93 28.0901C186.061 28.7879 186.5 29.4471 186.5 30Z" fill="#2488B3" stroke="#F5F5F5"/>
<path d="M186.5 50C186.5 50.5529 186.061 51.2121 184.93 51.9099C183.826 52.5906 182.196 53.2217 180.137 53.7588C176.027 54.8311 170.321 55.5 164 55.5C157.679 55.5 151.973 54.8311 147.863 53.7588C145.804 53.2217 144.174 52.5906 143.07 51.9099C141.939 51.2121 141.5 50.5529 141.5 50C141.5 49.4471 141.939 48.7879 143.07 48.0901C144.174 47.4094 145.804 46.7783 147.863 46.2412C151.973 45.1689 157.679 44.5 164 44.5C170.321 44.5 176.027 45.1689 180.137 46.2412C182.196 46.7783 183.826 47.4094 184.93 48.0901C186.061 48.7879 186.5 49.4471 186.5 50Z" fill="#2488B3" stroke="#F5F5F5"/>
<path d="M186.5 67C186.5 67.5529 186.061 68.2121 184.93 68.9099C183.826 69.5906 182.196 70.2217 180.137 70.7588C176.027 71.8311 170.321 72.5 164 72.5C157.679 72.5 151.973 71.8311 147.863 70.7588C145.804 70.2217 144.174 69.5906 143.07 68.9099C141.939 68.2121 141.5 67.5529 141.5 67C141.5 66.4471 141.939 65.7879 143.07 65.0901C144.174 64.4094 145.804 63.7783 147.863 63.2412C151.973 62.1689 157.679 61.5 164 61.5C170.321 61.5 176.027 62.1689 180.137 63.2412C182.196 63.7783 183.826 64.4094 184.93 65.0901C186.061 65.7879 186.5 66.4471 186.5 67Z" fill="#2488B3" stroke="#F5F5F5"/>
<ellipse cx="164" cy="83" rx="23" ry="6" fill="#2488B3"/>
<rect x="141" y="43" width="46" height="7" fill="#2488B3"/>
<rect x="141" y="60" width="46" height="7" fill="#2488B3"/>
<path d="M144.287 5.81818C144.223 5.27841 143.964 4.85938 143.509 4.56108C143.055 4.26278 142.497 4.11364 141.837 4.11364C141.354 4.11364 140.931 4.19176 140.569 4.34801C140.21 4.50426 139.93 4.7191 139.727 4.99254C139.528 5.26598 139.429 5.5767 139.429 5.92472C139.429 6.21591 139.498 6.46626 139.637 6.67578C139.779 6.88175 139.96 7.05398 140.18 7.19247C140.4 7.32741 140.631 7.43928 140.873 7.52805C141.114 7.61328 141.336 7.68253 141.538 7.7358L142.646 8.03409C142.93 8.10866 143.246 8.21165 143.594 8.34304C143.946 8.47443 144.282 8.65376 144.601 8.88104C144.924 9.10476 145.191 9.3924 145.4 9.74396C145.61 10.0955 145.714 10.527 145.714 11.0384C145.714 11.6278 145.56 12.1605 145.251 12.6364C144.946 13.1122 144.498 13.4904 143.909 13.771C143.323 14.0515 142.611 14.1918 141.773 14.1918C140.991 14.1918 140.315 14.0657 139.743 13.8136C139.175 13.5614 138.728 13.2099 138.401 12.7589C138.078 12.3079 137.895 11.7841 137.852 11.1875H139.216C139.251 11.5994 139.39 11.9403 139.631 12.2102C139.876 12.4766 140.185 12.6754 140.558 12.8068C140.935 12.9347 141.339 12.9986 141.773 12.9986C142.277 12.9986 142.73 12.9169 143.131 12.7536C143.532 12.5866 143.85 12.3558 144.085 12.0611C144.319 11.7628 144.436 11.4148 144.436 11.017C144.436 10.6548 144.335 10.3601 144.132 10.1328C143.93 9.90554 143.664 9.72088 143.333 9.57884C143.003 9.43679 142.646 9.3125 142.263 9.20597L140.92 8.82244C140.068 8.57741 139.393 8.22763 138.896 7.77308C138.399 7.31854 138.151 6.72372 138.151 5.98864C138.151 5.37784 138.316 4.84517 138.646 4.39062C138.98 3.93253 139.427 3.57741 139.988 3.32528C140.553 3.0696 141.183 2.94176 141.879 2.94176C142.582 2.94176 143.207 3.06783 143.754 3.31996C144.301 3.56854 144.734 3.90945 145.054 4.34268C145.377 4.77592 145.548 5.26776 145.565 5.81818H144.287ZM151.85 10.5909H153.298L154.513 12.1889L154.832 12.6151L156.644 15.0227H155.195L154.002 13.4247L153.703 13.0199L151.85 10.5909ZM157.091 8.54545C157.091 9.69602 156.883 10.6903 156.468 11.5284C156.052 12.3665 155.482 13.0128 154.758 13.4673C154.033 13.9219 153.206 14.1491 152.276 14.1491C151.345 14.1491 150.518 13.9219 149.793 13.4673C149.069 13.0128 148.499 12.3665 148.084 11.5284C147.668 10.6903 147.46 9.69602 147.46 8.54545C147.46 7.39489 147.668 6.40057 148.084 5.5625C148.499 4.72443 149.069 4.07812 149.793 3.62358C150.518 3.16903 151.345 2.94176 152.276 2.94176C153.206 2.94176 154.033 3.16903 154.758 3.62358C155.482 4.07812 156.052 4.72443 156.468 5.5625C156.883 6.40057 157.091 7.39489 157.091 8.54545ZM155.813 8.54545C155.813 7.60085 155.655 6.80362 155.339 6.15376C155.026 5.50391 154.602 5.01207 154.065 4.67827C153.533 4.34446 152.936 4.17756 152.276 4.17756C151.615 4.17756 151.017 4.34446 150.481 4.67827C149.948 5.01207 149.524 5.50391 149.207 6.15376C148.895 6.80362 148.739 7.60085 148.739 8.54545C148.739 9.49006 148.895 10.2873 149.207 10.9371C149.524 11.587 149.948 12.0788 150.481 12.4126C151.017 12.7464 151.615 12.9134 152.276 12.9134C152.936 12.9134 153.533 12.7464 154.065 12.4126C154.602 12.0788 155.026 11.587 155.339 10.9371C155.655 10.2873 155.813 9.49006 155.813 8.54545ZM159.312 14V3.09091H160.633V12.8281H165.704V14H159.312ZM175.335 14H171.968V3.09091H175.484C176.542 3.09091 177.448 3.3093 178.201 3.74609C178.954 4.17933 179.531 4.80256 179.932 5.61577C180.333 6.42543 180.534 7.39489 180.534 8.52415C180.534 9.66051 180.331 10.6388 179.927 11.4592C179.522 12.2759 178.932 12.9045 178.158 13.3448C177.384 13.7816 176.443 14 175.335 14ZM173.29 12.8281H175.25C176.152 12.8281 176.899 12.6541 177.492 12.3061C178.085 11.9581 178.527 11.4627 178.819 10.82C179.11 10.1772 179.255 9.41193 179.255 8.52415C179.255 7.64347 179.112 6.8853 178.824 6.24964C178.536 5.61044 178.107 5.12038 177.535 4.77947C176.963 4.43501 176.251 4.26278 175.399 4.26278H173.29V12.8281ZM182.75 14V3.09091H186.564C187.324 3.09091 187.95 3.2223 188.444 3.48509C188.938 3.74432 189.305 4.0941 189.547 4.53445C189.788 4.97124 189.909 5.45597 189.909 5.98864C189.909 6.45739 189.825 6.84446 189.658 7.14986C189.495 7.45526 189.278 7.69673 189.009 7.87429C188.742 8.05185 188.453 8.18324 188.14 8.26847V8.375C188.474 8.39631 188.81 8.51349 189.147 8.72656C189.484 8.93963 189.767 9.24503 189.994 9.64276C190.221 10.0405 190.335 10.527 190.335 11.1023C190.335 11.6491 190.211 12.141 189.962 12.5778C189.714 13.0146 189.321 13.3608 188.785 13.6165C188.249 13.8722 187.551 14 186.691 14H182.75ZM184.071 12.8281H186.691C187.554 12.8281 188.167 12.6612 188.529 12.3274C188.895 11.9901 189.078 11.5817 189.078 11.1023C189.078 10.733 188.984 10.392 188.796 10.0795C188.607 9.76349 188.339 9.51136 187.991 9.32315C187.643 9.13139 187.231 9.03551 186.755 9.03551H184.071V12.8281ZM184.071 7.88494H186.521C186.919 7.88494 187.277 7.80682 187.597 7.65057C187.92 7.49432 188.176 7.27415 188.364 6.99006C188.556 6.70597 188.652 6.37216 188.652 5.98864C188.652 5.50923 188.485 5.10263 188.151 4.76882C187.817 4.43146 187.288 4.26278 186.564 4.26278H184.071V7.88494ZM192.314 14V13.0412L195.915 9.09943C196.337 8.63778 196.685 8.23651 196.959 7.8956C197.232 7.55114 197.435 7.22798 197.566 6.92614C197.701 6.62074 197.768 6.30114 197.768 5.96733C197.768 5.58381 197.676 5.25178 197.491 4.97124C197.31 4.6907 197.062 4.47408 196.746 4.32138C196.43 4.16868 196.074 4.09233 195.68 4.09233C195.261 4.09233 194.896 4.17933 194.583 4.35334C194.274 4.52379 194.034 4.76349 193.864 5.07244C193.697 5.38139 193.614 5.74361 193.614 6.15909H192.356C192.356 5.51989 192.504 4.95881 192.799 4.47585C193.093 3.9929 193.495 3.61648 194.002 3.34659C194.514 3.0767 195.087 2.94176 195.723 2.94176C196.362 2.94176 196.929 3.0767 197.422 3.34659C197.916 3.61648 198.303 3.98047 198.583 4.43857C198.864 4.89666 199.004 5.40625 199.004 5.96733C199.004 6.36861 198.931 6.76101 198.786 7.14453C198.644 7.5245 198.395 7.94886 198.04 8.41761C197.688 8.88281 197.2 9.45099 196.575 10.1222L194.125 12.7429V12.8281H199.196V14H192.314Z" fill="#2488B3"/>
<path d="M4.72443 253.263V252.091H12.9062V253.263H9.47585V263H8.15483V253.263H4.72443ZM16.0317 258.078V263H14.7746V252.091H16.0317V256.097H16.1382C16.33 255.674 16.6176 255.338 17.0012 255.09C17.3882 254.838 17.9031 254.712 18.5459 254.712C19.1034 254.712 19.5917 254.824 20.0107 255.047C20.4298 255.267 20.7547 255.607 20.9855 256.065C21.2199 256.519 21.3371 257.098 21.3371 257.801V263H20.08V257.886C20.08 257.237 19.9113 256.734 19.574 256.379C19.2401 256.02 18.7767 255.841 18.1837 255.841C17.7718 255.841 17.4024 255.928 17.0757 256.102C16.7526 256.276 16.4969 256.53 16.3087 256.864C16.124 257.197 16.0317 257.602 16.0317 258.078ZM23.6369 263V254.818H24.894V263H23.6369ZM24.2761 253.455C24.0311 253.455 23.8198 253.371 23.6422 253.204C23.4682 253.037 23.3812 252.837 23.3812 252.602C23.3812 252.368 23.4682 252.167 23.6422 252C23.8198 251.833 24.0311 251.75 24.2761 251.75C24.5211 251.75 24.7306 251.833 24.9047 252C25.0822 252.167 25.171 252.368 25.171 252.602C25.171 252.837 25.0822 253.037 24.9047 253.204C24.7306 253.371 24.5211 253.455 24.2761 253.455ZM27.1965 263V254.818H28.411V256.054H28.4962C28.6453 255.649 28.9152 255.321 29.3058 255.069C29.6965 254.816 30.1368 254.69 30.6269 254.69C30.7192 254.69 30.8346 254.692 30.9731 254.696C31.1116 254.699 31.2164 254.705 31.2874 254.712V255.99C31.2448 255.979 31.1471 255.963 30.9944 255.942C30.8453 255.917 30.6872 255.905 30.5203 255.905C30.1226 255.905 29.7675 255.988 29.455 256.155C29.146 256.319 28.901 256.546 28.7199 256.837C28.5423 257.125 28.4536 257.453 28.4536 257.822V263H27.1965ZM35.618 263.17C34.9362 263.17 34.3343 262.998 33.8122 262.654C33.2902 262.306 32.8818 261.816 32.5871 261.184C32.2923 260.548 32.145 259.797 32.145 258.93C32.145 258.071 32.2923 257.325 32.5871 256.693C32.8818 256.061 33.292 255.573 33.8176 255.228C34.3431 254.884 34.9504 254.712 35.6393 254.712C36.172 254.712 36.5928 254.8 36.9017 254.978C37.2142 255.152 37.4521 255.351 37.6155 255.575C37.7824 255.795 37.912 255.976 38.0044 256.118H38.1109V252.091H39.368V263H38.1535V261.743H38.0044C37.912 261.892 37.7806 262.08 37.6102 262.308C37.4397 262.531 37.1965 262.732 36.8804 262.909C36.5644 263.083 36.1436 263.17 35.618 263.17ZM35.7884 262.041C36.2927 262.041 36.7188 261.91 37.0669 261.647C37.4149 261.381 37.6794 261.013 37.8605 260.544C38.0416 260.072 38.1322 259.527 38.1322 258.909C38.1322 258.298 38.0434 257.764 37.8659 257.306C37.6883 256.844 37.4255 256.485 37.0775 256.23C36.7295 255.971 36.2998 255.841 35.7884 255.841C35.2558 255.841 34.8119 255.978 34.4568 256.251C34.1052 256.521 33.8406 256.888 33.6631 257.354C33.4891 257.815 33.4021 258.334 33.4021 258.909C33.4021 259.491 33.4909 260.021 33.6684 260.496C33.8495 260.969 34.1159 261.345 34.4674 261.626C34.8225 261.903 35.2629 262.041 35.7884 262.041ZM46.0637 266.068V254.818H47.2781V256.118H47.4273C47.5196 255.976 47.6475 255.795 47.8108 255.575C47.9777 255.351 48.2156 255.152 48.5246 254.978C48.8371 254.8 49.2597 254.712 49.7923 254.712C50.4813 254.712 51.0885 254.884 51.6141 255.228C52.1396 255.573 52.5498 256.061 52.8445 256.693C53.1393 257.325 53.2867 258.071 53.2867 258.93C53.2867 259.797 53.1393 260.548 52.8445 261.184C52.5498 261.816 52.1414 262.306 51.6194 262.654C51.0974 262.998 50.4955 263.17 49.8137 263.17C49.2881 263.17 48.8673 263.083 48.5512 262.909C48.2352 262.732 47.9919 262.531 47.8215 262.308C47.651 262.08 47.5196 261.892 47.4273 261.743H47.3208V266.068H46.0637ZM47.2994 258.909C47.2994 259.527 47.39 260.072 47.5711 260.544C47.7522 261.013 48.0168 261.381 48.3648 261.647C48.7128 261.91 49.1389 262.041 49.6432 262.041C50.1688 262.041 50.6073 261.903 50.9589 261.626C51.314 261.345 51.5803 260.969 51.7579 260.496C51.939 260.021 52.0296 259.491 52.0296 258.909C52.0296 258.334 51.9408 257.815 51.7632 257.354C51.5892 256.888 51.3247 256.521 50.9695 256.251C50.618 255.978 50.1759 255.841 49.6432 255.841C49.1318 255.841 48.7021 255.971 48.3541 256.23C48.0061 256.485 47.7433 256.844 47.5658 257.306C47.3882 257.764 47.2994 258.298 47.2994 258.909ZM57.6119 263.192C57.0935 263.192 56.623 263.094 56.2004 262.899C55.7778 262.7 55.4422 262.414 55.1936 262.041C54.945 261.665 54.8208 261.21 54.8208 260.678C54.8208 260.209 54.9131 259.829 55.0977 259.538C55.2824 259.243 55.5292 259.012 55.8382 258.845C56.1471 258.678 56.488 258.554 56.8609 258.472C57.2373 258.387 57.6155 258.32 57.9955 258.27C58.4926 258.206 58.8957 258.158 59.2046 258.126C59.5171 258.091 59.7444 258.032 59.8865 257.95C60.032 257.869 60.1048 257.727 60.1048 257.524V257.482C60.1048 256.956 59.961 256.548 59.6734 256.256C59.3893 255.965 58.9578 255.82 58.379 255.82C57.7789 255.82 57.3083 255.951 56.9674 256.214C56.6265 256.477 56.3868 256.757 56.2483 257.055L55.0551 256.629C55.2682 256.132 55.5523 255.745 55.9074 255.468C56.2661 255.187 56.6567 254.992 57.0793 254.882C57.5054 254.768 57.9244 254.712 58.3364 254.712C58.5992 254.712 58.901 254.744 59.2419 254.808C59.5864 254.868 59.9184 254.994 60.238 255.186C60.5612 255.377 60.8293 255.667 61.0423 256.054C61.2554 256.441 61.3619 256.96 61.3619 257.609V263H60.1048V261.892H60.0409C59.9557 262.07 59.8137 262.26 59.6148 262.462C59.4159 262.664 59.1514 262.837 58.8211 262.979C58.4909 263.121 58.0878 263.192 57.6119 263.192ZM57.8037 262.062C58.3009 262.062 58.7199 261.965 59.0608 261.77C59.4053 261.574 59.6645 261.322 59.8385 261.013C60.0161 260.704 60.1048 260.379 60.1048 260.038V258.888C60.0516 258.952 59.9344 259.01 59.7533 259.064C59.5757 259.113 59.3698 259.158 59.1354 259.197C58.9046 259.232 58.6791 259.264 58.4589 259.293C58.2423 259.317 58.0665 259.339 57.9316 259.357C57.6048 259.399 57.2994 259.468 57.0154 259.564C56.7348 259.657 56.5075 259.797 56.3335 259.985C56.1631 260.17 56.0779 260.422 56.0779 260.741C56.0779 261.178 56.2394 261.509 56.5626 261.732C56.8893 261.952 57.303 262.062 57.8037 262.062ZM63.6564 263V254.818H64.8709V256.054H64.9561C65.1053 255.649 65.3752 255.321 65.7658 255.069C66.1564 254.816 66.5968 254.69 67.0868 254.69C67.1792 254.69 67.2946 254.692 67.4331 254.696C67.5716 254.699 67.6763 254.705 67.7473 254.712V255.99C67.7047 255.979 67.6071 255.963 67.4544 255.942C67.3052 255.917 67.1472 255.905 66.9803 255.905C66.5826 255.905 66.2275 255.988 65.915 256.155C65.606 256.319 65.361 256.546 65.1799 256.837C65.0023 257.125 64.9135 257.453 64.9135 257.822V263H63.6564ZM73.3084 254.818V255.884H69.0684V254.818H73.3084ZM70.3042 252.858H71.5613V260.656C71.5613 261.011 71.6127 261.278 71.7157 261.455C71.8223 261.629 71.9572 261.746 72.1206 261.807C72.2875 261.864 72.4632 261.892 72.6479 261.892C72.7864 261.892 72.9 261.885 72.9888 261.871C73.0776 261.853 73.1486 261.839 73.2019 261.828L73.4576 262.957C73.3723 262.989 73.2534 263.021 73.1007 263.053C72.948 263.089 72.7544 263.107 72.5201 263.107C72.165 263.107 71.8169 263.03 71.476 262.877C71.1387 262.725 70.8581 262.492 70.6344 262.18C70.4142 261.867 70.3042 261.473 70.3042 260.997V252.858ZM76.0091 266.068C75.796 266.068 75.606 266.05 75.4391 266.015C75.2722 265.983 75.1568 265.951 75.0929 265.919L75.4125 264.811C75.7179 264.889 75.9877 264.918 76.2221 264.896C76.4565 264.875 76.6642 264.77 76.8453 264.582C77.03 264.397 77.1987 264.097 77.3514 263.682L77.5858 263.043L74.5602 254.818H75.9238L78.1824 261.338H78.2676L80.5261 254.818H81.8897L78.4167 264.193C78.2605 264.616 78.0669 264.966 77.8361 265.243C77.6053 265.523 77.3372 265.731 77.0318 265.866C76.7299 266.001 76.389 266.068 76.0091 266.068ZM88.3857 263H87.0007L91.0064 252.091H92.37L96.3757 263H94.9908L91.7308 253.817H91.6456L88.3857 263ZM88.897 258.739H94.4794V259.911H88.897V258.739ZM98.0749 263V252.091H101.761C102.617 252.091 103.316 252.245 103.86 252.554C104.407 252.86 104.811 253.273 105.074 253.795C105.337 254.317 105.468 254.9 105.468 255.543C105.468 256.185 105.337 256.77 105.074 257.295C104.815 257.821 104.414 258.24 103.87 258.552C103.327 258.861 102.631 259.016 101.782 259.016H99.1403V257.844H101.74C102.326 257.844 102.796 257.743 103.151 257.54C103.506 257.338 103.764 257.064 103.924 256.72C104.087 256.372 104.169 255.979 104.169 255.543C104.169 255.106 104.087 254.715 103.924 254.371C103.764 254.026 103.505 253.756 103.146 253.561C102.787 253.362 102.311 253.263 101.718 253.263H99.396V263H98.0749ZM108.917 252.091V263H107.596V252.091H108.917ZM6.64205 270.091V281H5.32102V270.091H6.64205ZM10.3774 276.078V281H9.12029V272.818H10.3348V274.097H10.4413C10.6331 273.681 10.9243 273.347 11.3149 273.095C11.7055 272.839 12.2098 272.712 12.8277 272.712C13.3817 272.712 13.8664 272.825 14.2819 273.053C14.6974 273.276 15.0205 273.617 15.2513 274.075C15.4822 274.53 15.5976 275.105 15.5976 275.801V281H14.3405V275.886C14.3405 275.244 14.1736 274.743 13.8398 274.384C13.5059 274.022 13.0479 273.841 12.4655 273.841C12.0642 273.841 11.7055 273.928 11.3895 274.102C11.077 274.276 10.8302 274.53 10.6491 274.864C10.468 275.197 10.3774 275.602 10.3774 276.078ZM21.4529 272.818V273.884H17.2129V272.818H21.4529ZM18.4487 270.858H19.7058V278.656C19.7058 279.011 19.7573 279.278 19.8603 279.455C19.9668 279.629 20.1017 279.746 20.2651 279.807C20.432 279.864 20.6078 279.892 20.7924 279.892C20.9309 279.892 21.0446 279.885 21.1333 279.871C21.2221 279.853 21.2931 279.839 21.3464 279.828L21.6021 280.957C21.5169 280.989 21.3979 281.021 21.2452 281.053C21.0925 281.089 20.899 281.107 20.6646 281.107C20.3095 281.107 19.9615 281.03 19.6206 280.877C19.2832 280.725 19.0027 280.492 18.7789 280.18C18.5588 279.867 18.4487 279.473 18.4487 278.997V270.858ZM26.6864 281.17C25.8981 281.17 25.218 280.996 24.6463 280.648C24.0781 280.297 23.6396 279.807 23.3306 279.178C23.0252 278.546 22.8725 277.811 22.8725 276.973C22.8725 276.135 23.0252 275.396 23.3306 274.757C23.6396 274.114 24.0692 273.614 24.6197 273.255C25.1737 272.893 25.82 272.712 26.5586 272.712C26.9847 272.712 27.4055 272.783 27.821 272.925C28.2365 273.067 28.6147 273.298 28.9556 273.617C29.2965 273.933 29.5682 274.352 29.7706 274.874C29.973 275.396 30.0742 276.039 30.0742 276.803V277.335H23.7674V276.249H28.7958C28.7958 275.787 28.7035 275.375 28.5188 275.013C28.3377 274.651 28.0785 274.365 27.7411 274.155C27.4073 273.946 27.0131 273.841 26.5586 273.841C26.0579 273.841 25.6246 273.965 25.2589 274.214C24.8967 274.459 24.6179 274.778 24.4226 275.173C24.2273 275.567 24.1296 275.989 24.1296 276.44V277.165C24.1296 277.783 24.2362 278.306 24.4492 278.736C24.6658 279.162 24.9659 279.487 25.3494 279.711C25.733 279.931 26.1786 280.041 26.6864 280.041C27.0167 280.041 27.315 279.995 27.5813 279.903C27.8512 279.807 28.0838 279.665 28.2791 279.477C28.4744 279.285 28.6254 279.047 28.7319 278.763L29.9464 279.104C29.8185 279.516 29.6037 279.878 29.3018 280.19C29 280.499 28.6271 280.741 28.1832 280.915C27.7393 281.085 27.2404 281.17 26.6864 281.17ZM35.2891 284.239C34.6818 284.239 34.1598 284.161 33.723 284.004C33.2862 283.852 32.9222 283.649 32.631 283.397C32.3434 283.148 32.1143 282.882 31.9439 282.598L32.9453 281.895C33.0589 282.044 33.2028 282.214 33.3768 282.406C33.5508 282.602 33.7887 282.77 34.0906 282.912C34.396 283.058 34.7955 283.131 35.2891 283.131C35.9496 283.131 36.4947 282.971 36.9244 282.651C37.354 282.332 37.5689 281.831 37.5689 281.149V279.487H37.4624C37.37 279.636 37.2386 279.821 37.0682 280.041C36.9013 280.258 36.6598 280.451 36.3438 280.622C36.0312 280.789 35.6087 280.872 35.076 280.872C34.4155 280.872 33.8224 280.716 33.2969 280.403C32.7749 280.091 32.3612 279.636 32.0558 279.04C31.7539 278.443 31.603 277.719 31.603 276.866C31.603 276.028 31.7504 275.299 32.0451 274.677C32.3398 274.052 32.75 273.569 33.2756 273.228C33.8011 272.884 34.4084 272.712 35.0973 272.712C35.63 272.712 36.0526 272.8 36.3651 272.978C36.6811 273.152 36.9226 273.351 37.0895 273.575C37.2599 273.795 37.3913 273.976 37.4837 274.118H37.6115V272.818H38.826V281.234C38.826 281.938 38.6662 282.509 38.3466 282.95C38.0305 283.393 37.6044 283.718 37.0682 283.924C36.5355 284.134 35.9425 284.239 35.2891 284.239ZM35.2464 279.743C35.7507 279.743 36.1768 279.627 36.5249 279.397C36.8729 279.166 37.1374 278.834 37.3185 278.401C37.4996 277.967 37.5902 277.449 37.5902 276.845C37.5902 276.256 37.5014 275.735 37.3239 275.284C37.1463 274.833 36.8835 274.48 36.5355 274.224C36.1875 273.969 35.7578 273.841 35.2464 273.841C34.7138 273.841 34.2699 273.976 33.9148 274.246C33.5632 274.516 33.2987 274.878 33.1211 275.332C32.9471 275.787 32.8601 276.291 32.8601 276.845C32.8601 277.413 32.9489 277.916 33.1264 278.353C33.3075 278.786 33.5739 279.127 33.9254 279.375C34.2805 279.62 34.7209 279.743 35.2464 279.743ZM41.1271 281V272.818H42.3416V274.054H42.4268C42.576 273.649 42.8459 273.321 43.2365 273.069C43.6271 272.816 44.0675 272.69 44.5575 272.69C44.6499 272.69 44.7653 272.692 44.9038 272.696C45.0423 272.699 45.147 272.705 45.218 272.712V273.99C45.1754 273.979 45.0778 273.963 44.9251 273.942C44.7759 273.917 44.6179 273.905 44.451 273.905C44.0533 273.905 43.6982 273.988 43.3857 274.155C43.0767 274.319 42.8317 274.546 42.6506 274.837C42.473 275.125 42.3842 275.453 42.3842 275.822V281H41.1271ZM49.1159 281.192C48.5974 281.192 48.1269 281.094 47.7043 280.899C47.2817 280.7 46.9461 280.414 46.6975 280.041C46.449 279.665 46.3247 279.21 46.3247 278.678C46.3247 278.209 46.417 277.829 46.6017 277.538C46.7863 277.243 47.0331 277.012 47.3421 276.845C47.651 276.678 47.9919 276.554 48.3648 276.472C48.7412 276.387 49.1194 276.32 49.4994 276.27C49.9965 276.206 50.3996 276.158 50.7085 276.126C51.021 276.091 51.2483 276.032 51.3904 275.95C51.536 275.869 51.6088 275.727 51.6088 275.524V275.482C51.6088 274.956 51.4649 274.548 51.1773 274.256C50.8932 273.965 50.4617 273.82 49.8829 273.82C49.2828 273.82 48.8122 273.951 48.4713 274.214C48.1304 274.477 47.8907 274.757 47.7522 275.055L46.559 274.629C46.7721 274.132 47.0562 273.745 47.4113 273.468C47.77 273.187 48.1606 272.992 48.5832 272.882C49.0093 272.768 49.4284 272.712 49.8403 272.712C50.1031 272.712 50.4049 272.744 50.7458 272.808C51.0903 272.868 51.4223 272.994 51.7419 273.186C52.0651 273.377 52.3332 273.667 52.5463 274.054C52.7593 274.441 52.8659 274.96 52.8659 275.609V281H51.6088V279.892H51.5448C51.4596 280.07 51.3176 280.26 51.1187 280.462C50.9198 280.664 50.6553 280.837 50.325 280.979C49.9948 281.121 49.5917 281.192 49.1159 281.192ZM49.3076 280.062C49.8048 280.062 50.2238 279.965 50.5647 279.77C50.9092 279.574 51.1684 279.322 51.3424 279.013C51.52 278.704 51.6088 278.379 51.6088 278.038V276.888C51.5555 276.952 51.4383 277.01 51.2572 277.064C51.0796 277.113 50.8737 277.158 50.6393 277.197C50.4085 277.232 50.183 277.264 49.9628 277.293C49.7462 277.317 49.5704 277.339 49.4355 277.357C49.1088 277.399 48.8034 277.468 48.5193 277.564C48.2387 277.657 48.0115 277.797 47.8374 277.985C47.667 278.17 47.5818 278.422 47.5818 278.741C47.5818 279.178 47.7433 279.509 48.0665 279.732C48.3932 279.952 48.8069 280.062 49.3076 280.062ZM58.7186 272.818V273.884H54.4785V272.818H58.7186ZM55.7143 270.858H56.9714V278.656C56.9714 279.011 57.0229 279.278 57.1259 279.455C57.2324 279.629 57.3674 279.746 57.5307 279.807C57.6976 279.864 57.8734 279.892 58.0581 279.892C58.1966 279.892 58.3102 279.885 58.399 279.871C58.4877 279.853 58.5588 279.839 58.612 279.828L58.8677 280.957C58.7825 280.989 58.6635 281.021 58.5108 281.053C58.3581 281.089 58.1646 281.107 57.9302 281.107C57.5751 281.107 57.2271 281.03 56.8862 280.877C56.5488 280.725 56.2683 280.492 56.0446 280.18C55.8244 279.867 55.7143 279.473 55.7143 278.997V270.858ZM60.6096 281V272.818H61.8667V281H60.6096ZM61.2488 271.455C61.0037 271.455 60.7924 271.371 60.6149 271.204C60.4409 271.037 60.3539 270.837 60.3539 270.602C60.3539 270.368 60.4409 270.167 60.6149 270C60.7924 269.833 61.0037 269.75 61.2488 269.75C61.4938 269.75 61.7033 269.833 61.8773 270C62.0549 270.167 62.1436 270.368 62.1436 270.602C62.1436 270.837 62.0549 271.037 61.8773 271.204C61.7033 271.371 61.4938 271.455 61.2488 271.455ZM67.493 281.17C66.7544 281.17 66.1063 280.995 65.5487 280.643C64.9948 280.292 64.5615 279.8 64.249 279.168C63.9401 278.536 63.7856 277.797 63.7856 276.952C63.7856 276.099 63.9401 275.355 64.249 274.72C64.5615 274.084 64.9948 273.591 65.5487 273.239C66.1063 272.887 66.7544 272.712 67.493 272.712C68.2316 272.712 68.8779 272.887 69.4319 273.239C69.9894 273.591 70.4227 274.084 70.7316 274.72C71.0441 275.355 71.2004 276.099 71.2004 276.952C71.2004 277.797 71.0441 278.536 70.7316 279.168C70.4227 279.8 69.9894 280.292 69.4319 280.643C68.8779 280.995 68.2316 281.17 67.493 281.17ZM67.493 280.041C68.0541 280.041 68.5157 279.897 68.8779 279.61C69.2401 279.322 69.5083 278.944 69.6823 278.475C69.8563 278.006 69.9433 277.499 69.9433 276.952C69.9433 276.405 69.8563 275.895 69.6823 275.423C69.5083 274.951 69.2401 274.569 68.8779 274.278C68.5157 273.987 68.0541 273.841 67.493 273.841C66.9319 273.841 66.4703 273.987 66.108 274.278C65.7458 274.569 65.4777 274.951 65.3037 275.423C65.1297 275.895 65.0427 276.405 65.0427 276.952C65.0427 277.499 65.1297 278.006 65.3037 278.475C65.4777 278.944 65.7458 279.322 66.108 279.61C66.4703 279.897 66.9319 280.041 67.493 280.041ZM74.3764 276.078V281H73.1193V272.818H74.3338V274.097H74.4403C74.6321 273.681 74.9233 273.347 75.3139 273.095C75.7045 272.839 76.2088 272.712 76.8267 272.712C77.3807 272.712 77.8654 272.825 78.2809 273.053C78.6964 273.276 79.0195 273.617 79.2504 274.075C79.4812 274.53 79.5966 275.105 79.5966 275.801V281H78.3395V275.886C78.3395 275.244 78.1726 274.743 77.8388 274.384C77.505 274.022 77.0469 273.841 76.4645 273.841C76.0632 273.841 75.7045 273.928 75.3885 274.102C75.076 274.276 74.8292 274.53 74.6481 274.864C74.467 275.197 74.3764 275.602 74.3764 276.078Z" fill="#2488B3"/>
<path d="M293.972 10.0909V21H292.693L286.749 12.4347H286.642V21H285.321V10.0909H286.599L292.565 18.6776H292.672V10.0909H293.972ZM299.768 21.1705C299.03 21.1705 298.382 20.9947 297.824 20.6431C297.27 20.2915 296.837 19.7997 296.524 19.1676C296.215 18.5355 296.061 17.7969 296.061 16.9517C296.061 16.0994 296.215 15.3555 296.524 14.7198C296.837 14.0842 297.27 13.5906 297.824 13.239C298.382 12.8874 299.03 12.7116 299.768 12.7116C300.507 12.7116 301.153 12.8874 301.707 13.239C302.265 13.5906 302.698 14.0842 303.007 14.7198C303.32 15.3555 303.476 16.0994 303.476 16.9517C303.476 17.7969 303.32 18.5355 303.007 19.1676C302.698 19.7997 302.265 20.2915 301.707 20.6431C301.153 20.9947 300.507 21.1705 299.768 21.1705ZM299.768 20.0412C300.329 20.0412 300.791 19.8974 301.153 19.6097C301.516 19.3221 301.784 18.9439 301.958 18.4751C302.132 18.0064 302.219 17.4986 302.219 16.9517C302.219 16.4048 302.132 15.8952 301.958 15.4229C301.784 14.9506 301.516 14.5689 301.153 14.2777C300.791 13.9865 300.329 13.8409 299.768 13.8409C299.207 13.8409 298.746 13.9865 298.383 14.2777C298.021 14.5689 297.753 14.9506 297.579 15.4229C297.405 15.8952 297.318 16.4048 297.318 16.9517C297.318 17.4986 297.405 18.0064 297.579 18.4751C297.753 18.9439 298.021 19.3221 298.383 19.6097C298.746 19.8974 299.207 20.0412 299.768 20.0412ZM308.953 12.8182V13.8835H304.713V12.8182H308.953ZM305.949 10.858H307.206V18.6562C307.206 19.0114 307.257 19.2777 307.36 19.4553C307.467 19.6293 307.602 19.7464 307.765 19.8068C307.932 19.8636 308.108 19.892 308.292 19.892C308.431 19.892 308.545 19.8849 308.633 19.8707C308.722 19.853 308.793 19.8388 308.846 19.8281L309.102 20.9574C309.017 20.9893 308.898 21.0213 308.745 21.0533C308.593 21.0888 308.399 21.1065 308.165 21.1065C307.809 21.1065 307.461 21.0302 307.121 20.8775C306.783 20.7248 306.503 20.4922 306.279 20.1797C306.059 19.8672 305.949 19.473 305.949 18.9972V10.858ZM310.844 21V12.8182H312.101V21H310.844ZM311.483 11.4545C311.238 11.4545 311.027 11.3711 310.849 11.2042C310.675 11.0373 310.588 10.8366 310.588 10.6023C310.588 10.3679 310.675 10.1673 310.849 10.0004C311.027 9.83345 311.238 9.75 311.483 9.75C311.728 9.75 311.938 9.83345 312.112 10.0004C312.289 10.1673 312.378 10.3679 312.378 10.6023C312.378 10.8366 312.289 11.0373 312.112 11.2042C311.938 11.3711 311.728 11.4545 311.483 11.4545ZM318.047 12.8182V13.8835H313.636V12.8182H318.047ZM314.957 21V11.6889C314.957 11.2202 315.068 10.8295 315.288 10.517C315.508 10.2045 315.794 9.97017 316.145 9.81392C316.497 9.65767 316.868 9.57954 317.259 9.57954C317.568 9.57954 317.82 9.6044 318.015 9.65412C318.21 9.70383 318.356 9.75 318.452 9.79261L318.09 10.8793C318.026 10.858 317.937 10.8313 317.823 10.7994C317.713 10.7674 317.568 10.7514 317.386 10.7514C316.971 10.7514 316.671 10.8562 316.486 11.0657C316.305 11.2752 316.215 11.5824 316.215 11.9872V21H314.957ZM319.809 21V12.8182H321.066V21H319.809ZM320.448 11.4545C320.203 11.4545 319.992 11.3711 319.814 11.2042C319.64 11.0373 319.553 10.8366 319.553 10.6023C319.553 10.3679 319.64 10.1673 319.814 10.0004C319.992 9.83345 320.203 9.75 320.448 9.75C320.693 9.75 320.903 9.83345 321.077 10.0004C321.254 10.1673 321.343 10.3679 321.343 10.6023C321.343 10.8366 321.254 11.0373 321.077 11.2042C320.903 11.3711 320.693 11.4545 320.448 11.4545ZM326.692 21.1705C325.925 21.1705 325.265 20.9893 324.711 20.6271C324.157 20.2649 323.731 19.766 323.432 19.1303C323.134 18.4947 322.985 17.7685 322.985 16.9517C322.985 16.1207 323.138 15.3874 323.443 14.7518C323.752 14.1126 324.182 13.6136 324.732 13.255C325.286 12.8928 325.932 12.7116 326.671 12.7116C327.246 12.7116 327.765 12.8182 328.226 13.0312C328.688 13.2443 329.066 13.5426 329.361 13.9261C329.656 14.3097 329.839 14.7571 329.91 15.2685H328.652C328.557 14.8956 328.343 14.5653 328.013 14.2777C327.687 13.9865 327.246 13.8409 326.692 13.8409C326.202 13.8409 325.772 13.9687 325.403 14.2244C325.037 14.4766 324.752 14.8335 324.546 15.2951C324.343 15.7532 324.242 16.2912 324.242 16.9091C324.242 17.5412 324.341 18.0916 324.54 18.5604C324.743 19.0291 325.027 19.3931 325.392 19.6523C325.762 19.9116 326.195 20.0412 326.692 20.0412C327.019 20.0412 327.315 19.9844 327.582 19.8707C327.848 19.7571 328.074 19.5938 328.258 19.3807C328.443 19.1676 328.574 18.9119 328.652 18.6136H329.91C329.839 19.0966 329.663 19.5316 329.382 19.9187C329.105 20.3022 328.738 20.6076 328.28 20.8349C327.825 21.0586 327.296 21.1705 326.692 21.1705ZM334.155 21.1918C333.636 21.1918 333.166 21.0941 332.743 20.8988C332.321 20.6999 331.985 20.4141 331.737 20.0412C331.488 19.6648 331.364 19.2102 331.364 18.6776C331.364 18.2088 331.456 17.8288 331.641 17.5376C331.825 17.2429 332.072 17.0121 332.381 16.8452C332.69 16.6783 333.031 16.554 333.404 16.4723C333.78 16.3871 334.158 16.3196 334.538 16.2699C335.036 16.206 335.439 16.158 335.748 16.1261C336.06 16.0906 336.287 16.032 336.429 15.9503C336.575 15.8686 336.648 15.7266 336.648 15.5241V15.4815C336.648 14.956 336.504 14.5476 336.216 14.2564C335.932 13.9652 335.501 13.8196 334.922 13.8196C334.322 13.8196 333.851 13.951 333.51 14.2138C333.169 14.4766 332.93 14.7571 332.791 15.0554L331.598 14.6293C331.811 14.1321 332.095 13.745 332.45 13.468C332.809 13.1875 333.2 12.9922 333.622 12.8821C334.048 12.7685 334.467 12.7116 334.879 12.7116C335.142 12.7116 335.444 12.7436 335.785 12.8075C336.129 12.8679 336.461 12.994 336.781 13.1857C337.104 13.3775 337.372 13.6669 337.585 14.054C337.798 14.4411 337.905 14.9595 337.905 15.6094V21H336.648V19.892H336.584C336.499 20.0696 336.357 20.2596 336.158 20.462C335.959 20.6644 335.694 20.8366 335.364 20.9787C335.034 21.1207 334.631 21.1918 334.155 21.1918ZM334.347 20.0625C334.844 20.0625 335.263 19.9648 335.604 19.7695C335.948 19.5742 336.207 19.3221 336.381 19.0131C336.559 18.7042 336.648 18.3793 336.648 18.0384V16.8878C336.595 16.9517 336.477 17.0103 336.296 17.0636C336.119 17.1133 335.913 17.1577 335.678 17.1967C335.448 17.2322 335.222 17.2642 335.002 17.2926C334.785 17.3175 334.609 17.3388 334.475 17.3565C334.148 17.3991 333.842 17.4684 333.558 17.5643C333.278 17.6566 333.051 17.7969 332.877 17.9851C332.706 18.1697 332.621 18.4219 332.621 18.7415C332.621 19.1783 332.782 19.5085 333.106 19.7322C333.432 19.9524 333.846 20.0625 334.347 20.0625ZM343.758 12.8182V13.8835H339.518V12.8182H343.758ZM340.753 10.858H342.01V18.6562C342.01 19.0114 342.062 19.2777 342.165 19.4553C342.271 19.6293 342.406 19.7464 342.57 19.8068C342.737 19.8636 342.912 19.892 343.097 19.892C343.236 19.892 343.349 19.8849 343.438 19.8707C343.527 19.853 343.598 19.8388 343.651 19.8281L343.907 20.9574C343.822 20.9893 343.703 21.0213 343.55 21.0533C343.397 21.0888 343.204 21.1065 342.969 21.1065C342.614 21.1065 342.266 21.0302 341.925 20.8775C341.588 20.7248 341.307 20.4922 341.084 20.1797C340.863 19.8672 340.753 19.473 340.753 18.9972V10.858ZM345.649 21V12.8182H346.906V21H345.649ZM346.288 11.4545C346.043 11.4545 345.831 11.3711 345.654 11.2042C345.48 11.0373 345.393 10.8366 345.393 10.6023C345.393 10.3679 345.48 10.1673 345.654 10.0004C345.831 9.83345 346.043 9.75 346.288 9.75C346.533 9.75 346.742 9.83345 346.916 10.0004C347.094 10.1673 347.183 10.3679 347.183 10.6023C347.183 10.8366 347.094 11.0373 346.916 11.2042C346.742 11.3711 346.533 11.4545 346.288 11.4545ZM352.532 21.1705C351.793 21.1705 351.145 20.9947 350.588 20.6431C350.034 20.2915 349.601 19.7997 349.288 19.1676C348.979 18.5355 348.825 17.7969 348.825 16.9517C348.825 16.0994 348.979 15.3555 349.288 14.7198C349.601 14.0842 350.034 13.5906 350.588 13.239C351.145 12.8874 351.793 12.7116 352.532 12.7116C353.271 12.7116 353.917 12.8874 354.471 13.239C355.028 13.5906 355.462 14.0842 355.771 14.7198C356.083 15.3555 356.239 16.0994 356.239 16.9517C356.239 17.7969 356.083 18.5355 355.771 19.1676C355.462 19.7997 355.028 20.2915 354.471 20.6431C353.917 20.9947 353.271 21.1705 352.532 21.1705ZM352.532 20.0412C353.093 20.0412 353.555 19.8974 353.917 19.6097C354.279 19.3221 354.547 18.9439 354.721 18.4751C354.895 18.0064 354.982 17.4986 354.982 16.9517C354.982 16.4048 354.895 15.8952 354.721 15.4229C354.547 14.9506 354.279 14.5689 353.917 14.2777C353.555 13.9865 353.093 13.8409 352.532 13.8409C351.971 13.8409 351.509 13.9865 351.147 14.2777C350.785 14.5689 350.517 14.9506 350.343 15.4229C350.169 15.8952 350.082 16.4048 350.082 16.9517C350.082 17.4986 350.169 18.0064 350.343 18.4751C350.517 18.9439 350.785 19.3221 351.147 19.6097C351.509 19.8974 351.971 20.0412 352.532 20.0412ZM359.415 16.0781V21H358.158V12.8182H359.373V14.0966H359.479C359.671 13.6811 359.962 13.3473 360.353 13.0952C360.744 12.8395 361.248 12.7116 361.866 12.7116C362.42 12.7116 362.904 12.8253 363.32 13.0526C363.735 13.2763 364.059 13.6172 364.289 14.0753C364.52 14.5298 364.636 15.1051 364.636 15.8011V21H363.379V15.8864C363.379 15.2436 363.212 14.7429 362.878 14.3842C362.544 14.022 362.086 13.8409 361.504 13.8409C361.102 13.8409 360.744 13.9279 360.428 14.1019C360.115 14.2759 359.868 14.5298 359.687 14.8636C359.506 15.1974 359.415 15.6023 359.415 16.0781ZM376.947 14.6506L375.818 14.9702C375.747 14.782 375.642 14.5991 375.503 14.4215C375.369 14.2404 375.184 14.0913 374.949 13.9741C374.715 13.8569 374.415 13.7983 374.049 13.7983C373.549 13.7983 373.131 13.9137 372.797 14.1445C372.467 14.3718 372.302 14.6612 372.302 15.0128C372.302 15.3253 372.416 15.5721 372.643 15.7532C372.87 15.9343 373.225 16.0852 373.708 16.206L374.923 16.5043C375.654 16.6818 376.199 16.9535 376.558 17.3192C376.917 17.6815 377.096 18.1484 377.096 18.7202C377.096 19.1889 376.961 19.608 376.691 19.9773C376.425 20.3466 376.052 20.6378 375.573 20.8509C375.093 21.0639 374.536 21.1705 373.9 21.1705C373.066 21.1705 372.375 20.9893 371.828 20.6271C371.281 20.2649 370.935 19.7358 370.789 19.0398L371.983 18.7415C372.096 19.1818 372.311 19.5121 372.627 19.7322C372.947 19.9524 373.364 20.0625 373.879 20.0625C374.465 20.0625 374.93 19.9382 375.274 19.6896C375.622 19.4375 375.796 19.1357 375.796 18.7841C375.796 18.5 375.697 18.2621 375.498 18.0703C375.299 17.875 374.994 17.7294 374.582 17.6335L373.218 17.3139C372.469 17.1364 371.919 16.8612 371.567 16.4883C371.219 16.1119 371.045 15.6413 371.045 15.0767C371.045 14.6151 371.175 14.2067 371.434 13.8516C371.697 13.4964 372.054 13.2177 372.505 13.0153C372.959 12.8129 373.474 12.7116 374.049 12.7116C374.859 12.7116 375.495 12.8892 375.956 13.2443C376.421 13.5994 376.752 14.0682 376.947 14.6506ZM382.419 21.1705C381.631 21.1705 380.95 20.9964 380.379 20.6484C379.811 20.2969 379.372 19.8068 379.063 19.1783C378.758 18.5462 378.605 17.8111 378.605 16.973C378.605 16.1349 378.758 15.3963 379.063 14.7571C379.372 14.1143 379.802 13.6136 380.352 13.255C380.906 12.8928 381.552 12.7116 382.291 12.7116C382.717 12.7116 383.138 12.7827 383.553 12.9247C383.969 13.0668 384.347 13.2976 384.688 13.6172C385.029 13.9332 385.301 14.3523 385.503 14.8743C385.705 15.3963 385.807 16.0391 385.807 16.8026V17.3352H379.5V16.2486H384.528C384.528 15.7869 384.436 15.375 384.251 15.0128C384.07 14.6506 383.811 14.3647 383.474 14.1552C383.14 13.9457 382.746 13.8409 382.291 13.8409C381.79 13.8409 381.357 13.9652 380.991 14.2138C380.629 14.4588 380.35 14.7784 380.155 15.1726C379.96 15.5668 379.862 15.9893 379.862 16.4403V17.1648C379.862 17.7827 379.969 18.3065 380.182 18.7362C380.398 19.1623 380.698 19.4872 381.082 19.7109C381.465 19.9311 381.911 20.0412 382.419 20.0412C382.749 20.0412 383.047 19.995 383.314 19.9027C383.584 19.8068 383.816 19.6648 384.012 19.4766C384.207 19.2848 384.358 19.0469 384.464 18.7628L385.679 19.1037C385.551 19.5156 385.336 19.8778 385.034 20.1903C384.732 20.4993 384.36 20.7408 383.916 20.9148C383.472 21.0852 382.973 21.1705 382.419 21.1705ZM387.719 21V12.8182H388.933V14.054H389.019C389.168 13.6491 389.438 13.3207 389.828 13.0685C390.219 12.8164 390.659 12.6903 391.149 12.6903C391.242 12.6903 391.357 12.6921 391.496 12.6957C391.634 12.6992 391.739 12.7045 391.81 12.7116V13.9901C391.767 13.9794 391.67 13.9634 391.517 13.9421C391.368 13.9173 391.21 13.9048 391.043 13.9048C390.645 13.9048 390.29 13.9883 389.977 14.1552C389.669 14.3185 389.423 14.5458 389.242 14.837C389.065 15.1246 388.976 15.4531 388.976 15.8224V21H387.719ZM400.239 12.8182L397.214 21H395.935L392.91 12.8182H394.273L396.532 19.3381H396.617L398.876 12.8182H400.239ZM401.899 21V12.8182H403.156V21H401.899ZM402.538 11.4545C402.293 11.4545 402.081 11.3711 401.904 11.2042C401.73 11.0373 401.643 10.8366 401.643 10.6023C401.643 10.3679 401.73 10.1673 401.904 10.0004C402.081 9.83345 402.293 9.75 402.538 9.75C402.783 9.75 402.992 9.83345 403.166 10.0004C403.344 10.1673 403.433 10.3679 403.433 10.6023C403.433 10.8366 403.344 11.0373 403.166 11.2042C402.992 11.3711 402.783 11.4545 402.538 11.4545ZM408.782 21.1705C408.015 21.1705 407.354 20.9893 406.801 20.6271C406.247 20.2649 405.82 19.766 405.522 19.1303C405.224 18.4947 405.075 17.7685 405.075 16.9517C405.075 16.1207 405.227 15.3874 405.533 14.7518C405.842 14.1126 406.271 13.6136 406.822 13.255C407.376 12.8928 408.022 12.7116 408.761 12.7116C409.336 12.7116 409.854 12.8182 410.316 13.0312C410.778 13.2443 411.156 13.5426 411.451 13.9261C411.745 14.3097 411.928 14.7571 411.999 15.2685H410.742C410.646 14.8956 410.433 14.5653 410.103 14.2777C409.776 13.9865 409.336 13.8409 408.782 13.8409C408.292 13.8409 407.862 13.9687 407.493 14.2244C407.127 14.4766 406.841 14.8335 406.635 15.2951C406.433 15.7532 406.332 16.2912 406.332 16.9091C406.332 17.5412 406.431 18.0916 406.63 18.5604C406.832 19.0291 407.117 19.3931 407.482 19.6523C407.852 19.9116 408.285 20.0412 408.782 20.0412C409.109 20.0412 409.405 19.9844 409.672 19.8707C409.938 19.7571 410.163 19.5938 410.348 19.3807C410.533 19.1676 410.664 18.9119 410.742 18.6136H411.999C411.928 19.0966 411.753 19.5316 411.472 19.9187C411.195 20.3022 410.828 20.6076 410.369 20.8349C409.915 21.0586 409.386 21.1705 408.782 21.1705ZM417.267 21.1705C416.479 21.1705 415.799 20.9964 415.227 20.6484C414.659 20.2969 414.221 19.8068 413.912 19.1783C413.606 18.5462 413.454 17.8111 413.454 16.973C413.454 16.1349 413.606 15.3963 413.912 14.7571C414.221 14.1143 414.65 13.6136 415.201 13.255C415.755 12.8928 416.401 12.7116 417.14 12.7116C417.566 12.7116 417.987 12.7827 418.402 12.9247C418.818 13.0668 419.196 13.2976 419.537 13.6172C419.878 13.9332 420.149 14.3523 420.352 14.8743C420.554 15.3963 420.655 16.0391 420.655 16.8026V17.3352H414.348V16.2486H419.377C419.377 15.7869 419.285 15.375 419.1 15.0128C418.919 14.6506 418.66 14.3647 418.322 14.1552C417.988 13.9457 417.594 13.8409 417.14 13.8409C416.639 13.8409 416.206 13.9652 415.84 14.2138C415.478 14.4588 415.199 14.7784 415.004 15.1726C414.808 15.5668 414.711 15.9893 414.711 16.4403V17.1648C414.711 17.7827 414.817 18.3065 415.03 18.7362C415.247 19.1623 415.547 19.4872 415.93 19.7109C416.314 19.9311 416.76 20.0412 417.267 20.0412C417.598 20.0412 417.896 19.995 418.162 19.9027C418.432 19.8068 418.665 19.6648 418.86 19.4766C419.055 19.2848 419.206 19.0469 419.313 18.7628L420.527 19.1037C420.4 19.5156 420.185 19.8778 419.883 20.1903C419.581 20.4993 419.208 20.7408 418.764 20.9148C418.32 21.0852 417.821 21.1705 417.267 21.1705Z" fill="#2488B3"/>
<path d="M44.4107 177.43L18.4107 196.393C18.1526 196.581 18 196.881 18 197.201V220.799C18 221.119 18.1526 221.419 18.4107 221.607L44.4107 240.57C44.7618 240.826 45.2382 240.826 45.5893 240.57L71.5893 221.607C71.8474 221.419 72 221.119 72 220.799V197.201C72 196.881 71.8474 196.581 71.5893 196.393L45.5893 177.43C45.2382 177.174 44.7618 177.174 44.4107 177.43Z" fill="#2488B3" stroke="#2488B3"/>
<path d="M33.554 209.419V208.759C34.147 208.759 34.5607 208.634 34.7951 208.386C35.033 208.137 35.152 207.722 35.152 207.139V205.435C35.152 204.945 35.1982 204.52 35.2905 204.162C35.3864 203.803 35.5408 203.506 35.7539 203.272C35.967 203.038 36.2511 202.864 36.6062 202.75C36.9613 202.636 37.3999 202.58 37.9219 202.58V203.624C37.5099 203.624 37.185 203.687 36.9471 203.815C36.7127 203.943 36.5458 204.142 36.4464 204.412C36.3505 204.678 36.3026 205.019 36.3026 205.435V207.565C36.3026 207.842 36.2653 208.094 36.1907 208.322C36.1197 208.549 35.9865 208.744 35.7912 208.908C35.5959 209.071 35.3171 209.197 34.9549 209.286C34.5962 209.375 34.1293 209.419 33.554 209.419ZM37.9219 216.216C37.3999 216.216 36.9613 216.159 36.6062 216.045C36.2511 215.932 35.967 215.758 35.7539 215.523C35.5408 215.289 35.3864 214.993 35.2905 214.634C35.1982 214.275 35.152 213.851 35.152 213.361V211.656C35.152 211.074 35.033 210.658 34.7951 210.41C34.5607 210.161 34.147 210.037 33.554 210.037V209.376C34.1293 209.376 34.5962 209.421 34.9549 209.51C35.3171 209.598 35.5959 209.724 35.7912 209.888C35.9865 210.051 36.1197 210.246 36.1907 210.474C36.2653 210.701 36.3026 210.953 36.3026 211.23V213.361C36.3026 213.776 36.3505 214.117 36.4464 214.384C36.5458 214.65 36.7127 214.847 36.9471 214.975C37.185 215.106 37.5099 215.172 37.9219 215.172V216.216ZM33.554 210.037V208.759H34.8111V210.037H33.554ZM40.5013 214.085C40.2385 214.085 40.0131 213.991 39.8248 213.803C39.6366 213.615 39.5425 213.389 39.5425 213.126C39.5425 212.864 39.6366 212.638 39.8248 212.45C40.0131 212.262 40.2385 212.168 40.5013 212.168C40.7641 212.168 40.9896 212.262 41.1778 212.45C41.366 212.638 41.4601 212.864 41.4601 213.126C41.4601 213.3 41.4157 213.46 41.327 213.606C41.2417 213.751 41.1263 213.869 40.9807 213.957C40.8387 214.043 40.6789 214.085 40.5013 214.085ZM44.6322 214.085C44.3694 214.085 44.1439 213.991 43.9557 213.803C43.7675 213.615 43.6734 213.389 43.6734 213.126C43.6734 212.864 43.7675 212.638 43.9557 212.45C44.1439 212.262 44.3694 212.168 44.6322 212.168C44.895 212.168 45.1205 212.262 45.3087 212.45C45.4969 212.638 45.591 212.864 45.591 213.126C45.591 213.3 45.5466 213.46 45.4578 213.606C45.3726 213.751 45.2572 213.869 45.1116 213.957C44.9695 214.043 44.8097 214.085 44.6322 214.085ZM48.7631 214.085C48.5003 214.085 48.2748 213.991 48.0866 213.803C47.8983 213.615 47.8042 213.389 47.8042 213.126C47.8042 212.864 47.8983 212.638 48.0866 212.45C48.2748 212.262 48.5003 212.168 48.7631 212.168C49.0258 212.168 49.2513 212.262 49.4395 212.45C49.6278 212.638 49.7219 212.864 49.7219 213.126C49.7219 213.3 49.6775 213.46 49.5887 213.606C49.5035 213.751 49.3881 213.869 49.2425 213.957C49.1004 214.043 48.9406 214.085 48.7631 214.085ZM55.7064 209.376V210.037C55.1134 210.037 54.6979 210.161 54.46 210.41C54.2256 210.658 54.1084 211.074 54.1084 211.656V213.361C54.1084 213.851 54.0605 214.275 53.9646 214.634C53.8722 214.993 53.7195 215.289 53.5065 215.523C53.2934 215.758 53.0093 215.932 52.6542 216.045C52.2991 216.159 51.8605 216.216 51.3385 216.216V215.172C51.7504 215.172 52.0736 215.106 52.308 214.975C52.5459 214.847 52.7128 214.65 52.8087 214.384C52.9081 214.117 52.9578 213.776 52.9578 213.361V211.23C52.9578 210.953 52.9933 210.701 53.0644 210.474C53.1389 210.246 53.2739 210.051 53.4692 209.888C53.6645 209.724 53.9415 209.598 54.3002 209.51C54.6624 209.421 55.1311 209.376 55.7064 209.376ZM51.3385 202.58C51.8605 202.58 52.2991 202.636 52.6542 202.75C53.0093 202.864 53.2934 203.038 53.5065 203.272C53.7195 203.506 53.8722 203.803 53.9646 204.162C54.0605 204.52 54.1084 204.945 54.1084 205.435V207.139C54.1084 207.722 54.2256 208.137 54.46 208.386C54.6979 208.634 55.1134 208.759 55.7064 208.759V209.419C55.1311 209.419 54.6624 209.375 54.3002 209.286C53.9415 209.197 53.6645 209.071 53.4692 208.908C53.2739 208.744 53.1389 208.549 53.0644 208.322C52.9933 208.094 52.9578 207.842 52.9578 207.565V205.435C52.9578 205.019 52.9081 204.678 52.8087 204.412C52.7128 204.142 52.5459 203.943 52.308 203.815C52.0736 203.687 51.7504 203.624 51.3385 203.624V202.58ZM55.7064 208.759V210.037H54.4493V208.759H55.7064Z" fill="#F5F5F5"/>
<path fill-rule="evenodd" clip-rule="evenodd" d="M49.5862 77.058C49.6086 77.0219 49.6481 77 49.6905 77V77C49.7627 77 49.8193 76.9376 49.8126 76.8658C48.7124 65.1638 38.6558 56 26.4124 56C14.2268 56 4.20736 65.0775 3.0284 76.7002C3.02584 76.7254 3.0046 76.7448 2.97925 76.7448V76.7448C2.94057 76.7448 2.91693 76.7873 2.93734 76.8201L2.99759 76.9171C3.00317 76.9261 3.00566 76.9366 3.00471 76.9472C3.0041 76.954 3.00348 76.9608 3.00287 76.9676C3.00132 76.985 3.01504 77 3.03251 77V77C3.04281 77 3.05238 77.0053 3.05781 77.0141L22.0692 107.621C24.0242 110.768 28.6037 110.77 30.5615 107.625L49.5862 77.058Z" fill="#2488B3"/>
<circle cx="26" cy="75" r="5" fill="#F5F5F5"/>
<path d="M48.5 106C48.5 116.706 38.4943 125.5 26 125.5C13.5057 125.5 3.5 116.706 3.5 106C3.5 95.2938 13.5057 86.5 26 86.5C38.4943 86.5 48.5 95.2938 48.5 106Z" stroke="#2488B3"/>
<ellipse cx="255.5" cy="84" rx="29.5" ry="28" fill="#2488B3"/>
<rect x="241" y="74" width="29" height="14" fill="#F5F5F5"/>
<path d="M249.21 85.0994C248.741 85.0994 248.324 85.0189 247.957 84.858C247.592 84.697 247.302 84.4732 247.087 84.1868C246.874 83.898 246.758 83.563 246.739 83.1818H247.634C247.652 83.4162 247.733 83.6186 247.875 83.7891C248.017 83.9571 248.203 84.0874 248.433 84.1797C248.662 84.272 248.917 84.3182 249.196 84.3182C249.509 84.3182 249.786 84.2637 250.027 84.1548C250.268 84.0459 250.458 83.8944 250.595 83.7003C250.732 83.5062 250.801 83.2812 250.801 83.0256C250.801 82.758 250.735 82.5225 250.602 82.3189C250.47 82.1129 250.276 81.9519 250.02 81.8359C249.764 81.7199 249.452 81.6619 249.082 81.6619H248.5V80.8807H249.082C249.371 80.8807 249.625 80.8286 249.842 80.7244C250.063 80.6203 250.234 80.4735 250.357 80.2841C250.483 80.0947 250.545 79.8722 250.545 79.6165C250.545 79.3703 250.491 79.156 250.382 78.9737C250.273 78.7914 250.119 78.6494 249.92 78.5476C249.724 78.4458 249.492 78.3949 249.224 78.3949C248.973 78.3949 248.737 78.4411 248.514 78.5334C248.294 78.6233 248.114 78.7547 247.974 78.9276C247.835 79.098 247.759 79.304 247.747 79.5455H246.895C246.909 79.1643 247.024 78.8305 247.239 78.544C247.455 78.2552 247.737 78.0303 248.085 77.8693C248.435 77.7083 248.82 77.6278 249.239 77.6278C249.688 77.6278 250.074 77.719 250.396 77.9013C250.718 78.0812 250.966 78.3191 251.138 78.6151C251.311 78.911 251.398 79.2306 251.398 79.5739C251.398 79.9834 251.29 80.3326 251.075 80.6214C250.862 80.9103 250.571 81.1103 250.205 81.2216V81.2784C250.664 81.3542 251.022 81.5495 251.281 81.8643C251.539 82.1768 251.668 82.5639 251.668 83.0256C251.668 83.4209 251.56 83.776 251.344 84.0909C251.131 84.4034 250.84 84.6496 250.471 84.8295C250.102 85.0095 249.681 85.0994 249.21 85.0994ZM253.12 85V84.3608L255.521 81.733C255.802 81.4252 256.034 81.1577 256.217 80.9304C256.399 80.7008 256.534 80.4853 256.621 80.2841C256.711 80.0805 256.756 79.8674 256.756 79.6449C256.756 79.3892 256.695 79.1679 256.572 78.9808C256.451 78.7938 256.285 78.6494 256.075 78.5476C255.864 78.4458 255.627 78.3949 255.364 78.3949C255.085 78.3949 254.841 78.4529 254.633 78.5689C254.427 78.6825 254.267 78.8423 254.153 79.0483C254.042 79.2543 253.987 79.4957 253.987 79.7727H253.148C253.148 79.3466 253.247 78.9725 253.443 78.6506C253.64 78.3286 253.907 78.0777 254.246 77.8977C254.587 77.7178 254.969 77.6278 255.393 77.6278C255.819 77.6278 256.196 77.7178 256.526 77.8977C256.855 78.0777 257.113 78.3203 257.3 78.6257C257.487 78.9311 257.58 79.2708 257.58 79.6449C257.58 79.9124 257.532 80.174 257.435 80.4297C257.34 80.683 257.174 80.9659 256.938 81.2784C256.703 81.5885 256.378 81.9673 255.961 82.4148L254.327 84.1619V84.2188H257.708V85H253.12ZM259.175 85V84.3608L261.575 81.733C261.857 81.4252 262.089 81.1577 262.271 80.9304C262.454 80.7008 262.589 80.4853 262.676 80.2841C262.766 80.0805 262.811 79.8674 262.811 79.6449C262.811 79.3892 262.75 79.1679 262.626 78.9808C262.506 78.7938 262.34 78.6494 262.129 78.5476C261.919 78.4458 261.682 78.3949 261.419 78.3949C261.14 78.3949 260.896 78.4529 260.688 78.5689C260.482 78.6825 260.322 78.8423 260.208 79.0483C260.097 79.2543 260.041 79.4957 260.041 79.7727H259.203C259.203 79.3466 259.301 78.9725 259.498 78.6506C259.694 78.3286 259.962 78.0777 260.3 77.8977C260.641 77.7178 261.024 77.6278 261.447 77.6278C261.874 77.6278 262.251 77.7178 262.58 77.8977C262.909 78.0777 263.167 78.3203 263.354 78.6257C263.541 78.9311 263.635 79.2708 263.635 79.6449C263.635 79.9124 263.586 80.174 263.489 80.4297C263.395 80.683 263.229 80.9659 262.992 81.2784C262.758 81.5885 262.432 81.9673 262.016 82.4148L260.382 84.1619V84.2188H263.763V85H259.175Z" fill="black"/>
<path fill-rule="evenodd" clip-rule="evenodd" d="M242.207 94C244.444 99.2977 249.554 103 255.5 103C261.446 103 266.556 99.2977 268.793 94H242.207Z" fill="#F5F5F5"/>
<rect x="245" y="66" width="5" height="1" fill="#D9D9D9"/>
<line x1="262.5" y1="62" x2="262.5" y2="70" stroke="#F5F5F5"/>
<line x1="265.5" y1="62" x2="265.5" y2="70" stroke="#F5F5F5"/>
<circle cx="264" cy="62" r="2" fill="#F5F5F5"/>
</svg>
